<svg width="929" height="61" viewBox="0 0 929 61" fill="none" xmlns="http://www.w3.org/2000/svg">
<path d="M926.5 54.5C926.5 56.71 924.71 58.5 922.5 58.5H897.62L886.53 57.06C886.24 57.02 885.96 57.02 885.67 57.04L868.74 58.5H810.99H753.24L718.87 57L695.49 58.5H579.99H523.76C522.78 58.5 521.83 58.14 521.1 57.49L518.04 54.76C516.58 53.46 514.39 53.4 512.87 54.63L509.17 57.61C508.46 58.18 507.57 58.5 506.66 58.5H464.49H233.49H176.12C175.87 58.5 175.61 58.48 175.36 58.43L168.81 57.17C168.24 57.06 167.65 57.08 167.09 57.22L162.4 58.39C162.08 58.47 161.76 58.51 161.43 58.51H146.86H117.98H60.23H32.05C31.59 58.51 31.14 58.43 30.7 58.28L18.66 53.98C17.81 53.68 16.89 53.67 16.04 53.96L7.75 56.75C5.16 57.62 2.48 55.69 2.48 52.96V6.5C2.48 4.29 4.27 2.5 6.48 2.5H35.93C36.97 2.5 37.98 2.91 38.73 3.64L40.57 5.44C41.56 6.41 42.99 6.8 44.33 6.46L59.76 2.62C60.08 2.54 60.4 2.5 60.73 2.5H117.99H233.18C233.39 2.5 233.6 2.52 233.8 2.55L261.57 6.91C261.98 6.97 262.39 6.97 262.8 6.91L290.93 2.55C291.13 2.52 291.34 2.5 291.54 2.5H348.98H464.48H695.48H810.98H827.2C827.94 2.5 828.67 2.71 829.3 3.1L832.85 5.29C833.6 5.75 834.48 5.95 835.35 5.87L868.72 2.51H909.71C910.9 2.51 912.03 3.05 912.78 3.97C913.78 5.2 915.42 5.72 916.95 5.28L921.36 4C923.92 3.26 926.48 5.18 926.48 7.84V54.51L926.5 54.5Z" fill="#897B57" stroke="#F8F1C4" style="fill:#897B57;fill:color(display-p3 0.5357 0.4824 0.3422);fill-opacity:1;stroke:#F8F1C4;stroke:color(display-p3 0.9725 0.9451 0.7686);stroke-opacity:1;" stroke-width="2" stroke-miterlimit="10"/>
<path d="M835.28 4.87C834.62 4.94 833.96 4.78 833.4 4.44L829.85 2.25C829.06 1.76 828.15 1.5 827.22 1.5H811H695.5H464.5H349H291.56C291.3 1.5 291.05 1.52 290.8 1.56L262.67 5.92C262.36 5.97 262.05 5.97 261.75 5.92L233.98 1.56C233.72 1.52 233.46 1.5 233.2 1.5H118.01H60.75C60.34 1.5 59.94 1.55 59.54 1.65L44.11 5.49C43.1 5.74 42.03 5.45 41.29 4.72L39.45 2.92C38.52 2.01 37.26 1.5 35.96 1.5H6.5C3.74 1.5 1.5 3.74 1.5 6.5V52.94C1.5 56.36 4.85 58.77 8.09 57.68L16.38 54.89C17.02 54.68 17.71 54.68 18.34 54.91L30.38 59.21C30.92 59.4 31.49 59.5 32.06 59.5H60.24H117.99H146.87H161.44C161.85 59.5 162.25 59.45 162.65 59.35L167.34 58.18C167.76 58.07 168.2 58.06 168.63 58.15L175.18 59.41C175.49 59.47 175.81 59.5 176.12 59.5H233.49H464.49H506.66C507.8 59.5 508.91 59.11 509.8 58.39L513.5 55.41C514.64 54.49 516.28 54.53 517.38 55.51L520.44 58.24C521.36 59.06 522.54 59.51 523.77 59.51H580H695.5H695.53H695.56L718.89 58.01L753.2 59.51H753.22H753.24H810.99H868.74H868.78H868.82L885.75 58.05C885.97 58.03 886.18 58.04 886.4 58.06L897.48 59.5H897.54H897.6H922.48C925.24 59.5 927.48 57.26 927.48 54.5V7.83C927.48 4.5 924.28 2.1 921.08 3.03L916.67 4.31C915.53 4.64 914.31 4.26 913.56 3.34C912.62 2.18 911.21 1.51 909.72 1.51H868.73H868.68H868.63L835.26 4.88L835.28 4.87Z" fill="#897B57" style="fill:#897B57;fill:color(display-p3 0.5357 0.4824 0.3422);fill-opacity:1;"/>
<path d="M833.4 4.44C833.96 4.78 834.62 4.94 835.28 4.87L835.26 4.88L868.63 1.51H868.68H868.73H909.72C911.21 1.51 912.62 2.18 913.56 3.34C914.31 4.26 915.53 4.64 916.67 4.31L921.08 3.03C924.28 2.1 927.48 4.5 927.48 7.83V54.5C927.48 57.26 925.24 59.5 922.48 59.5H897.6H897.54H897.48L886.4 58.06C886.18 58.04 885.97 58.03 885.75 58.05L868.82 59.51H868.78H868.74H810.99H753.24H753.22H753.2L718.89 58.01L695.56 59.51H695.53H695.5H580H523.77C522.54 59.51 521.36 59.06 520.44 58.24L517.38 55.51C516.28 54.53 514.64 54.49 513.5 55.41L509.8 58.39C508.91 59.11 507.8 59.5 506.66 59.5H464.49H233.49H176.12C175.81 59.5 175.49 59.47 175.18 59.41L168.63 58.15C168.2 58.06 167.76 58.07 167.34 58.18L162.65 59.35C162.25 59.45 161.85 59.5 161.44 59.5H146.87H117.99H60.24H32.06C31.49 59.5 30.92 59.4 30.38 59.21L18.34 54.91C17.71 54.68 17.02 54.68 16.38 54.89L8.09 57.68C4.85 58.77 1.5 56.36 1.5 52.94V6.5C1.5 3.74 3.74 1.5 6.5 1.5H35.96C37.26 1.5 38.52 2.01 39.45 2.92L41.29 4.72C42.03 5.45 43.1 5.74 44.11 5.49L59.54 1.65C59.94 1.55 60.34 1.5 60.75 1.5H118.01H233.2C233.46 1.5 233.72 1.52 233.98 1.56L261.75 5.92C262.05 5.97 262.36 5.97 262.67 5.92L290.8 1.56C291.05 1.52 291.3 1.5 291.56 1.5H349H464.5H695.5H811H827.22C828.15 1.5 829.06 1.76 829.85 2.25L833.4 4.44ZM833.4 4.44L832.87 5.29" stroke="#F8F1C4" style="stroke:#F8F1C4;stroke:color(display-p3 0.9725 0.9451 0.7686);stroke-opacity:1;" stroke-width="2" stroke-miterlimit="10"/>
</svg>
