<svg width="929" height="61" viewBox="0 0 929 61" fill="none" xmlns="http://www.w3.org/2000/svg">
<path d="M2.5 7.82999C2.5 5.16999 5.06 3.24999 7.62 3.98999L12.03 5.26999C13.56 5.70999 15.2 5.19999 16.2 3.95999C16.95 3.02999 18.08 2.49999 19.27 2.49999H60.26L93.63 5.85999C94.5 5.94999 95.38 5.74999 96.13 5.27999L99.68 3.08999C100.31 2.69999 101.04 2.48999 101.78 2.48999H637.45C637.65 2.48999 637.86 2.50999 638.06 2.53999L666.19 6.89999C666.6 6.95999 667.01 6.95999 667.42 6.89999L695.19 2.53999C695.39 2.50999 695.6 2.48999 695.81 2.48999H868.26C868.59 2.48999 868.91 2.52999 869.23 2.60999L884.66 6.44999C886.01 6.78999 887.43 6.39999 888.42 5.42999L890.26 3.62999C891.01 2.89999 892.01 2.48999 893.06 2.48999H922.51C924.72 2.48999 926.51 4.27999 926.51 6.48999V52.93C926.51 55.66 923.83 57.59 921.24 56.72L912.95 53.93C912.1 53.64 911.18 53.65 910.33 53.95L898.29 58.25C897.86 58.4 897.4 58.48 896.94 58.48H767.57C767.24 58.48 766.92 58.44 766.6 58.36L761.91 57.19C761.35 57.05 760.76 57.03 760.19 57.14L753.64 58.4C753.39 58.45 753.14 58.47 752.88 58.47H422.34C421.43 58.47 420.54 58.16 419.83 57.58L416.13 54.6C414.61 53.37 412.42 53.43 410.96 54.73L407.9 57.46C407.17 58.11 406.22 58.47 405.24 58.47H233.51L210.13 56.97L175.76 58.47H60.25L43.32 57.01C43.03 56.99 42.74 56.99 42.46 57.03L31.37 58.47H6.5C4.29 58.47 2.5 56.68 2.5 54.47V7.82999Z" fill="#3c4721" stroke="#3c4721" style="fill:#3c4721;fill:color(display-p3 0.2353 0.2784 0.1294);fill-opacity:1;stroke:#3c4721;stroke:color(display-p3 0.6039 0.7216 0.4275);stroke-opacity:1;" stroke-width="2" stroke-miterlimit="10"/>
<path d="M60.35 1.51H60.3H60.25H19.26C17.77 1.51 16.36 2.18 15.42 3.34C14.67 4.26 13.45 4.65 12.31 4.31L7.9 3.03C4.7 2.1 1.5 4.5 1.5 7.83V54.5C1.5 57.26 3.74 59.5 6.5 59.5H31.5L42.58 58.05C42.79 58.02 43.01 58.02 43.23 58.04L60.16 59.5H60.2H60.24H175.78L210.09 58L233.42 59.5H233.45H233.48H405.21C406.44 59.5 407.62 59.05 408.54 58.23L411.6 55.5C412.7 54.52 414.34 54.48 415.48 55.4L419.18 58.38C420.07 59.1 421.18 59.49 422.32 59.49H752.86C753.18 59.49 753.49 59.46 753.8 59.4L760.35 58.14C760.78 58.06 761.22 58.07 761.64 58.17L766.33 59.34C766.73 59.44 767.13 59.49 767.54 59.49H896.91C897.48 59.49 898.05 59.39 898.59 59.2L910.63 54.9C911.26 54.67 911.96 54.67 912.59 54.88L920.88 57.67C924.12 58.76 927.47 56.35 927.47 52.93V6.5C927.47 3.74 925.23 1.5 922.47 1.5H893.02C891.71 1.5 890.46 2.01 889.53 2.92L887.69 4.72C886.95 5.45 885.88 5.74 884.87 5.49L869.44 1.65C869.04 1.55 868.64 1.5 868.23 1.5H695.78C695.52 1.5 695.26 1.52 695 1.56L667.23 5.92C666.92 5.97 666.61 5.97 666.31 5.92L638.18 1.56C637.93 1.52 637.67 1.5 637.42 1.5H101.78C100.85 1.5 99.94 1.76 99.15 2.25L95.6 4.44C95.04 4.79 94.38 4.94 93.72 4.87L60.35 1.51Z" fill="#3c4721" style="fill:#3c4721;fill:color(display-p3 0.2353 0.2784 0.1294);fill-opacity:1;"/>
<path d="M95.6 4.44L99.15 2.25C99.94 1.76 100.85 1.5 101.78 1.5H637.42C637.67 1.5 637.93 1.52 638.18 1.56L666.31 5.92C666.61 5.97 666.92 5.97 667.23 5.92L695 1.56C695.26 1.52 695.52 1.5 695.78 1.5H868.23C868.64 1.5 869.04 1.55 869.44 1.65L884.87 5.49C885.88 5.74 886.95 5.45 887.69 4.72L889.53 2.92C890.46 2.01 891.71 1.5 893.02 1.5H922.47C925.23 1.5 927.47 3.74 927.47 6.5V52.93C927.47 56.35 924.12 58.76 920.88 57.67L912.59 54.88C911.96 54.67 911.26 54.67 910.63 54.9L898.59 59.2C898.05 59.39 897.48 59.49 896.91 59.49H767.54C767.13 59.49 766.73 59.44 766.33 59.34L761.64 58.17C761.22 58.07 760.78 58.06 760.35 58.14L753.8 59.4C753.49 59.46 753.18 59.49 752.86 59.49H422.32C421.18 59.49 420.07 59.1 419.18 58.38L415.48 55.4C414.34 54.48 412.7 54.52 411.6 55.5L408.54 58.23C407.62 59.05 406.44 59.5 405.21 59.5H233.48H233.45H233.42L210.09 58L175.78 59.5H60.24H60.2H60.16L43.23 58.04C43.01 58.02 42.79 58.02 42.58 58.05L31.5 59.5H6.5C3.74 59.5 1.5 57.26 1.5 54.5V7.83C1.5 4.5 4.7 2.1 7.9 3.03L12.31 4.31C13.45 4.65 14.67 4.26 15.42 3.34C16.36 2.18 17.77 1.51 19.26 1.51H60.25H60.3H60.35L93.72 4.87C94.38 4.94 95.04 4.79 95.6 4.44ZM95.6 4.44L96.13 5.29" stroke="#3c4721" style="stroke:#3c4721;stroke:color(display-p3 0.6039 0.7216 0.4275);stroke-opacity:1;" stroke-width="2" stroke-miterlimit="10"/>
</svg>
