<svg width="929" height="61" viewBox="0 0 929 61" fill="none" xmlns="http://www.w3.org/2000/svg">
<path d="M926.5 53.17C926.5 55.83 923.94 57.75 921.38 57.01L916.97 55.73C915.44 55.29 913.8 55.8 912.8 57.04C912.05 57.97 910.92 58.5 909.73 58.5H868.74L835.37 55.14C834.5 55.05 833.62 55.25 832.87 55.72L829.32 57.91C828.69 58.3 827.96 58.51 827.22 58.51H811H695.5H464.5H349H291.56C291.36 58.51 291.15 58.49 290.95 58.46L262.82 54.1C262.41 54.04 262 54.04 261.59 54.1L233.82 58.46C233.62 58.49 233.41 58.51 233.2 58.51H118.01H60.75C60.42 58.51 60.1 58.47 59.78 58.39L44.35 54.55C43 54.21 41.58 54.6 40.59 55.57L38.75 57.37C38 58.1 37 58.51 35.95 58.51H6.5C4.29 58.51 2.5 56.72 2.5 54.51V8.06C2.5 5.33 5.18 3.4 7.77 4.27L16.06 7.06C16.91 7.35 17.83 7.34 18.68 7.04L30.72 2.73C31.15 2.58 31.61 2.5 32.07 2.5H60.25H118H146.88H161.45C161.78 2.5 162.1 2.54 162.42 2.62L167.11 3.79C167.67 3.93 168.26 3.95 168.83 3.84L175.38 2.58C175.63 2.53 175.88 2.51 176.14 2.51H233.51H464.51H506.68C507.59 2.51 508.48 2.82 509.19 3.4L512.89 6.38C514.41 7.61 516.6 7.55 518.06 6.25L521.12 3.52C521.85 2.87 522.8 2.51 523.78 2.51H580.01H695.51L718.89 4.01L753.26 2.51H811.01H868.76L885.69 3.97C885.98 3.99 886.27 3.99 886.55 3.95L897.64 2.51H922.52C924.73 2.51 926.52 4.3 926.52 6.51V53.18L926.5 53.17Z" fill="#3c4721" stroke="#3c4721" style="fill:#3c4721;fill:color(display-p3 0.2353 0.2784 0.1294);fill-opacity:1;stroke:#3c4721;stroke:color(display-p3 0.6039 0.7216 0.4275);stroke-opacity:1;" stroke-width="2" stroke-miterlimit="10"/>
<path d="M868.65 59.49H868.7H868.75H909.74C911.23 59.49 912.64 58.82 913.58 57.66C914.33 56.74 915.55 56.35 916.69 56.69L921.1 57.97C924.3 58.9 927.5 56.5 927.5 53.17V6.5C927.5 3.74 925.26 1.5 922.5 1.5H897.62H897.56H897.5L886.42 2.95C886.21 2.98 885.99 2.98 885.77 2.96L868.84 1.5H868.8H868.76H811.01H753.26H753.22L718.91 3L695.58 1.5H695.55H695.52H580.02H523.79C522.56 1.5 521.38 1.95 520.46 2.77L517.4 5.5C516.3 6.48 514.66 6.52 513.52 5.6L509.82 2.62C508.93 1.9 507.82 1.51 506.68 1.51H464.51H233.51H176.14C175.82 1.51 175.51 1.54 175.2 1.6L168.65 2.86C168.22 2.94 167.78 2.93 167.36 2.83L162.67 1.66C162.27 1.56 161.87 1.51 161.46 1.51H146.89H118.01H60.26H32.08C31.51 1.51 30.94 1.61 30.4 1.8L18.36 6.1C17.73 6.33 17.03 6.33 16.4 6.12L8.09 3.32C4.85 2.24 1.5 4.65 1.5 8.06V54.5C1.5 57.26 3.74 59.5 6.5 59.5H35.95C37.26 59.5 38.51 58.99 39.44 58.08L41.28 56.28C42.02 55.55 43.09 55.26 44.1 55.51L59.53 59.35C59.93 59.45 60.33 59.5 60.74 59.5H118H233.19C233.45 59.5 233.71 59.48 233.97 59.44L261.74 55.08C262.05 55.03 262.36 55.03 262.66 55.08L290.79 59.44C291.04 59.48 291.3 59.5 291.55 59.5H348.99H464.49H695.49H810.99H827.21C828.14 59.5 829.05 59.24 829.84 58.75L833.39 56.56C833.95 56.21 834.61 56.06 835.27 56.13L868.64 59.49H868.65Z" fill="#3c4721" style="fill:#3c4721;fill:color(display-p3 0.2353 0.2784 0.1294);fill-opacity:1;"/>
<path d="M833.39 56.56L829.84 58.75C829.05 59.24 828.14 59.5 827.21 59.5H810.99H695.49H464.49H348.99H291.55C291.3 59.5 291.04 59.48 290.79 59.44L262.66 55.08C262.36 55.03 262.05 55.03 261.74 55.08L233.97 59.44C233.71 59.48 233.45 59.5 233.19 59.5H118H60.74C60.33 59.5 59.93 59.45 59.53 59.35L44.1 55.51C43.09 55.26 42.02 55.55 41.28 56.28L39.44 58.08C38.51 58.99 37.26 59.5 35.95 59.5H6.5C3.74 59.5 1.5 57.26 1.5 54.5V8.06C1.5 4.65 4.85 2.24 8.09 3.32L16.4 6.12C17.03 6.33 17.73 6.33 18.36 6.1L30.4 1.8C30.94 1.61 31.51 1.51 32.08 1.51H60.26H118.01H146.89H161.46C161.87 1.51 162.27 1.56 162.67 1.66L167.36 2.83C167.78 2.93 168.22 2.94 168.65 2.86L175.2 1.6C175.51 1.54 175.82 1.51 176.14 1.51H233.51H464.51H506.68C507.82 1.51 508.93 1.9 509.82 2.62L513.52 5.6C514.66 6.52 516.3 6.48 517.4 5.5L520.46 2.77C521.38 1.95 522.56 1.5 523.79 1.5H580.02H695.52H695.55H695.58L718.91 3L753.22 1.5H753.26H811.01H868.76H868.8H868.84L885.77 2.96C885.99 2.98 886.21 2.98 886.42 2.95L897.5 1.5H897.56H897.62H922.5C925.26 1.5 927.5 3.74 927.5 6.5V53.17C927.5 56.5 924.3 58.9 921.1 57.97L916.69 56.69C915.55 56.35 914.33 56.74 913.58 57.66C912.64 58.82 911.23 59.49 909.74 59.49H868.75H868.7H868.65H868.64L835.27 56.13C834.61 56.06 833.95 56.21 833.39 56.56ZM833.39 56.56L832.86 55.71" stroke="#3c4721" style="stroke:#3c4721;stroke:color(display-p3 0.6039 0.7216 0.4275);stroke-opacity:1;" stroke-width="2" stroke-miterlimit="10"/>
</svg>
