<svg width="1400" height="73" viewBox="0 0 1400 73" fill="none" xmlns="http://www.w3.org/2000/svg">
<path d="M0 73L35 70.5L57.5 73L70 70.5L76 73H116.25L167.5 70.5L175 73H262.5H306.25L341 71L350 73H700H813L827.5 71L837 73H875L942.5 68L955 73H1050H1137.5H1181.25L1203.5 68L1225 73H1312.5H1375L1387.5 71.5L1400 73L1398.5 60.5L1400 55V50.5V0H700H350H254L235 6.5L218.75 0H175H141.5L116.25 3L87.5 0H0V50.5L0 55.5L3 60.5L0 66.5V73Z" fill="#485a2d" style="fill:#485a2d;fill:color(display-p3 0.2824 0.3529 0.1765);fill-opacity:1;"/>
</svg>
