<svg width="929" height="61" viewBox="0 0 929 61" fill="none" xmlns="http://www.w3.org/2000/svg">
<path d="M2.50001 6.49999C2.50001 4.28999 4.29001 2.49999 6.50001 2.49999H31.38L42.47 3.93999C42.76 3.97999 43.04 3.97999 43.33 3.95999L60.26 2.49999H118.01H175.76L210.13 3.99999L233.51 2.49999H349.01H405.24C406.22 2.49999 407.17 2.85999 407.9 3.50999L410.96 6.23999C412.42 7.53999 414.61 7.59999 416.13 6.36999L419.83 3.38999C420.54 2.81999 421.43 2.49999 422.34 2.49999H464.51H695.51H752.88C753.13 2.49999 753.39 2.51999 753.64 2.56999L760.19 3.82999C760.76 3.93999 761.35 3.91999 761.91 3.77999L766.6 2.60999C766.92 2.52999 767.24 2.48999 767.57 2.48999H782.14H811.02H868.77H896.95C897.41 2.48999 897.86 2.56999 898.3 2.71999L910.34 7.01999C911.19 7.31999 912.11 7.32999 912.96 7.03999L921.25 4.24999C923.84 3.37999 926.52 5.30999 926.52 8.03999V54.48C926.52 56.69 924.73 58.48 922.52 58.48H893.07C892.03 58.48 891.02 58.07 890.27 57.34L888.43 55.54C887.44 54.57 886.01 54.18 884.67 54.52L869.24 58.36C868.92 58.44 868.6 58.48 868.27 58.48H811.01H695.82C695.61 58.48 695.4 58.46 695.2 58.43L667.43 54.07C667.02 54.01 666.61 54.01 666.2 54.07L638.07 58.43C637.87 58.46 637.66 58.48 637.46 58.48H580.02H464.52H233.52H118.02H101.8C101.06 58.48 100.33 58.27 99.7 57.88L96.15 55.69C95.4 55.23 94.52 55.03 93.65 55.11L60.28 58.47H19.26C18.07 58.47 16.94 57.93 16.19 57.01C15.19 55.78 13.55 55.26 12.02 55.7L7.61001 56.98C5.05001 57.72 2.49001 55.8 2.49001 53.14V6.49999H2.50001Z" fill="#897B57" stroke="#F8F1C4" style="fill:#897B57;fill:color(display-p3 0.5357 0.4824 0.3422);fill-opacity:1;stroke:#F8F1C4;stroke:color(display-p3 0.9725 0.9451 0.7686);stroke-opacity:1;" stroke-width="2" stroke-miterlimit="10"/>
<path d="M93.72 56.13C94.38 56.06 95.04 56.22 95.6 56.56L99.15 58.75C99.94 59.24 100.85 59.5 101.78 59.5H118H233.5H464.5H580H637.44C637.7 59.5 637.95 59.48 638.2 59.44L666.33 55.08C666.64 55.03 666.95 55.03 667.25 55.08L695.02 59.44C695.28 59.48 695.54 59.5 695.8 59.5H810.99H868.25C868.66 59.5 869.06 59.45 869.46 59.35L884.89 55.51C885.9 55.26 886.97 55.55 887.71 56.28L889.55 58.08C890.48 58.99 891.74 59.5 893.04 59.5H922.49C925.25 59.5 927.49 57.26 927.49 54.5V8.05999C927.49 4.63999 924.14 2.22999 920.9 3.31999L912.61 6.10999C911.97 6.31999 911.28 6.31999 910.65 6.08999L898.61 1.78999C898.07 1.59999 897.5 1.49999 896.93 1.49999H868.75H811H782.12H767.55C767.14 1.49999 766.74 1.54999 766.34 1.64999L761.65 2.81999C761.23 2.92999 760.79 2.93999 760.36 2.84999L753.81 1.58999C753.5 1.52999 753.18 1.49999 752.87 1.49999H695.5H464.5H422.33C421.19 1.49999 420.08 1.88999 419.19 2.60999L415.49 5.58999C414.35 6.50999 412.71 6.46999 411.61 5.48999L408.55 2.75999C407.63 1.93999 406.45 1.48999 405.22 1.48999H348.99H233.49H233.46H233.43L210.1 2.98999L175.79 1.48999H175.77H175.75H118H60.25H60.21H60.17L43.24 2.94999C43.02 2.96999 42.81 2.95999 42.59 2.93999L31.51 1.49999H31.45H31.39H6.5C3.74 1.49999 1.5 3.73999 1.5 6.49999V53.17C1.5 56.5 4.7 58.9 7.9 57.97L12.31 56.69C13.45 56.36 14.67 56.74 15.42 57.66C16.36 58.82 17.77 59.49 19.26 59.49H60.25H60.3H60.35L93.72 56.12V56.13Z" fill="#897B57" style="fill:#897B57;fill:color(display-p3 0.5357 0.4824 0.3422);fill-opacity:1;"/>
<path d="M95.6 56.56C95.04 56.22 94.38 56.06 93.72 56.13V56.12L60.35 59.49H60.3H60.25H19.26C17.77 59.49 16.36 58.82 15.42 57.66C14.67 56.74 13.45 56.36 12.31 56.69L7.9 57.97C4.7 58.9 1.5 56.5 1.5 53.17V6.49999C1.5 3.73999 3.74 1.49999 6.5 1.49999H31.39H31.45H31.51L42.59 2.93999C42.81 2.95999 43.02 2.96999 43.24 2.94999L60.17 1.48999H60.21H60.25H118H175.75H175.77H175.79L210.1 2.98999L233.43 1.48999H233.46H233.49H348.99H405.22C406.45 1.48999 407.63 1.93999 408.55 2.75999L411.61 5.48999C412.71 6.46999 414.35 6.50999 415.49 5.58999L419.19 2.60999C420.08 1.88999 421.19 1.49999 422.33 1.49999H464.5H695.5H752.87C753.18 1.49999 753.5 1.52999 753.81 1.58999L760.36 2.84999C760.79 2.93999 761.23 2.92999 761.65 2.81999L766.34 1.64999C766.74 1.54999 767.14 1.49999 767.55 1.49999H782.12H811H868.75H896.93C897.5 1.49999 898.07 1.59999 898.61 1.78999L910.65 6.08999C911.28 6.31999 911.97 6.31999 912.61 6.10999L920.9 3.31999C924.14 2.22999 927.49 4.63999 927.49 8.05999V54.5C927.49 57.26 925.25 59.5 922.49 59.5H893.04C891.74 59.5 890.48 58.99 889.55 58.08L887.71 56.28C886.97 55.55 885.9 55.26 884.89 55.51L869.46 59.35C869.06 59.45 868.66 59.5 868.25 59.5H810.99H695.8C695.54 59.5 695.28 59.48 695.02 59.44L667.25 55.08C666.95 55.03 666.64 55.03 666.33 55.08L638.2 59.44C637.95 59.48 637.7 59.5 637.44 59.5H580H464.5H233.5H118H101.78C100.85 59.5 99.94 59.24 99.15 58.75L95.6 56.56ZM95.6 56.56L96.13 55.71" stroke="#F8F1C4" style="stroke:#F8F1C4;stroke:color(display-p3 0.9725 0.9451 0.7686);stroke-opacity:1;" stroke-width="2" stroke-miterlimit="10"/>
</svg>
