<svg width="529" height="47" viewBox="0 0 529 47" fill="none" xmlns="http://www.w3.org/2000/svg">
<path opacity="0.6" d="M0 47L13.225 45.3904L21.7268 47L26.45 45.3904L28.7171 47H43.9259L63.2911 45.3904L66.125 47H99.1875H115.719L128.849 45.7123L132.25 47H264.5H307.198L312.677 45.7123L316.266 47H330.625L356.13 43.7808L360.854 47H396.75H429.812H446.344L454.751 43.7808L462.875 47H495.938H519.554L524.277 46.0342L529 47L528.433 38.9521L529 35.411V32.5137V0H264.5H132.25H95.9757L88.7964 4.18493L82.6562 0H66.125H53.4668L43.9259 1.93151L33.0625 0H0V32.5137L0 35.7329L1.13357 38.9521L0 42.8151V47Z" fill="#3c4721" style="fill:#3c4721;fill:color(display-p3 0.2353 0.2784 0.1294);fill-opacity:1;"/>
</svg>
