<svg width="596" height="378" viewBox="0 0 596 378" fill="none" xmlns="http://www.w3.org/2000/svg">
<path d="M1.59953 5.18014C0.80503 2.60713 2.72859 0 5.42147 0H149H223.5L245.33 2.31035C245.718 2.35148 246.111 2.33543 246.495 2.2627L258.074 0.0698624C258.319 0.0233897 258.568 0 258.818 0H298H446.302C446.764 0 447.222 0.0799325 447.657 0.236256L452.3 1.90731C453.138 2.20872 454.052 2.2221 454.898 1.94532L460.239 0.198246C460.641 0.0669113 461.06 0 461.483 0H521.5L552.356 2.26593C553.292 2.3347 554.223 2.07181 554.985 1.5233L556.055 0.753365C556.736 0.263537 557.553 0 558.391 0H588.322C591.557 0 593.454 3.64088 591.6 6.29217L589.599 9.15429C588.382 10.8949 588.737 13.2832 590.409 14.594L594.468 17.7779C595.435 18.5362 596 19.6967 596 20.9254V47.25V70.4321C596 70.7265 595.968 71.0199 595.903 71.3072L593.763 80.852C593.509 81.9862 593.761 83.1748 594.453 84.1087L595.214 85.1356C595.724 85.8247 596 86.6596 596 87.5173V94.5V189V236.25V283.126C596 283.375 595.977 283.623 595.931 283.868L592.25 303.365C592.115 304.079 592.178 304.816 592.43 305.497L595.751 314.459C595.916 314.904 596 315.375 596 315.849V330.09C596 330.527 595.928 330.961 595.788 331.375L592.891 339.918C592.377 341.433 592.815 343.107 594.004 344.177L594.675 344.781C595.518 345.54 596 346.621 596 347.755V354.375V374C596 376.209 594.209 378 592 378H493.48C493.261 378 493.042 377.982 492.825 377.946L462.551 372.924C462.293 372.881 462.032 372.864 461.771 372.872L298 378H228.115L208.705 375.284C208.46 375.249 208.212 375.238 207.964 375.25L149.848 377.96C149.289 377.987 148.73 377.895 148.209 377.692L138.659 373.969C137.291 373.435 135.814 374.445 135.814 375.913C135.814 377.066 134.88 378 133.727 378H46.6165C46.3069 378 45.9982 377.964 45.6968 377.893L25.2637 373.065C24.6908 372.93 24.0952 372.923 23.5192 373.044L4.82475 376.983C2.33836 377.507 0 375.61 0 373.069V362.798C0 361.908 0.393885 361.063 1.07597 360.49C2.316 359.449 2.51188 357.614 1.5196 356.334L0.83917 355.457C0.295218 354.756 0 353.893 0 353.006V330.75L3.18892 303.019C3.25965 302.404 3.18665 301.781 2.97568 301.199L0.239434 293.65C0.0810239 293.213 0 292.752 0 292.287V283.5V191.027C0 189.753 0.607331 188.555 1.63524 187.801L4.00921 186.061C5.19471 185.192 5.80811 183.743 5.60672 182.287L0 141.75V95.3003C0 94.772 0.10466 94.2489 0.307938 93.7613L5.13388 82.1842C5.63522 80.9815 5.51935 79.61 4.82334 78.5085L0.618478 71.8538C0.214452 71.2144 0 70.4735 0 69.7172V47.25V26.5796C0 25.2896 0.644857 24.0849 1.71837 23.3696L2.05502 23.1452C4.00609 21.8451 4.1829 19.0441 2.41079 17.5089C1.03973 16.3212 0.784876 14.2908 1.81987 12.8011L2.18456 12.2761C2.8864 11.266 3.08442 9.98903 2.72151 8.81373L1.59953 5.18014Z" fill="#485a2d" style="fill:#485a2d;fill:color(display-p3 0.2824 0.3529 0.1765);fill-opacity:1;"/>
</svg>
