<svg width="455" height="672" viewBox="0 0 455 672" fill="none" xmlns="http://www.w3.org/2000/svg">
<path d="M453 1H440L439 4L425 1L417 8.5L396.375 1H339.75H321.5L318 3L303.5 1H283.125H226.5L205.5 4.5L188 1H113.25L84.5 4.5L56.625 1L32.5 0.5L28 2L22.5 1L18 3L14.1562 1H0V25.606L2.5 29.5V34.5L0.5 41L0 50.2121V99.4242L4 112.415L0 121.908V224.581L2.5 246.315L6.5 254.5V268.49L0 283.788V295.279V373.721V672H15.5L27 663.007L45 670.002L56.625 672L68.5 670.002L70.7812 672H84.9375H113.25H140.5L156.5 669.002L169.875 672H226.5H283.125H308.5L331.5 665.505L339.75 672H376L385.5 669.002L396.375 672H453V336.5L455 140L446 130V118L455 102.5L453 72.5L450 63.5L453 51.5L451.5 36.5L453 1Z" fill="#485a2d" style="fill:#485a2d;fill:color(display-p3 0.2824 0.3529 0.1765);fill-opacity:1;"/>
</svg>
