<svg preserveAspectRatio="none" viewBox="0 0 453 601" fill="none" xmlns="http://www.w3.org/2000/svg">
<path d="M0 4H226.5L279 0L298 4L303 0L314 4H339.75H396.375L398 2L404 4H424.688L437 0L443 4H453V28L449 41L453 50.5V153.25L450.5 175L442.5 196V210L453 212.5V224V302.5V601H437.5L426 592L408 599L396.375 601L384.5 599L382.219 601H368.062H339.75H312.5L296.5 598L283.125 601H226.5H169.875H144.5L121.5 594.5L113.25 601H77L67.5 598L56.625 601H0V4Z" fill="#485a2d" style="fill:#485a2d;fill:color(display-p3 0.2824 0.3529 0.1765);fill-opacity:1;"/>
</svg>
