<svg width="328" height="46" viewBox="0 0 328 46" fill="none" xmlns="http://www.w3.org/2000/svg">
<path d="M0 4.82608C0 2.61695 1.79086 0.826087 4 0.826087H19.7745H28.9775C29.4303 0.826087 29.8799 0.902989 30.307 1.05351L33.9212 2.32724C34.9441 2.68773 36.0695 2.6174 37.0396 2.13237L38.617 1.34369C39.2932 1.00556 40.0515 0.866019 40.8038 0.941253L42.6433 1.12519C43.383 1.19917 44.1269 1.03253 44.7645 0.650013V0.650013C45.4641 0.230265 46.2896 0.0716405 47.0949 0.202234L56.8974 1.79183C57.1716 1.83628 57.4496 1.85207 57.7271 1.83892L79.0978 0.826087H118.647H127.807C128.237 0.826087 128.664 0.895399 129.072 1.03135L136.598 3.54003C137.721 3.91425 138.952 3.77215 139.96 3.15193L142.775 1.41945C143.405 1.0315 144.131 0.826087 144.871 0.826087H158.196H315.778C316.04 0.826087 316.197 1.11813 316.051 1.33616V1.33616C315.883 1.58853 316.118 1.91447 316.411 1.83467L319.892 0.885254C320.036 0.845984 320.184 0.826087 320.334 0.826087H323.003C323.273 0.826087 323.539 0.888911 323.78 1.00958V1.00958C324.08 1.15942 324.416 1.21945 324.749 1.18245L324.925 1.16292C326.454 0.99308 327.727 2.32068 327.493 3.84079L327.249 5.42456C327.171 5.93261 327.204 6.45155 327.345 6.9458L327.803 8.54829C327.905 8.90566 327.957 9.27551 327.957 9.64718V22.3043V39.8111C327.957 42.0091 326.183 43.7953 323.985 43.811L285.173 44.0882C284.784 44.091 284.397 44.0371 284.024 43.9283L282.951 43.6151C282.396 43.4533 281.813 43.4136 281.241 43.4988L277.255 44.0924L268.411 44.5679C267.91 44.5949 267.408 44.5272 266.931 44.3684L265.093 43.7558C264.338 43.504 263.525 43.4834 262.758 43.6965L257.404 45.1836C256.81 45.3488 256.185 45.3741 255.578 45.2575L246.277 43.4688C245.934 43.4029 245.585 43.3822 245.237 43.407L240.829 43.7219C240.268 43.7619 239.705 43.6833 239.177 43.4912L236.421 42.489C235.774 42.2539 235.078 42.1896 234.4 42.3021L225.795 43.7287C225.579 43.7646 225.36 43.7826 225.141 43.7826H204.973H163.978L142.5 43.3696L123.058 44.1631C122.55 44.1839 122.056 43.991 121.696 43.6312V43.6312C121.274 43.2087 120.671 43.0203 120.083 43.1272L117.327 43.6283C116.768 43.73 116.193 43.7113 115.641 43.5734L114.213 43.2163C113.532 43.0461 112.819 43.058 112.144 43.2508L110.821 43.6287C110.464 43.7308 110.094 43.7826 109.722 43.7826H99.5435H78.8652C78.3371 43.7826 77.8142 43.678 77.3268 43.4749L74.1919 42.1687C73.4847 41.8741 72.7077 41.7887 71.9533 41.9228L61.8392 43.7209C61.6081 43.7619 61.3738 43.7826 61.1391 43.7826H40.9946H4.00001C1.79087 43.7826 0 41.9917 0 39.7826V4.82608Z" fill="#3A4A20"/>
</svg>
