<svg width="329" height="44" viewBox="0 0 329 44" fill="none" xmlns="http://www.w3.org/2000/svg">
<g clip-path="url(#clip0_2140_9504)">
<path d="M0 3.88851C0 2.03665 5.53042 0.535401 12.3526 0.535401H19.8374H27.4315C28.8986 0.535401 30.2842 0.718773 31.1876 1.03255L32.2553 1.40339C33.8562 1.95925 37.0283 1.89026 38.2827 1.27233L38.7541 1.04013C39.3437 0.749564 40.6388 0.620201 41.7876 0.733409C42.9853 0.851425 44.3309 0.701793 44.8627 0.387458C45.4678 0.0296773 47.0798 -0.107673 48.3294 0.0920453L54.6329 1.09932C56.4792 1.39431 58.6507 1.50207 60.7619 1.40348L78.3099 0.583947C79.0017 0.551647 79.7025 0.535401 80.4043 0.535401H119.024H125.333C127.57 0.535401 129.69 0.80642 131.115 1.27452L132.821 1.83482C135.579 2.74066 140.882 2.54532 142.651 1.47274C143.591 0.902477 145.678 0.535401 147.98 0.535401H158.699H316.142C316.795 0.535401 317.289 0.69629 317.171 0.87083C316.986 1.14432 318.209 1.31969 318.937 1.12405L320.606 0.675558C320.94 0.585768 321.391 0.535401 321.861 0.535401H323.755C324.179 0.535401 324.569 0.59796 324.774 0.698684C325.057 0.838519 325.681 0.898785 326.227 0.839073L326.627 0.795244C327.739 0.673506 328.942 0.904257 328.891 1.22942L328.171 5.84347L329 8.70166V21.7676V39.6468C329 41.4987 323.47 43 316.648 43H287.875H282.463H279.65H272.232H266.232H257.031H247.345H240.742H236.469H226.187H205.625H164.5H144.415H123.56H121.319H116.849H113.716H110.633H99.86H78.3136H74.0249H61.6876H41.125H12.3526C5.53042 43 0 41.4987 0 39.6468V3.88851Z" fill="#627440"/>
<path d="M1 4.88851C1 3.03665 6.4968 1.5354 13.2775 1.5354H20.7168H28.2647C29.7229 1.5354 31.1001 1.71877 31.9981 2.03255L33.0592 2.40339C34.6504 2.95925 37.8032 2.89026 39.05 2.27233L39.5185 2.04013C40.1045 1.74956 41.3918 1.6202 42.5336 1.73341C43.724 1.85143 45.0614 1.70179 45.59 1.38746C46.1914 1.02968 47.7936 0.892327 49.0356 1.09205L55.3008 2.09932C57.1358 2.39431 59.2942 2.50207 61.3925 2.40348L78.8338 1.58395C79.5215 1.55165 80.218 1.5354 80.9156 1.5354H119.301H125.571C127.794 1.5354 129.902 1.80642 131.318 2.27452L133.014 2.83482C135.755 3.74066 141.026 3.54532 142.783 2.47274C143.718 1.90248 145.793 1.5354 148.08 1.5354H158.734H315.22C315.87 1.5354 316.36 1.69629 316.243 1.87083C316.059 2.14432 317.274 2.31969 317.998 2.12405L319.657 1.67556C319.989 1.58577 320.437 1.5354 320.905 1.5354H322.787C323.208 1.5354 323.596 1.59796 323.799 1.69868C324.081 1.83852 324.701 1.89878 325.243 1.83907L325.641 1.79524C326.746 1.67351 327.943 1.90426 327.892 2.22942L327.176 6.84347L328 9.70166V22.7676V40.6468C328 42.4987 322.503 44 315.723 44H287.125H281.745H278.95H271.577H265.613H256.469H246.841H240.278H236.031H225.812H205.375H164.5H144.537H123.809H121.581H117.138H114.025H110.961H100.253H78.8375H74.5749H62.3126H41.875H13.2775C6.4968 44 1 42.4987 1 40.6468V4.88851Z" fill="#CCDA8E"/>
<path d="M1 4.88851C1 3.03665 6.4968 1.5354 13.2775 1.5354H20.7168H28.2647C29.7229 1.5354 31.1001 1.71877 31.9981 2.03255L33.0592 2.40339C34.6504 2.95925 37.8032 2.89026 39.05 2.27233L39.5185 2.04013C40.1045 1.74956 41.3918 1.6202 42.5336 1.73341C43.724 1.85143 45.0614 1.70179 45.59 1.38746C46.1914 1.02968 47.7936 0.892327 49.0356 1.09205L55.3008 2.09932C57.1358 2.39431 59.2942 2.50207 61.3925 2.40348L78.8338 1.58395C79.5215 1.55165 80.218 1.5354 80.9156 1.5354H119.301H125.571C127.794 1.5354 129.902 1.80642 131.318 2.27452L133.014 2.83482C135.755 3.74066 141.026 3.54532 142.783 2.47274C143.718 1.90248 145.793 1.5354 148.08 1.5354H158.734H315.22C315.87 1.5354 316.36 1.69629 316.243 1.87083C316.059 2.14432 317.274 2.31969 317.998 2.12405L319.657 1.67556C319.989 1.58577 320.437 1.5354 320.905 1.5354H322.787C323.208 1.5354 323.596 1.59796 323.799 1.69868C324.081 1.83852 324.701 1.89878 325.243 1.83907L325.641 1.79524C326.746 1.67351 327.943 1.90426 327.892 2.22942L327.176 6.84347L328 9.70166V22.7676V40.6468C328 42.4987 322.503 44 315.723 44H287.125H281.745H278.95H271.577H265.613H256.469H246.841H240.278H236.031H225.812H205.375H164.5H144.537H123.809H121.581H117.138H114.025H110.961H100.253H78.8375H74.5749H62.3126H41.875H13.2775C6.4968 44 1 42.4987 1 40.6468V4.88851Z" fill="url(#paint0_linear_2140_9504)"/>
</g>
<defs>
<linearGradient id="paint0_linear_2140_9504" x1="76" y1="-5.31995e-08" x2="76.5" y2="43.5" gradientUnits="userSpaceOnUse">
<stop stop-color="white" stop-opacity="0.6"/>
<stop offset="0.0611513" stop-color="white" stop-opacity="0.316973"/>
<stop offset="0.16104" stop-color="white" stop-opacity="0"/>
</linearGradient>
<clipPath id="clip0_2140_9504">
<rect width="329" height="44" fill="white"/>
</clipPath>
</defs>
</svg>
