<svg width="425" height="110" viewBox="0 0 425 110" fill="none" xmlns="http://www.w3.org/2000/svg">
<g filter="url(#filter0_di_424_1344)">
<path d="M2 6C2 3.79086 3.79086 2 6 2H340L361.204 4.82718C362.046 4.93947 362.902 4.78069 363.648 4.37385L366.749 2.68261C367.558 2.24114 368.495 2.0928 369.401 2.26271L383.225 4.85465C383.737 4.95063 384.262 4.94572 384.772 4.8402L398.099 2.08296C398.366 2.0278 398.637 2 398.909 2H419C421.209 2 423 3.79086 423 6V53.3273C423 53.7726 422.926 54.2149 422.78 54.6357L419.319 64.6337C418.818 66.0811 419.188 67.6876 420.271 68.7706L421.461 69.9613C422.421 70.9207 422.828 72.3011 422.544 73.6278L418.729 91.4326C418.579 92.1314 418.619 92.8576 418.845 93.5356L421.245 100.735C422.108 103.325 420.181 106 417.45 106H212.5H171.508C170.847 106 170.195 105.836 169.612 105.522L165.553 103.336C164.564 102.803 163.396 102.711 162.335 103.083L154.946 105.669C154.325 105.886 153.66 105.947 153.01 105.846L132.093 102.592C131.7 102.531 131.3 102.529 130.906 102.586L107.534 105.959C107.345 105.986 107.154 106 106.963 106H6C3.79086 106 2 104.209 2 102V6Z" fill="#3c4721" style="fill:#3c4721;fill:color(display-p3 0.2353 0.2784 0.1294);fill-opacity:1;"/>
<path d="M340.132 1.00877L340.066 1H340H6C3.23858 1 1 3.23858 1 6V102C1 104.761 3.23858 107 6 107H106.963C107.202 107 107.441 106.983 107.677 106.949L131.049 103.575C131.344 103.533 131.644 103.534 131.939 103.58L152.856 106.834C153.669 106.96 154.5 106.884 155.276 106.613L162.666 104.027C163.461 103.748 164.337 103.817 165.079 104.217L169.138 106.402C169.867 106.795 170.681 107 171.508 107H212.5H417.45C420.863 107 423.273 103.657 422.194 100.419L419.794 93.2194C419.624 92.7109 419.594 92.1662 419.707 91.6421L423.522 73.8373C423.877 72.1789 423.368 70.4534 422.168 69.2542L421.461 69.9613L422.168 69.2541L420.978 68.0635C420.165 67.2512 419.888 66.0464 420.264 64.9609L423.725 54.9628C423.907 54.4368 424 53.884 424 53.3273V6C424 3.23858 421.761 1 419 1H398.909C398.569 1 398.23 1.03475 397.896 1.1037L384.57 3.86094C384.187 3.94008 383.793 3.94376 383.409 3.87178L369.585 1.27983C368.453 1.06745 367.281 1.25287 366.27 1.80471L363.169 3.49596C362.61 3.80109 361.968 3.92017 361.336 3.83595L340.132 1.00877Z" stroke="#CDB984" style="stroke:#CDB984;stroke:color(display-p3 0.8034 0.7254 0.5187);stroke-opacity:1;" stroke-width="2"/>
</g>
<defs>
<filter id="filter0_di_424_1344" x="0" y="0" width="425" height="112" filterUnits="userSpaceOnUse" color-interpolation-filters="sRGB">
<feFlood flood-opacity="0" result="BackgroundImageFix"/>
<feColorMatrix in="SourceAlpha" type="matrix" values="0 0 0 0 0 0 0 0 0 0 0 0 0 0 0 0 0 0 127 0" result="hardAlpha"/>
<feOffset dy="2"/>
<feComposite in2="hardAlpha" operator="out"/>
<feColorMatrix type="matrix" values="0 0 0 0 0.803922 0 0 0 0 0.72549 0 0 0 0 0.517647 0 0 0 1 0"/>
<feBlend mode="normal" in2="BackgroundImageFix" result="effect1_dropShadow_424_1344"/>
<feBlend mode="normal" in="SourceGraphic" in2="effect1_dropShadow_424_1344" result="shape"/>
<feColorMatrix in="SourceAlpha" type="matrix" values="0 0 0 0 0 0 0 0 0 0 0 0 0 0 0 0 0 0 127 0" result="hardAlpha"/>
<feOffset dy="4"/>
<feGaussianBlur stdDeviation="2"/>
<feComposite in2="hardAlpha" operator="arithmetic" k2="-1" k3="1"/>
<feColorMatrix type="matrix" values="0 0 0 0 0.240641 0 0 0 0 0.211607 0 0 0 0 0.136947 0 0 0 0.2 0"/>
<feBlend mode="normal" in2="shape" result="effect2_innerShadow_424_1344"/>
</filter>
</defs>
</svg>
