<svg width="190" height="67" viewBox="0 0 190 67" fill="none" xmlns="http://www.w3.org/2000/svg">
<g filter="url(#filter0_di_155_1007)">
<path d="M2.26355 30.8466C2.26355 15.1065 15.0234 2.34662 30.7635 2.34662H94.7635H122.688C125.082 2.34662 127.47 2.56487 129.824 2.99868L130.27 3.08097C134.809 3.91734 139.463 3.89663 143.994 3.01992C146.308 2.57208 148.66 2.34662 151.017 2.34662H155.224H162.459C176.158 2.34662 187.264 13.452 187.264 27.1511V37.5263C187.264 49.5773 177.494 59.3466 165.443 59.3466H160.655C159.807 59.3466 158.975 59.1147 158.249 58.6759L157.271 58.0844C156.062 57.353 154.513 57.5183 153.485 58.4886C152.901 59.0397 152.129 59.3466 151.326 59.3466H141.014H126.924C125.141 59.3466 123.377 58.9707 121.748 58.2434C119.006 57.0187 115.918 56.8061 113.034 57.6433L110.055 58.5079C108.139 59.0643 106.153 59.3466 104.157 59.3466H94.7635H71.6385H61.8036C60.6569 59.3466 59.5153 59.1949 58.4085 58.8953L52.7531 57.3647C51.5759 57.0461 50.319 57.4056 49.4884 58.2986C48.8667 58.9669 47.995 59.3466 47.0822 59.3466H30.7635C15.0234 59.3466 2.26355 46.5867 2.26355 30.8466Z" fill="#D3DCD6" style="fill:#D3DCD6;fill:color(display-p3 0.8275 0.8627 0.8392);fill-opacity:1;"/>
<path d="M30.7635 1.34662C14.4711 1.34662 1.26355 14.5542 1.26355 30.8466C1.26355 47.139 14.4711 60.3466 30.7635 60.3466H47.0822C48.2728 60.3466 49.4097 59.8514 50.2206 58.9797C50.7985 58.3584 51.6728 58.1083 52.4918 58.3299L58.1473 59.8606C59.3393 60.1832 60.5687 60.3466 61.8036 60.3466H71.6385H94.7635H104.157C106.247 60.3466 108.327 60.0509 110.334 59.4683L113.312 58.6037C115.97 57.8324 118.814 58.0283 121.341 59.1565C123.098 59.9411 125 60.3466 126.924 60.3466H141.014H151.326C152.384 60.3466 153.402 59.9421 154.171 59.2158C154.872 58.554 155.929 58.4413 156.754 58.9401L157.732 59.5316C158.614 60.0648 159.624 60.3466 160.655 60.3466H165.443C178.047 60.3466 188.264 50.1296 188.264 37.5263V27.1511C188.264 12.8997 176.71 1.34662 162.459 1.34662H155.224H151.017C148.596 1.34662 146.181 1.57818 143.804 2.03813C139.396 2.89113 134.867 2.91128 130.452 2.09753L130.005 2.01524C127.592 1.57042 125.142 1.34662 122.688 1.34662H94.7635H30.7635Z" stroke="#3E5A59" style="stroke:#3E5A59;stroke:color(display-p3 0.2431 0.3529 0.3490);stroke-opacity:1;" stroke-width="2"/>
</g>
<defs>
<filter id="filter0_di_155_1007" x="0.26355" y="0.346619" width="189" height="65.8503" filterUnits="userSpaceOnUse" color-interpolation-filters="sRGB">
<feFlood flood-opacity="0" result="BackgroundImageFix"/>
<feColorMatrix in="SourceAlpha" type="matrix" values="0 0 0 0 0 0 0 0 0 0 0 0 0 0 0 0 0 0 127 0" result="hardAlpha"/>
<feOffset dy="4.85031"/>
<feComposite in2="hardAlpha" operator="out"/>
<feColorMatrix type="matrix" values="0 0 0 0 0.243137 0 0 0 0 0.352941 0 0 0 0 0.34902 0 0 0 1 0"/>
<feBlend mode="normal" in2="BackgroundImageFix" result="effect1_dropShadow_155_1007"/>
<feBlend mode="normal" in="SourceGraphic" in2="effect1_dropShadow_155_1007" result="shape"/>
<feColorMatrix in="SourceAlpha" type="matrix" values="0 0 0 0 0 0 0 0 0 0 0 0 0 0 0 0 0 0 127 0" result="hardAlpha"/>
<feOffset dy="3"/>
<feGaussianBlur stdDeviation="1"/>
<feComposite in2="hardAlpha" operator="arithmetic" k2="-1" k3="1"/>
<feColorMatrix type="matrix" values="0 0 0 0 1 0 0 0 0 1 0 0 0 0 1 0 0 0 1 0"/>
<feBlend mode="normal" in2="shape" result="effect2_innerShadow_155_1007"/>
</filter>
</defs>
</svg>
