<svg width="334" height="601" viewBox="0 0 334 601" fill="none" xmlns="http://www.w3.org/2000/svg">
<path d="M334 4H167L128.291 0L114.283 4L110.596 0L102.486 4H83.5H41.75L40.5519 2L36.1281 4H20.875L11.7969 0L7.37308 4H0V28L2.94922 41L0 50.5V153.25L1.84329 175L7.74173 196V210L0 212.5V224V302.5V601H11.4283L19.9073 592L33.1788 599L41.75 601L50.5055 599L52.1875 601H62.625H83.5H103.592L115.389 598L125.25 601H167H208.75H227.459L244.417 594.5L250.5 601H277.227L284.232 598L292.25 601H334V4Z" fill="#485A2D"/>
</svg>
