<svg width="338" height="143" viewBox="0 0 338 143" fill="none" xmlns="http://www.w3.org/2000/svg">
<g filter="url(#filter0_i_2032_3335)">
<path d="M142.42 0.999983L142.451 0.999983L142.481 1.0018L176.032 3.02803L228.891 1.00073L228.91 0.999991L228.929 0.999991L328.245 0.999999C331.894 1 334.314 4.78149 332.785 8.09452L332.507 8.69788C332.21 9.3422 332.15 10.071 332.34 10.7549L334.96 20.2212C335.355 21.6502 335.096 23.181 334.253 24.4002L333.297 25.7819C332.618 26.7623 332.585 28.0515 333.211 29.0658L336.008 33.5926C336.684 34.6866 336.913 35.9989 336.646 37.257L335.561 42.3813C335.517 42.5857 335.495 42.794 335.495 43.003L335.495 59.8321L335.495 62.8759L335.495 89.8428C335.495 90.6113 335.318 91.3694 334.978 92.0583L332.285 97.5062C331.859 98.3687 331.872 99.3835 332.321 100.235L334.918 105.162C335.297 105.881 335.495 106.681 335.495 107.494L335.495 117.157L335.495 137C335.495 139.761 333.257 142 330.495 142L123.363 142L107.948 142C107.63 142 107.314 141.97 107.002 141.91L71.4839 135.066C71.0073 134.974 70.5156 135 70.0508 135.14L47.9881 141.787C47.5202 141.928 47.0342 142 46.5456 142L5.99999 142C3.23857 142 0.999988 139.761 0.999988 137L0.999993 83.8099C0.999993 83.2783 1.0848 82.75 1.25118 82.2451L3.61373 75.0755C3.82986 74.4196 3.8131 73.7093 3.56631 73.0644L1.33023 67.2211C1.11193 66.6506 0.999994 66.045 0.999994 65.4341L0.999996 49.941C0.999996 49.3115 1.11886 48.6877 1.35031 48.1023L3.58197 42.4588C3.82379 41.8472 3.85797 41.1731 3.6792 40.5402L1.42791 32.5696C1.11255 31.453 1.19531 30.2615 1.66202 29.1993L4.58636 22.5435C4.83529 21.9768 4.90292 21.3471 4.77991 20.7405L1.99228 6.99367C1.36414 3.89602 3.73184 0.999971 6.89255 0.999971L114.627 0.999981C115.216 0.999981 115.8 1.10405 116.353 1.30738L125.025 4.49719C125.832 4.79413 126.728 4.7303 127.485 4.3219L132.531 1.59953C133.26 1.20601 134.076 0.999982 134.905 0.999982L142.42 0.999983Z" stroke="#624D2E" stroke-width="2"/>
<path d="M142 0.999983L142.03 0.999983L142.06 1.00176L175.511 2.99885L228.212 1.00071L228.231 0.999991L228.25 0.999991L327.219 0.999999C330.877 1 333.297 4.79952 331.75 8.11443L331.533 8.57993C331.23 9.22982 331.169 9.96686 331.363 10.6575L333.953 19.9082C334.356 21.3501 334.093 22.897 333.234 24.1237L332.337 25.4046C331.647 26.3908 331.613 27.6942 332.251 28.715L334.989 33.0961C335.678 34.1976 335.91 35.5237 335.638 36.7937L334.567 41.7952C334.522 42.0018 334.5 42.2125 334.5 42.4238L334.5 59L334.5 62L334.5 88.5557C334.5 89.332 334.319 90.0975 333.972 90.7918L331.318 96.0991C330.884 96.9686 330.897 97.9948 331.355 98.8525L333.912 103.647C334.298 104.371 334.5 105.179 334.5 106L334.5 115.5L334.5 135C334.5 137.761 332.261 140 329.5 140L123 140L107.628 140C107.314 140 107 139.97 106.692 139.912L71.2697 133.165C70.7982 133.075 70.312 133.099 69.8519 133.236L47.8443 139.792C47.3811 139.93 46.9003 140 46.4169 140L5.99999 140C3.23857 140 0.999988 137.761 0.999988 135L0.999993 82.6491C0.999993 82.1117 1.08663 81.5778 1.25658 81.0679L3.59597 74.0498C3.81671 73.3876 3.79962 72.6691 3.5476 72.0181L1.33715 66.3078C1.11431 65.7321 0.999994 65.1201 0.999995 64.5028L0.999996 49.2703C0.999996 48.6342 1.12136 48.0039 1.3576 47.4133L3.56366 41.8982C3.81057 41.2809 3.84546 40.5991 3.66281 39.9599L1.43744 32.1711C1.11526 31.0434 1.1997 29.8384 1.67599 28.7668L4.56531 22.2658C4.81936 21.6942 4.8884 21.0574 4.76269 20.4446L2.0058 7.00469C1.36975 3.90397 3.73853 0.999971 6.90381 0.999971L114.295 0.999981C114.878 0.999981 115.456 1.10186 116.004 1.30101L124.666 4.45078C125.466 4.74168 126.352 4.67904 127.103 4.27846L132.147 1.58822C132.871 1.202 133.679 0.999982 134.5 0.999982L142 0.999983Z" stroke="#F8F1C4" stroke-width="2"/>
</g>
<defs>
<filter id="filter0_i_2032_3335" x="0" y="0" width="337.755" height="147" filterUnits="userSpaceOnUse" color-interpolation-filters="sRGB">
<feFlood flood-opacity="0" result="BackgroundImageFix"/>
<feBlend mode="normal" in="SourceGraphic" in2="BackgroundImageFix" result="shape"/>
<feColorMatrix in="SourceAlpha" type="matrix" values="0 0 0 0 0 0 0 0 0 0 0 0 0 0 0 0 0 0 127 0" result="hardAlpha"/>
<feOffset dy="4"/>
<feGaussianBlur stdDeviation="2"/>
<feComposite in2="hardAlpha" operator="arithmetic" k2="-1" k3="1"/>
<feColorMatrix type="matrix" values="0 0 0 0 0 0 0 0 0 0 0 0 0 0 0 0 0 0 0.25 0"/>
<feBlend mode="normal" in2="shape" result="effect1_innerShadow_2032_3335"/>
</filter>
</defs>
</svg>
