<svg width="569" height="662" viewBox="0 0 569 662" fill="none" xmlns="http://www.w3.org/2000/svg" xmlns:xlink="http://www.w3.org/1999/xlink">
<g filter="url(#filter0_di_1_1517)">
<path d="M0 4C0 1.79086 1.79086 0 4 0H455.673C456.424 0 457.159 0.211263 457.796 0.60963L483.139 16.4763C485.264 17.8068 488.076 16.8764 488.988 14.5407L492.586 5.3246C493.596 2.73749 496.871 1.94192 498.955 3.77717L513.513 16.5938C515.08 17.9737 517.446 17.9157 518.943 16.4605L534.723 1.13096C535.47 0.405701 536.469 0 537.51 0H565C567.209 0 569 1.79086 569 4V330L562.96 411.931C562.932 412.308 562.958 412.688 563.037 413.058L568.893 440.555C568.964 440.889 568.992 441.23 568.977 441.571L562.918 574.327L568.696 655.717C568.86 658.032 567.027 660 564.706 660H284.5H228.564C228.017 660 227.476 659.888 226.974 659.67L219.852 656.586C218.979 656.208 218.001 656.153 217.091 656.431L206.408 659.702C205.769 659.898 205.092 659.93 204.438 659.797L176.748 654.152C176.254 654.052 175.745 654.045 175.249 654.134L142.597 659.938C142.366 659.979 142.132 660 141.897 660H4C1.79086 660 0 658.209 0 656V4Z" fill="url(#pattern0_1_1517)" shape-rendering="crispEdges"/>
<path d="M0 4C0 1.79086 1.79086 0 4 0H455.673C456.424 0 457.159 0.211263 457.796 0.60963L483.139 16.4763C485.264 17.8068 488.076 16.8764 488.988 14.5407L492.586 5.3246C493.596 2.73749 496.871 1.94192 498.955 3.77717L513.513 16.5938C515.08 17.9737 517.446 17.9157 518.943 16.4605L534.723 1.13096C535.47 0.405701 536.469 0 537.51 0H565C567.209 0 569 1.79086 569 4V330L562.96 411.931C562.932 412.308 562.958 412.688 563.037 413.058L568.893 440.555C568.964 440.889 568.992 441.23 568.977 441.571L562.918 574.327L568.696 655.717C568.86 658.032 567.027 660 564.706 660H284.5H228.564C228.017 660 227.476 659.888 226.974 659.67L219.852 656.586C218.979 656.208 218.001 656.153 217.091 656.431L206.408 659.702C205.769 659.898 205.092 659.93 204.438 659.797L176.748 654.152C176.254 654.052 175.745 654.045 175.249 654.134L142.597 659.938C142.366 659.979 142.132 660 141.897 660H4C1.79086 660 0 658.209 0 656V4Z" fill="url(#paint0_linear_1_1517)" shape-rendering="crispEdges"/>
</g>
<g filter="url(#filter1_di_1_1517)">
<mask id="path-2-outside-1_1_1517" maskUnits="userSpaceOnUse" x="43" y="344.278" width="89" height="38" fill="black">
<rect fill="white" x="43" y="344.278" width="89" height="38"/>
<path d="M54.822 360.004C54.9447 360.004 55.1747 360.127 55.512 360.372C55.8493 360.618 56.202 360.74 56.57 360.74H56.616C57.6587 360.74 58.4867 360.326 59.1 359.498C59.7133 358.67 60.0507 357.842 60.112 357.014L60.25 355.772C60.25 354.607 60.066 353.61 59.698 352.782C59.3607 351.924 58.962 351.295 58.502 350.896C58.042 350.467 57.5053 350.145 56.892 349.93C56.1253 349.624 55.3127 349.47 54.454 349.47C53.626 349.47 52.9513 349.562 52.43 349.746C51.9087 349.9 51.6173 350.053 51.556 350.206L51.51 350.482C51.234 354.622 51.096 358.333 51.096 361.614C51.096 364.865 51.142 367.671 51.234 370.032C51.3567 372.394 51.464 374.218 51.556 375.506C51.6787 376.764 51.74 377.454 51.74 377.576C51.74 378.343 51.0653 378.956 49.716 379.416C48.3667 379.876 47.0327 380.106 45.714 380.106C45.1007 380.106 44.794 379.953 44.794 379.646C44.794 379.554 44.84 379.34 44.932 379.002C45.5147 377.653 45.806 371.382 45.806 360.188C45.806 353.595 45.3613 349.823 44.472 348.872C44.288 348.688 44.196 348.504 44.196 348.32C44.196 348.106 44.4107 347.876 44.84 347.63C45.3 347.385 46.5573 347.109 48.612 346.802C50.6667 346.465 52.844 346.296 55.144 346.296C58.7627 346.296 61.4767 347.278 63.286 349.24C65.126 351.203 66.046 353.549 66.046 356.278C66.046 358.977 65.2947 361.323 63.792 363.316C62.32 365.31 60.388 366.306 57.996 366.306C57.2293 366.306 56.4627 366.168 55.696 365.892C54.1627 365.34 53.396 364.19 53.396 362.442C53.396 362.074 53.5187 361.584 53.764 360.97C54.0093 360.326 54.362 360.004 54.822 360.004ZM80.2654 366.95L80.4494 368.56C80.4494 369.143 79.8974 369.434 78.7934 369.434C76.5547 369.434 75.4354 368.591 75.4354 366.904C75.4354 366.506 75.5427 365.954 75.7574 365.248C75.9721 364.543 76.0794 363.93 76.0794 363.408C76.0794 362.887 75.9261 362.442 75.6194 362.074C75.3127 361.676 74.8681 361.476 74.2854 361.476C73.7027 361.476 73.1967 361.691 72.7674 362.12C72.3687 362.519 72.1234 362.933 72.0314 363.362L71.8474 364.006C71.6634 364.957 71.5714 366.552 71.5714 368.79C71.5714 370.998 71.6021 372.746 71.6634 374.034C71.7247 375.292 71.7861 376.166 71.8474 376.656C71.9087 377.116 71.9394 377.392 71.9394 377.484C71.9394 378.251 71.4641 378.864 70.5134 379.324C69.5627 379.815 68.6121 380.06 67.6614 380.06C66.7107 380.06 66.2354 379.861 66.2354 379.462L66.4654 378.036C66.8947 375.368 67.1094 371.888 67.1094 367.594C67.1094 363.301 66.9561 360.388 66.6494 358.854C66.6494 358.486 66.9714 358.302 67.6154 358.302C69.2714 358.302 70.3754 358.87 70.9274 360.004C70.9581 360.127 71.0041 360.188 71.0654 360.188C71.1574 360.188 71.3721 360.05 71.7094 359.774C72.7214 358.946 73.9174 358.532 75.2974 358.532C76.1561 358.532 77.0147 358.701 77.8734 359.038C79.6214 359.744 80.4954 361.216 80.4954 363.454L80.2654 366.95ZM86.405 354.668L85.301 354.622C84.473 354.622 83.9363 354.822 83.691 355.22C83.6296 355.312 83.553 355.358 83.461 355.358C83.0623 355.358 82.863 354.684 82.863 353.334C82.863 351.954 83.0623 351.08 83.461 350.712C83.8903 350.344 84.611 350.16 85.623 350.16C86.6656 350.16 87.371 350.344 87.739 350.712C88.107 351.05 88.291 351.632 88.291 352.46C88.291 353.288 88.153 353.871 87.877 354.208C87.601 354.515 87.1103 354.668 86.405 354.668ZM82.725 377.898L83.231 367.18C83.231 364.635 82.9396 362.902 82.357 361.982C82.173 361.676 81.9583 361.446 81.713 361.292C81.529 361.231 81.437 361.108 81.437 360.924C81.437 360.372 82.219 359.836 83.783 359.314C85.347 358.793 86.4816 358.532 87.187 358.532C87.923 358.532 88.3063 358.716 88.337 359.084C88.337 359.698 88.245 361.446 88.061 364.328C87.9076 367.18 87.831 370.186 87.831 373.344C87.831 376.503 88.015 378.466 88.383 379.232C88.475 379.386 88.521 379.539 88.521 379.692C88.521 380.091 87.9383 380.29 86.773 380.29C85.6076 380.29 84.4116 379.984 83.185 379.37C82.8783 379.217 82.725 378.726 82.725 377.898ZM94.7752 367.594L94.8212 368.744C94.8212 368.928 94.9438 369.02 95.1892 369.02C96.1705 368.928 97.0292 368.683 97.7652 368.284C98.5012 367.855 99.0532 367.38 99.4212 366.858C100.157 365.724 100.556 364.742 100.617 363.914L100.663 363.362C100.663 361.706 100.004 360.878 98.6852 360.878C97.7038 360.878 96.9065 361.308 96.2932 362.166C95.2812 363.516 94.7752 365.325 94.7752 367.594ZM104.803 373.712C104.803 374.878 104.558 375.905 104.067 376.794C103.607 377.653 103.07 378.297 102.457 378.726C101.874 379.125 101.184 379.447 100.387 379.692C99.3752 379.999 98.4092 380.152 97.4892 380.152C94.9132 380.152 93.0118 379.186 91.7852 377.254C90.5585 375.322 89.9452 372.869 89.9452 369.894C89.9452 366.889 90.6965 364.221 92.1992 361.89C93.7325 359.56 96.0172 358.394 99.0532 358.394C101.813 358.394 103.684 359.36 104.665 361.292C105.064 362.028 105.263 362.734 105.263 363.408C105.263 364.052 105.232 364.574 105.171 364.972C105.11 365.34 104.895 365.908 104.527 366.674C104.159 367.441 103.668 368.131 103.055 368.744C102.442 369.358 101.476 369.94 100.157 370.492C98.8385 371.044 97.2898 371.412 95.5112 371.596C95.2658 371.596 95.1432 371.704 95.1432 371.918C95.1432 372.194 95.2352 372.608 95.4192 373.16C95.6338 373.682 95.8638 374.126 96.1092 374.494C96.7838 375.353 97.7805 375.782 99.0992 375.782C100.418 375.782 101.537 375.353 102.457 374.494C102.948 374.034 103.346 373.467 103.653 372.792C103.776 372.547 103.929 372.424 104.113 372.424C104.328 372.424 104.496 372.593 104.619 372.93C104.742 373.268 104.803 373.528 104.803 373.712ZM120.405 372.976C120.405 374.295 120.144 375.445 119.623 376.426C119.132 377.408 118.565 378.128 117.921 378.588C117.277 379.048 116.51 379.416 115.621 379.692C114.455 380.06 113.397 380.244 112.447 380.244C110.453 380.244 108.797 379.861 107.479 379.094C106.16 378.297 105.501 377.04 105.501 375.322C105.501 374.31 105.777 373.482 106.329 372.838C107.187 371.888 108.215 371.412 109.411 371.412C109.779 371.412 109.963 371.581 109.963 371.918C109.963 371.949 109.886 372.194 109.733 372.654C109.61 373.084 109.549 373.636 109.549 374.31C109.549 374.985 109.809 375.583 110.331 376.104C110.883 376.626 111.542 376.886 112.309 376.886C113.075 376.886 113.689 376.764 114.149 376.518C114.609 376.242 114.931 375.905 115.115 375.506C115.391 374.954 115.529 374.433 115.529 373.942C115.529 373.053 115.084 372.286 114.195 371.642C113.305 370.998 112.324 370.492 111.251 370.124C110.177 369.756 109.196 369.143 108.307 368.284C107.417 367.426 106.973 366.352 106.973 365.064C106.973 362.856 107.663 361.2 109.043 360.096C110.453 358.992 112.355 358.44 114.747 358.44C115.789 358.44 116.878 358.594 118.013 358.9C119.178 359.176 119.761 359.667 119.761 360.372C119.761 361.047 119.638 361.676 119.393 362.258C119.178 362.841 118.902 363.132 118.565 363.132C118.381 363.132 118.258 363.071 118.197 362.948C118.135 362.795 118.028 362.626 117.875 362.442C117.721 362.258 117.353 362.028 116.771 361.752C116.188 361.446 115.682 361.292 115.253 361.292C114.854 361.292 114.578 361.308 114.425 361.338C114.302 361.338 114.072 361.384 113.735 361.476C113.397 361.538 113.091 361.645 112.815 361.798C112.109 362.197 111.757 362.78 111.757 363.546C111.757 364.037 111.864 364.405 112.079 364.65C112.293 364.865 112.462 365.034 112.585 365.156C112.707 365.279 112.922 365.432 113.229 365.616C113.535 365.77 113.75 365.877 113.873 365.938C113.995 366 114.271 366.138 114.701 366.352C115.13 366.536 115.406 366.659 115.529 366.72C118.779 368.254 120.405 370.339 120.405 372.976ZM120.623 361.338L120.761 359.498C120.792 359.222 121.007 359.084 121.405 359.084H123.015L122.831 355.404V355.22C122.831 354.515 123.368 353.84 124.441 353.196C125.515 352.552 126.496 352.23 127.385 352.23C127.661 352.23 127.799 352.353 127.799 352.598V352.644C127.677 353.472 127.554 355.604 127.431 359.038C128.781 359.038 129.639 359.008 130.007 358.946C130.375 358.885 130.575 358.854 130.605 358.854C130.82 358.854 130.927 359.038 130.927 359.406C130.927 359.774 130.759 360.25 130.421 360.832C130.084 361.384 129.716 361.676 129.317 361.706H127.385C127.355 362.749 127.339 364.512 127.339 366.996C127.339 369.45 127.355 371.474 127.385 373.068C127.447 374.663 127.508 375.874 127.569 376.702C127.631 377.5 127.692 378.144 127.753 378.634C127.845 379.125 127.907 379.478 127.937 379.692C127.999 379.907 128.029 380.045 128.029 380.106C128.029 380.413 127.83 380.582 127.431 380.612C126.235 380.612 125.039 380.444 123.843 380.106C122.678 379.769 122.095 379.186 122.095 378.358C122.739 373.206 123.061 367.671 123.061 361.752C122.233 361.752 121.605 361.783 121.175 361.844H121.129C120.853 361.844 120.685 361.676 120.623 361.338Z"/>
</mask>
</g>
<rect x="173" y="13" width="261.756" height="331" fill="url(#pattern1_1_1517)"/>
<defs>
<filter id="filter0_di_1_1517" x="0" y="0" width="569" height="664" filterUnits="userSpaceOnUse" color-interpolation-filters="sRGB">
<feFlood flood-opacity="0" result="BackgroundImageFix"/>
<feColorMatrix in="SourceAlpha" type="matrix" values="0 0 0 0 0 0 0 0 0 0 0 0 0 0 0 0 0 0 127 0" result="hardAlpha"/>
<feOffset dy="2"/>
<feComposite in2="hardAlpha" operator="out"/>
<feColorMatrix type="matrix" values="0 0 0 0 0.384314 0 0 0 0 0.454902 0 0 0 0 0.25098 0 0 0 1 0"/>
<feBlend mode="normal" in2="BackgroundImageFix" result="effect1_dropShadow_1_1517"/>
<feBlend mode="normal" in="SourceGraphic" in2="effect1_dropShadow_1_1517" result="shape"/>
<feColorMatrix in="SourceAlpha" type="matrix" values="0 0 0 0 0 0 0 0 0 0 0 0 0 0 0 0 0 0 127 0" result="hardAlpha"/>
<feOffset dy="4"/>
<feGaussianBlur stdDeviation="2"/>
<feComposite in2="hardAlpha" operator="arithmetic" k2="-1" k3="1"/>
<feColorMatrix type="matrix" values="0 0 0 0 0 0 0 0 0 0 0 0 0 0 0 0 0 0 0.25 0"/>
<feBlend mode="normal" in2="shape" result="effect2_innerShadow_1_1517"/>
</filter>
<pattern id="pattern0_1_1517" patternContentUnits="objectBoundingBox" width="1" height="1">
<use xlink:href="#image0_1_1517" transform="matrix(0.00193322 0 0 0.00166667 -0.0799649 0)"/>
</pattern>
<filter id="filter1_di_1_1517" x="44.196" y="346.296" width="86.7312" height="37.5474" filterUnits="userSpaceOnUse" color-interpolation-filters="sRGB">
<feFlood flood-opacity="0" result="BackgroundImageFix"/>
<feColorMatrix in="SourceAlpha" type="matrix" values="0 0 0 0 0 0 0 0 0 0 0 0 0 0 0 0 0 0 127 0" result="hardAlpha"/>
<feOffset dy="2.09091"/>
<feComposite in2="hardAlpha" operator="out"/>
<feColorMatrix type="matrix" values="0 0 0 0 0.713726 0 0 0 0 0.513726 0 0 0 0 0.211765 0 0 0 1 0"/>
<feBlend mode="normal" in2="BackgroundImageFix" result="effect1_dropShadow_1_1517"/>
<feBlend mode="normal" in="SourceGraphic" in2="effect1_dropShadow_1_1517" result="shape"/>
<feColorMatrix in="SourceAlpha" type="matrix" values="0 0 0 0 0 0 0 0 0 0 0 0 0 0 0 0 0 0 127 0" result="hardAlpha"/>
<feOffset dy="3.2314"/>
<feGaussianBlur stdDeviation="4.03926"/>
<feComposite in2="hardAlpha" operator="arithmetic" k2="-1" k3="1"/>
<feColorMatrix type="matrix" values="0 0 0 0 1 0 0 0 0 0.996078 0 0 0 0 0.847059 0 0 0 1 0"/>
<feBlend mode="normal" in2="shape" result="effect2_innerShadow_1_1517"/>
</filter>
<pattern id="pattern1_1_1517" patternContentUnits="objectBoundingBox" width="1" height="1">
<use xlink:href="#image1_1_1517" transform="scale(0.00290698 0.00229885)"/>
</pattern>
<linearGradient id="paint0_linear_1_1517" x1="284.5" y1="0" x2="284.5" y2="660" gradientUnits="userSpaceOnUse">
<stop stop-color="#3A4A20"/>
<stop offset="1" stop-color="#3A4A20" stop-opacity="0.2"/>
</linearGradient>
</defs>
</svg>
