<svg width="427" height="110" viewBox="0 0 427 110" fill="none" xmlns="http://www.w3.org/2000/svg">
<g filter="url(#filter0_di_424_1314)">
<path d="M2 6C2 3.79086 3.79086 2 6 2H107.25L131.19 5.38545C131.724 5.46104 132.269 5.42765 132.79 5.28732L144.182 2.22019C144.721 2.075 145.285 2.04435 145.837 2.13018L166.62 5.36312C167.2 5.45327 167.792 5.41488 168.355 5.25066L178.951 2.16C179.315 2.05387 179.692 2 180.071 2H212.5H265.125L290.986 5.36799C291.651 5.4546 292.328 5.3726 292.953 5.1295L300.301 2.27198C300.763 2.09223 301.254 2 301.75 2H317.282C317.593 2 317.903 2.03619 318.205 2.10785L350.186 9.68864C351.039 9.89062 351.933 9.80739 352.734 9.45174L368.724 2.34475C369.236 2.11745 369.789 2 370.349 2H398H417.831C420.447 2 422.359 4.47094 421.703 7.00385L420.26 12.5667C419.876 14.0515 420.996 15.5 422.53 15.5C423.873 15.5 424.942 16.6255 424.872 17.9664L423 54V102C423 104.209 421.209 106 419 106H401.649C401.219 106 400.792 105.931 400.384 105.795L388.63 101.877C387.893 101.631 387.1 101.605 386.348 101.803L370.875 105.869C370.543 105.956 370.201 106 369.858 106H317.75L265.466 101.529C265.239 101.51 265.011 101.51 264.784 101.529L212.809 105.974C212.603 105.991 212.396 105.993 212.19 105.978L191 104.5L151 106H132.944C132.323 106 131.711 105.855 131.155 105.578L124.392 102.196C123.497 101.748 122.466 101.653 121.504 101.927L107.789 105.846C107.431 105.948 107.061 106 106.69 106H6C3.79086 106 2 104.209 2 102V6Z" fill="#3c4721" style="fill:#3c4721;fill:color(display-p3 0.2353 0.2784 0.1294);fill-opacity:1;"/>
<path d="M107.39 1.00985L107.32 1H107.25H6C3.23858 1 1 3.23858 1 6V102C1 104.761 3.23858 107 6 107H106.69C107.154 107 107.617 106.935 108.063 106.808L121.779 102.889C122.5 102.683 123.273 102.755 123.944 103.09L130.708 106.472C131.402 106.819 132.168 107 132.944 107H151H151.019L151.037 106.999L190.984 105.501L212.121 106.976C212.378 106.994 212.637 106.992 212.895 106.97L264.869 102.526C265.039 102.511 265.211 102.511 265.381 102.526L317.665 106.996L317.707 107H317.75H369.858C370.287 107 370.714 106.945 371.129 106.836L386.602 102.77C387.166 102.622 387.761 102.641 388.314 102.825L400.068 106.743C400.578 106.913 401.112 107 401.649 107H419C421.761 107 424 104.761 424 102V54.026L425.871 18.0183C425.97 16.1055 424.446 14.5 422.53 14.5C421.65 14.5 421.008 13.6693 421.228 12.8177L422.671 7.25481C423.492 4.08868 421.102 1 417.831 1H398H370.349C369.649 1 368.957 1.14681 368.318 1.43094L352.327 8.53792L352.732 9.44876L352.327 8.53793C351.727 8.80466 351.056 8.86709 350.417 8.7156L318.436 1.13481C318.058 1.04524 317.671 1 317.282 1H301.75C301.13 1 300.516 1.11529 299.938 1.33998L292.59 4.1975C292.121 4.37982 291.614 4.44132 291.116 4.37636L265.254 1.00837L265.19 1H265.125H212.5H180.071C179.598 1 179.126 1.06734 178.671 1.2L168.075 4.29066C167.653 4.41382 167.208 4.44262 166.774 4.375L145.991 1.14207C145.301 1.03477 144.596 1.07309 143.922 1.25457L132.53 4.3217C132.139 4.42695 131.731 4.45199 131.33 4.3953L107.39 1.00985Z" stroke="#E0C98C" style="stroke:#E0C98C;stroke:color(display-p3 0.8784 0.7882 0.5490);stroke-opacity:1;" stroke-width="2"/>
</g>
<defs>
<filter id="filter0_di_424_1314" x="0" y="0" width="426.875" height="112" filterUnits="userSpaceOnUse" color-interpolation-filters="sRGB">
<feFlood flood-opacity="0" result="BackgroundImageFix"/>
<feColorMatrix in="SourceAlpha" type="matrix" values="0 0 0 0 0 0 0 0 0 0 0 0 0 0 0 0 0 0 127 0" result="hardAlpha"/>
<feOffset dy="2"/>
<feComposite in2="hardAlpha" operator="out"/>
<feColorMatrix type="matrix" values="0 0 0 0 0.877132 0 0 0 0 0.786397 0 0 0 0 0.547622 0 0 0 1 0"/>
<feBlend mode="normal" in2="BackgroundImageFix" result="effect1_dropShadow_424_1314"/>
<feBlend mode="normal" in="SourceGraphic" in2="effect1_dropShadow_424_1314" result="shape"/>
<feColorMatrix in="SourceAlpha" type="matrix" values="0 0 0 0 0 0 0 0 0 0 0 0 0 0 0 0 0 0 127 0" result="hardAlpha"/>
<feOffset dy="4"/>
<feGaussianBlur stdDeviation="2"/>
<feComposite in2="hardAlpha" operator="arithmetic" k2="-1" k3="1"/>
<feColorMatrix type="matrix" values="0 0 0 0 0.240641 0 0 0 0 0.211607 0 0 0 0 0.136947 0 0 0 0.2 0"/>
<feBlend mode="normal" in2="shape" result="effect2_innerShadow_424_1314"/>
</filter>
</defs>
</svg>
