<svg width="169" height="136" viewBox="0 0 169 136" fill="none" xmlns="http://www.w3.org/2000/svg">
<path d="M0 6.79692C0 5.80451 0.80451 5 1.79692 5H42.3977C42.4977 5 42.5974 5.00833 42.6959 5.02491L51.8889 6.57189C52.1719 6.61951 52.4621 6.59867 52.7354 6.51113L57.0215 5.13797C57.3042 5.0474 57.6049 5.02828 57.8968 5.08231L65.8681 6.55785C66.1744 6.61454 66.4901 6.59066 66.7844 6.48853L70.787 5.09934C70.9764 5.03358 71.1756 5 71.3762 5H84.1021H104.741C104.833 5 104.925 5.00709 105.016 5.0212L114.953 6.56116C115.303 6.61541 115.661 6.56498 115.983 6.4162L118.684 5.16615C118.921 5.05669 119.178 5 119.439 5H125.464C125.592 5 125.719 5.01357 125.844 5.04049L138.44 7.76081C138.793 7.83692 139.16 7.80526 139.494 7.66994L145.763 5.13136C145.978 5.0446 146.207 5 146.438 5H157.34H165.262C166.311 5 167.138 5.89611 167.053 6.94246L165.92 20.8732C165.871 21.4828 166.352 22.0048 166.964 22.0048V22.0048C167.538 22.0048 168.005 22.4669 168.011 23.0409L168.5 70.5V134.203C168.5 135.195 167.695 136 166.703 136H158.834C158.629 136 158.426 135.965 158.233 135.897L153.731 134.301C153.382 134.177 153.003 134.164 152.647 134.264L146.671 135.934C146.513 135.978 146.35 136 146.187 136H125.656L105.042 134.125C104.934 134.116 104.825 134.116 104.716 134.125L84.3133 135.981C84.1729 135.994 84.0316 135.99 83.8922 135.97L75.8119 134.796C75.6801 134.776 75.5465 134.772 75.4137 134.782L59.821 136H52.7151C52.4545 136 52.197 135.943 51.9605 135.834L49.354 134.628C48.9741 134.452 48.5447 134.414 48.14 134.521L42.7737 135.94C42.6238 135.98 42.4694 136 42.3143 136H1.79693C0.804514 136 0 135.195 0 134.203V6.79692Z" fill="#616454"/>
<g filter="url(#filter0_i_2032_3286)">
<path d="M1 2.79692C1 1.80451 1.80451 1 2.79692 1H42.4013C42.502 1 42.6025 1.00846 42.7017 1.02529L51.8901 2.58335C52.1751 2.63167 52.4675 2.61054 52.7426 2.52174L57.0227 1.13998C57.3072 1.04812 57.6102 1.02872 57.9042 1.08355L65.8685 2.5691C66.177 2.62663 66.4951 2.6024 66.7912 2.49883L70.7888 1.10074C70.9795 1.03406 71.18 1 71.382 1H84.1052H104.742C104.835 1 104.928 1.00719 105.019 1.02152L114.951 2.57247C115.304 2.62751 115.664 2.57639 115.988 2.42562L118.684 1.16836C118.922 1.05747 119.181 1 119.443 1H125.465C125.593 1 125.721 1.01378 125.847 1.04109L138.438 3.78104C138.792 3.85825 139.162 3.82615 139.498 3.68896L145.762 1.13317C145.978 1.04523 146.208 1 146.441 1H157.34H165.263C166.312 1 167.138 1.8954 167.054 2.94136L165.919 17.0176C165.87 17.6194 166.345 18.1346 166.949 18.1346V18.1346C167.527 18.1346 167.992 18.6078 167.983 19.1852L167.21 67V131.203C167.21 132.195 166.406 133 165.413 133H158.836C158.63 133 158.426 132.965 158.232 132.895L153.735 131.289C153.384 131.164 153.002 131.15 152.643 131.252L146.673 132.933C146.514 132.977 146.351 133 146.186 133H125.658L105.045 131.111C104.936 131.101 104.827 131.101 104.718 131.111L84.318 132.98C84.1766 132.993 84.0342 132.99 83.8937 132.969L75.8169 131.787C75.6841 131.767 75.5495 131.763 75.4156 131.773L59.8251 133H52.7223C52.4599 133 52.2006 132.943 51.9628 132.832L49.3622 131.619C48.9801 131.441 48.5475 131.403 48.1401 131.511L42.78 132.939C42.629 132.98 42.4735 133 42.3173 133H2.79692C1.80451 133 1 132.195 1 131.203V2.79692Z" fill="#3A4A20"/>
</g>
<path d="M59.8251 133.449H59.8427L59.8603 133.448L75.4509 132.221C75.5513 132.213 75.6522 132.216 75.7518 132.231L83.8287 133.414C84.0043 133.439 84.1823 133.444 84.359 133.428L104.759 131.559C104.84 131.551 104.923 131.551 105.004 131.559L125.617 133.447L125.637 133.449H125.658H146.186C146.392 133.449 146.597 133.421 146.795 133.365L152.765 131.684C153.034 131.608 153.32 131.618 153.584 131.712L158.081 133.318C158.323 133.405 158.579 133.449 158.836 133.449H165.413C166.654 133.449 167.66 132.444 167.66 131.203V67.0035V67L168.432 19.1925C168.446 18.3641 167.778 17.6854 166.949 17.6854C166.608 17.6854 166.339 17.394 166.366 17.0537L167.502 2.97747C167.607 1.67001 166.574 0.550769 165.263 0.550769H157.34H146.441C146.15 0.550769 145.862 0.607303 145.593 0.717227L139.329 3.27302C139.077 3.37591 138.799 3.39999 138.533 3.34208L125.942 0.602136C125.785 0.56799 125.625 0.550769 125.465 0.550769H119.443C119.115 0.550769 118.791 0.622603 118.494 0.761221L115.798 2.01848C115.555 2.13156 115.285 2.1699 115.02 2.12862L105.089 0.577666C104.974 0.559762 104.858 0.550769 104.742 0.550769H84.1052H71.382C71.1295 0.550769 70.8788 0.593342 70.6405 0.676698L66.6429 2.07478C66.4208 2.15246 66.1822 2.17064 65.9509 2.12749L57.9866 0.641935C57.6191 0.573395 57.2404 0.597643 56.8846 0.71248L52.6046 2.09423C52.3983 2.16083 52.1789 2.17668 51.9652 2.14044L42.7768 0.582382C42.6528 0.561344 42.5272 0.550769 42.4013 0.550769H2.79692C1.55641 0.550769 0.550769 1.55641 0.550769 2.79692V131.203C0.550769 132.444 1.55641 133.449 2.79692 133.449H42.3173C42.5126 133.449 42.707 133.424 42.8956 133.374L48.2557 131.945C48.5613 131.864 48.8857 131.892 49.1723 132.026L51.773 133.239C52.0702 133.377 52.3943 133.449 52.7223 133.449H59.8251Z" stroke="#616454" stroke-width="0.898462"/>
<defs>
<filter id="filter0_i_2032_3286" x="0.101562" y="0.101562" width="168.78" height="135.597" filterUnits="userSpaceOnUse" color-interpolation-filters="sRGB">
<feFlood flood-opacity="0" result="BackgroundImageFix"/>
<feBlend mode="normal" in="SourceGraphic" in2="BackgroundImageFix" result="shape"/>
<feColorMatrix in="SourceAlpha" type="matrix" values="0 0 0 0 0 0 0 0 0 0 0 0 0 0 0 0 0 0 127 0" result="hardAlpha"/>
<feOffset dy="1.8"/>
<feGaussianBlur stdDeviation="0.9"/>
<feComposite in2="hardAlpha" operator="arithmetic" k2="-1" k3="1"/>
<feColorMatrix type="matrix" values="0 0 0 0 0 0 0 0 0 0 0 0 0 0 0 0 0 0 0.25 0"/>
<feBlend mode="normal" in2="shape" result="effect1_innerShadow_2032_3286"/>
</filter>
</defs>
</svg>
