<svg width="928" height="64" viewBox="0 0 928 64" fill="none" xmlns="http://www.w3.org/2000/svg">
<g filter="url(#filter0_di_600_582)">
<path d="M2 7.32763C2 4.66268 4.55693 2.74292 7.11606 3.48648L11.5285 4.76852C13.0538 5.21172 14.6962 4.69706 15.6959 3.46261C16.4451 2.53746 17.572 2 18.7624 2H59.75L93.1219 5.36402C93.9968 5.45221 94.8763 5.24967 95.6245 4.78772L99.1735 2.59647C99.8051 2.20652 100.533 2 101.275 2H117.5H233H464H579.5H636.942C637.147 2 637.352 2.01576 637.554 2.04714L665.686 6.40458C666.094 6.46781 666.51 6.46742 666.918 6.40343L694.692 2.04829C694.897 2.01614 695.104 2 695.312 2H810.5H867.759C868.085 2 868.41 2.03981 868.726 2.11856L884.153 5.96065C885.499 6.29589 886.923 5.90976 887.915 4.94032L889.759 3.13889C890.506 2.40877 891.51 2 892.555 2H922C924.209 2 926 3.79086 926 6V52.4362C926 55.1705 923.318 57.0988 920.726 56.2278L912.434 53.4416C911.583 53.1555 910.66 53.1643 909.814 53.4665L897.778 57.7668C897.346 57.9211 896.891 58 896.432 58H868.25H810.5H781.625H767.058C766.732 58 766.408 57.9602 766.091 57.8814L761.401 56.7132C760.837 56.5728 760.249 56.5569 759.678 56.6667L753.125 57.9279C752.875 57.9759 752.622 58 752.369 58H695H464H421.834C420.92 58 420.034 57.6872 419.323 57.1137L415.622 54.1293C414.099 52.9009 411.91 52.9549 410.449 54.2569L407.388 56.986C406.655 57.6391 405.708 58 404.726 58H348.5H233L209.617 56.5L175.25 58H117.5H59.75L42.8211 56.5373C42.5343 56.5125 42.2456 56.5188 41.9601 56.556L30.875 58H6C3.79086 58 2 56.2091 2 54V7.32763Z" fill="#897B57" style="fill:#897B57;fill:color(display-p3 0.5357 0.4824 0.3422);fill-opacity:1;"/>
<path d="M59.8503 1.00504L59.8003 1H59.75H18.7624C17.2703 1 15.8579 1.67367 14.9188 2.83328C14.1725 3.75488 12.9463 4.13911 11.8075 3.80823L7.39507 2.5262C4.19617 1.59675 1 3.99644 1 7.32763V54C1 56.7614 3.23857 59 6 59H30.875H30.9399L31.0042 58.9916L42.0892 57.5476C42.3034 57.5197 42.5199 57.515 42.735 57.5336L59.6639 58.9963L59.7069 59H59.75H117.5H175.25H175.272L175.294 58.9991L209.606 57.5014L232.936 58.9979L232.968 59H233H348.5H404.726C405.953 59 407.137 58.5489 408.053 57.7325L411.115 55.0034C412.21 54.0269 413.852 53.9864 414.994 54.9077L418.695 57.8921C419.584 58.609 420.692 59 421.834 59H464H695H752.369C752.686 59 753.002 58.9698 753.313 58.9099L759.867 57.6487C760.295 57.5663 760.736 57.5782 761.159 57.6836L765.85 58.8518C766.245 58.9502 766.651 59 767.058 59H781.625H810.5H868.25H896.432C897.005 59 897.574 58.9014 898.114 58.7085L910.15 54.4082C910.785 54.1816 911.477 54.175 912.115 54.3895L920.407 57.1758C923.647 58.2644 927 55.854 927 52.4362V6C927 3.23858 924.761 1 922 1H892.555C891.249 1 889.994 1.51096 889.06 2.42361V2.42363L887.217 4.22504C886.472 4.95212 885.405 5.24172 884.395 4.99029L868.968 1.1482C868.572 1.04977 868.167 1 867.759 1H810.5H695.312C695.052 1 694.793 1.02018 694.537 1.06036L666.763 5.4155C666.457 5.4635 666.145 5.46379 665.839 5.41636L637.707 1.05892C637.454 1.0197 637.198 1 636.942 1H579.5H464H233H117.5H101.275C100.347 1 99.4376 1.25816 98.6482 1.74558L95.0991 3.93684L95.6245 4.78772L95.0991 3.93684C94.538 4.2833 93.8783 4.4352 93.2222 4.36906L59.8503 1.00504Z" stroke="#F8F1C4" style="stroke:#F8F1C4;stroke:color(display-p3 0.9725 0.9451 0.7686);stroke-opacity:1;" stroke-width="2"/>
</g>
<defs>
<filter id="filter0_di_600_582" x="0" y="0" width="928" height="64" filterUnits="userSpaceOnUse" color-interpolation-filters="sRGB">
<feFlood flood-opacity="0" result="BackgroundImageFix"/>
<feColorMatrix in="SourceAlpha" type="matrix" values="0 0 0 0 0 0 0 0 0 0 0 0 0 0 0 0 0 0 127 0" result="hardAlpha"/>
<feOffset dy="4"/>
<feComposite in2="hardAlpha" operator="out"/>
<feColorMatrix type="matrix" values="0 0 0 0 0.384314 0 0 0 0 0.301961 0 0 0 0 0.180392 0 0 0 1 0"/>
<feBlend mode="normal" in2="BackgroundImageFix" result="effect1_dropShadow_600_582"/>
<feBlend mode="normal" in="SourceGraphic" in2="effect1_dropShadow_600_582" result="shape"/>
<feColorMatrix in="SourceAlpha" type="matrix" values="0 0 0 0 0 0 0 0 0 0 0 0 0 0 0 0 0 0 127 0" result="hardAlpha"/>
<feOffset dy="4"/>
<feGaussianBlur stdDeviation="2"/>
<feComposite in2="hardAlpha" operator="arithmetic" k2="-1" k3="1"/>
<feColorMatrix type="matrix" values="0 0 0 0 0 0 0 0 0 0 0 0 0 0 0 0 0 0 0.25 0"/>
<feBlend mode="normal" in2="shape" result="effect2_innerShadow_600_582"/>
</filter>
</defs>
</svg>
