<svg width="16" height="14" viewBox="0 0 16 14" fill="none" xmlns="http://www.w3.org/2000/svg">
<path d="M5.27358 5.69727L5.27974 5.72046C5.363 6.03358 5.65735 6.25333 7.01568 5.99149L6.64873 4.61144C5.22612 5.05179 5.18415 5.36096 5.27358 5.69727ZM10.6835 8.15774L10.6712 8.11135C10.5632 7.70545 10.2689 7.48571 8.7018 7.80305L9.14892 9.48462C10.6991 9.01035 10.7791 8.51725 10.6835 8.15774ZM9.84581 12.1056L8.72089 12.4047L8.52971 11.6856C3.99144 12.8303 3.01334 11.0664 2.7204 9.96464L2.68648 9.83707L6.07282 8.93667C6.19308 9.38895 6.5977 9.97672 8.01784 9.76053L7.56764 8.06736L6.74659 8.24842C3.52114 9.00671 2.34609 8.08987 1.99456 6.76781L1.96681 6.66343C1.59678 5.27179 2.2363 3.84763 6.1677 2.8023L5.98577 2.11808L7.11068 1.81897L7.29261 2.5032C11.2974 1.50043 12.576 2.52634 12.9337 3.8716L12.9614 3.97597L9.60987 4.86712C9.48257 4.52846 9.2023 4.08147 7.77673 4.32393L8.15293 5.73877L9.00876 5.54846C12.1994 4.79943 13.6145 5.21786 14.0647 6.91103L14.1078 7.07339C14.5025 8.55781 14.0731 10.2117 9.65462 11.3865L9.84581 12.1056Z" fill="#1D2017" style="fill:#1D2017;fill:color(display-p3 0.1137 0.1255 0.0902);fill-opacity:1;"/>
</svg>
