<svg width="16" height="18" viewBox="0 0 16 18" fill="none" xmlns="http://www.w3.org/2000/svg">
<path d="M6.41001 0.179976C3.81001 0.469976 1.94001 2.79998 2.22001 5.39998C2.51001 7.99998 4.84001 9.86998 7.44001 9.58998C10.04 9.29998 11.91 6.96998 11.63 4.36998C11.34 1.76998 9.01001 -0.100024 6.41001 0.179976ZM6.03001 12.87C7.18001 12.64 8.36001 12.51 9.53001 12.48H9.54001C10.16 12.46 10.79 12.48 11.41 12.54C11.83 12.58 12.26 12.65 12.63 12.79C13 12.93 13.22 13.1 13.33 13.27C13.51 13.56 13.55 13.92 13.44 14.24C13.37 14.44 13.19 14.65 12.86 14.86C12.54 15.07 12.13 15.23 11.73 15.36H11.71C11.12 15.57 10.52 15.72 9.91001 15.83H9.90001C8.96001 16.01 8.01001 16.13 7.05001 16.19C7.04001 16.19 7.02001 16.19 7.01001 16.19C6.77001 16.22 6.62001 16.23 6.48001 16.22C6.45001 16.22 6.42001 16.22 6.38001 16.22C5.76001 16.25 5.14001 16.22 4.53001 16.16H4.51001C4.09001 16.12 3.66001 16.05 3.30001 15.92C2.94001 15.79 2.71001 15.62 2.60001 15.43C2.51001 15.29 2.46001 15.12 2.44001 14.95C2.42001 14.78 2.44001 14.62 2.49001 14.46C2.56001 14.27 2.74001 14.06 3.08001 13.84C3.41001 13.62 3.81001 13.45 4.21001 13.32C4.80001 13.12 5.41001 12.97 6.02001 12.86H6.03001V12.87ZM5.75001 11.39C6.99001 11.14 8.24001 11.01 9.50001 10.98C10.19 10.95 10.88 10.98 11.57 11.04C12.05 11.09 12.63 11.18 13.17 11.37C13.7 11.57 14.27 11.9 14.62 12.47C15.04 13.15 15.13 13.97 14.87 14.73C14.65 15.37 14.17 15.82 13.69 16.12C13.21 16.43 12.67 16.64 12.21 16.79C11.56 17.01 10.89 17.19 10.21 17.31C9.21001 17.51 8.20001 17.63 7.18001 17.69C6.98001 17.71 6.71001 17.74 6.43001 17.72C5.75001 17.75 5.08001 17.72 4.41001 17.65C3.92001 17.61 3.35001 17.52 2.81001 17.32C2.28001 17.12 1.71001 16.79 1.35001 16.22C1.14001 15.89 1.01001 15.51 0.970011 15.12C0.930011 14.73 0.970012 14.33 1.10001 13.96V13.95C1.33001 13.34 1.80001 12.9 2.27001 12.59C2.75001 12.28 3.28001 12.05 3.76001 11.9C4.42001 11.68 5.08001 11.51 5.76001 11.39H5.75001Z" fill="#1D2017" style="fill:#1D2017;fill:color(display-p3 0.1137 0.1255 0.0902);fill-opacity:1;"/>
</svg>
