<svg width="24" height="24" viewBox="0 0 24 24" fill="none" xmlns="http://www.w3.org/2000/svg">
<path d="M16.3572 4.54632C17.8328 5.58359 18.9402 7.06339 19.5192 8.77166C20.0982 10.4799 20.1188 12.3281 19.5779 14.0488C19.0371 15.7696 17.9629 17.2736 16.5108 18.3435C15.0586 19.4134 13.3037 19.9936 11.5 20.0001M6.64271 18.4538C5.16708 17.4165 4.05967 15.9368 3.48067 14.2285C2.90167 12.5202 2.88109 10.672 3.42192 8.95131C3.96275 7.23058 5.03694 5.72649 6.48911 4.65663C7.94128 3.58676 9.69615 3.00657 11.4999 3M16.1386 8.40775V5.35584C16.1386 4.90875 16.501 4.54632 16.9481 4.54632H20M6.86143 14.5926V17.6446C6.86143 18.0916 6.499 18.4541 6.05191 18.4541H3" stroke="white" stroke-width="1.61905" stroke-miterlimit="10"/>
</svg>
