<svg width="16" height="17" viewBox="0 0 16 17" fill="none" xmlns="http://www.w3.org/2000/svg">
<g clip-path="url(#clip0_424_1026)">
<path d="M14.9998 8.5003C14.9998 9.76908 14.6551 11.014 14.0023 12.102C13.3496 13.19 12.4134 14.0801 11.2939 14.6772C10.1744 15.2743 8.91362 15.5558 7.64646 15.4918C6.3793 15.4278 5.15337 15.0205 4.09975 14.3136C3.34161 13.8088 2.69125 13.1584 2.18642 12.4003C1.28243 11.0535 0.874189 9.43465 1.03147 7.82027C1.18875 6.20589 1.90179 4.69623 3.04874 3.54929C4.19568 2.40234 5.70534 1.6893 7.31972 1.53202C8.9341 1.37474 10.553 1.78298 11.8998 2.68697C12.6579 3.1918 13.3082 3.84216 13.8131 4.6003C14.5879 5.75326 15.0011 7.11118 14.9998 8.5003Z" stroke="#533E1F" style="stroke:#533E1F;stroke:color(display-p3 0.3250 0.2435 0.1205);stroke-opacity:1;" stroke-width="1.5" stroke-miterlimit="10"/>
<g filter="url(#filter0_i_424_1026)">
<path fill-rule="evenodd" clip-rule="evenodd" d="M12.7535 2.88269L13.2005 2.42018C13.3167 2.30585 13.4733 2.2417 13.6365 2.2417C13.8014 2.2417 13.9596 2.30721 14.0762 2.42382C14.1928 2.54042 14.2583 2.69858 14.2583 2.86349C14.2583 3.02667 14.1941 3.18325 14.0798 3.29949L13.3513 4.00352L12.7535 2.88269ZM13.4925 4.26835L15.7498 8.5009C15.7497 9.90535 15.368 11.2834 14.6454 12.4877C13.9228 13.6923 12.8863 14.6778 11.6468 15.3388C10.4074 15.9999 9.01154 16.3116 7.60861 16.2407C6.20613 16.1698 4.84927 15.7192 3.68303 14.9371C2.84304 14.3776 2.12241 13.6569 1.56287 12.8169C0.562601 11.3261 0.110921 9.53428 0.285007 7.74742C0.459142 5.96007 1.24858 4.28867 2.51841 3.01884C3.78824 1.749 5.45964 0.959568 7.24699 0.785433C8.82366 0.631825 10.4042 0.965422 11.7784 1.73321L12.1272 1.3723L12.1361 1.36308L12.1362 1.36316C12.5341 0.965244 13.0738 0.741699 13.6365 0.741699C14.1992 0.741699 14.7389 0.965244 15.1368 1.36316C15.5348 1.76107 15.7583 2.30075 15.7583 2.86349C15.7583 3.42622 15.5348 3.9659 15.1368 4.36382L15.1278 4.37288L15.1277 4.3728L14.3344 5.13947L13.4925 4.26835ZM7.39244 2.27836C8.83385 2.13793 10.2793 2.50243 11.4818 3.30957L11.4841 3.31111C12.1596 3.76091 12.739 4.34037 13.1888 5.01587L13.1906 5.01851C13.8822 6.04758 14.2509 7.2596 14.2498 8.49946V8.50022C14.2498 9.63306 13.942 10.7446 13.3592 11.716C12.7764 12.6875 11.9405 13.4822 10.9409 14.0153C9.94137 14.5484 8.81571 14.7998 7.68431 14.7426C6.55292 14.6855 5.45834 14.3219 4.51761 13.6907L4.51544 13.6892C3.83994 13.2394 3.26049 12.66 2.81069 11.9845L2.80914 11.9822C2.00201 10.7797 1.63751 9.33428 1.77794 7.89287C1.91837 6.45146 2.55501 5.10355 3.57907 4.0795C4.60313 3.05544 5.95103 2.4188 7.39244 2.27836ZM12.1732 4.33625L11.5665 5.9099L9.97322 10.0432L9.85356 10.3536L9.54317 10.4733L5.40984 12.0666L3.83619 12.6732L4.43975 11.0984L6.02641 6.9584L6.14609 6.64615L6.45834 6.52647L10.5983 4.93981L12.1732 4.33625ZM7.01346 8.57442L6.44396 10.0604L7.92753 9.48849L7.01346 8.57442ZM8.07401 7.51365L8.98829 8.42794L9.56032 6.94402L8.07401 7.51365ZM7.24994 4.04677V2.77344H8.74994V4.04677H7.24994ZM7.24994 12.9535V14.2268H8.74994V12.9535H7.24994ZM12.4531 7.75012H13.7264V9.25012H12.4531V7.75012ZM3.54671 7.75012H2.27338V9.25012H3.54671V7.75012Z" fill="#533E1F" style="fill:#533E1F;fill:color(display-p3 0.3250 0.2435 0.1205);fill-opacity:1;"/>
</g>
</g>
<defs>
<filter id="filter0_i_424_1026" x="0.248474" y="0.741699" width="15.5098" height="16.5088" filterUnits="userSpaceOnUse" color-interpolation-filters="sRGB">
<feFlood flood-opacity="0" result="BackgroundImageFix"/>
<feBlend mode="normal" in="SourceGraphic" in2="BackgroundImageFix" result="shape"/>
<feColorMatrix in="SourceAlpha" type="matrix" values="0 0 0 0 0 0 0 0 0 0 0 0 0 0 0 0 0 0 127 0" result="hardAlpha"/>
<feOffset dy="1"/>
<feGaussianBlur stdDeviation="1"/>
<feComposite in2="hardAlpha" operator="arithmetic" k2="-1" k3="1"/>
<feColorMatrix type="matrix" values="0 0 0 0 0.221549 0 0 0 0 0.162615 0 0 0 0 0.0757646 0 0 0 1 0"/>
<feBlend mode="normal" in2="shape" result="effect1_innerShadow_424_1026"/>
</filter>
<clipPath id="clip0_424_1026">
<rect width="16" height="16" fill="white" style="fill:white;fill-opacity:1;" transform="translate(-6.10352e-05 0.5)"/>
</clipPath>
</defs>
</svg>
