<svg width="16" height="17" viewBox="0 0 16 17" fill="none" xmlns="http://www.w3.org/2000/svg">
<g clip-path="url(#clip0_424_1012)">
<g filter="url(#filter0_i_424_1012)">
<path fill-rule="evenodd" clip-rule="evenodd" d="M6.32808 11.2326C6.61493 11.7099 6.77085 12.2598 6.77246 12.8259C6.77478 13.6477 6.45176 14.437 5.87396 15.0214L5.34365 15.5577L4.81031 15.0244L3.6732 13.8873L1.19683 16.3636L0.136169 15.303L2.61254 12.8266L2.0065 12.2206L1.19683 13.0302L0.136169 11.9696L0.945836 11.1599L0.942439 11.1565L1.47277 10.6262C2.05601 10.0429 2.84705 9.71527 3.67187 9.71527C4.24247 9.71527 4.79691 9.87208 5.27756 10.1618L6.93934 8.50006L0.136169 1.69689L1.19683 0.63623L8 7.4394L14.8032 0.63623L15.8638 1.69689L9.06066 8.50006L10.741 10.1804C11.2217 9.8906 11.7762 9.73376 12.3468 9.73376C12.9121 9.73376 13.4614 9.88762 13.9389 10.1722L14.0062 10.1049L14.5365 10.6352L14.5459 10.6447L14.5423 10.6483L15.8637 11.9696L14.803 13.0302L14.0026 12.2298L13.3966 12.8358L15.8638 15.303L14.8032 16.3636L12.336 13.8964L11.2037 15.0287L10.6704 15.562L10.14 15.0257C9.56331 14.4424 9.24037 13.6549 9.24153 12.8346C9.24233 12.2694 9.39698 11.7202 9.6823 11.243L8 9.56072L6.32808 11.2326ZM3.67187 11.2153C4.02933 11.2153 4.37453 11.3341 4.65462 11.55L4.80089 11.6963C5.10172 11.9971 5.27126 12.4047 5.27246 12.8302C5.27291 12.9898 5.24964 13.1471 5.20458 13.2973L3.19483 11.2876C3.34793 11.2401 3.50862 11.2153 3.67187 11.2153ZM10.8094 13.3017L12.8094 11.3016C12.6607 11.257 12.505 11.2338 12.3468 11.2338C11.9202 11.2338 11.511 11.4031 11.2091 11.7046C10.9102 12.0056 10.7421 12.4125 10.7415 12.8368C10.7413 12.9957 10.7646 13.1522 10.8094 13.3017Z" fill="#533E1F" style="fill:#533E1F;fill:color(display-p3 0.3250 0.2435 0.1205);fill-opacity:1;"/>
</g>
</g>
<defs>
<filter id="filter0_i_424_1012" x="0.136169" y="0.63623" width="15.7277" height="16.7275" filterUnits="userSpaceOnUse" color-interpolation-filters="sRGB">
<feFlood flood-opacity="0" result="BackgroundImageFix"/>
<feBlend mode="normal" in="SourceGraphic" in2="BackgroundImageFix" result="shape"/>
<feColorMatrix in="SourceAlpha" type="matrix" values="0 0 0 0 0 0 0 0 0 0 0 0 0 0 0 0 0 0 127 0" result="hardAlpha"/>
<feOffset dy="1"/>
<feGaussianBlur stdDeviation="1"/>
<feComposite in2="hardAlpha" operator="arithmetic" k2="-1" k3="1"/>
<feColorMatrix type="matrix" values="0 0 0 0 0.221549 0 0 0 0 0.162615 0 0 0 0 0.0757646 0 0 0 1 0"/>
<feBlend mode="normal" in2="shape" result="effect1_innerShadow_424_1012"/>
</filter>
<clipPath id="clip0_424_1012">
<rect width="16" height="16" fill="white" style="fill:white;fill-opacity:1;" transform="translate(0 0.5)"/>
</clipPath>
</defs>
</svg>
