<svg width="17" height="17" viewBox="0 0 17 17" fill="none" xmlns="http://www.w3.org/2000/svg">
<g clip-path="url(#clip0_424_1042)">
<g filter="url(#filter0_i_424_1042)">
<path fill-rule="evenodd" clip-rule="evenodd" d="M6.6848 0.75H7.18365L4.98262 5.45755C5.20335 5.21731 5.47976 5.02904 5.7914 4.91322L7.18365 0.75C9.68111 0.75 12.0763 1.74211 13.8422 3.50808C15.6082 5.27405 16.6003 7.66921 16.6003 10.1667V10.6655L16.1402 10.8584L3.60691 16.1117L3.6037 16.113L3.6037 16.113C3.38343 16.2042 3.14727 16.2507 2.9089 16.25C2.42937 16.2496 1.96956 16.059 1.63046 15.7199C1.29135 15.3808 1.1007 14.921 1.10032 14.4414C1.0996 14.2031 1.14615 13.9669 1.23729 13.7466L1.23861 13.7434L1.23862 13.7434L2.365 11.0561L2.73333 14.0577L2.62335 14.32L2.62288 14.3212C2.60783 14.358 2.60016 14.3974 2.60031 14.4372L2.60032 14.44C2.60032 14.5222 2.63298 14.6011 2.69112 14.6592C2.72653 14.6946 2.76963 14.7206 2.8165 14.7355C2.84657 14.745 2.87819 14.75 2.91032 14.75L2.91316 14.75C2.95293 14.7502 2.99235 14.7425 3.02915 14.7274L3.03027 14.727L3.97771 14.3298C3.85182 14.0564 3.78638 13.7581 3.78684 13.4555C3.78739 13.0893 3.88448 12.7297 4.06832 12.4129C4.25215 12.0962 4.51623 11.8335 4.83395 11.6513C5.15167 11.4692 5.51179 11.374 5.87802 11.3754C6.24424 11.3768 6.60364 11.4747 6.91997 11.6592C7.23631 11.8437 7.4984 12.1084 7.67985 12.4265C7.73372 12.521 7.77991 12.6192 7.81819 12.7201L8.99795 12.2256C8.64809 11.8529 8.43381 11.3515 8.43381 10.8C8.43381 9.64942 9.36655 8.71667 10.5171 8.71667C11.6397 8.71667 12.5549 9.60452 12.5988 10.7163L12.9363 10.5749C12.6253 9.06152 11.8772 7.66829 10.7796 6.57072C9.68205 5.47313 8.2888 4.72506 6.77545 4.41405L6.61963 4.7858C7.72262 4.83923 8.60047 5.75043 8.60047 6.86666C8.60047 8.01725 7.66773 8.94999 6.51714 8.94999C5.97241 8.94999 5.47651 8.74093 5.1053 8.39866L2.73333 14.0577L4.76241 7.99017C4.55442 7.666 4.43381 7.28041 4.43381 6.86666C4.43381 6.77402 4.43985 6.6828 4.45157 6.59336L2.365 11.0561L6.49196 1.21008L6.6848 0.75ZM1.10032 14.4414L1.10032 14.4428L1.85019 14.44H1.10032L1.10032 14.4414ZM2.9089 16.25L2.91032 16.25V15.5L2.90748 16.25L2.9089 16.25ZM6.37688 13.1697C6.40061 13.2113 6.41902 13.2555 6.43184 13.3012L5.36406 13.7488C5.31331 13.6602 5.28668 13.5599 5.28684 13.4578C5.28699 13.3553 5.31418 13.2546 5.36565 13.1659C5.41712 13.0772 5.49107 13.0036 5.58003 12.9526C5.66899 12.9016 5.76982 12.875 5.87237 12.8754C5.97491 12.8758 6.07554 12.9032 6.16411 12.9548C6.25269 13.0065 6.32607 13.0806 6.37688 13.1697ZM15.085 9.67423L14.3419 9.98571C13.9394 8.29679 13.0761 6.74586 11.8403 5.51006C10.6045 4.27424 9.05354 3.41093 7.3646 3.00847L7.67609 2.26532C9.59602 2.3849 11.4134 3.20057 12.7816 4.56874C14.1498 5.93691 14.9654 7.7543 15.085 9.67423ZM5.93381 6.86666C5.93381 6.54449 6.19497 6.28333 6.51714 6.28333C6.83931 6.28333 7.10047 6.54449 7.10047 6.86666C7.10047 7.18882 6.83931 7.44999 6.51714 7.44999C6.19497 7.44999 5.93381 7.18882 5.93381 6.86666ZM9.93381 10.8C9.93381 10.4778 10.195 10.2167 10.5171 10.2167C10.8393 10.2167 11.1005 10.4778 11.1005 10.8C11.1005 11.1222 10.8393 11.3833 10.5171 11.3833C10.195 11.3833 9.93381 11.1222 9.93381 10.8Z" fill="#533E1F" style="fill:#533E1F;fill:color(display-p3 0.3250 0.2435 0.1205);fill-opacity:1;"/>
</g>
</g>
<defs>
<filter id="filter0_i_424_1042" x="1.10031" y="0.75" width="15.5" height="16.5" filterUnits="userSpaceOnUse" color-interpolation-filters="sRGB">
<feFlood flood-opacity="0" result="BackgroundImageFix"/>
<feBlend mode="normal" in="SourceGraphic" in2="BackgroundImageFix" result="shape"/>
<feColorMatrix in="SourceAlpha" type="matrix" values="0 0 0 0 0 0 0 0 0 0 0 0 0 0 0 0 0 0 127 0" result="hardAlpha"/>
<feOffset dy="1"/>
<feGaussianBlur stdDeviation="1"/>
<feComposite in2="hardAlpha" operator="arithmetic" k2="-1" k3="1"/>
<feColorMatrix type="matrix" values="0 0 0 0 0.221549 0 0 0 0 0.162615 0 0 0 0 0.0757646 0 0 0 1 0"/>
<feBlend mode="normal" in2="shape" result="effect1_innerShadow_424_1042"/>
</filter>
<clipPath id="clip0_424_1042">
<rect width="16" height="16" fill="white" style="fill:white;fill-opacity:1;" transform="translate(0.850311 0.5)"/>
</clipPath>
</defs>
</svg>
