<svg width="87" height="32" viewBox="0 0 87 32" fill="none" xmlns="http://www.w3.org/2000/svg">
<g filter="url(#filter0_d_630_74)">
<path d="M86.01 10.05L79.69 26.82H62.18C58.57 26.82 30.96 27.83 24.64 28.44C19.59 28.93 7.38 26.49 1.9 25.21L1 9.64999L4.25 4.18999C6.78 4.25999 12.37 4.26999 14.54 3.78999C16.71 3.29999 26.87 3.98999 31.68 4.39999C52.79 4.39999 68.68 -0.650013 69.94 0.759987C70.95 1.88999 81.07 3.65999 86 4.39999V10.06L86.01 10.05Z" fill="#F9D77D" style="fill:#F9D77D;fill:color(display-p3 0.9765 0.8431 0.4902);fill-opacity:1;"/>
<path d="M86.01 10.05L79.69 26.82H62.18C58.57 26.82 30.96 27.83 24.64 28.44C19.59 28.93 7.38 26.49 1.9 25.21L1 9.64999L4.25 4.18999C6.78 4.25999 12.37 4.26999 14.54 3.78999C16.71 3.29999 26.87 3.98999 31.68 4.39999C52.79 4.39999 68.68 -0.650013 69.94 0.759987C70.95 1.88999 81.07 3.65999 86 4.39999V10.06L86.01 10.05Z" stroke="#B68334" style="stroke:#B68334;stroke:color(display-p3 0.7137 0.5137 0.2039);stroke-opacity:1;" stroke-miterlimit="10"/>
</g>
<defs>
<filter id="filter0_d_630_74" x="0.492004" y="0.0114746" width="86.8029" height="31.8224" filterUnits="userSpaceOnUse" color-interpolation-filters="sRGB">
<feFlood flood-opacity="0" result="BackgroundImageFix"/>
<feColorMatrix in="SourceAlpha" type="matrix" values="0 0 0 0 0 0 0 0 0 0 0 0 0 0 0 0 0 0 127 0" result="hardAlpha"/>
<feOffset dy="2.83"/>
<feColorMatrix type="matrix" values="0 0 0 0 0.713726 0 0 0 0 0.513726 0 0 0 0 0.203922 0 0 0 1 0"/>
<feBlend mode="normal" in2="BackgroundImageFix" result="effect1_dropShadow_630_74"/>
<feBlend mode="normal" in="SourceGraphic" in2="effect1_dropShadow_630_74" result="shape"/>
</filter>
</defs>
</svg>
