<svg width="189" height="64" viewBox="0 0 189 64" fill="none" xmlns="http://www.w3.org/2000/svg">
<path d="M188 40.01V29.63C188 15.38 176.45 3.82999 162.2 3.82999H150.76C148.34 3.82999 145.92 4.05999 143.55 4.51999C139.14 5.36999 134.61 5.38999 130.2 4.57999L129.75 4.49999C127.34 4.05999 124.89 3.82999 122.43 3.82999H30.5C14.21 3.82999 1 17.04 1 33.33C1 49.62 14.21 62.83 30.5 62.83H46.82C48.01 62.83 49.15 62.33 49.96 61.46C50.54 60.84 51.41 60.59 52.23 60.81L57.89 62.34C59.08 62.66 60.31 62.83 61.55 62.83H103.9C105.99 62.83 108.07 62.53 110.08 61.95L113.06 61.09C115.72 60.32 118.56 60.51 121.09 61.64C122.85 62.42 124.75 62.83 126.67 62.83H151.07C152.13 62.83 153.15 62.43 153.92 61.7C154.62 61.04 155.68 60.93 156.5 61.42L157.48 62.01C158.36 62.54 159.37 62.82 160.4 62.82H165.19C177.79 62.82 188.01 52.6 188.01 40L188 40.01Z" fill="#3E5A59"/>
<path d="M188 40.01V29.63C188 15.38 176.45 3.82999 162.2 3.82999H150.76C148.34 3.82999 145.92 4.05999 143.55 4.51999C139.14 5.36999 134.61 5.38999 130.2 4.57999L129.75 4.49999C127.34 4.05999 124.89 3.82999 122.43 3.82999H30.5C14.21 3.82999 1 17.04 1 33.33C1 49.62 14.21 62.83 30.5 62.83H46.82C48.01 62.83 49.15 62.33 49.96 61.46C50.54 60.84 51.41 60.59 52.23 60.81L57.89 62.34C59.08 62.66 60.31 62.83 61.55 62.83H103.9C105.99 62.83 108.07 62.53 110.08 61.95L113.06 61.09C115.72 60.32 118.56 60.51 121.09 61.64C122.85 62.42 124.75 62.83 126.67 62.83H151.07C152.13 62.83 153.15 62.43 153.92 61.7C154.62 61.04 155.68 60.93 156.5 61.42L157.48 62.01C158.36 62.54 159.37 62.82 160.4 62.82H165.19C177.79 62.82 188.01 52.6 188.01 40L188 40.01Z" stroke="#3E5A59" stroke-width="2" stroke-miterlimit="10"/>
<path d="M188 37.18V26.8C188 12.55 176.45 1 162.2 1H150.76C148.34 1 145.92 1.23 143.55 1.69C139.14 2.54 134.61 2.56 130.2 1.75L129.75 1.67C127.34 1.23 124.89 1 122.43 1H30.5C14.21 1 1 14.21 1 30.5C1 46.79 14.21 60 30.5 60H46.82C48.01 60 49.15 59.5 49.96 58.63C50.54 58.01 51.41 57.76 52.23 57.98L57.89 59.51C59.08 59.83 60.31 60 61.55 60H103.9C105.99 60 108.07 59.7 110.08 59.12L113.06 58.26C115.72 57.49 118.56 57.68 121.09 58.81C122.85 59.59 124.75 60 126.67 60H151.07C152.13 60 153.15 59.6 153.92 58.87C154.62 58.21 155.68 58.1 156.5 58.59L157.48 59.18C158.36 59.71 159.37 59.99 160.4 59.99H165.19C177.79 59.99 188.01 49.77 188.01 37.17L188 37.18Z" fill="url(#paint0_linear_2168_11150)"/>
<path d="M188 37.18V26.8C188 12.55 176.45 1 162.2 1H150.76C148.34 1 145.92 1.23 143.55 1.69C139.14 2.54 134.61 2.56 130.2 1.75L129.75 1.67C127.34 1.23 124.89 1 122.43 1H30.5C14.21 1 1 14.21 1 30.5C1 46.79 14.21 60 30.5 60H46.82C48.01 60 49.15 59.5 49.96 58.63C50.54 58.01 51.41 57.76 52.23 57.98L57.89 59.51C59.08 59.83 60.31 60 61.55 60H103.9C105.99 60 108.07 59.7 110.08 59.12L113.06 58.26C115.72 57.49 118.56 57.68 121.09 58.81C122.85 59.59 124.75 60 126.67 60H151.07C152.13 60 153.15 59.6 153.92 58.87C154.62 58.21 155.68 58.1 156.5 58.59L157.48 59.18C158.36 59.71 159.37 59.99 160.4 59.99H165.19C177.79 59.99 188.01 49.77 188.01 37.17L188 37.18Z" stroke="#3E5A59" stroke-width="2" stroke-miterlimit="10"/>
<defs>
<linearGradient id="paint0_linear_2168_11150" x1="94.5" y1="1" x2="94.5" y2="60" gradientUnits="userSpaceOnUse">
<stop stop-color="#E4EAE6"/>
<stop offset="1" stop-color="#D3DCD6"/>
</linearGradient>
</defs>
</svg>
