<?xml version="1.0" encoding="UTF-8"?>
<svg xmlns="http://www.w3.org/2000/svg" xmlns:xlink="http://www.w3.org/1999/xlink" version="1.1" viewBox="0 0 25 25">
  <defs>
    <style>
      .cls-1 {
        fill: url(#linear-gradient);
      }

      .cls-2 {
        fill: #fff;
      }

      .cls-3 {
        stroke: #4d3434;
      }

      .cls-3, .cls-4 {
        fill: none;
        stroke-miterlimit: 10;
      }

      .cls-4 {
        stroke: #2f1211;
      }
    </style>
    <linearGradient id="linear-gradient" x1="12.5" y1="23.396" x2="12.5" y2=".773" gradientUnits="userSpaceOnUse">
      <stop offset="0" stop-color="#609955"/>
      <stop offset="1" stop-color="#a4bf41"/>
    </linearGradient>
  </defs>
  <!-- Generator: Adobe Illustrator 28.6.0, SVG Export Plug-In . SVG Version: 1.2.0 Build 709)  -->
  <g>
    <g id="Layer_1">
      <circle class="cls-3" cx="12.5" cy="12.974" r="11.311"/>
      <circle class="cls-1" cx="12.5" cy="12.084" r="11.311"/>
      <circle class="cls-4" cx="12.5" cy="12.084" r="11.311"/>
      <g>
        <path class="cls-2" d="M19.386,13.177c-.872-1.047-1.76-2.08-2.621-3.135-1.456-1.785-2.696-3.76-4.004-5.654-.249-.361-.727-.235-.89.048-.024.023-.052.038-.073.067-2.134,2.925-4.268,5.851-6.401,8.776-.223.306.076.768.432.752.674-.029,1.35.029,2.023,0,.641-.028.645-1.028,0-1-.347.015-.695.008-1.043,0l5.498-7.537c1.18,1.732,2.333,3.498,3.648,5.128.656.813,1.332,1.61,2.005,2.409h-1.192c-.643,0-.645,1,0,1h2.264c.463,0,.62-.533.354-.854Z"/>
        <path class="cls-2" d="M9.744,13.198c-.271.012-.5.22-.5.5v1.476c0,.262.23.512.5.5.271-.012.5-.22.5-.5v-1.476c0-.262-.23-.512-.5-.5Z"/>
        <path class="cls-2" d="M9.723,16.482c-.271.012-.5.22-.5.5v1.974c0,.262.23.512.5.5.271-.012.5-.22.5-.5v-1.974c0-.262-.23-.512-.5-.5Z"/>
        <path class="cls-2" d="M12.217,17.292c-.271.012-.5.22-.5.5v2.889c0,.262.23.512.5.5.271-.012.5-.22.5-.5v-2.889c0-.262-.23-.512-.5-.5Z"/>
        <path class="cls-2" d="M14.419,13.553v5.736c0,.643,1,.645,1,0v-5.736c0-.643-1-.645-1,0Z"/>
      </g>
    </g>
  </g>
</svg>