<?xml version="1.0" encoding="UTF-8"?>
<svg xmlns="http://www.w3.org/2000/svg" xmlns:xlink="http://www.w3.org/1999/xlink" version="1.1" viewBox="0 0 25 25">
  <defs>
    <style>
      .cls-1 {
        fill: url(#linear-gradient);
      }

      .cls-2 {
        fill: #fff;
      }

      .cls-3 {
        stroke: #4d3434;
      }

      .cls-3, .cls-4 {
        fill: none;
        stroke-miterlimit: 10;
      }

      .cls-4 {
        stroke: #2f1211;
      }
    </style>
    <linearGradient id="linear-gradient" x1="12.5" y1="23.396" x2="12.5" y2=".773" gradientUnits="userSpaceOnUse">
      <stop offset="0" stop-color="#b32222"/>
      <stop offset="1" stop-color="#f7931e"/>
    </linearGradient>
  </defs>
  <!-- Generator: Adobe Illustrator 28.6.0, SVG Export Plug-In . SVG Version: 1.2.0 Build 709)  -->
  <g>
    <g id="Layer_1">
      <circle class="cls-3" cx="12.5" cy="12.974" r="11.311"/>
      <circle class="cls-1" cx="12.5" cy="12.084" r="11.311"/>
      <circle class="cls-4" cx="12.5" cy="12.084" r="11.311"/>
      <g>
        <path class="cls-2" d="M19.033,10.714h-2.264c-.643,0-.645,1,0,1h1.192c-.674.799-1.35,1.596-2.006,2.409-1.315,1.629-2.468,3.395-3.648,5.128-1.833-2.512-3.665-5.025-5.498-7.537.348-.008.695-.015,1.043,0,.643.028.642-.972,0-1-.674-.029-1.35.029-2.023,0-.355-.016-.655.446-.432.752,2.134,2.925,4.268,5.851,6.401,8.776.021.029.049.044.073.067.163.283.64.409.889.048,1.308-1.895,2.549-3.868,4.004-5.654.86-1.056,1.749-2.089,2.621-3.135.267-.32.108-.854-.354-.854Z"/>
        <path class="cls-2" d="M9.744,8.579c-.271.012-.5.22-.5.5v2.135c0,.262.23.512.5.5.271-.012.5-.22.5-.5v-2.135c0-.262-.23-.512-.5-.5Z"/>
        <path class="cls-2" d="M9.53,7.679c.06.031.124.046.193.043.129-.006.263-.048.354-.146.09-.098.146-.218.146-.354v-.717c0-.128-.056-.263-.146-.354-.045-.049-.099-.083-.161-.103-.06-.031-.124-.046-.193-.043-.129.006-.263.048-.354.146-.09.098-.146.218-.146.354v.717c0,.128.056.263.146.354.045.049.099.083.161.103Z"/>
        <path class="cls-2" d="M12.217,5.672c.129-.006.263-.048.354-.146.09-.098.146-.218.146-.354v-1.108c0-.128-.056-.263-.146-.354-.087-.087-.229-.152-.354-.146-.129.006-.263.048-.354.146-.09.098-.146.218-.146.354v1.108c0,.128.056.263.146.354.087.087.229.152.354.146Z"/>
        <path class="cls-2" d="M14.919,7.217c.271-.012.5-.22.5-.5v-1.261c0-.262-.23-.512-.5-.5-.271.012-.5.22-.5.5v1.261c0,.262.23.512.5.5Z"/>
        <path class="cls-2" d="M14.919,11.693c.271-.012.5-.22.5-.5v-2.612c0-.262-.23-.512-.5-.5-.271.012-.5.22-.5.5v2.612c0,.262.23.512.5.5Z"/>
      </g>
    </g>
  </g>
</svg>