<?xml version="1.0" encoding="UTF-8"?>
<svg xmlns="http://www.w3.org/2000/svg" xmlns:xlink="http://www.w3.org/1999/xlink" version="1.1" viewBox="0 0 25 25">
  <defs>
    <style>
      .cls-1 {
        fill: url(#linear-gradient);
      }

      .cls-2 {
        fill: #fff;
      }

      .cls-3 {
        stroke: #4d3434;
      }

      .cls-3, .cls-4 {
        fill: none;
        stroke-miterlimit: 10;
      }

      .cls-4 {
        stroke: #2f1211;
      }
    </style>
    <linearGradient id="linear-gradient" x1="12.5" y1="23.396" x2="12.5" y2=".773" gradientUnits="userSpaceOnUse">
      <stop offset="0" stop-color="#4c8a94"/>
      <stop offset="1" stop-color="#affcd1"/>
    </linearGradient>
  </defs>
  <!-- Generator: Adobe Illustrator 28.6.0, SVG Export Plug-In . SVG Version: 1.2.0 Build 709)  -->
  <g>
    <g id="Layer_1">
      <circle class="cls-3" cx="12.5" cy="12.974" r="11.311"/>
      <circle class="cls-1" cx="12.5" cy="12.084" r="11.311"/>
      <circle class="cls-4" cx="12.5" cy="12.084" r="11.311"/>
      <g>
        <path class="cls-2" d="M8.91,17.433c-.653.002-1.261-.112-1.904-.267-.155-.037-.309-.078-.459-.131-.03-.01-.059-.021-.088-.032-.006-.003-.008-.003-.016-.007-.019-.01-.039-.021-.058-.03.013-.02.036-.047.099-.079.089-.045.187-.062.286-.077.437-.064.422-.79,0-.868-.612-.113-1.377-.244-1.842-.696-.079-.076-.122-.148-.165-.243-.017-.036-.021-.045.026-.116.119-.179.374-.269.602-.314.039-.008.071-.03.104-.049,0,0,.001,0,.002.001.044.013.088.027.132.041h0c.008.003.017.005.025.008.555.17.792-.698.239-.868-.008-.003-.017-.005-.025-.008h0c-.519-.159-1.055-.303-1.538-.558-.238-.125-.479-.277-.644-.495-.062-.082-.1-.153-.118-.259.002-.011-.001-.077-.001-.078-.004.089.019-.065.029-.09-.027.069.049-.076.061-.092-.041.054.055-.054.055-.054.053-.051.163-.121.252-.155.259-.097.552-.075.82-.032.705.114,1.398.313,2.06.578.226.09.494-.099.554-.314.07-.256-.088-.463-.314-.554-.61-.244-1.242-.426-1.888-.547-.631-.118-1.334-.181-1.891.205-.459.318-.741.845-.595,1.407.151.583.686,1.007,1.197,1.271.134.069.277.117.416.174-.412.349-.625.87-.303,1.433.317.554.927.857,1.556,1.048-.082.162-.121.345-.083.547.085.455.456.65.857.784.426.142.874.222,1.317.29.41.063.829.127,1.245.126.579-.001.58-.901,0-.9ZM6.367,16.968s.002.002.003.003c0,.002,0,.004,0,.006,0-.004-.005-.006-.003-.01ZM6.373,16.98s.002-.002.002-.002c.006.007.013.016.014.016-.014-.004-.014-.009-.016-.014Z"/>
        <path class="cls-2" d="M21.889,11.402c-.51-.45-1.162-.493-1.807-.4-.74.107-1.47.317-2.164.594-.226.09-.384.301-.314.554.059.214.327.405.554.314.662-.265,1.356-.464,2.06-.578.269-.044.559-.063.82.032.089.032.199.103.252.155,0,0,.092.103.055.054.011.015.088.16.061.092.01.025.033.179.029.09,0,.009-.003.066-.001.078-.018.106-.056.177-.118.259-.163.218-.407.37-.644.495-.475.25-1.001.393-1.512.55-.552.169-.317,1.038.239.868.005-.001.01-.003.014-.004.258.064.513.165.703.314.016.013.09.081.124.12-.034-.039-.014-.013.004.011,0,0,0,.002,0,.003.021-.03.01-.027-.006.012-.011.029-.014.038-.016.045-.018.035-.039.07-.062.101-.044.059-.189.184-.289.247-.138.088-.285.162-.438.221-.386.15-.794.24-1.201.315-.421.077-.438.806,0,.868.112.016.233.047.286.076.011.006.056.041.067.047.015.018.034.042.036.041-.009.009-.017.019-.026.028-.015.015-.017.018-.021.023-.006.003-.011.005-.031.018-.041.027-.084.051-.128.073-.071.035-.19.074-.299.102-.235.06-.468.08-.71.08-.579,0-.58.899,0,.9.668,0,1.623-.136,2-.775.178-.302.146-.599.005-.851.191-.061.382-.122.567-.205.421-.189.855-.491,1.053-.922.2-.435.108-.87-.249-1.19-.045-.04-.104-.064-.152-.101.676-.265,1.309-.643,1.591-1.295.221-.513.092-1.087-.33-1.458Z"/>
        <path class="cls-2" d="M17.317,12.591c-.229-1.236-1.221-2.26-2.502-2.338-.88-.054-1.65.331-2.121.981-.302-.45-.757-.802-1.306-.957-1.231-.348-2.585.25-3.21,1.352-1.349,2.379.902,4.805,2.397,6.478.535.599,1.081,1.188,1.638,1.766.169.175.467.17.636,0,1.143-1.143,2.298-2.319,3.26-3.621.778-1.053,1.457-2.31,1.207-3.662ZM15.675,15.31c-.872,1.319-2.016,2.48-3.137,3.602-1.142-1.18-2.318-2.399-3.187-3.786-.718-1.146-1.112-2.846.238-3.729.534-.35,1.287-.444,1.86-.133.527.286.853.891.708,1.484-.11.562.729.807.868.239.036-.182.071-.364.107-.547.088-.434.264-.837.664-1.068.624-.359,1.436-.285,1.975.188,1.182,1.038.638,2.637-.096,3.749Z"/>
        <path class="cls-2" d="M8.884,8.247c.826.262,1.706.373,2.568.43,1.713.113,3.696.063,5.286-.669.463-.213.994-.587.993-1.155-.001-.886-1.152-1.26-1.83-1.458-.557-.163-.795.706-.239.868.217.063,1.21.365,1.164.596-.053.268-.751.457-.949.52-1.355.43-2.846.485-4.255.408-.676-.037-1.351-.116-2.011-.274-.426-.102-.959-.222-1.304-.512-.186-.157-.181-.15.015-.307.365-.293.911-.414,1.355-.516,1.454-.336,3.094-.414,4.572-.186.567.087.811-.78.239-.868-1.722-.266-3.62-.2-5.306.249-.793.211-2.467.872-1.753,1.991.308.482.937.719,1.455.883Z"/>
      </g>
    </g>
  </g>
</svg>