<svg width="59" height="62" viewBox="0 0 59 62" fill="none" xmlns="http://www.w3.org/2000/svg">
<path d="M2.28424 27.5773L2.41971 27.013C4.20791 19.5648 9.03088 13.2045 15.7203 9.47291C19.8028 7.19551 24.4 6 29.0747 6H30.8288C34.6607 6.34546 43.2649 7.55458 47.027 9.62736C49.8413 11.1779 53.4157 19.9774 55.9131 27.3498C57.377 31.6713 57.4771 36.3162 56.4794 40.7684L56.2814 41.652C54.7152 48.6417 50.2437 54.6323 43.9882 58.1219C39.5031 60.6239 34.3598 61.6932 29.2491 61.1864L25.9524 60.8595C16.6369 59.9356 8.45845 54.2678 4.32276 45.8696C1.52924 40.197 0.808084 33.7258 2.28424 27.5773Z" fill="#3E5A59"/>
<path d="M31.3303 1.03868L31.287 1.03478H31.2436H29.5797C24.9807 1.03478 20.4581 2.21091 16.4417 4.4514C9.86075 8.12253 5.11595 14.3797 3.35674 21.7072L3.22823 22.2424C1.77538 28.2939 2.48515 34.6628 5.23456 40.246C9.30494 48.5115 17.3542 54.0898 26.5227 54.9991L29.6498 55.3092C34.6938 55.8094 39.77 54.754 44.1965 52.2847C50.3704 48.8407 54.7835 42.9282 56.3293 36.0298L56.5171 35.1917C57.4973 30.8173 57.4044 26.2293 55.9522 21.9423C54.7623 18.4297 53.3091 14.5564 51.8098 11.365C51.0607 9.7707 50.2897 8.32397 49.5228 7.17029C48.7768 6.04792 47.9573 5.08174 47.0747 4.59543C45.1457 3.53264 42.0798 2.7327 39.1358 2.15861C36.1579 1.57792 33.1756 1.20504 31.3303 1.03868Z" fill="#D3DCD6"/>
<path d="M31.3303 1.03868L31.287 1.03478H31.2436H29.5797C24.9807 1.03478 20.4581 2.21091 16.4417 4.4514C9.86075 8.12253 5.11595 14.3797 3.35674 21.7072L3.22823 22.2424C1.77538 28.2939 2.48515 34.6628 5.23456 40.246C9.30494 48.5115 17.3542 54.0898 26.5227 54.9991L29.6498 55.3092C34.6938 55.8094 39.77 54.754 44.1965 52.2847C50.3704 48.8407 54.7835 42.9282 56.3293 36.0298L56.5171 35.1917C57.4973 30.8173 57.4044 26.2293 55.9522 21.9423C54.7623 18.4297 53.3091 14.5564 51.8098 11.365C51.0607 9.7707 50.2897 8.32397 49.5228 7.17029C48.7768 6.04792 47.9573 5.08174 47.0747 4.59543C45.1457 3.53264 42.0798 2.7327 39.1358 2.15861C36.1579 1.57792 33.1756 1.20504 31.3303 1.03868Z" fill="url(#paint0_linear_2144_14731)"/>
<path d="M31.3303 1.03868L31.287 1.03478H31.2436H29.5797C24.9807 1.03478 20.4581 2.21091 16.4417 4.4514C9.86075 8.12253 5.11595 14.3797 3.35674 21.7072L3.22823 22.2424C1.77538 28.2939 2.48515 34.6628 5.23456 40.246C9.30494 48.5115 17.3542 54.0898 26.5227 54.9991L29.6498 55.3092C34.6938 55.8094 39.77 54.754 44.1965 52.2847C50.3704 48.8407 54.7835 42.9282 56.3293 36.0298L56.5171 35.1917C57.4973 30.8173 57.4044 26.2293 55.9522 21.9423C54.7623 18.4297 53.3091 14.5564 51.8098 11.365C51.0607 9.7707 50.2897 8.32397 49.5228 7.17029C48.7768 6.04792 47.9573 5.08174 47.0747 4.59543C45.1457 3.53264 42.0798 2.7327 39.1358 2.15861C36.1579 1.57792 33.1756 1.20504 31.3303 1.03868Z" stroke="#3E5A59" stroke-width="1.93044"/>
<path d="M25.1128 27.4907C25.1674 27.4347 25.3733 27.1954 25.5651 26.9984C26.6897 25.7601 29.6234 23.7331 31.159 23.1144C31.3922 23.015 31.9817 22.8046 32.2967 22.791C32.5986 22.791 32.8863 22.8605 33.1609 23.0015C33.5031 23.1984 33.7777 23.5082 33.9282 23.874C34.025 24.1279 34.1755 24.8875 34.1755 24.901C34.3259 25.7321 34.4087 27.0824 34.4087 28.5747C34.4087 29.9964 34.3259 31.2918 34.2027 32.1354C34.1886 32.1489 34.0382 33.0929 33.8736 33.4162C33.5718 34.0069 32.9822 34.3737 32.3513 34.3737H32.2967C31.8858 34.3592 31.0217 33.9924 31.0217 33.9789C29.5689 33.3593 26.7029 31.4317 25.551 30.1509C25.551 30.1509 25.2266 29.8217 25.0855 29.6161C24.8655 29.3208 24.7564 28.955 24.7564 28.5891C24.7564 28.1808 24.8796 27.8005 25.1128 27.4907" fill="#3E5A59"/>
<defs>
<linearGradient id="paint0_linear_2144_14731" x1="29.5" y1="2.08563e-08" x2="29.5" y2="6.5" gradientUnits="userSpaceOnUse">
<stop stop-color="white" stop-opacity="0.7"/>
<stop offset="1" stop-color="white" stop-opacity="0"/>
</linearGradient>
</defs>
</svg>
