<svg width="61" height="64" viewBox="0 0 61 64" fill="none" xmlns="http://www.w3.org/2000/svg">
<path d="M0.71006 35.2062L4.54356 19.2389C5.09289 16.9508 6.57449 14.997 8.62947 13.8506L20.7902 7.06687C22.0443 6.36726 23.4566 6 24.8927 6H31.8919C35.8559 6.35737 44.7568 7.60819 48.6486 9.75244C52.2118 11.7155 56.9529 24.9116 59.3876 32.8861C59.8004 34.2381 59.838 35.6704 59.5289 37.0497L56.4996 50.5685C55.9754 52.9081 54.4787 54.9133 52.3848 56.0814L40.6843 62.6084C39.1831 63.4459 37.4615 63.8038 35.7508 63.6342L16.0078 61.6762C13.112 61.389 10.5697 59.6272 9.28411 57.0166L1.34374 40.8924C0.475366 39.129 0.251194 37.1175 0.71006 35.2062Z" fill="#3E5A59"/>
<path d="M32.3871 1.00404L32.3423 1H32.2973H25.648C24.1132 1 22.6039 1.39251 21.2635 2.14022L9.71083 8.58477C7.51457 9.80993 5.93111 11.8981 5.34401 14.3435L1.70219 29.5124C1.21177 31.5551 1.45136 33.705 2.37943 35.5896L9.92279 50.9075C11.2968 53.6976 14.0138 55.5806 17.1087 55.8875L35.8646 57.7476C37.6928 57.9289 39.5328 57.5463 41.1373 56.6513L52.2527 50.4506C54.4906 49.2023 56.0902 47.0592 56.6505 44.5588L59.5283 31.7159C59.8579 30.2446 59.8198 28.7077 59.3747 27.2498C58.2123 23.4427 56.4963 18.3782 54.6392 14.0197C53.7115 11.8425 52.7382 9.81701 51.7703 8.2053C50.833 6.64459 49.8008 5.29613 48.6988 4.68895C46.7003 3.58787 43.524 2.7591 40.4738 2.16432C37.3887 1.56271 34.2989 1.1764 32.3871 1.00404Z" fill="#D3DCD6"/>
<path d="M32.3871 1.00404L32.3423 1H32.2973H25.648C24.1132 1 22.6039 1.39251 21.2635 2.14022L9.71083 8.58477C7.51457 9.80993 5.93111 11.8981 5.34401 14.3435L1.70219 29.5124C1.21177 31.5551 1.45136 33.705 2.37943 35.5896L9.92279 50.9075C11.2968 53.6976 14.0138 55.5806 17.1087 55.8875L35.8646 57.7476C37.6928 57.9289 39.5328 57.5463 41.1373 56.6513L52.2527 50.4506C54.4906 49.2023 56.0902 47.0592 56.6505 44.5588L59.5283 31.7159C59.8579 30.2446 59.8198 28.7077 59.3747 27.2498C58.2123 23.4427 56.4963 18.3782 54.6392 14.0197C53.7115 11.8425 52.7382 9.81701 51.7703 8.2053C50.833 6.64459 49.8008 5.29613 48.6988 4.68895C46.7003 3.58787 43.524 2.7591 40.4738 2.16432C37.3887 1.56271 34.2989 1.1764 32.3871 1.00404Z" fill="url(#paint0_linear_2144_16749)"/>
<path d="M32.3871 1.00404L32.3423 1H32.2973H25.648C24.1132 1 22.6039 1.39251 21.2635 2.14022L9.71083 8.58477C7.51457 9.80993 5.93111 11.8981 5.34401 14.3435L1.70219 29.5124C1.21177 31.5551 1.45136 33.705 2.37943 35.5896L9.92279 50.9075C11.2968 53.6976 14.0138 55.5806 17.1087 55.8875L35.8646 57.7476C37.6928 57.9289 39.5328 57.5463 41.1373 56.6513L52.2527 50.4506C54.4906 49.2023 56.0902 47.0592 56.6505 44.5588L59.5283 31.7159C59.8579 30.2446 59.8198 28.7077 59.3747 27.2498C58.2123 23.4427 56.4963 18.3782 54.6392 14.0197C53.7115 11.8425 52.7382 9.81701 51.7703 8.2053C50.833 6.64459 49.8008 5.29613 48.6988 4.68895C46.7003 3.58787 43.524 2.7591 40.4738 2.16432C37.3887 1.56271 34.2989 1.1764 32.3871 1.00404Z" stroke="#3E5A59" stroke-width="2"/>
<path d="M23.4895 38.4195C23.7867 39.3636 24.4518 40.1567 25.3375 40.6233C26.2232 41.0899 27.2564 41.1915 28.2086 40.9056C28.4989 40.8244 28.7771 40.7071 29.0366 40.5566M19.6482 27.5875L19.7454 27.3351C20.0702 26.6025 20.5883 25.9711 21.2464 25.506C22.2301 25.0216 23.0602 24.2835 23.6495 23.369C23.9454 22.6007 24.2456 21.8215 24.6087 21.0791C26.3803 17.5141 31.0225 16.3658 34.6349 17.7574L34.7243 17.7919C38.3367 19.1836 41.0086 23.1496 39.9416 26.9861C39.7127 27.7802 39.3454 28.5336 39.1053 29.3234C38.9306 30.4003 39.0493 31.5072 39.4493 32.5313C39.6304 33.3134 39.5924 34.1267 39.3393 34.8837L39.2463 35.1251C38.8847 36.1381 38.1622 36.9834 37.212 37.505C36.0018 38.0767 34.6153 38.1883 33.3152 37.8187C29.4796 36.7948 25.7633 35.3631 22.2321 33.5489C21.0233 32.9463 20.0715 31.9348 19.5529 30.7018C19.2087 29.6808 19.2424 28.5769 19.6482 27.5875Z" stroke="#3E5A59" stroke-width="2" stroke-linecap="round" stroke-linejoin="round"/>
<defs>
<linearGradient id="paint0_linear_2144_16749" x1="31.5" y1="-4.14542e-08" x2="31.5" y2="6.5" gradientUnits="userSpaceOnUse">
<stop stop-color="white" stop-opacity="0.7"/>
<stop offset="1" stop-color="white" stop-opacity="0"/>
</linearGradient>
</defs>
</svg>
