<svg width="61" height="64" viewBox="0 0 61 64" fill="none" xmlns="http://www.w3.org/2000/svg">
<path d="M0.71006 35.2062L4.54356 19.2389C5.09289 16.9508 6.57449 14.997 8.62947 13.8506L20.7902 7.06687C22.0443 6.36726 23.4566 6 24.8927 6H31.8919C35.8559 6.35737 44.7568 7.60819 48.6486 9.75244C52.2118 11.7155 56.9529 24.9116 59.3876 32.8861C59.8004 34.2381 59.838 35.6704 59.5289 37.0497L56.4996 50.5685C55.9754 52.9081 54.4787 54.9133 52.3848 56.0814L40.6843 62.6084C39.1831 63.4459 37.4615 63.8038 35.7508 63.6342L16.0078 61.6762C13.112 61.389 10.5697 59.6272 9.28411 57.0166L1.34374 40.8924C0.475366 39.129 0.251194 37.1175 0.71006 35.2062Z" fill="#3E5A59"/>
<path d="M32.3871 1.00404L32.3423 1H32.2973H25.648C24.1132 1 22.6039 1.39251 21.2635 2.14022L9.71083 8.58477C7.51457 9.80993 5.93111 11.8981 5.34401 14.3435L1.70219 29.5124C1.21177 31.5551 1.45136 33.705 2.37943 35.5896L9.92279 50.9075C11.2968 53.6976 14.0138 55.5806 17.1087 55.8875L35.8646 57.7476C37.6928 57.9289 39.5328 57.5463 41.1373 56.6513L52.2527 50.4506C54.4906 49.2023 56.0902 47.0592 56.6505 44.5588L59.5283 31.7159C59.8579 30.2446 59.8198 28.7077 59.3747 27.2498C58.2123 23.4427 56.4963 18.3782 54.6392 14.0197C53.7115 11.8425 52.7382 9.81701 51.7703 8.2053C50.833 6.64459 49.8008 5.29613 48.6988 4.68895C46.7003 3.58787 43.524 2.7591 40.4738 2.16432C37.3887 1.56271 34.2989 1.1764 32.3871 1.00404Z" fill="#D3DCD6"/>
<path d="M32.3871 1.00404L32.3423 1H32.2973H25.648C24.1132 1 22.6039 1.39251 21.2635 2.14022L9.71083 8.58477C7.51457 9.80993 5.93111 11.8981 5.34401 14.3435L1.70219 29.5124C1.21177 31.5551 1.45136 33.705 2.37943 35.5896L9.92279 50.9075C11.2968 53.6976 14.0138 55.5806 17.1087 55.8875L35.8646 57.7476C37.6928 57.9289 39.5328 57.5463 41.1373 56.6513L52.2527 50.4506C54.4906 49.2023 56.0902 47.0592 56.6505 44.5588L59.5283 31.7159C59.8579 30.2446 59.8198 28.7077 59.3747 27.2498C58.2123 23.4427 56.4963 18.3782 54.6392 14.0197C53.7115 11.8425 52.7382 9.81701 51.7703 8.2053C50.833 6.64459 49.8008 5.29613 48.6988 4.68895C46.7003 3.58787 43.524 2.7591 40.4738 2.16432C37.3887 1.56271 34.2989 1.1764 32.3871 1.00404Z" fill="url(#paint0_linear_2144_16723)"/>
<path d="M32.3871 1.00404L32.3423 1H32.2973H25.648C24.1132 1 22.6039 1.39251 21.2635 2.14022L9.71083 8.58477C7.51457 9.80993 5.93111 11.8981 5.34401 14.3435L1.70219 29.5124C1.21177 31.5551 1.45136 33.705 2.37943 35.5896L9.92279 50.9075C11.2968 53.6976 14.0138 55.5806 17.1087 55.8875L35.8646 57.7476C37.6928 57.9289 39.5328 57.5463 41.1373 56.6513L52.2527 50.4506C54.4906 49.2023 56.0902 47.0592 56.6505 44.5588L59.5283 31.7159C59.8579 30.2446 59.8198 28.7077 59.3747 27.2498C58.2123 23.4427 56.4963 18.3782 54.6392 14.0197C53.7115 11.8425 52.7382 9.81701 51.7703 8.2053C50.833 6.64459 49.8008 5.29613 48.6988 4.68895C46.7003 3.58787 43.524 2.7591 40.4738 2.16432C37.3887 1.56271 34.2989 1.1764 32.3871 1.00404Z" stroke="#3E5A59" stroke-width="2"/>
<rect width="25.307" height="2.97729" rx="1.48865" transform="matrix(-0.707107 -0.707107 -0.707107 0.707107 40 37.8947)" fill="#3E5A59"/>
<rect x="20.6476" y="37.8947" width="25.307" height="2.97729" rx="1.48865" transform="rotate(-45 20.6476 37.8947)" fill="#3E5A59"/>
<defs>
<linearGradient id="paint0_linear_2144_16723" x1="31.5" y1="-4.14542e-08" x2="31.5" y2="6.5" gradientUnits="userSpaceOnUse">
<stop stop-color="white" stop-opacity="0.7"/>
<stop offset="1" stop-color="white" stop-opacity="0"/>
</linearGradient>
</defs>
</svg>
