<svg width="36" height="36" viewBox="0 0 36 36" fill="none" xmlns="http://www.w3.org/2000/svg">
<path d="M1 20.8889L4.06306 7.66667L13.8649 2H19.0721C21.3183 2.20988 26.3622 2.94444 28.5676 4.2037C30.773 5.46296 33.7748 14.5926 35 19L32.5496 30.3333L22.7477 36L7.43243 34.4259L1 20.8889Z" fill="#3E5A59"/>
<g filter="url(#filter0_i_2130_9386)">
<path d="M2 18.7778L4.88288 6.33333L14.1081 1H19.009C21.1231 1.19753 25.8703 1.88889 27.9459 3.07407C30.0216 4.25926 32.8468 12.8519 34 17L31.6937 27.6667L22.4685 33L8.05405 31.5185L2 18.7778Z" fill="#D3DCD6"/>
</g>
<path d="M4.63263 5.90047L4.44476 6.00908L4.39578 6.22049L1.5129 18.6649L1.47354 18.8348L1.54839 18.9924L7.60245 31.7331L7.72316 31.9871L8.00293 32.0159L22.4174 33.4974L22.5785 33.5139L22.7187 33.4329L31.9439 28.0995L32.1356 27.9887L32.1824 27.7723L34.4887 17.1057L34.5148 16.985L34.4817 16.8661C33.902 14.7806 32.9021 11.578 31.7841 8.74251C31.2254 7.3258 30.6325 5.98842 30.0427 4.92428C29.7479 4.3923 29.4486 3.91906 29.1489 3.53501C28.8539 3.15696 28.5353 2.83485 28.1939 2.63987C27.0799 2.00379 25.3035 1.52268 23.5909 1.17657C21.8606 0.826897 20.1276 0.602334 19.0555 0.502168L19.0323 0.5H19.009H14.1081H13.974L13.8579 0.567133L4.63263 5.90047Z" stroke="#6A7F78"/>
<path fill-rule="evenodd" clip-rule="evenodd" d="M23.6229 14.4583L23.2079 13.7383C22.8569 13.129 22.0789 12.9188 21.4688 13.2684V13.2684C21.1784 13.4395 20.8318 13.488 20.5056 13.4033C20.1793 13.3186 19.9002 13.1076 19.7297 12.8169C19.62 12.632 19.5611 12.4215 19.5588 12.2066V12.2066C19.5687 11.8621 19.4387 11.5282 19.1985 11.281C18.9582 11.0339 18.6281 10.8945 18.2835 10.8947H17.4475C17.1098 10.8946 16.786 11.0292 16.5478 11.2686C16.3096 11.5079 16.1766 11.8323 16.1782 12.17V12.17C16.1682 12.8672 15.6001 13.4271 14.9028 13.4271C14.6879 13.4248 14.4774 13.3659 14.2926 13.2562V13.2562C13.6825 12.9066 12.9045 13.1168 12.5535 13.7261L12.108 14.4583C11.7574 15.0669 11.9647 15.8443 12.5718 16.1975V16.1975C12.9664 16.4253 13.2095 16.8463 13.2095 17.302C13.2095 17.7576 12.9664 18.1787 12.5718 18.4065V18.4065C11.9655 18.7572 11.7579 19.5328 12.108 20.1395V20.1395L12.5291 20.8657C12.6936 21.1625 12.9695 21.3815 13.2959 21.4742C13.6223 21.567 13.9722 21.5259 14.2682 21.3599V21.3599C14.5592 21.1902 14.9059 21.1436 15.2314 21.2307C15.5568 21.3178 15.8339 21.5313 16.0012 21.8237C16.1109 22.0085 16.1699 22.219 16.1721 22.4339V22.4339C16.1721 23.1383 16.7431 23.7093 17.4475 23.7093H18.2835C18.9854 23.7093 19.5555 23.142 19.5588 22.44V22.44C19.5572 22.1013 19.691 21.776 19.9306 21.5364C20.1701 21.2969 20.4954 21.163 20.8342 21.1647C21.0486 21.1704 21.2582 21.2291 21.4444 21.3355V21.3355C22.0529 21.6862 22.8304 21.4788 23.1835 20.8718V20.8718L23.6229 20.1395C23.793 19.8476 23.8396 19.4999 23.7526 19.1735C23.6655 18.8471 23.452 18.5688 23.1591 18.4004V18.4004C22.8663 18.2319 22.6527 17.9537 22.5657 17.6272C22.4786 17.3008 22.5253 16.9531 22.6954 16.6612C22.806 16.4682 22.966 16.3081 23.1591 16.1975V16.1975C23.7626 15.8445 23.9694 15.0716 23.6229 14.4644V14.4644V14.4583Z" stroke="#3E5A59" stroke-width="1.5" stroke-linecap="round" stroke-linejoin="round"/>
<circle cx="17.8688" cy="17.302" r="1.75744" stroke="#3E5A59" stroke-width="1.5" stroke-linecap="round" stroke-linejoin="round"/>
<defs>
<filter id="filter0_i_2130_9386" x="0.947266" y="0" width="34.082" height="36.0278" filterUnits="userSpaceOnUse" color-interpolation-filters="sRGB">
<feFlood flood-opacity="0" result="BackgroundImageFix"/>
<feBlend mode="normal" in="SourceGraphic" in2="BackgroundImageFix" result="shape"/>
<feColorMatrix in="SourceAlpha" type="matrix" values="0 0 0 0 0 0 0 0 0 0 0 0 0 0 0 0 0 0 127 0" result="hardAlpha"/>
<feOffset dy="3"/>
<feGaussianBlur stdDeviation="1"/>
<feComposite in2="hardAlpha" operator="arithmetic" k2="-1" k3="1"/>
<feColorMatrix type="matrix" values="0 0 0 0 0.967773 0 0 0 0 1 0 0 0 0 0.978516 0 0 0 1 0"/>
<feBlend mode="normal" in2="shape" result="effect1_innerShadow_2130_9386"/>
</filter>
</defs>
</svg>
