<svg width="61" height="64" viewBox="0 0 61 64" fill="none" xmlns="http://www.w3.org/2000/svg">
<path d="M0.71006 35.2062L4.54356 19.2389C5.09289 16.9508 6.57449 14.997 8.62947 13.8506L20.7902 7.06687C22.0443 6.36726 23.4566 6 24.8927 6H31.8919C35.8559 6.35737 44.7568 7.60819 48.6486 9.75244C52.2118 11.7155 56.9529 24.9116 59.3876 32.8861C59.8004 34.2381 59.838 35.6704 59.5289 37.0497L56.4996 50.5685C55.9754 52.9081 54.4787 54.9133 52.3848 56.0814L40.6843 62.6084C39.1831 63.4459 37.4615 63.8038 35.7508 63.6342L16.0078 61.6762C13.112 61.389 10.5697 59.6272 9.28411 57.0166L1.34374 40.8924C0.475366 39.129 0.251194 37.1175 0.71006 35.2062Z" fill="#3E5A59" style="fill:#3E5A59;fill:color(display-p3 0.2431 0.3529 0.3490);fill-opacity:1;"/>
<path d="M32.3871 1.00404L32.3423 1H32.2973H25.648C24.1132 1 22.6039 1.39251 21.2635 2.14022L9.71083 8.58477C7.51457 9.80993 5.93111 11.8981 5.34401 14.3435L1.70219 29.5124C1.21177 31.5551 1.45136 33.705 2.37943 35.5896L9.92279 50.9075C11.2968 53.6976 14.0138 55.5806 17.1087 55.8875L35.8646 57.7476C37.6928 57.9289 39.5328 57.5463 41.1373 56.6513L52.2527 50.4506C54.4906 49.2023 56.0902 47.0592 56.6505 44.5588L59.5283 31.7159C59.8579 30.2446 59.8198 28.7077 59.3747 27.2498C58.2123 23.4427 56.4963 18.3782 54.6392 14.0197C53.7115 11.8425 52.7382 9.81701 51.7703 8.2053C50.833 6.64459 49.8008 5.29613 48.6988 4.68895C46.7003 3.58787 43.524 2.7591 40.4738 2.16432C37.3887 1.56271 34.2989 1.1764 32.3871 1.00404Z" fill="#D3DCD6" style="fill:#D3DCD6;fill:color(display-p3 0.8275 0.8627 0.8392);fill-opacity:1;"/>
<path d="M32.3871 1.00404L32.3423 1H32.2973H25.648C24.1132 1 22.6039 1.39251 21.2635 2.14022L9.71083 8.58477C7.51457 9.80993 5.93111 11.8981 5.34401 14.3435L1.70219 29.5124C1.21177 31.5551 1.45136 33.705 2.37943 35.5896L9.92279 50.9075C11.2968 53.6976 14.0138 55.5806 17.1087 55.8875L35.8646 57.7476C37.6928 57.9289 39.5328 57.5463 41.1373 56.6513L52.2527 50.4506C54.4906 49.2023 56.0902 47.0592 56.6505 44.5588L59.5283 31.7159C59.8579 30.2446 59.8198 28.7077 59.3747 27.2498C58.2123 23.4427 56.4963 18.3782 54.6392 14.0197C53.7115 11.8425 52.7382 9.81701 51.7703 8.2053C50.833 6.64459 49.8008 5.29613 48.6988 4.68895C46.7003 3.58787 43.524 2.7591 40.4738 2.16432C37.3887 1.56271 34.2989 1.1764 32.3871 1.00404Z" fill="url(#paint0_linear_3903_16164)" style=""/>
<path d="M32.3871 1.00404L32.3423 1H32.2973H25.648C24.1132 1 22.6039 1.39251 21.2635 2.14022L9.71083 8.58477C7.51457 9.80993 5.93111 11.8981 5.34401 14.3435L1.70219 29.5124C1.21177 31.5551 1.45136 33.705 2.37943 35.5896L9.92279 50.9075C11.2968 53.6976 14.0138 55.5806 17.1087 55.8875L35.8646 57.7476C37.6928 57.9289 39.5328 57.5463 41.1373 56.6513L52.2527 50.4506C54.4906 49.2023 56.0902 47.0592 56.6505 44.5588L59.5283 31.7159C59.8579 30.2446 59.8198 28.7077 59.3747 27.2498C58.2123 23.4427 56.4963 18.3782 54.6392 14.0197C53.7115 11.8425 52.7382 9.81701 51.7703 8.2053C50.833 6.64459 49.8008 5.29613 48.6988 4.68895C46.7003 3.58787 43.524 2.7591 40.4738 2.16432C37.3887 1.56271 34.2989 1.1764 32.3871 1.00404Z" stroke="#3E5A59" style="stroke:#3E5A59;stroke:color(display-p3 0.2431 0.3529 0.3490);stroke-opacity:1;" stroke-width="2"/>
<path d="M41.5866 27.0955C41.5374 27.0273 41.4728 26.9718 41.398 26.9335C41.3232 26.8952 41.2403 26.8751 41.1563 26.875H31.708L34.0243 26.0383C34.2891 25.9424 34.505 25.7453 34.6245 25.4903C34.744 25.2353 34.7574 24.9432 34.6618 24.6783L33.9419 22.6782L40.6861 20.2344C41.0171 20.1145 41.287 19.8681 41.4364 19.5494C41.5859 19.2306 41.6026 18.8655 41.483 18.5344L40.9518 17.0363C40.8319 16.7053 40.5855 16.4354 40.2667 16.286C39.9479 16.1365 39.5829 16.1198 39.2518 16.2394L32.4969 18.6832L31.7744 16.683C31.6785 16.4182 31.4814 16.2023 31.2264 16.0828C30.9713 15.9632 30.6793 15.9498 30.4144 16.0455L25.418 17.8438C25.1532 17.9397 24.9373 18.1368 24.8177 18.3918C24.6982 18.6468 24.6848 18.9389 24.7805 19.2038L27.5483 26.875H26.2813C26.1404 26.875 26.0053 26.931 25.9056 27.0306C25.806 27.1303 25.75 27.2654 25.75 27.4063V27.9375H17.7813C17.6926 27.9374 17.6054 27.9594 17.5274 28.0017C17.4495 28.0439 17.3833 28.1049 17.335 28.1793C17.2869 28.2534 17.2581 28.3384 17.2511 28.4265C17.2442 28.5147 17.2593 28.6031 17.2952 28.6839L18.8889 32.3071C19.2931 33.2257 19.9564 34.0065 20.7976 34.5538C21.6388 35.1011 22.6214 35.3911 23.625 35.3883H23.9916C24.4342 35.3883 24.8607 35.5547 25.1864 35.8545C25.512 36.1544 25.713 36.5657 25.7495 37.0068C25.7859 37.448 25.6552 37.8867 25.3832 38.2359C25.1112 38.5851 24.7178 38.8193 24.2811 38.8919L23.0114 39.1044C22.8871 39.1239 22.7736 39.187 22.6914 39.2823C22.6092 39.3777 22.5635 39.4991 22.5625 39.625V42.2813C22.5625 42.4222 22.6185 42.5573 22.7181 42.6569C22.8178 42.7566 22.9529 42.8125 23.0938 42.8125H28.4063C28.5472 42.8125 28.6823 42.7566 28.7819 42.6569C28.8816 42.5573 28.9375 42.4222 28.9375 42.2813C28.9375 41.8586 29.1054 41.4532 29.4043 41.1543C29.7032 40.8554 30.1086 40.6875 30.5313 40.6875C30.954 40.6875 31.3593 40.8554 31.6582 41.1543C31.9571 41.4532 32.125 41.8586 32.125 42.2813C32.125 42.4222 32.181 42.5573 32.2806 42.6569C32.3803 42.7566 32.5154 42.8125 32.6563 42.8125H37.9688C38.1097 42.8125 38.2448 42.7566 38.3444 42.6569C38.4441 42.5573 38.5 42.4222 38.5 42.2813V39.625C38.5018 39.4981 38.458 39.3747 38.3766 39.2773C38.2952 39.1798 38.1817 39.1147 38.0564 39.0938L36.97 38.9132C36.5085 38.8372 36.0889 38.6002 35.7854 38.2443C35.482 37.8884 35.3145 37.4365 35.3125 36.9688C35.3125 36.5461 35.4804 36.1407 35.7793 35.8418C36.0782 35.5429 36.4836 35.375 36.9063 35.375C37.0048 35.3752 37.1015 35.348 37.1855 35.2964C37.2694 35.2448 37.3374 35.1709 37.3818 35.0828L39.3793 31.0985C39.7346 31.0379 40.0671 30.8826 40.3415 30.6488C40.6159 30.415 40.8222 30.1116 40.9385 29.7704L41.6663 27.5896C41.6946 27.507 41.7022 27.4187 41.6883 27.3326C41.6744 27.2464 41.6394 27.165 41.5866 27.0955ZM39.6024 17.2461C39.6353 17.2339 39.6704 17.2283 39.7055 17.2297C39.7406 17.2311 39.7751 17.2394 39.807 17.2542C39.8389 17.2691 39.8675 17.2901 39.8912 17.316C39.9149 17.342 39.9332 17.3724 39.945 17.4055L40.4763 18.9036C40.5029 18.9683 40.5029 19.0408 40.4763 19.1055C40.4615 19.1374 40.4404 19.166 40.4144 19.1898C40.3884 19.2135 40.358 19.2318 40.3249 19.2436L33.5807 21.6794L32.8582 19.6819L39.6024 17.2461ZM30.7757 17.0469L33.663 25.0422L28.6719 26.8432L25.7793 18.8478L30.7757 17.0469ZM39.9264 29.4197C39.8631 29.607 39.7427 29.7697 39.5822 29.885C39.4216 30.0003 39.229 30.0624 39.0313 30.0625C38.9327 30.0623 38.8361 30.0896 38.7521 30.1412C38.6681 30.1928 38.6002 30.2667 38.5558 30.3547L36.5636 34.3391C35.9246 34.4222 35.3376 34.7348 34.912 35.2186C34.4864 35.7024 34.2511 36.3244 34.25 36.9688C34.2481 37.6902 34.5031 38.3888 34.9694 38.9393C35.4357 39.4898 36.0828 39.8562 36.7947 39.973L37.4375 40.0793V41.75H33.1344C33.0125 41.1496 32.6867 40.6097 32.2123 40.222C31.7379 39.8342 31.144 39.6224 30.5313 39.6224C29.9186 39.6224 29.3247 39.8342 28.8503 40.222C28.3759 40.6097 28.0501 41.1496 27.9282 41.75H23.625V40.0739L24.4511 39.9385C25.1713 39.8429 25.8271 39.4737 26.2822 38.9074C26.7373 38.3411 26.957 37.6214 26.8954 36.8975C26.8339 36.1736 26.496 35.5012 25.9518 35.0198C25.4076 34.5385 24.699 34.2852 23.973 34.3125H23.625C22.8296 34.3127 22.0512 34.0815 21.3848 33.6471C20.7184 33.2128 20.1927 32.594 19.8718 31.8661L18.5968 29H26.2813C26.4222 29 26.5573 28.9441 26.6569 28.8444C26.7566 28.7448 26.8125 28.6097 26.8125 28.4688V27.9375H40.4205L39.9264 29.4197Z" fill="#3E5A59" stroke="#3E5A59" style="fill:#3E5A59;fill:color(display-p3 0.2431 0.3529 0.3490);fill-opacity:1;stroke:#3E5A59;stroke:color(display-p3 0.2431 0.3529 0.3490);stroke-opacity:1;" stroke-width="0.386364"/>
<path d="M19.8452 25.8125L24.3608 26.3438H24.4219C24.5628 26.3519 24.7011 26.3037 24.8065 26.2098C24.9119 26.1159 24.9756 25.9839 24.9837 25.8431C24.9918 25.7022 24.9436 25.5638 24.8497 25.4585C24.7558 25.3531 24.6239 25.2894 24.483 25.2813L19.9674 24.75C19.8976 24.742 19.8269 24.7478 19.7594 24.7671C19.6919 24.7864 19.6288 24.8187 19.5738 24.8624C19.5188 24.9061 19.473 24.9601 19.4388 25.0215C19.4047 25.0829 19.383 25.1504 19.375 25.2202C19.367 25.2899 19.3728 25.3606 19.3921 25.4281C19.4114 25.4956 19.4438 25.5587 19.4874 25.6137C19.5311 25.6687 19.5851 25.7146 19.6465 25.7487C19.7079 25.7828 19.7754 25.8045 19.8452 25.8125ZM23.5506 23.8309C23.6462 23.9101 23.7665 23.9534 23.8906 23.9531C24 23.9533 24.1068 23.9198 24.1964 23.857C24.286 23.7943 24.3541 23.7054 24.3913 23.6025C24.4285 23.4997 24.433 23.3878 24.4043 23.2823C24.3755 23.1767 24.3149 23.0826 24.2306 23.0128L22.6369 21.6847C22.5284 21.5945 22.3885 21.5511 22.2481 21.5641C22.1076 21.577 21.978 21.6453 21.8878 21.7538C21.7977 21.8622 21.7543 22.0021 21.7672 22.1426C21.7802 22.2831 21.8484 22.4126 21.9569 22.5028L23.5506 23.8309ZM37.8652 24.4844L36.5371 24.75C36.3962 24.7637 36.2665 24.8329 36.1766 24.9422C36.0867 25.0516 36.0439 25.1922 36.0576 25.3331C36.0713 25.4739 36.1405 25.6036 36.2498 25.6935C36.3592 25.7834 36.4998 25.8262 36.6406 25.8125C36.6751 25.8164 36.7098 25.8164 36.7442 25.8125L38.0724 25.5469C38.2133 25.5194 38.3375 25.4371 38.4177 25.318C38.4979 25.199 38.5275 25.0529 38.5 24.912C38.4725 24.7711 38.3902 24.6469 38.2712 24.5667C38.1521 24.4865 38.0061 24.4569 37.8652 24.4844Z" fill="#3E5A59" stroke="#3E5A59" style="fill:#3E5A59;fill:color(display-p3 0.2431 0.3529 0.3490);fill-opacity:1;stroke:#3E5A59;stroke:color(display-p3 0.2431 0.3529 0.3490);stroke-opacity:1;" stroke-width="0.386364"/>
<defs>
<linearGradient id="paint0_linear_3903_16164" x1="31.5" y1="-4.14542e-08" x2="31.5" y2="6.5" gradientUnits="userSpaceOnUse">
<stop stop-color="white" stop-opacity="0.7" style="stop-color:white;stop-opacity:0.7;"/>
<stop offset="1" stop-color="white" stop-opacity="0" style="stop-color:none;stop-opacity:0;"/>
</linearGradient>
</defs>
</svg>
