<svg width="61" height="64" viewBox="0 0 61 64" fill="none" xmlns="http://www.w3.org/2000/svg">
<path d="M0.71006 35.2062L4.54356 19.2389C5.09289 16.9508 6.57449 14.997 8.62947 13.8506L20.7902 7.06687C22.0443 6.36726 23.4566 6 24.8927 6H31.8919C35.8559 6.35737 44.7568 7.60819 48.6486 9.75244C52.2118 11.7155 56.9529 24.9116 59.3876 32.8861C59.8004 34.2381 59.838 35.6704 59.5289 37.0497L56.4996 50.5685C55.9754 52.9081 54.4787 54.9133 52.3848 56.0814L40.6843 62.6084C39.1831 63.4459 37.4615 63.8038 35.7508 63.6342L16.0078 61.6762C13.112 61.389 10.5697 59.6272 9.28411 57.0166L1.34374 40.8924C0.475366 39.129 0.251194 37.1175 0.71006 35.2062Z" fill="#3E5A59"/>
<path d="M32.3871 1.00404L32.3423 1H32.2973H25.648C24.1132 1 22.6039 1.39251 21.2635 2.14022L9.71083 8.58477C7.51457 9.80993 5.93111 11.8981 5.34401 14.3435L1.70219 29.5124C1.21177 31.5551 1.45136 33.705 2.37943 35.5896L9.92279 50.9075C11.2968 53.6976 14.0138 55.5806 17.1087 55.8875L35.8646 57.7476C37.6928 57.9289 39.5328 57.5463 41.1373 56.6513L52.2527 50.4506C54.4906 49.2023 56.0902 47.0592 56.6505 44.5588L59.5283 31.7159C59.8579 30.2446 59.8198 28.7077 59.3747 27.2498C58.2123 23.4427 56.4963 18.3782 54.6392 14.0197C53.7115 11.8425 52.7382 9.81701 51.7703 8.2053C50.833 6.64459 49.8008 5.29613 48.6988 4.68895C46.7003 3.58787 43.524 2.7591 40.4738 2.16432C37.3887 1.56271 34.2989 1.1764 32.3871 1.00404Z" fill="#D3DCD6"/>
<path d="M32.3871 1.00404L32.3423 1H32.2973H25.648C24.1132 1 22.6039 1.39251 21.2635 2.14022L9.71083 8.58477C7.51457 9.80993 5.93111 11.8981 5.34401 14.3435L1.70219 29.5124C1.21177 31.5551 1.45136 33.705 2.37943 35.5896L9.92279 50.9075C11.2968 53.6976 14.0138 55.5806 17.1087 55.8875L35.8646 57.7476C37.6928 57.9289 39.5328 57.5463 41.1373 56.6513L52.2527 50.4506C54.4906 49.2023 56.0902 47.0592 56.6505 44.5588L59.5283 31.7159C59.8579 30.2446 59.8198 28.7077 59.3747 27.2498C58.2123 23.4427 56.4963 18.3782 54.6392 14.0197C53.7115 11.8425 52.7382 9.81701 51.7703 8.2053C50.833 6.64459 49.8008 5.29613 48.6988 4.68895C46.7003 3.58787 43.524 2.7591 40.4738 2.16432C37.3887 1.56271 34.2989 1.1764 32.3871 1.00404Z" fill="url(#paint0_linear_2144_15869)"/>
<path d="M32.3871 1.00404L32.3423 1H32.2973H25.648C24.1132 1 22.6039 1.39251 21.2635 2.14022L9.71083 8.58477C7.51457 9.80993 5.93111 11.8981 5.34401 14.3435L1.70219 29.5124C1.21177 31.5551 1.45136 33.705 2.37943 35.5896L9.92279 50.9075C11.2968 53.6976 14.0138 55.5806 17.1087 55.8875L35.8646 57.7476C37.6928 57.9289 39.5328 57.5463 41.1373 56.6513L52.2527 50.4506C54.4906 49.2023 56.0902 47.0592 56.6505 44.5588L59.5283 31.7159C59.8579 30.2446 59.8198 28.7077 59.3747 27.2498C58.2123 23.4427 56.4963 18.3782 54.6392 14.0197C53.7115 11.8425 52.7382 9.81701 51.7703 8.2053C50.833 6.64459 49.8008 5.29613 48.6988 4.68895C46.7003 3.58787 43.524 2.7591 40.4738 2.16432C37.3887 1.56271 34.2989 1.1764 32.3871 1.00404Z" stroke="#3E5A59" stroke-width="2"/>
<path d="M35.1987 18.7829C35.3666 18.6474 35.5247 18.5002 35.672 18.3425C36.8654 17.064 36.916 15.1647 35.7822 14.1112C34.6484 13.0576 32.7641 13.2443 31.5727 14.5324C30.3813 15.8204 30.0318 17.7276 29.6816 19.9405L35.1987 18.7829ZM19.5439 28.7447L41.9009 24.0333L44.2965 35.4013C44.4037 35.9101 44.3044 36.4407 44.0205 36.8764C43.7365 37.312 43.291 37.617 42.7822 37.7242L24.2625 41.627C23.7536 41.7342 23.223 41.6349 22.7874 41.3509C22.3517 41.0669 22.0467 40.6215 21.9395 40.1127L19.5439 28.7447Z" stroke="#3E5A59" stroke-width="2" stroke-linecap="round" stroke-linejoin="round"/>
<path d="M33.5268 25.798L27.9148 26.9807L30.7147 40.2673L36.3267 39.0846L33.5268 25.798Z" stroke="#3E5A59" stroke-width="2" stroke-linecap="round" stroke-linejoin="round"/>
<path d="M23.5523 21.2372C23.3452 21.1818 23.1426 21.1106 22.9464 21.0242C21.3385 20.3361 20.521 18.6197 21.138 17.1972C21.7549 15.7747 23.5496 15.1861 25.1642 15.8829C26.7789 16.5796 27.8587 18.1856 29.077 20.0679L23.5523 21.2372Z" stroke="#3E5A59" stroke-width="2" stroke-linecap="round" stroke-linejoin="round"/>
<path d="M40.1685 17.7357L18.5838 22.2844C17.7891 22.4518 17.2806 23.2319 17.448 24.0266L18.1859 27.5281C18.3534 28.3229 19.1334 28.8313 19.9282 28.6639L41.5129 24.1152C42.3076 23.9477 42.8161 23.1677 42.6487 22.373L41.9108 18.8715C41.7433 18.0767 40.9633 17.5682 40.1685 17.7357Z" stroke="#3E5A59" stroke-width="2" stroke-linecap="round" stroke-linejoin="round"/>
<path d="M32.6958 19.3105L26.0621 20.7084L27.4065 27.0879L34.0402 25.69L32.6958 19.3105Z" stroke="#3E5A59" stroke-width="2" stroke-linecap="round" stroke-linejoin="round"/>
<defs>
<linearGradient id="paint0_linear_2144_15869" x1="31.5" y1="-4.14542e-08" x2="31.5" y2="6.5" gradientUnits="userSpaceOnUse">
<stop stop-color="white" stop-opacity="0.7"/>
<stop offset="1" stop-color="white" stop-opacity="0"/>
</linearGradient>
</defs>
</svg>
