<svg width="61" height="64" viewBox="0 0 61 64" fill="none" xmlns="http://www.w3.org/2000/svg">
<path d="M0.71006 35.2062L4.54356 19.2389C5.09289 16.9508 6.57449 14.997 8.62947 13.8506L20.7902 7.06687C22.0443 6.36726 23.4566 6 24.8927 6H31.8919C35.8559 6.35737 44.7568 7.60819 48.6486 9.75244C52.2118 11.7155 56.9529 24.9116 59.3876 32.8861C59.8004 34.2381 59.838 35.6704 59.5289 37.0497L56.4996 50.5685C55.9754 52.9081 54.4787 54.9133 52.3848 56.0814L40.6843 62.6084C39.1831 63.4459 37.4615 63.8038 35.7508 63.6342L16.0078 61.6762C13.112 61.389 10.5697 59.6272 9.28411 57.0166L1.34374 40.8924C0.475366 39.129 0.251194 37.1175 0.71006 35.2062Z" fill="#3E5A59" style="fill:#3E5A59;fill:color(display-p3 0.2431 0.3529 0.3490);fill-opacity:1;"/>
<path d="M32.3871 1.00404L32.3423 1H32.2973H25.648C24.1132 1 22.6039 1.39251 21.2635 2.14022L9.71083 8.58477C7.51457 9.80993 5.93111 11.8981 5.34401 14.3435L1.70219 29.5124C1.21177 31.5551 1.45136 33.705 2.37943 35.5896L9.92279 50.9075C11.2968 53.6976 14.0138 55.5806 17.1087 55.8875L35.8646 57.7476C37.6928 57.9289 39.5328 57.5463 41.1373 56.6513L52.2527 50.4506C54.4906 49.2023 56.0902 47.0592 56.6505 44.5588L59.5283 31.7159C59.8579 30.2446 59.8198 28.7077 59.3747 27.2498C58.2123 23.4427 56.4963 18.3782 54.6392 14.0197C53.7115 11.8425 52.7382 9.81701 51.7703 8.2053C50.833 6.64459 49.8008 5.29613 48.6988 4.68895C46.7003 3.58787 43.524 2.7591 40.4738 2.16432C37.3887 1.56271 34.2989 1.1764 32.3871 1.00404Z" fill="#D3DCD6" style="fill:#D3DCD6;fill:color(display-p3 0.8275 0.8627 0.8392);fill-opacity:1;"/>
<path d="M32.3871 1.00404L32.3423 1H32.2973H25.648C24.1132 1 22.6039 1.39251 21.2635 2.14022L9.71083 8.58477C7.51457 9.80993 5.93111 11.8981 5.34401 14.3435L1.70219 29.5124C1.21177 31.5551 1.45136 33.705 2.37943 35.5896L9.92279 50.9075C11.2968 53.6976 14.0138 55.5806 17.1087 55.8875L35.8646 57.7476C37.6928 57.9289 39.5328 57.5463 41.1373 56.6513L52.2527 50.4506C54.4906 49.2023 56.0902 47.0592 56.6505 44.5588L59.5283 31.7159C59.8579 30.2446 59.8198 28.7077 59.3747 27.2498C58.2123 23.4427 56.4963 18.3782 54.6392 14.0197C53.7115 11.8425 52.7382 9.81701 51.7703 8.2053C50.833 6.64459 49.8008 5.29613 48.6988 4.68895C46.7003 3.58787 43.524 2.7591 40.4738 2.16432C37.3887 1.56271 34.2989 1.1764 32.3871 1.00404Z" fill="url(#paint0_linear_3982_1611)" style=""/>
<path d="M32.3871 1.00404L32.3423 1H32.2973H25.648C24.1132 1 22.6039 1.39251 21.2635 2.14022L9.71083 8.58477C7.51457 9.80993 5.93111 11.8981 5.34401 14.3435L1.70219 29.5124C1.21177 31.5551 1.45136 33.705 2.37943 35.5896L9.92279 50.9075C11.2968 53.6976 14.0138 55.5806 17.1087 55.8875L35.8646 57.7476C37.6928 57.9289 39.5328 57.5463 41.1373 56.6513L52.2527 50.4506C54.4906 49.2023 56.0902 47.0592 56.6505 44.5588L59.5283 31.7159C59.8579 30.2446 59.8198 28.7077 59.3747 27.2498C58.2123 23.4427 56.4963 18.3782 54.6392 14.0197C53.7115 11.8425 52.7382 9.81701 51.7703 8.2053C50.833 6.64459 49.8008 5.29613 48.6988 4.68895C46.7003 3.58787 43.524 2.7591 40.4738 2.16432C37.3887 1.56271 34.2989 1.1764 32.3871 1.00404Z" stroke="#3E5A59" style="stroke:#3E5A59;stroke:color(display-p3 0.2431 0.3529 0.3490);stroke-opacity:1;" stroke-width="2"/>
<path d="M28.3127 37.1269V34.2216C28.3127 33.4826 28.9151 32.8821 29.6616 32.8772H32.3957C33.1457 32.8772 33.7537 33.4791 33.7537 34.2216V37.1359C33.7535 37.7633 34.2594 38.2761 34.8929 38.2908H36.7157C38.5328 38.2908 40.0059 36.8325 40.0059 35.0336V26.7688C39.9962 26.0611 39.6605 25.3965 39.0945 24.9642L32.8605 19.9927C31.7684 19.127 30.2159 19.127 29.1238 19.9927L22.9173 24.9732C22.3491 25.4038 22.0129 26.0694 22.0059 26.7778V35.0336C22.0059 36.8325 23.4789 38.2908 25.296 38.2908H27.1188C27.7681 38.2908 28.2945 37.7697 28.2945 37.1269" stroke="#3E5A59" style="stroke:#3E5A59;stroke:color(display-p3 0.2431 0.3529 0.3490);stroke-opacity:1;" stroke-width="1.79501" stroke-linecap="round" stroke-linejoin="round"/>
<defs>
<linearGradient id="paint0_linear_3982_1611" x1="31.5" y1="-4.14542e-08" x2="31.5" y2="6.5" gradientUnits="userSpaceOnUse">
<stop stop-color="white" stop-opacity="0.7" style="stop-color:white;stop-opacity:0.7;"/>
<stop offset="1" stop-color="white" stop-opacity="0" style="stop-color:none;stop-opacity:0;"/>
</linearGradient>
</defs>
</svg>
