<svg width="61" height="64" viewBox="0 0 61 64" fill="none" xmlns="http://www.w3.org/2000/svg">
<path d="M0.71006 35.2062L4.54356 19.2389C5.09289 16.9508 6.57449 14.997 8.62947 13.8506L20.7902 7.06687C22.0443 6.36726 23.4566 6 24.8927 6H31.8919C35.8559 6.35737 44.7568 7.60819 48.6486 9.75244C52.2118 11.7155 56.9529 24.9116 59.3876 32.8861C59.8004 34.2381 59.838 35.6704 59.5289 37.0497L56.4996 50.5685C55.9754 52.9081 54.4787 54.9133 52.3848 56.0814L40.6843 62.6084C39.1831 63.4459 37.4615 63.8038 35.7508 63.6342L16.0078 61.6762C13.112 61.389 10.5697 59.6272 9.28411 57.0166L1.34374 40.8924C0.475366 39.129 0.251194 37.1175 0.71006 35.2062Z" fill="#3E5A59" style="fill:#3E5A59;fill:color(display-p3 0.2431 0.3529 0.3490);fill-opacity:1;"/>
<path d="M32.3871 1.00404L32.3423 1H32.2973H25.648C24.1132 1 22.6039 1.39251 21.2635 2.14022L9.71083 8.58477C7.51457 9.80993 5.93111 11.8981 5.34401 14.3435L1.70219 29.5124C1.21177 31.5551 1.45136 33.705 2.37943 35.5896L9.92279 50.9075C11.2968 53.6976 14.0138 55.5806 17.1087 55.8875L35.8646 57.7476C37.6928 57.9289 39.5328 57.5463 41.1373 56.6513L52.2527 50.4506C54.4906 49.2023 56.0902 47.0592 56.6505 44.5588L59.5283 31.7159C59.8579 30.2446 59.8198 28.7077 59.3747 27.2498C58.2123 23.4427 56.4963 18.3782 54.6392 14.0197C53.7115 11.8425 52.7382 9.81701 51.7703 8.2053C50.833 6.64459 49.8008 5.29613 48.6988 4.68895C46.7003 3.58787 43.524 2.7591 40.4738 2.16432C37.3887 1.56271 34.2989 1.1764 32.3871 1.00404Z" fill="#D3DCD6" style="fill:#D3DCD6;fill:color(display-p3 0.8275 0.8627 0.8392);fill-opacity:1;"/>
<path d="M32.3871 1.00404L32.3423 1H32.2973H25.648C24.1132 1 22.6039 1.39251 21.2635 2.14022L9.71083 8.58477C7.51457 9.80993 5.93111 11.8981 5.34401 14.3435L1.70219 29.5124C1.21177 31.5551 1.45136 33.705 2.37943 35.5896L9.92279 50.9075C11.2968 53.6976 14.0138 55.5806 17.1087 55.8875L35.8646 57.7476C37.6928 57.9289 39.5328 57.5463 41.1373 56.6513L52.2527 50.4506C54.4906 49.2023 56.0902 47.0592 56.6505 44.5588L59.5283 31.7159C59.8579 30.2446 59.8198 28.7077 59.3747 27.2498C58.2123 23.4427 56.4963 18.3782 54.6392 14.0197C53.7115 11.8425 52.7382 9.81701 51.7703 8.2053C50.833 6.64459 49.8008 5.29613 48.6988 4.68895C46.7003 3.58787 43.524 2.7591 40.4738 2.16432C37.3887 1.56271 34.2989 1.1764 32.3871 1.00404Z" fill="url(#paint0_linear_3900_12287)" style=""/>
<path d="M32.3871 1.00404L32.3423 1H32.2973H25.648C24.1132 1 22.6039 1.39251 21.2635 2.14022L9.71083 8.58477C7.51457 9.80993 5.93111 11.8981 5.34401 14.3435L1.70219 29.5124C1.21177 31.5551 1.45136 33.705 2.37943 35.5896L9.92279 50.9075C11.2968 53.6976 14.0138 55.5806 17.1087 55.8875L35.8646 57.7476C37.6928 57.9289 39.5328 57.5463 41.1373 56.6513L52.2527 50.4506C54.4906 49.2023 56.0902 47.0592 56.6505 44.5588L59.5283 31.7159C59.8579 30.2446 59.8198 28.7077 59.3747 27.2498C58.2123 23.4427 56.4963 18.3782 54.6392 14.0197C53.7115 11.8425 52.7382 9.81701 51.7703 8.2053C50.833 6.64459 49.8008 5.29613 48.6988 4.68895C46.7003 3.58787 43.524 2.7591 40.4738 2.16432C37.3887 1.56271 34.2989 1.1764 32.3871 1.00404Z" stroke="#3E5A59" style="stroke:#3E5A59;stroke:color(display-p3 0.2431 0.3529 0.3490);stroke-opacity:1;" stroke-width="2"/>
<g clip-path="url(#clip0_3900_12287)">
<path d="M49.1299 26.7462C49.0756 26.6926 48.9559 26.6282 48.8363 26.6926C48.3034 26.8642 47.7161 26.9822 47.1288 27.0358C47.0745 26.6926 47.1288 26.1027 47.1832 26.1027L48.3578 25.8667C48.4774 25.8667 48.6514 25.8131 48.8254 25.6951C49.2931 25.4592 49.3583 24.88 49.4127 24.5904C49.4671 24.3545 49.4671 24.0113 49.4127 23.6573C49.2931 23.3141 48.9994 22.9602 48.5862 22.9602C48.4122 22.9602 48.1729 23.0138 47.9989 23.1318H47.9445C47.0636 23.5394 46.063 23.8289 45.1168 24.1185C44.4643 24.2901 43.877 24.5261 43.2354 24.762C42.9417 24.1185 42.5284 23.6037 41.9955 23.3141L41.9412 23.2605H41.8215C39.1679 23.5501 36.9275 23.6037 35.046 23.2605C35.1004 23.0889 35.1004 22.9173 35.046 22.6813C34.9916 22.5097 34.9264 22.3918 34.8067 22.3381C34.6871 22.2845 34.5675 22.2845 34.5131 22.2845C34.3935 22.2845 34.3391 22.2309 34.2195 22.2309L34.0998 21.9413C33.9258 21.5337 33.7518 21.1262 33.3929 20.783C32.9796 20.3754 32.3924 20.2038 31.9247 20.3218C31.7507 20.3754 31.5658 20.4934 31.3918 20.6114C31.3374 20.665 31.2722 20.665 31.2178 20.7293C30.9785 20.8473 30.7501 20.9653 30.4565 21.0189C30.2825 21.0726 30.0432 21.1905 29.804 21.1905C29.5103 21.2442 29.271 21.1905 29.0427 21.0726C28.9883 21.0189 28.8687 21.0189 28.8034 20.9546C28.6838 20.9009 28.5641 20.8366 28.5098 20.8366C28.2161 20.7186 27.9768 20.7186 27.7485 20.8366C27.4004 20.9546 27.2156 21.3621 27.0415 21.6517C26.9872 21.8877 26.8675 22.1129 26.6935 22.1773C26.3999 22.1773 26.1606 22.3489 25.9322 22.5205C25.8779 22.6384 25.8126 22.6921 25.7582 22.81V23.046C25.7582 23.164 25.7582 23.2176 25.8126 23.3356C25.7582 23.3356 25.693 23.3356 25.6386 23.3892C23.3438 23.8504 21.1578 23.8504 19.2763 23.3892H19.1567L19.1023 23.4428C18.8631 23.6144 18.6347 23.786 18.4498 24.022C17.0903 23.1532 16.6227 21.8769 15.981 20.9438C15.9267 20.8902 15.807 20.8259 15.6874 20.8259C15.0349 20.9438 14.3279 20.9975 13.6863 21.2871C12.3812 21.8769 11.4894 23.2712 11.5547 24.6548V24.7728C11.3154 25.2983 11.2066 25.8131 11.3154 26.285C11.6634 28.666 15.2632 29.0736 17.8516 29.3095C17.9713 29.7171 18.0909 30.1246 18.3193 30.4679H18.2649C18.4389 32.1517 17.21 33.428 16.7967 37.0317C16.7423 37.6752 16.6227 38.426 16.7967 39.2411C16.9163 39.8203 17.1447 40.6354 17.8516 41.2789C18.1453 41.5685 18.5042 41.6864 18.7978 41.6864H18.8522C19.0262 41.6864 19.1458 41.6864 19.3198 41.5685C19.6135 42.3836 19.9071 42.5552 20.4944 42.8448C22.4955 43.9495 24.8555 44.7002 28.6185 44.5286C30.326 44.4107 32.0987 44.5823 33.8062 44.357C35.1004 44.1854 36.5142 44.0138 37.8737 43.6063C38.8742 43.3167 40.4621 42.7911 41.2886 41.6328C42.2348 42.1584 43.4637 40.2385 43.6486 38.3187C43.703 37.214 43.529 36.1737 43.355 35.1226V35.0046C45.9434 32.6773 46.5307 32.0445 46.7699 31.283C46.8896 30.8754 46.8896 30.4679 46.8243 30.1246C46.8243 30.0067 46.7699 29.8351 46.7047 29.7171C46.585 29.4811 46.3458 29.3739 46.237 29.3739C46.1174 29.3203 45.9434 29.3739 45.8781 29.5455C45.6389 30.0067 45.3452 30.4142 45.0516 30.8218C44.7036 30.9398 44.3447 30.8754 43.9966 30.8218C43.5834 30.7038 43.1701 30.3606 42.8221 30.071C42.9417 29.8351 42.9961 29.6098 43.1157 29.3203C43.8226 29.3203 44.8232 29.2666 44.9428 29.2666L48.0641 28.9234H48.1185C48.2381 28.977 48.3578 28.977 48.5318 28.977H48.6514C48.8254 28.977 48.9451 28.977 49.0647 28.9234C49.4127 28.8054 49.652 28.4622 49.7172 28.0547C49.5976 27.5935 49.4236 27.1216 49.1299 26.7784V26.7462ZM48.249 23.7324C48.3687 23.6788 48.423 23.7324 48.5427 23.7324C48.6623 23.7324 48.7819 23.786 48.8363 23.904C48.8907 24.0756 48.8907 24.2472 48.8363 24.5475C48.7819 24.7835 48.7819 25.0731 48.597 25.191H48.3034L47.3028 25.3626C47.4768 24.7835 47.7161 24.14 48.249 23.7324ZM34.4043 22.8637C34.4587 22.9816 34.4587 23.0996 34.4043 23.2069C34.1107 23.1532 33.8171 23.0889 33.4582 23.0353C33.5125 22.9816 33.5778 22.9816 33.6322 22.9173C33.9258 22.7993 34.1651 22.7993 34.3935 22.8637H34.4043ZM27.5745 21.8126C27.6288 21.5766 27.7485 21.405 27.9225 21.3514C28.0421 21.2978 28.1617 21.3514 28.2705 21.405C28.3901 21.4587 28.4445 21.4587 28.5098 21.523C28.5641 21.5766 28.6838 21.5766 28.749 21.641C29.1079 21.759 29.4559 21.8126 29.8692 21.759C30.1628 21.7053 30.4021 21.641 30.6305 21.5874C30.8698 21.4694 31.2178 21.4158 31.457 21.2442C31.5114 21.1905 31.5767 21.1905 31.6311 21.1262C31.7507 21.0726 31.8703 20.9546 31.9791 20.9546C32.2727 20.9009 32.5664 21.0082 32.86 21.2442C33.1536 21.5337 33.2733 21.8877 33.4473 22.2309L33.6213 22.2845H33.5017C33.2624 22.3381 33.1428 22.4561 33.034 22.5741C32.9796 22.6277 32.9144 22.6921 32.9144 22.81C31.9682 22.6384 31.0873 22.4668 30.1411 22.4668C29.3146 22.4668 28.488 22.6384 27.7267 22.81C27.6723 22.5741 27.5527 22.4025 27.3134 22.2309C27.3678 22.1773 27.4874 21.9949 27.5527 21.8233L27.5745 21.8126ZM26.3346 22.9709C26.5086 22.7993 26.6826 22.735 26.8023 22.735C26.9219 22.735 27.0415 22.8529 27.0959 23.0245H27.0415C26.8023 23.0782 26.6283 23.1425 26.389 23.1961V23.0245C26.3346 23.0245 26.3346 22.9709 26.3346 22.9709ZM17.6233 27.6257C17.6233 28.0332 17.6776 28.3764 17.6776 28.784C17.3187 28.7518 16.9381 28.7089 16.5466 28.6553C16.1877 28.6017 15.8288 28.548 15.5025 28.4837C14.763 28.3657 14.2192 28.2048 14.0343 28.1405C13.969 28.119 13.7624 28.0332 13.621 27.9689C13.5449 27.9367 13.4579 27.8938 13.3818 27.8402C13.2839 27.7865 13.186 27.7329 13.099 27.6686C13.0446 27.6364 12.9685 27.5935 12.8815 27.5399C12.751 27.4648 12.6531 27.3897 12.6205 27.3683C12.4465 27.2503 12.2072 27.0787 12.0332 26.7891C11.9788 26.6926 11.9027 26.5424 11.8592 26.3279C11.8592 26.3172 11.8592 26.3065 11.8592 26.2957C11.8592 26.2957 11.8592 26.2957 11.8592 26.285C11.8483 26.1563 11.8374 25.974 11.8592 25.7488C11.9135 25.3305 12.0658 25.0409 12.1528 24.88C12.2507 24.6977 12.4356 24.3759 12.7727 24.0863C13.3383 23.6037 13.969 23.5179 14.3823 23.3141C14.6216 23.1961 14.7956 23.0782 14.9152 22.9066C15.6765 24.0113 16.7423 24.8264 17.7973 25.5235C17.6233 26.2743 17.6233 26.9714 17.6233 27.6149V27.6257ZM17.9169 25.0087C16.862 24.2579 15.7961 23.3785 15.1436 22.2738C15.0892 22.1558 14.9696 22.1022 14.85 22.1558C14.7303 22.1558 14.6107 22.2738 14.6107 22.3918C14.6107 22.4454 14.5563 22.6277 14.0778 22.8529C13.4905 23.1961 13.0229 23.1425 12.2507 23.8397C12.7183 22.1558 14.0125 21.6303 15.6113 21.405C16.1985 22.2738 16.7858 23.5501 18.1453 24.4832C18.0257 24.6548 17.9713 24.8264 17.906 25.0087H17.9169ZM18.6782 41.2145C18.5042 41.2145 18.3302 41.0966 18.0909 40.925C17.6776 40.5174 17.384 39.9382 17.21 39.2411C17.0903 38.544 17.1556 37.7932 17.21 37.2033C17.6233 34.0715 18.5694 32.8489 18.7434 31.2186C18.7978 31.2722 18.8631 31.2722 18.8631 31.3366C18.9827 34.5863 18.2758 37.8468 18.9175 41.0322V41.0858C18.9175 41.1395 18.7978 41.2038 18.6782 41.2038V41.2145ZM40.9406 40.4638C40.7013 42.1476 38.6458 42.7911 37.5256 43.1343C36.2314 43.5419 34.872 43.7135 33.5778 43.8851C31.9247 44.0567 30.0976 43.9387 28.4554 44.0567C27.0959 44.1103 25.5733 44.0031 23.8659 43.7135C22.5064 43.4776 22.104 43.2523 20.6902 42.4908C20.1573 42.2013 19.8636 42.0833 19.6896 41.1502V41.0966C19.6896 41.0429 19.6896 40.9786 19.6352 40.925C19.048 37.9648 19.6352 34.9403 19.5809 31.7442L20.2878 32.0874C20.2878 32.0874 20.7011 32.259 20.7554 32.259C20.8751 32.3019 20.9947 32.334 21.1035 32.3769C21.1361 32.3769 21.1578 32.3984 21.1905 32.3984C21.3318 32.4413 21.4406 32.4627 21.5167 32.4842C21.582 32.5056 21.7125 32.5378 21.7234 32.5485C21.7886 32.57 21.843 32.5807 21.8756 32.5914C21.8974 32.5914 21.9191 32.5914 21.93 32.6022C22.0496 32.6236 22.9632 32.8167 23.3438 32.8918C23.7027 32.9668 24.3009 33.0741 25.2906 33.2457L25.5516 33.2779C25.5951 33.2779 25.8126 33.31 25.8126 33.31C26.4108 33.3744 26.7697 33.4387 27.2808 33.4816C27.3896 33.4816 27.5092 33.5031 27.618 33.5138C27.9116 33.5353 27.9768 33.5353 28.0421 33.5889C28.0639 33.6103 28.1074 33.6532 28.1617 33.9321C28.2161 34.2431 28.1617 34.2539 28.2161 34.4576C28.2705 34.6936 28.3901 34.9188 28.3901 34.9188L28.6294 35.3264C28.5641 35.2084 28.7599 35.5731 28.8687 35.6696C28.9339 35.7339 29.01 35.7876 29.0427 35.809C29.0753 35.8305 29.1297 35.8626 29.2167 35.9055C29.2167 35.9055 29.4777 36.0235 29.7713 36.0664C29.891 36.0879 30.0432 36.0879 30.0432 36.0879C30.5652 36.0879 31.0438 35.9163 31.0438 35.9163C31.2178 35.8626 31.457 35.7447 31.6311 35.5731C31.6854 35.5194 31.7507 35.4015 31.8051 35.2835C31.9791 34.9403 32.0987 34.5327 32.0443 34.1252C32.164 34.1252 32.2836 34.0715 32.338 34.0072C32.512 33.8892 32.6316 33.664 32.686 33.428C33.0993 33.428 33.5125 33.3744 33.9258 33.3744C34.5784 34.8866 35.6333 36.2166 36.9927 37.1497C37.1668 37.2676 37.406 37.4393 37.6997 37.5572C38.1129 37.7288 38.5806 37.8468 39.1135 37.8468H39.2331C39.94 37.8468 40.4729 37.6109 40.7666 37.2676C41.0602 38.308 41.1146 39.4127 40.9406 40.4638ZM30.761 33.428C30.2281 33.3744 29.6408 33.3744 29.1079 33.3744H28.9339C28.8795 33.3744 28.7599 33.3744 28.6946 33.428C28.575 33.428 28.4554 33.4816 28.4554 33.428C28.2814 33.31 28.2814 32.9025 28.3357 32.5593C28.3357 32.3877 28.3901 32.2697 28.4554 32.1517C28.5098 32.0337 28.6294 31.9801 28.8143 31.9158C29.2275 31.7442 29.6952 31.7442 30.1737 31.7442C30.5217 31.7442 30.8806 31.7442 31.2287 31.7978C31.4679 31.7978 31.6419 31.8514 31.8159 31.9158C31.99 31.9694 32.1096 32.0874 32.164 32.2697C32.2183 32.4413 32.2183 32.7309 32.164 33.0205C32.164 33.1384 32.1096 33.428 31.99 33.4816C31.9356 33.5353 31.8159 33.5353 31.6419 33.5353C31.3483 33.4816 31.0547 33.4816 30.761 33.4173V33.428ZM31.4679 34.0715C31.4679 34.2539 31.4462 34.404 31.4244 34.5113C31.37 34.833 31.3157 34.9081 31.2939 34.951C31.2287 35.0368 31.1634 35.0904 31.0764 35.1441C31.0546 35.1655 30.9459 35.2406 30.8154 35.2942C30.5652 35.4122 30.326 35.4229 30.1737 35.4336C29.9888 35.4336 29.7278 35.4336 29.4016 35.3586C29.3472 35.3586 29.2819 35.3049 29.2819 35.3049C29.1623 35.2513 29.1079 35.1333 29.0427 35.0154C28.8687 34.7258 28.8034 34.3718 28.8034 34.0286H28.9774C29.5647 34.0286 30.152 34.0823 30.7393 34.0823H31.4462L31.4679 34.0715ZM42.8873 38.3723C42.7677 40.2922 41.5931 41.3969 41.4191 41.2145C41.7128 40.4638 41.8324 38.6619 41.2995 36.7421C41.7671 36.3882 42.1804 35.9913 42.6589 35.5838C42.7786 36.5169 42.9526 37.4393 42.8982 38.3723H42.8873ZM46.0739 30.2963C46.1283 30.6395 46.1283 30.9398 46.0195 31.2293C45.6606 32.334 41.8977 35.4658 41.1255 36.1093V35.9377C41.1255 35.7661 41.1255 35.5302 41.0058 35.2942C41.0058 35.2406 40.9515 35.1762 40.8862 35.1226C41.3539 34.8866 41.8324 34.5971 42.1804 34.3075C42.4197 34.1359 42.6481 33.9643 42.833 33.7819C44.0075 32.7416 45.2473 31.6369 46.0739 30.2963ZM43.6595 31.4009C43.8988 31.4546 44.1272 31.5189 44.3664 31.5189C43.7791 32.1624 43.1266 32.7416 42.4849 33.2564C42.3109 33.428 42.0717 33.5996 41.8324 33.7819C41.3647 34.1359 40.8318 34.5327 40.1793 34.715C40.0597 34.7687 39.94 34.8866 40.0053 35.0046C40.0053 35.1226 40.1249 35.2406 40.2446 35.2942C40.2989 35.2942 40.4186 35.4122 40.4186 35.4658C40.4729 35.5838 40.4729 35.7554 40.4729 35.927C40.4729 36.2702 40.4729 36.5062 40.3533 36.6778C40.3533 36.7314 40.2989 36.7314 40.2989 36.7957C40.1249 37.0317 39.7116 37.2033 39.1787 37.2033C38.6458 37.2033 38.2326 37.1497 37.8845 36.9673C37.6453 36.8494 37.4713 36.7314 37.2973 36.6241C36.1227 35.809 35.1221 34.5863 34.524 33.2564C36.2314 33.1384 37.8845 32.8489 39.4724 32.5056C40.1249 32.334 40.8862 32.1624 41.4735 31.6905C41.8868 31.4009 42.1804 30.9934 42.4197 30.5858C42.7677 30.929 43.181 31.2293 43.6595 31.4009ZM42.5393 28.7304C42.2457 29.6635 41.8868 30.6502 41.0711 31.2293C40.5382 31.6369 39.8965 31.8085 39.244 31.9265C37.2429 32.3877 35.0025 32.6773 32.7077 32.7416C32.7077 32.5056 32.7621 32.2804 32.6534 32.0445C32.5337 31.7549 32.3053 31.5189 32.0008 31.4009C31.7616 31.283 31.4679 31.283 31.2395 31.2293C30.8915 31.1757 30.4782 31.1757 30.1193 31.1757C29.5864 31.1757 29.0644 31.1757 28.5315 31.4117C28.2379 31.5297 27.9986 31.7013 27.879 31.8729C27.7593 32.0445 27.705 32.2804 27.705 32.452V32.6236C26.0519 32.5056 24.4096 32.2804 22.5173 31.9801C21.0491 31.7442 19.5156 31.4009 18.8087 30.2963C18.341 29.5455 18.2214 28.6124 18.2214 27.5613C18.2214 26.9178 18.167 26.167 18.341 25.4699C18.3954 25.2339 18.5151 24.8907 18.7543 24.5368C18.8739 24.3008 19.048 24.1292 19.2872 23.9576C21.234 24.3652 23.4743 24.3652 25.7691 23.904L27.1829 23.5608C28.1291 23.3249 29.1297 23.0996 30.1302 23.0353C31.1852 23.0353 32.251 23.2069 33.3712 23.4428C33.9041 23.5608 34.4261 23.6788 34.959 23.7324C36.9057 24.022 39.1461 24.022 41.7889 23.7324C42.4414 24.14 42.8438 24.9551 42.9635 25.8775C43.0831 26.9822 42.8438 27.9152 42.5502 28.7196L42.5393 28.7304ZM44.7797 28.7304C44.6601 28.7304 43.9531 28.784 43.1919 28.784C43.4311 27.9152 43.6595 26.9822 43.5399 25.9954C43.5399 25.7595 43.4855 25.5879 43.4202 25.3519C44.0075 25.116 44.6601 24.9444 45.3017 24.7084C45.889 24.5368 46.5415 24.3008 47.1832 24.1292C47.0092 24.4724 46.8896 24.88 46.7699 25.2339C46.5959 25.8775 46.4219 26.6818 46.6503 27.497C46.7699 27.9045 46.9439 28.2477 47.2376 28.4837L44.7688 28.7196L44.7797 28.7304ZM48.9559 27.9689C48.9016 28.2048 48.7819 28.3121 48.6623 28.3764C48.6079 28.3764 48.5427 28.4301 48.423 28.3764C47.8901 28.3228 47.4768 27.9152 47.3028 27.4433C47.8357 27.3897 48.3578 27.3254 48.8363 27.2074C48.9559 27.4433 48.9559 27.6686 48.9559 27.9581V27.9689Z" fill="#3E5A59" stroke="#3E5A59" style="fill:#3E5A59;fill:color(display-p3 0.2431 0.3529 0.3490);fill-opacity:1;stroke:#3E5A59;stroke:color(display-p3 0.2431 0.3529 0.3490);stroke-opacity:1;" stroke-width="0.709091" stroke-miterlimit="10"/>
</g>
<defs>
<linearGradient id="paint0_linear_3900_12287" x1="31.5" y1="-4.14542e-08" x2="31.5" y2="6.5" gradientUnits="userSpaceOnUse">
<stop stop-color="white" stop-opacity="0.7" style="stop-color:white;stop-opacity:0.7;"/>
<stop offset="1" stop-color="white" stop-opacity="0" style="stop-color:none;stop-opacity:0;"/>
</linearGradient>
<clipPath id="clip0_3900_12287">
<rect width="39" height="24.8182" fill="white" style="fill:white;fill-opacity:1;" transform="translate(11 20)"/>
</clipPath>
</defs>
</svg>
