<?xml version="1.0" encoding="UTF-8"?>
<svg id="_Слой_2" data-name="Слой_2" xmlns="http://www.w3.org/2000/svg" xmlns:xlink="http://www.w3.org/1999/xlink" viewBox="0 0 57.64 57.36">
  <defs>
    <style>
      .cls-1 {
        filter: url(#drop-shadow-1);
      }

      .cls-2 {
        fill: #4e3c22;
      }

      .cls-3 {
        fill: #fdf0c6;
        stroke: #1d2015;
        stroke-miterlimit: 10;
      }
    </style>
    <filter id="drop-shadow-1" filterUnits="userSpaceOnUse">
      <feOffset dx="0" dy="4"/>
      <feGaussianBlur result="blur" stdDeviation="0"/>
      <feFlood flood-color="#1d2015" flood-opacity="1"/>
      <feComposite in2="blur" operator="in"/>
      <feComposite in="SourceGraphic"/>
    </filter>
  </defs>
  <g id="_Слой_1-2" data-name="Слой_1">
    <g>
      <g class="cls-1">
        <path class="cls-3" d="M2.24,22.71l.13-.55c1.76-7.32,6.5-13.57,13.07-17.24,4.01-2.24,8.53-3.41,13.12-3.41h1.72c3.77.34,12.22,1.53,15.92,3.56,2.77,1.52,6.28,10.17,8.73,17.42,1.44,4.25,1.54,8.81.56,13.19l-.19.87c-1.54,6.87-5.93,12.76-12.08,16.19-4.41,2.46-9.46,3.51-14.49,3.01l-3.24-.32c-9.15-.91-17.19-6.48-21.26-14.73-2.75-5.57-3.45-11.93-2-17.98Z"/>
        <path class="cls-3" d="M30.38.5h-.04s-.05,0-.05,0h-1.72c-4.76,0-9.45,1.22-13.61,3.54C8.13,7.84,3.22,14.33,1.4,21.92l-.13.55c-1.51,6.27-.77,12.87,2.08,18.65,4.22,8.56,12.56,14.34,22.06,15.28l3.24.32c5.23.52,10.48-.58,15.07-3.13,6.4-3.57,10.97-9.69,12.57-16.84l.19-.87c1.02-4.53.92-9.29-.59-13.73-1.23-3.64-2.74-7.65-4.29-10.96-.78-1.65-1.57-3.15-2.37-4.35-.77-1.16-1.62-2.16-2.54-2.67-2-1.1-5.17-1.93-8.22-2.52-3.09-.6-6.17-.99-8.09-1.16Z"/>
      </g>
      <path class="cls-2" d="M21.22,23.2h15c.55,0,1,.45,1,1h0c0,.55-.45,1-1,1h-15c-.55,0-1-.45-1-1h0c0-.55.45-1,1-1Z"/>
      <path class="cls-2" d="M21.22,28.2h15c.55,0,1,.45,1,1h0c0,.55-.45,1-1,1h-15c-.55,0-1-.45-1-1h0c0-.55.45-1,1-1Z"/>
      <path class="cls-2" d="M21.22,33.2h15c.55,0,1,.45,1,1h0c0,.55-.45,1-1,1h-15c-.55,0-1-.45-1-1h0c0-.55.45-1,1-1Z"/>
    </g>
  </g>
</svg>