<svg width="40" height="43" viewBox="0 0 40 43" fill="none" xmlns="http://www.w3.org/2000/svg">
<g filter="url(#filter0_di_0_1)">
<path d="M2.53358 16.137L2.62234 15.7673C3.79393 10.8874 6.95385 6.72028 11.3366 4.27539C14.0114 2.78328 17.0234 2 20.0862 2H21.2355C23.746 2.22634 29.3833 3.01853 31.8482 4.37657C33.692 5.39244 36.0339 11.1577 37.6702 15.988C38.6293 18.8193 38.6949 21.8626 38.0412 24.7796L37.9115 25.3585C36.8853 29.938 33.9557 33.863 29.8572 36.1493C26.9187 37.7885 23.5489 38.4892 20.2005 38.1571L18.0405 37.9429C11.9372 37.3376 6.5788 33.6242 3.86918 28.1218C2.03891 24.4052 1.56643 20.1654 2.53358 16.137Z" fill="#D3DCD6"/>
<path d="M21.2953 1.33602L21.2654 1.33332H21.2355H20.0862C16.9097 1.33332 13.7859 2.14568 11.0118 3.69317C6.46638 6.22882 3.18916 10.5506 1.97408 15.6117L1.88532 15.9814C0.881846 20.1611 1.37208 24.5601 3.27109 28.4164C6.08249 34.1254 11.6421 37.9783 17.9747 38.6063L20.1347 38.8205C23.6185 39.166 27.1246 38.437 30.182 36.7315C34.4463 34.3527 37.4944 30.269 38.5621 25.5043L38.6918 24.9254C39.3688 21.904 39.3047 18.7351 38.3016 15.7741C37.4798 13.348 36.4761 10.6727 35.4404 8.46838C34.9231 7.3672 34.3905 6.36795 33.8609 5.57111C33.3456 4.79588 32.7796 4.12855 32.1699 3.79266C30.8376 3.05859 28.72 2.50608 26.6865 2.10955C24.6297 1.70847 22.5699 1.45093 21.2953 1.33602Z" stroke="#3E5A59" stroke-width="1.33335"/>
</g>
<rect x="14.3705" y="16.4363" width="11.3335" height="1.33335" rx="0.666676" fill="#3E5A59"/>
<rect x="14.3706" y="19.7697" width="11.3335" height="1.33335" rx="0.666676" fill="#3E5A59"/>
<rect x="14.3706" y="23.103" width="11.3335" height="1.33335" rx="0.666676" fill="#3E5A59"/>
<defs>
<filter id="filter0_di_0_1" x="0.709717" y="0.666626" width="39.0953" height="42.1379" filterUnits="userSpaceOnUse" color-interpolation-filters="sRGB">
<feFlood flood-opacity="0" result="BackgroundImageFix"/>
<feColorMatrix in="SourceAlpha" type="matrix" values="0 0 0 0 0 0 0 0 0 0 0 0 0 0 0 0 0 0 127 0" result="hardAlpha"/>
<feOffset dy="3.23358"/>
<feComposite in2="hardAlpha" operator="out"/>
<feColorMatrix type="matrix" values="0 0 0 0 0.243137 0 0 0 0 0.352941 0 0 0 0 0.34902 0 0 0 1 0"/>
<feBlend mode="normal" in2="BackgroundImageFix" result="effect1_dropShadow_0_1"/>
<feBlend mode="normal" in="SourceGraphic" in2="effect1_dropShadow_0_1" result="shape"/>
<feColorMatrix in="SourceAlpha" type="matrix" values="0 0 0 0 0 0 0 0 0 0 0 0 0 0 0 0 0 0 127 0" result="hardAlpha"/>
<feOffset dy="2.00003"/>
<feGaussianBlur stdDeviation="0.666676"/>
<feComposite in2="hardAlpha" operator="arithmetic" k2="-1" k3="1"/>
<feColorMatrix type="matrix" values="0 0 0 0 1 0 0 0 0 1 0 0 0 0 1 0 0 0 1 0"/>
<feBlend mode="normal" in2="shape" result="effect2_innerShadow_0_1"/>
</filter>
</defs>
</svg>
