<svg width="140" height="147" viewBox="0 0 140 147" fill="none" xmlns="http://www.w3.org/2000/svg">
<path d="M0 85.6757L12.6126 32.7027L52.973 10H74.4144C83.6637 10.8408 104.432 13.7838 113.514 18.8288C122.595 23.8739 134.955 60.4505 140 78.1081L129.91 123.514L89.5495 146.216L26.4865 139.91L0 85.6757Z" fill="#3E5A59"/>
<path d="M14.4772 23.6723L14.014 23.9328L13.8909 24.4499L1.81796 75.1562L1.71713 75.5797L1.90817 75.9709L27.2614 127.885L27.5585 128.493L28.2323 128.56L88.597 134.597L88.979 134.635L89.3136 134.447L127.947 112.716L128.42 112.45L128.537 111.92L138.196 68.4575L138.263 68.1565L138.178 67.8601C135.755 59.3808 131.577 46.3592 126.908 34.8388C124.575 29.081 122.107 23.6682 119.662 19.3762C118.439 17.2303 117.21 15.3417 115.991 13.8223C114.784 12.3166 113.532 11.103 112.247 10.3889C107.718 7.87274 100.406 5.93351 93.2382 4.52416C86.028 3.10643 78.8026 2.19556 74.3404 1.78991L74.2855 1.78492H74.2304H53.7064H53.3881L53.1107 1.94097L14.4772 23.6723Z" fill="#D3DCD6" stroke="#6A7F78" stroke-width="2.43016"/>
<g clip-path="url(#clip0_2130_9428)">
<g filter="url(#filter0_i_2130_9428)">
<path d="M56.4107 46.9129C56.0846 43.1856 59.9156 40.5031 63.3066 42.0843L86.8312 53.054C90.2221 54.6353 90.6297 59.2943 87.5649 61.4403L66.3025 76.3284C63.2377 78.4744 58.999 76.4979 58.6729 72.7706L56.4107 46.9129Z" fill="#3E5A59"/>
</g>
<path d="M62.9642 42.8185L86.4888 53.7882C89.3146 55.1059 89.6543 58.9884 87.1002 60.7768L65.8379 75.6648C63.2839 77.4532 59.7516 75.8061 59.4799 72.7L57.2176 46.8423C56.9459 43.7363 60.1384 41.5008 62.9642 42.8185Z" stroke="#6A7F78" stroke-width="1.62011"/>
</g>
<path d="M95.3374 92.6758L92.4785 83.67L95.0381 83.4461L96.6825 89.026C96.7252 89.1748 96.757 89.2969 96.7781 89.3925C96.7988 89.4839 96.8221 89.6046 96.8479 89.7548L96.9046 89.7499C96.904 89.5975 96.9039 89.4747 96.9042 89.3815C96.9041 89.2841 96.9122 89.1584 96.9284 89.0045L97.7112 83.2122L100.718 82.9491L102.481 88.4997C102.528 88.6481 102.558 88.7725 102.571 88.873C102.588 88.9731 102.609 89.0962 102.635 89.2422L102.692 89.2372C102.691 89.089 102.693 88.9639 102.697 88.862C102.701 88.76 102.706 88.6324 102.714 88.4793L103.341 82.7197L105.453 82.5349L104.277 91.8937L101.232 92.1601L99.3928 86.6036C99.346 86.4552 99.3113 86.3248 99.2887 86.2125C99.2662 86.1001 99.2422 85.9709 99.2167 85.8249L99.1663 85.8293C99.1665 85.9775 99.1653 86.1089 99.1626 86.2235C99.1599 86.3381 99.1484 86.4725 99.128 86.6268L98.2873 92.4114L95.3374 92.6758Z" fill="#3E5A59"/>
<path d="M83.7113 89.3413L83.6628 88.7865C83.5319 87.2902 83.8393 86.1325 84.585 85.3134C85.3304 84.4901 86.3503 84.0218 87.6448 83.9086C88.9351 83.7957 90.0251 84.0794 90.9147 84.7597C91.8081 85.4353 92.3203 86.5213 92.4512 88.0176L92.4998 88.5724C92.6307 90.0686 92.315 91.2291 91.5529 92.0539C90.7945 92.8741 89.7702 93.3407 88.4799 93.4536C87.1854 93.5668 86.0998 93.2849 85.2232 92.6077C84.3462 91.9263 83.8422 90.8375 83.7113 89.3413ZM86.4041 89.4043C86.478 90.2491 86.6818 90.8368 87.0157 91.1676C87.3492 91.4942 87.7829 91.6341 88.3166 91.5874C88.8546 91.5404 89.2637 91.3267 89.5438 90.9464C89.8278 90.5616 89.9328 89.9468 89.8589 89.102L89.7591 87.9609C89.6848 87.1119 89.4746 86.5246 89.1285 86.1992C88.7866 85.8733 88.3466 85.734 87.8086 85.781C87.2749 85.8277 86.8721 86.0408 86.6004 86.4204C86.3287 86.7999 86.2299 87.4141 86.3042 88.2631L86.4041 89.4043Z" fill="#3E5A59"/>
<path d="M75.1556 94.4352L74.3525 85.2559L77.158 85.0104L80.1107 89.8597C80.1893 89.9841 80.2502 90.0995 80.2934 90.2058C80.3408 90.3118 80.3942 90.4384 80.4537 90.5856L80.5041 90.5812C80.4779 90.4268 80.4577 90.2931 80.4436 90.1799C80.4333 90.0623 80.4212 89.9236 80.4072 89.7639L79.9698 84.7644L82.0692 84.5807L82.8723 93.76L79.9848 94.0127L77.0909 89.2535C77.0165 89.1288 76.9573 89.009 76.9134 88.8943C76.8694 88.7795 76.8221 88.6503 76.7714 88.5065L76.721 88.5109C76.7469 88.6611 76.7679 88.8053 76.7843 88.9437C76.8003 89.0778 76.815 89.2226 76.8286 89.3781L77.255 94.2515L75.1556 94.4352Z" fill="#3E5A59"/>
<path d="M66.2217 95.2167L65.9526 92.1402L62.2412 86.3154L65.1034 86.065L66.8497 88.9615C66.9143 89.0702 66.9708 89.1839 67.0193 89.3025C67.072 89.4207 67.1205 89.5392 67.1648 89.6582L67.2215 89.6532C67.2445 89.5284 67.2697 89.4055 67.2973 89.2845C67.3286 89.1589 67.3686 89.0347 67.4171 88.9119L68.6718 85.7528L71.0485 85.5449L68.5214 91.7312L68.8066 94.9906L66.2217 95.2167Z" fill="#3E5A59"/>
<path d="M54.0153 96.2846L56.6081 86.7828L59.5207 86.528L63.8313 95.4258L61.0132 95.6724L58.3358 89.7572C58.2725 89.6145 58.2204 89.4793 58.1796 89.3516C58.1426 89.2193 58.1079 89.0889 58.0755 88.9604L58.0314 88.9643C58.0217 89.0964 58.0081 89.231 57.9904 89.3681C57.977 89.5048 57.9513 89.6468 57.9134 89.7941L56.329 96.0822L54.0153 96.2846ZM56.1669 94.3748L56.5382 92.519L60.3965 92.1815L61.0907 93.944L56.1669 94.3748Z" fill="#3E5A59"/>
<path d="M47.9193 96.818L47.1162 87.6387L49.6947 87.4131L50.3346 94.7263L54.1488 94.3926L54.312 96.2587L47.9193 96.818Z" fill="#3E5A59"/>
<path d="M39.4515 97.5588L38.6484 88.3795L42.5698 88.0364C43.7172 87.9361 44.6228 88.1215 45.2866 88.5928C45.9501 89.06 46.3272 89.8126 46.418 90.8507C46.5085 91.8846 46.2681 92.6955 45.697 93.2834C45.1255 93.867 44.2639 94.2092 43.1123 94.3099L41.7758 94.4269L42.03 97.3332L39.4515 97.5588ZM41.6169 92.6112L42.6635 92.5196C43.1594 92.4762 43.4884 92.3395 43.6504 92.1093C43.8165 91.8788 43.8798 91.5365 43.84 91.0826C43.8007 90.6329 43.6796 90.3132 43.4766 90.1234C43.2775 89.929 42.93 89.8536 42.434 89.897L41.3875 89.9885L41.6169 92.6112Z" fill="#3E5A59"/>
<defs>
<filter id="filter0_i_2130_9428" x="56.3916" y="41.6215" width="33.2461" height="38.8324" filterUnits="userSpaceOnUse" color-interpolation-filters="sRGB">
<feFlood flood-opacity="0" result="BackgroundImageFix"/>
<feBlend mode="normal" in="SourceGraphic" in2="BackgroundImageFix" result="shape"/>
<feColorMatrix in="SourceAlpha" type="matrix" values="0 0 0 0 0 0 0 0 0 0 0 0 0 0 0 0 0 0 127 0" result="hardAlpha"/>
<feOffset dy="3.24022"/>
<feGaussianBlur stdDeviation="3.24022"/>
<feComposite in2="hardAlpha" operator="arithmetic" k2="-1" k3="1"/>
<feColorMatrix type="matrix" values="0 0 0 0 0.158064 0 0 0 0 0.222347 0 0 0 0 0.220051 0 0 0 1 0"/>
<feBlend mode="normal" in2="shape" result="effect1_innerShadow_2130_9428"/>
</filter>
<clipPath id="clip0_2130_9428">
<rect width="98.8266" height="41.3127" fill="white" transform="translate(18.6436 41.9697) rotate(-5)"/>
</clipPath>
</defs>
</svg>
