<svg width="189" height="64" viewBox="0 0 189 64" fill="none" xmlns="http://www.w3.org/2000/svg">
<path d="M188 40.18V29.8C188 15.55 176.45 4 162.2 4H150.76C148.34 4 145.92 4.23 143.55 4.69C139.14 5.54 134.61 5.56 130.2 4.75L129.75 4.67C127.34 4.23 124.89 4 122.43 4H30.5C14.21 4 1 17.21 1 33.5C1 49.79 14.21 63 30.5 63H46.82C48.01 63 49.15 62.5 49.96 61.63C50.54 61.01 51.41 60.76 52.23 60.98L57.89 62.51C59.08 62.83 60.31 63 61.55 63H103.9C105.99 63 108.07 62.7 110.08 62.12L113.06 61.26C115.72 60.49 118.56 60.68 121.09 61.81C122.85 62.59 124.75 63 126.67 63H151.07C152.13 63 153.15 62.6 153.92 61.87C154.62 61.21 155.68 61.1 156.5 61.59L157.48 62.18C158.36 62.71 159.37 62.99 160.4 62.99H165.19C177.79 62.99 188.01 52.77 188.01 40.17L188 40.18Z" fill="#3E5A59"/>
<path d="M188 40.18V29.8C188 15.55 176.45 4 162.2 4H150.76C148.34 4 145.92 4.23 143.55 4.69C139.14 5.54 134.61 5.56 130.2 4.75L129.75 4.67C127.34 4.23 124.89 4 122.43 4H30.5C14.21 4 1 17.21 1 33.5C1 49.79 14.21 63 30.5 63H46.82C48.01 63 49.15 62.5 49.96 61.63C50.54 61.01 51.41 60.76 52.23 60.98L57.89 62.51C59.08 62.83 60.31 63 61.55 63H103.9C105.99 63 108.07 62.7 110.08 62.12L113.06 61.26C115.72 60.49 118.56 60.68 121.09 61.81C122.85 62.59 124.75 63 126.67 63H151.07C152.13 63 153.15 62.6 153.92 61.87C154.62 61.21 155.68 61.1 156.5 61.59L157.48 62.18C158.36 62.71 159.37 62.99 160.4 62.99H165.19C177.79 62.99 188.01 52.77 188.01 40.17L188 40.18Z" stroke="#3E5A59" stroke-width="2" stroke-miterlimit="10"/>
<path d="M188 37.18V26.8C188 12.55 176.45 1 162.2 1H150.76C148.34 1 145.92 1.23 143.55 1.69C139.14 2.54 134.61 2.56 130.2 1.75L129.75 1.67C127.34 1.23 124.89 1 122.43 1H30.5C14.21 1 1 14.21 1 30.5C1 46.79 14.21 60 30.5 60H46.82C48.01 60 49.15 59.5 49.96 58.63C50.54 58.01 51.41 57.76 52.23 57.98L57.89 59.51C59.08 59.83 60.31 60 61.55 60H103.9C105.99 60 108.07 59.7 110.08 59.12L113.06 58.26C115.72 57.49 118.56 57.68 121.09 58.81C122.85 59.59 124.75 60 126.67 60H151.07C152.13 60 153.15 59.6 153.92 58.87C154.62 58.21 155.68 58.1 156.5 58.59L157.48 59.18C158.36 59.71 159.37 59.99 160.4 59.99H165.19C177.79 59.99 188.01 49.77 188.01 37.17L188 37.18Z" fill="url(#paint0_linear_2144_14743)"/>
<path d="M188 37.18V26.8C188 12.55 176.45 1 162.2 1H150.76C148.34 1 145.92 1.23 143.55 1.69C139.14 2.54 134.61 2.56 130.2 1.75L129.75 1.67C127.34 1.23 124.89 1 122.43 1H30.5C14.21 1 1 14.21 1 30.5C1 46.79 14.21 60 30.5 60H46.82C48.01 60 49.15 59.5 49.96 58.63C50.54 58.01 51.41 57.76 52.23 57.98L57.89 59.51C59.08 59.83 60.31 60 61.55 60H103.9C105.99 60 108.07 59.7 110.08 59.12L113.06 58.26C115.72 57.49 118.56 57.68 121.09 58.81C122.85 59.59 124.75 60 126.67 60H151.07C152.13 60 153.15 59.6 153.92 58.87C154.62 58.21 155.68 58.1 156.5 58.59L157.48 59.18C158.36 59.71 159.37 59.99 160.4 59.99H165.19C177.79 59.99 188.01 49.77 188.01 37.17L188 37.18Z" stroke="#3E5A59" stroke-width="2" stroke-miterlimit="10"/>
<circle cx="33.8982" cy="29.7791" r="19" transform="rotate(-2.2777 33.8982 29.7791)" fill="url(#paint1_linear_2144_14743)"/>
<circle cx="33.8982" cy="29.7791" r="19" transform="rotate(-2.2777 33.8982 29.7791)" fill="url(#paint2_linear_2144_14743)"/>
<circle cx="33.8982" cy="29.7791" r="19" transform="rotate(-2.2777 33.8982 29.7791)" stroke="#3E5A59" stroke-width="2"/>
<circle cx="33.2545" cy="25.1605" r="3.98169" transform="rotate(-6.2777 33.2545 25.1605)" stroke="#D3DCD6" stroke-width="1.25" stroke-linecap="round" stroke-linejoin="round"/>
<path fill-rule="evenodd" clip-rule="evenodd" d="M28.0175 35.3135C27.9858 35.0354 28.0178 34.7537 28.111 34.4898C28.4067 33.6899 29.4316 33.1704 30.2987 32.8909C30.9234 32.6839 31.562 32.5214 32.2096 32.4044C33.4062 32.1653 34.6215 32.0316 35.8414 32.0049C36.499 31.9788 37.1576 31.9987 37.8125 32.0643C38.7196 32.1487 39.8287 32.395 40.2954 33.1494C40.5945 33.6336 40.6598 34.2267 40.473 34.7644C40.1815 35.6022 39.1525 36.0837 38.2845 36.3557C37.6612 36.5682 37.0226 36.7333 36.3744 36.8498C35.4002 37.0413 34.4138 37.1652 33.4224 37.2206C33.195 37.2456 32.9751 37.2698 32.7426 37.2493C32.0871 37.2768 31.4304 37.2542 30.7783 37.1814C29.8645 37.1055 28.763 36.8583 28.2887 36.1047C28.1406 35.8644 28.048 35.5941 28.0175 35.3135Z" stroke="#D3DCD6" stroke-width="1.25" stroke-linecap="round" stroke-linejoin="round"/>
<g filter="url(#filter0_i_2144_14743)">
<path d="M61.7348 35.9259L61.3875 25.9788L65.6778 25.829C66.8984 25.7864 67.8465 26.036 68.5221 26.5778C69.2021 27.115 69.5622 27.9597 69.6024 29.112C69.6425 30.2597 69.3446 31.132 68.7088 31.7288C68.0728 32.321 67.14 32.6386 65.9103 32.6815L64.5029 32.7307L64.611 35.8254L61.7348 35.9259ZM64.4316 30.688L65.4632 30.6519C65.9733 30.6341 66.3158 30.5173 66.4907 30.3014C66.6699 30.0808 66.7508 29.72 66.7333 29.219C66.7161 28.7271 66.6106 28.382 66.4167 28.1836C66.2272 27.9804 65.8774 27.8877 65.3673 27.9056L64.3357 27.9416L64.4316 30.688ZM70.8282 35.6083L70.4808 25.6613L73.357 25.5608L73.6309 33.4037L77.6343 33.2639L77.7078 35.3681L70.8282 35.6083ZM77.3323 35.3812L80.7551 25.2751L83.9866 25.1623L88.2427 35.0002L85.1 35.11L82.4801 28.6418C82.4201 28.4888 82.3739 28.3422 82.3416 28.202C82.3139 28.0616 82.2863 27.9235 82.2588 27.7877L82.211 27.7893C82.1975 27.9266 82.1797 28.0686 82.1574 28.2153C82.135 28.3574 82.0991 28.5046 82.0497 28.6568L79.9216 35.2908L77.3323 35.3812ZM79.9342 33.4982L80.4304 31.4494L84.5431 31.3058L85.1947 33.3145L79.9342 33.4982ZM90.7297 34.9134L90.6135 31.5863L86.905 25.0877L90.0817 24.9768L91.7993 28.1317C91.8628 28.2526 91.9151 28.3784 91.9562 28.5092C92.0016 28.6353 92.0448 28.7615 92.0857 28.8878L92.1403 28.8859C92.1723 28.7571 92.2043 28.6283 92.2363 28.4995C92.2728 28.3705 92.3207 28.2411 92.38 28.1114L93.9212 24.8427L96.5788 24.7499L93.4886 31.2602L93.6127 34.8127L90.7297 34.9134ZM97.2611 34.6853L96.9138 24.7382L104.067 24.4884L104.14 26.5926L99.8361 26.7429L99.8958 28.4509L103.585 28.322L103.657 30.3784L99.9676 30.5072L100.037 32.4953L104.416 32.3423L104.489 34.4329L97.2611 34.6853ZM105.589 34.3945L105.242 24.4474L109.252 24.3073C110.509 24.2635 111.507 24.5113 112.247 25.0509C112.986 25.5906 113.375 26.4138 113.414 27.5205C113.453 28.6409 113.118 29.5053 112.41 30.1138C111.706 30.722 110.73 31.048 109.482 31.0915L108.355 31.1309L108.466 34.294L105.589 34.3945ZM108.284 29.1087L109.275 29.0741C109.74 29.0579 110.071 28.9369 110.268 28.7111C110.465 28.4808 110.558 28.1287 110.546 27.6549C110.529 27.1903 110.413 26.8569 110.196 26.6547C109.984 26.4478 109.645 26.3525 109.181 26.3687L108.19 26.4033L108.284 29.1087ZM110.836 34.2112L108.422 29.7058L111.544 29.5968L114.061 34.0986L110.836 34.2112ZM117.805 33.9679L117.458 24.0208L121.748 23.871C122.969 23.8284 123.917 24.078 124.592 24.6198C125.272 25.157 125.632 26.0017 125.673 27.154C125.713 28.3017 125.415 29.174 124.779 29.7708C124.143 30.363 123.21 30.6805 121.981 30.7235L120.573 30.7726L120.681 33.8674L117.805 33.9679ZM120.502 28.7299L121.533 28.6939C122.044 28.6761 122.386 28.5593 122.561 28.3434C122.74 28.1228 122.821 27.762 122.804 27.261C122.786 26.7691 122.681 26.424 122.487 26.2255C122.297 26.0224 121.948 25.9297 121.438 25.9475L120.406 25.9836L120.502 28.7299ZM126.898 33.6503L126.551 23.7033L130.561 23.5632C131.818 23.5193 132.817 23.7672 133.556 24.3068C134.295 24.8464 134.684 25.6696 134.723 26.7764C134.762 27.8968 134.427 28.7612 133.719 29.3696C133.015 29.9779 132.039 30.3038 130.791 30.3474L129.664 30.3868L129.775 33.5499L126.898 33.6503ZM129.594 28.3646L130.584 28.33C131.049 28.3138 131.38 28.1928 131.577 27.967C131.774 27.7367 131.867 27.3846 131.855 26.9107C131.839 26.4462 131.722 26.1128 131.505 25.9106C131.293 25.7037 130.954 25.6084 130.49 25.6246L129.499 25.6592L129.594 28.3646ZM132.145 33.4671L129.731 28.9617L132.853 28.8527L135.37 33.3545L132.145 33.4671ZM135.433 28.6805L135.411 28.0656C135.354 26.426 135.749 25.1901 136.595 24.358C137.441 23.5259 138.559 23.0856 139.948 23.0371C141.333 22.9887 142.483 23.3498 143.399 24.1204C144.32 24.8908 144.809 26.0958 144.866 27.7355L144.888 28.3503C144.945 29.99 144.541 31.2261 143.677 32.0589C142.817 32.8915 141.694 33.332 140.31 33.3804C138.92 33.4289 137.775 33.0676 136.872 32.2965C135.97 31.5255 135.49 30.3201 135.433 28.6805ZM138.418 28.9593C138.449 29.8565 138.623 30.4729 138.941 30.8084C139.262 31.1437 139.694 31.3019 140.236 31.283C140.783 31.2639 141.21 31.0757 141.516 30.7185C141.828 30.361 141.968 29.7337 141.936 28.8364L141.888 27.4633C141.857 26.5615 141.673 25.9454 141.338 25.6151C141.007 25.2801 140.568 25.1222 140.022 25.1412C139.48 25.1602 139.06 25.3481 138.762 25.7051C138.469 26.0573 138.338 26.6843 138.37 27.5861L138.418 28.9593ZM146.301 32.9728L145.954 23.0257L152.977 22.7804L153.05 24.8846L148.904 25.0294L148.979 27.1815L152.661 27.0529L152.733 29.1161L149.051 29.2447L149.177 32.8723L146.301 32.9728ZM154.261 32.6948L153.913 22.7478L156.796 22.6471L157.144 32.5941L154.261 32.6948ZM158.695 32.54L158.347 22.5929L161.223 22.4925L161.497 30.3353L165.501 30.1955L165.574 32.2997L158.695 32.54ZM166.408 32.2706L166.061 22.3236L173.213 22.0738L173.287 24.178L168.983 24.3283L169.043 26.0362L172.732 25.9074L172.804 27.9637L169.114 28.0926L169.184 30.0806L173.563 29.9277L173.636 32.0182L166.408 32.2706Z" fill="#3E5A59"/>
</g>
<defs>
<filter id="filter0_i_2144_14743" x="61.3806" y="21.873" width="112.262" height="15.251" filterUnits="userSpaceOnUse" color-interpolation-filters="sRGB">
<feFlood flood-opacity="0" result="BackgroundImageFix"/>
<feBlend mode="normal" in="SourceGraphic" in2="BackgroundImageFix" result="shape"/>
<feColorMatrix in="SourceAlpha" type="matrix" values="0 0 0 0 0 0 0 0 0 0 0 0 0 0 0 0 0 0 127 0" result="hardAlpha"/>
<feOffset dy="1"/>
<feGaussianBlur stdDeviation="1"/>
<feComposite in2="hardAlpha" operator="arithmetic" k2="-1" k3="1"/>
<feColorMatrix type="matrix" values="0 0 0 0 0.221549 0 0 0 0 0.162615 0 0 0 0 0.0757646 0 0 0 1 0"/>
<feBlend mode="normal" in2="shape" result="effect1_innerShadow_2144_14743"/>
</filter>
<linearGradient id="paint0_linear_2144_14743" x1="94.5" y1="1" x2="94.5" y2="60" gradientUnits="userSpaceOnUse">
<stop stop-color="#E4EAE6"/>
<stop offset="1" stop-color="#D3DCD6"/>
</linearGradient>
<linearGradient id="paint1_linear_2144_14743" x1="28.3168" y1="53.9651" x2="31.5726" y2="4.19766" gradientUnits="userSpaceOnUse">
<stop stop-color="#4A615C"/>
<stop offset="1" stop-color="#A4B5AA"/>
</linearGradient>
<linearGradient id="paint2_linear_2144_14743" x1="33.5056" y1="7.46677" x2="33.727" y2="14.4811" gradientUnits="userSpaceOnUse">
<stop stop-color="white" stop-opacity="0.7"/>
<stop offset="1" stop-color="white" stop-opacity="0"/>
</linearGradient>
</defs>
</svg>
