<svg width="61" height="63" viewBox="0 0 61 63" fill="none" xmlns="http://www.w3.org/2000/svg">
<path d="M0.711351 34.2593L4.55182 18.263C5.10215 15.9707 6.58644 14.0133 8.64516 12.8649L20.828 6.06881C22.0844 5.36793 23.4992 5 24.9379 5H31.9499C35.921 5.35802 44.8381 6.61111 48.7371 8.75926C52.3067 10.7259 57.0564 23.9459 59.4956 31.935C59.9091 33.2894 59.9468 34.7243 59.6371 36.1062L56.6024 49.6496C56.0771 51.9934 54.5777 54.0023 52.4801 55.1724L40.7583 61.7113C39.2543 62.5503 37.5296 62.9089 35.8158 62.7389L16.0369 60.7774C13.1358 60.4897 10.5889 58.7247 9.301 56.1093L1.34618 39.9559C0.476231 38.1893 0.25165 36.174 0.711351 34.2593Z" fill="#3E5A59"/>
<path d="M32.3871 1.00404L32.3423 1H32.2973H25.648C24.1132 1 22.6039 1.39251 21.2635 2.14022L9.71083 8.58477C7.51457 9.80993 5.93111 11.8981 5.34401 14.3435L1.70219 29.5124C1.21177 31.5551 1.45136 33.705 2.37943 35.5896L9.92279 50.9075C11.2968 53.6976 14.0138 55.5806 17.1087 55.8875L35.8646 57.7476C37.6928 57.9289 39.5328 57.5463 41.1373 56.6513L52.2527 50.4506C54.4906 49.2023 56.0902 47.0592 56.6505 44.5588L59.5283 31.7159C59.8579 30.2446 59.8198 28.7077 59.3747 27.2498C58.2123 23.4427 56.4963 18.3782 54.6392 14.0197C53.7115 11.8425 52.7382 9.81701 51.7703 8.2053C50.833 6.64459 49.8008 5.29613 48.6988 4.68895C46.7003 3.58787 43.524 2.7591 40.4738 2.16432C37.3887 1.56271 34.2989 1.1764 32.3871 1.00404Z" fill="#D3DCD6"/>
<path d="M32.3871 1.00404L32.3423 1H32.2973H25.648C24.1132 1 22.6039 1.39251 21.2635 2.14022L9.71083 8.58477C7.51457 9.80993 5.93111 11.8981 5.34401 14.3435L1.70219 29.5124C1.21177 31.5551 1.45136 33.705 2.37943 35.5896L9.92279 50.9075C11.2968 53.6976 14.0138 55.5806 17.1087 55.8875L35.8646 57.7476C37.6928 57.9289 39.5328 57.5463 41.1373 56.6513L52.2527 50.4506C54.4906 49.2023 56.0902 47.0592 56.6505 44.5588L59.5283 31.7159C59.8579 30.2446 59.8198 28.7077 59.3747 27.2498C58.2123 23.4427 56.4963 18.3782 54.6392 14.0197C53.7115 11.8425 52.7382 9.81701 51.7703 8.2053C50.833 6.64459 49.8008 5.29613 48.6988 4.68895C46.7003 3.58787 43.524 2.7591 40.4738 2.16432C37.3887 1.56271 34.2989 1.1764 32.3871 1.00404Z" fill="url(#paint0_linear_2144_16773)" fill-opacity="0.5"/>
<path d="M32.3871 1.00404L32.3423 1H32.2973H25.648C24.1132 1 22.6039 1.39251 21.2635 2.14022L9.71083 8.58477C7.51457 9.80993 5.93111 11.8981 5.34401 14.3435L1.70219 29.5124C1.21177 31.5551 1.45136 33.705 2.37943 35.5896L9.92279 50.9075C11.2968 53.6976 14.0138 55.5806 17.1087 55.8875L35.8646 57.7476C37.6928 57.9289 39.5328 57.5463 41.1373 56.6513L52.2527 50.4506C54.4906 49.2023 56.0902 47.0592 56.6505 44.5588L59.5283 31.7159C59.8579 30.2446 59.8198 28.7077 59.3747 27.2498C58.2123 23.4427 56.4963 18.3782 54.6392 14.0197C53.7115 11.8425 52.7382 9.81701 51.7703 8.2053C50.833 6.64459 49.8008 5.29613 48.6988 4.68895C46.7003 3.58787 43.524 2.7591 40.4738 2.16432C37.3887 1.56271 34.2989 1.1764 32.3871 1.00404Z" stroke="#3E5A59" stroke-width="2"/>
<path d="M34.535 41.169L33.5259 41.4461C32.8457 41.6328 32.1054 41.5399 31.4913 41.1918L26.193 38.1765C25.9875 38.0592 25.7439 38.0282 25.5156 38.0903L22.7846 38.8403C21.3605 39.2314 19.8834 38.3907 19.4923 36.9667L17.1279 28.3568C16.7369 26.9328 17.5775 25.4557 19.0016 25.0646L21.7326 24.3146C21.9609 24.2516 22.1551 24.1011 22.2731 23.8958L25.2884 18.5975C25.6365 17.9834 26.2272 17.5249 26.9057 17.3385L27.9147 17.0614C29.3388 16.6704 30.8159 17.511 31.207 18.9351L36.4086 37.8767C36.7997 39.3008 35.9591 40.7779 34.535 41.169ZM19.4744 26.7866C19.2461 26.8493 19.052 27.0001 18.9349 27.2059C18.8178 27.4117 18.7872 27.6556 18.8499 27.884L21.2143 36.4938C21.3443 36.9673 21.8382 37.2484 22.3117 37.1183L25.0427 36.3684C25.7229 36.1816 26.4632 36.2746 27.0773 36.6226L32.3757 39.6379C32.5811 39.7552 32.8248 39.7862 33.053 39.7241L34.0621 39.447C34.5357 39.3169 34.8167 38.8231 34.6867 38.3496L29.485 19.408C29.4223 19.1796 29.2715 18.9855 29.0657 18.8684C28.8599 18.7513 28.616 18.7207 28.3876 18.7834L27.3785 19.0605C27.1506 19.1231 26.9569 19.2736 26.8397 19.4788L23.8232 24.7794C23.4704 25.395 22.8891 25.8467 22.2055 26.0366L19.4744 26.7866ZM37.6671 32.3442C37.4938 32.391 37.3106 32.3846 37.141 32.3259C36.9714 32.2672 36.8235 32.1589 36.7163 32.015C36.609 31.8711 36.5476 31.6983 36.5398 31.5191C36.5321 31.3398 36.5784 31.1624 36.6728 31.0098C37.0037 30.49 37.2221 29.9066 37.3138 29.2973C37.4055 28.6879 37.3686 28.0661 37.2054 27.4719C37.0423 26.8777 36.7564 26.3243 36.3664 25.8472C35.9763 25.3702 35.4907 24.9802 34.9407 24.7022C34.7301 24.5936 34.5713 24.4057 34.4993 24.18C34.4272 23.9542 34.4478 23.7091 34.5564 23.4985C34.6651 23.2879 34.853 23.1292 35.0787 23.0571C35.3045 22.985 35.5496 23.0056 35.7602 23.1143C37.3381 23.9309 38.465 25.3103 38.9289 26.9996C39.3928 28.6888 39.1301 30.4498 38.1884 31.9566C38.0693 32.1465 37.8833 32.2848 37.6671 32.3442Z" fill="#3E5A59"/>
<path d="M38.7851 36.4148C38.5878 36.4691 38.3778 36.4539 38.1903 36.3718C38.0028 36.2897 37.8492 36.1457 37.7552 35.9639C37.6613 35.782 37.6326 35.5735 37.6741 35.373C37.7155 35.1726 37.8246 34.9925 37.983 34.8629C40.441 32.849 41.4885 29.5762 40.6511 26.5266C39.8136 23.477 37.2416 21.1982 34.0998 20.7221C33.9838 20.7046 33.8724 20.6644 33.772 20.6038C33.6716 20.5433 33.5841 20.4635 33.5145 20.3692C33.4449 20.2748 33.3946 20.1676 33.3664 20.0538C33.3382 19.94 33.3328 19.8217 33.3503 19.7057C33.3678 19.5898 33.408 19.4784 33.4686 19.378C33.5291 19.2776 33.6089 19.1901 33.7032 19.1205C33.7976 19.0509 33.9048 19.0006 34.0186 18.9724C34.1324 18.9442 34.2507 18.9387 34.3667 18.9563C38.204 19.5376 41.3488 22.324 42.373 26.0538C43.3973 29.7835 42.1183 33.7847 39.1148 36.2465C39.0178 36.3249 38.9055 36.3822 38.7851 36.4148Z" fill="#3E5A59"/>
<defs>
<linearGradient id="paint0_linear_2144_16773" x1="30" y1="1" x2="30" y2="11.5" gradientUnits="userSpaceOnUse">
<stop stop-color="white" stop-opacity="0.7"/>
<stop offset="1" stop-color="white" stop-opacity="0"/>
</linearGradient>
</defs>
</svg>
