<svg width="61" height="63" viewBox="0 0 61 63" fill="none" xmlns="http://www.w3.org/2000/svg">
<path d="M0.711351 34.2593L4.55182 18.263C5.10215 15.9707 6.58644 14.0133 8.64516 12.8649L20.828 6.06881C22.0844 5.36793 23.4992 5 24.9379 5H31.9499C35.921 5.35802 44.8381 6.61111 48.7371 8.75926C52.3067 10.7259 57.0564 23.9459 59.4956 31.935C59.9091 33.2894 59.9468 34.7243 59.6371 36.1062L56.6024 49.6496C56.0771 51.9934 54.5777 54.0023 52.4801 55.1724L40.7583 61.7113C39.2543 62.5503 37.5296 62.9089 35.8158 62.7389L16.0369 60.7774C13.1358 60.4897 10.5889 58.7247 9.301 56.1093L1.34618 39.9559C0.476231 38.1893 0.25165 36.174 0.711351 34.2593Z" fill="#3E5A59"/>
<path d="M32.3871 1.00404L32.3423 1H32.2973H25.648C24.1132 1 22.6039 1.39251 21.2635 2.14022L9.71083 8.58477C7.51457 9.80993 5.93111 11.8981 5.34401 14.3435L1.70219 29.5124C1.21177 31.5551 1.45136 33.705 2.37943 35.5896L9.92279 50.9075C11.2968 53.6976 14.0138 55.5806 17.1087 55.8875L35.8646 57.7476C37.6928 57.9289 39.5328 57.5463 41.1373 56.6513L52.2527 50.4506C54.4906 49.2023 56.0902 47.0592 56.6505 44.5588L59.5283 31.7159C59.8579 30.2446 59.8198 28.7077 59.3747 27.2498C58.2123 23.4427 56.4963 18.3782 54.6392 14.0197C53.7115 11.8425 52.7382 9.81701 51.7703 8.2053C50.833 6.64459 49.8008 5.29613 48.6988 4.68895C46.7003 3.58787 43.524 2.7591 40.4738 2.16432C37.3887 1.56271 34.2989 1.1764 32.3871 1.00404Z" fill="#D3DCD6"/>
<path d="M32.3871 1.00404L32.3423 1H32.2973H25.648C24.1132 1 22.6039 1.39251 21.2635 2.14022L9.71083 8.58477C7.51457 9.80993 5.93111 11.8981 5.34401 14.3435L1.70219 29.5124C1.21177 31.5551 1.45136 33.705 2.37943 35.5896L9.92279 50.9075C11.2968 53.6976 14.0138 55.5806 17.1087 55.8875L35.8646 57.7476C37.6928 57.9289 39.5328 57.5463 41.1373 56.6513L52.2527 50.4506C54.4906 49.2023 56.0902 47.0592 56.6505 44.5588L59.5283 31.7159C59.8579 30.2446 59.8198 28.7077 59.3747 27.2498C58.2123 23.4427 56.4963 18.3782 54.6392 14.0197C53.7115 11.8425 52.7382 9.81701 51.7703 8.2053C50.833 6.64459 49.8008 5.29613 48.6988 4.68895C46.7003 3.58787 43.524 2.7591 40.4738 2.16432C37.3887 1.56271 34.2989 1.1764 32.3871 1.00404Z" fill="url(#paint0_linear_2144_16780)" fill-opacity="0.5"/>
<path d="M32.3871 1.00404L32.3423 1H32.2973H25.648C24.1132 1 22.6039 1.39251 21.2635 2.14022L9.71083 8.58477C7.51457 9.80993 5.93111 11.8981 5.34401 14.3435L1.70219 29.5124C1.21177 31.5551 1.45136 33.705 2.37943 35.5896L9.92279 50.9075C11.2968 53.6976 14.0138 55.5806 17.1087 55.8875L35.8646 57.7476C37.6928 57.9289 39.5328 57.5463 41.1373 56.6513L52.2527 50.4506C54.4906 49.2023 56.0902 47.0592 56.6505 44.5588L59.5283 31.7159C59.8579 30.2446 59.8198 28.7077 59.3747 27.2498C58.2123 23.4427 56.4963 18.3782 54.6392 14.0197C53.7115 11.8425 52.7382 9.81701 51.7703 8.2053C50.833 6.64459 49.8008 5.29613 48.6988 4.68895C46.7003 3.58787 43.524 2.7591 40.4738 2.16432C37.3887 1.56271 34.2989 1.1764 32.3871 1.00404Z" stroke="#3E5A59" stroke-width="2"/>
<path d="M34.6702 41.3112L33.6612 41.5883C32.981 41.7751 32.2407 41.6821 31.6266 41.3341L26.3282 38.3188C26.1228 38.2014 25.8792 38.1704 25.6509 38.2326L22.9198 38.9826C21.4958 39.3736 20.0186 38.533 19.6276 37.1089L17.2632 28.4991C16.8721 27.075 17.7128 25.5979 19.1368 25.2068L21.8679 24.4568C22.0961 24.3938 22.2903 24.2433 22.4084 24.038L25.4237 18.7397C25.7717 18.1256 26.3625 17.6671 27.0409 17.4808L28.05 17.2037C29.4741 16.8126 30.9512 17.6533 31.3423 19.0773L36.5439 38.0189C36.9349 39.443 36.0943 40.9201 34.6702 41.3112ZM19.6097 26.9288C19.3814 26.9915 19.1873 27.1423 19.0701 27.3482C18.953 27.554 18.9224 27.7979 18.9852 28.0262L21.3495 36.636C21.4796 37.1096 21.9734 37.3906 22.447 37.2606L25.178 36.5106C25.8582 36.3238 26.5985 36.4168 27.2126 36.7648L32.5109 39.7801C32.7164 39.8975 32.96 39.9285 33.1883 39.8663L34.1974 39.5892C34.6709 39.4592 34.952 38.9654 34.8219 38.4918L29.6203 19.5502C29.5576 19.3218 29.4067 19.1278 29.2009 19.0106C28.9951 18.8935 28.7512 18.8629 28.5229 18.9256L27.5138 19.2028C27.2859 19.2654 27.0921 19.4158 26.975 19.6211L23.9584 24.9216C23.6056 25.5372 23.0244 25.9889 22.3407 26.1788L19.6097 26.9288Z" fill="#3E5A59"/>
<path d="M47.5566 29.2123C47.9779 29.452 48.1192 29.9662 47.8794 30.3875C47.7595 30.5982 47.5777 30.7271 47.3574 30.7877C47.137 30.8482 46.9148 30.8302 46.7042 30.7104L42.4205 28.273L39.9832 32.5566C39.8633 32.7673 39.6815 32.8962 39.4611 32.9567C39.2407 33.0173 39.0186 32.9993 38.8079 32.8794C38.3866 32.6397 38.2453 32.1255 38.4851 31.7042L40.9225 27.4205L36.6388 24.9832C36.2175 24.7434 36.0763 24.2292 36.316 23.8079C36.5557 23.3866 37.0699 23.2453 37.4913 23.4851L41.7749 25.9225L44.2123 21.6388C44.452 21.2175 44.9662 21.0763 45.3875 21.316C45.8089 21.5557 45.9501 22.0699 45.7104 22.4913L43.273 26.7749L47.5566 29.2123Z" fill="#3E5A59"/>
<defs>
<linearGradient id="paint0_linear_2144_16780" x1="30" y1="1" x2="30" y2="11.5" gradientUnits="userSpaceOnUse">
<stop stop-color="white" stop-opacity="0.7"/>
<stop offset="1" stop-color="white" stop-opacity="0"/>
</linearGradient>
</defs>
</svg>
