<svg width="189" height="64" viewBox="0 0 189 64" fill="none" xmlns="http://www.w3.org/2000/svg">
<path d="M188 40.01V29.63C188 15.38 176.45 3.83 162.2 3.83H150.76C148.34 3.83 145.92 4.06 143.55 4.52C139.14 5.37 134.61 5.39 130.2 4.58L129.75 4.5C127.34 4.06 124.89 3.83 122.43 3.83H30.5C14.21 3.83 1 17.04 1 33.33C1 49.62 14.21 62.83 30.5 62.83H46.82C48.01 62.83 49.15 62.33 49.96 61.46C50.54 60.84 51.41 60.59 52.23 60.81L57.89 62.34C59.08 62.66 60.31 62.83 61.55 62.83H103.9C105.99 62.83 108.07 62.53 110.08 61.95L113.06 61.09C115.72 60.32 118.56 60.51 121.09 61.64C122.85 62.42 124.75 62.83 126.67 62.83H151.07C152.13 62.83 153.15 62.43 153.92 61.7C154.62 61.04 155.68 60.93 156.5 61.42L157.48 62.01C158.36 62.54 159.37 62.82 160.4 62.82H165.19C177.79 62.82 188.01 52.6 188.01 40L188 40.01Z" fill="#3E5A59"/>
<path d="M188 40.01V29.63C188 15.38 176.45 3.83 162.2 3.83H150.76C148.34 3.83 145.92 4.06 143.55 4.52C139.14 5.37 134.61 5.39 130.2 4.58L129.75 4.5C127.34 4.06 124.89 3.83 122.43 3.83H30.5C14.21 3.83 1 17.04 1 33.33C1 49.62 14.21 62.83 30.5 62.83H46.82C48.01 62.83 49.15 62.33 49.96 61.46C50.54 60.84 51.41 60.59 52.23 60.81L57.89 62.34C59.08 62.66 60.31 62.83 61.55 62.83H103.9C105.99 62.83 108.07 62.53 110.08 61.95L113.06 61.09C115.72 60.32 118.56 60.51 121.09 61.64C122.85 62.42 124.75 62.83 126.67 62.83H151.07C152.13 62.83 153.15 62.43 153.92 61.7C154.62 61.04 155.68 60.93 156.5 61.42L157.48 62.01C158.36 62.54 159.37 62.82 160.4 62.82H165.19C177.79 62.82 188.01 52.6 188.01 40L188 40.01Z" stroke="#3E5A59" stroke-width="2" stroke-miterlimit="10"/>
<path d="M188 37.18V26.8C188 12.55 176.45 1 162.2 1H150.76C148.34 1 145.92 1.23 143.55 1.69C139.14 2.54 134.61 2.56 130.2 1.75L129.75 1.67C127.34 1.23 124.89 1 122.43 1H30.5C14.21 1 1 14.21 1 30.5C1 46.79 14.21 60 30.5 60H46.82C48.01 60 49.15 59.5 49.96 58.63C50.54 58.01 51.41 57.76 52.23 57.98L57.89 59.51C59.08 59.83 60.31 60 61.55 60H103.9C105.99 60 108.07 59.7 110.08 59.12L113.06 58.26C115.72 57.49 118.56 57.68 121.09 58.81C122.85 59.59 124.75 60 126.67 60H151.07C152.13 60 153.15 59.6 153.92 58.87C154.62 58.21 155.68 58.1 156.5 58.59L157.48 59.18C158.36 59.71 159.37 59.99 160.4 59.99H165.19C177.79 59.99 188.01 49.77 188.01 37.17L188 37.18Z" fill="url(#paint0_linear_2144_14773)"/>
<path d="M188 37.18V26.8C188 12.55 176.45 1 162.2 1H150.76C148.34 1 145.92 1.23 143.55 1.69C139.14 2.54 134.61 2.56 130.2 1.75L129.75 1.67C127.34 1.23 124.89 1 122.43 1H30.5C14.21 1 1 14.21 1 30.5C1 46.79 14.21 60 30.5 60H46.82C48.01 60 49.15 59.5 49.96 58.63C50.54 58.01 51.41 57.76 52.23 57.98L57.89 59.51C59.08 59.83 60.31 60 61.55 60H103.9C105.99 60 108.07 59.7 110.08 59.12L113.06 58.26C115.72 57.49 118.56 57.68 121.09 58.81C122.85 59.59 124.75 60 126.67 60H151.07C152.13 60 153.15 59.6 153.92 58.87C154.62 58.21 155.68 58.1 156.5 58.59L157.48 59.18C158.36 59.71 159.37 59.99 160.4 59.99H165.19C177.79 59.99 188.01 49.77 188.01 37.17L188 37.18Z" stroke="#3E5A59" stroke-width="2" stroke-miterlimit="10"/>
<circle cx="33.8982" cy="32.7791" r="20" transform="rotate(-2.2777 33.8982 32.7791)" fill="#3E5A59"/>
<circle cx="33.8982" cy="29.7791" r="19" transform="rotate(-2.2777 33.8982 29.7791)" fill="url(#paint1_linear_2144_14773)"/>
<circle cx="33.8982" cy="29.7791" r="19" transform="rotate(-2.2777 33.8982 29.7791)" fill="url(#paint2_linear_2144_14773)"/>
<circle cx="33.8982" cy="29.7791" r="19" transform="rotate(-2.2777 33.8982 29.7791)" stroke="#3E5A59" stroke-width="2"/>
<path d="M31.1957 38.4331L34.8099 21.7386L35.8808 21.9635L32.2666 38.6581L31.1957 38.4331ZM36.4575 27.8457C36.5191 27.3087 36.3834 26.8529 36.0503 26.4784C35.7172 26.1039 35.2111 25.8454 34.532 25.7028C34.0706 25.6058 33.6668 25.5892 33.3208 25.6529C32.9757 25.7122 32.6938 25.8371 32.4751 26.0275C32.2607 26.2188 32.1225 26.458 32.0604 26.7449C31.9999 26.9822 32.0048 27.2014 32.075 27.4025C32.1496 27.6045 32.2707 27.7913 32.4384 27.9629C32.607 28.1301 32.8094 28.2885 33.0455 28.4381C33.2826 28.5834 33.5399 28.7192 33.8175 28.8457L34.9568 29.385C35.5119 29.6379 36.0097 29.9243 36.4503 30.244C36.8908 30.5638 37.2551 30.9199 37.5434 31.3122C37.8317 31.7046 38.0272 32.1365 38.1299 32.6081C38.2369 33.0805 38.2324 33.5955 38.1163 34.1529C37.935 34.9693 37.5726 35.634 37.0292 36.1471C36.491 36.6568 35.7988 36.9955 34.9523 37.1631C34.1112 37.3274 33.1465 37.2952 32.0582 37.0666C30.9786 36.8399 30.074 36.4772 29.3446 35.9785C28.6194 35.4808 28.1028 34.861 27.7947 34.119C27.4918 33.3736 27.4335 32.5182 27.6197 31.5529L30.3558 32.1275C30.2893 32.5817 30.3368 32.9826 30.4982 33.3301C30.6649 33.6742 30.9234 33.9625 31.2735 34.1952C31.6289 34.4243 32.0505 34.5901 32.538 34.6925C33.0169 34.7931 33.4477 34.8109 33.8304 34.7458C34.2175 34.6817 34.5358 34.5463 34.7854 34.3396C35.0349 34.1329 35.1945 33.8687 35.2641 33.547C35.3291 33.247 35.2944 32.9761 35.1602 32.7343C35.0303 32.4934 34.8111 32.2656 34.5026 32.0508C34.1985 31.8369 33.8153 31.6201 33.3532 31.4003L31.9761 30.7293C30.9079 30.2186 30.1103 29.6034 29.5834 28.8836C29.0566 28.1639 28.9021 27.3111 29.1202 26.3251C29.2909 25.5156 29.6593 24.8543 30.2254 24.3415C30.796 23.8295 31.501 23.4844 32.3406 23.3062C33.1802 23.128 34.0875 23.1414 35.0627 23.3462C36.0552 23.5546 36.8848 23.9061 37.5514 24.4007C38.2224 24.8961 38.6993 25.4894 38.982 26.1806C39.2648 26.8718 39.3266 27.6165 39.1674 28.4148L36.4575 27.8457Z" fill="white"/>
<g filter="url(#filter0_i_2144_14773)">
<path d="M80.9824 37.9432L78.56 28.0308L81.4034 27.9812L82.7457 33.988C82.7804 34.1469 82.8031 34.2719 82.8138 34.3628C82.829 34.4537 82.8449 34.5788 82.8614 34.738L82.916 34.7371C82.9269 34.5774 82.9361 34.4519 82.9436 34.3606C82.9512 34.2693 82.9672 34.1436 82.9918 33.9837L84.274 27.9311L87.6026 27.873L89.0676 33.8571C89.1069 34.016 89.1296 34.1455 89.1359 34.2456C89.1467 34.3412 89.1603 34.4686 89.1768 34.6278L89.2315 34.6268C89.2424 34.4671 89.2538 34.3393 89.2658 34.2434C89.2777 34.1429 89.2937 34.0127 89.3137 33.8528L90.4118 27.824L92.7835 27.7826L90.811 37.7716L87.4209 37.8308L85.86 31.8347C85.8207 31.6758 85.7933 31.5396 85.7776 31.4259C85.7619 31.3077 85.7481 31.1689 85.7362 31.0096L85.6815 31.0105C85.6752 31.1701 85.6662 31.3093 85.6546 31.428C85.6475 31.5421 85.6271 31.6792 85.5934 31.8393L84.2495 37.8862L80.9824 37.9432ZM91.9254 37.7522L95.5241 27.7074L98.757 27.6509L102.841 37.5616L99.6967 37.6165L97.19 31.1036C97.1326 30.9496 97.089 30.8023 97.0592 30.6615C97.034 30.5206 97.0088 30.3821 96.9836 30.2458L96.9358 30.2466C96.9199 30.3836 96.8996 30.5253 96.8748 30.6716C96.8499 30.8133 96.8115 30.9598 96.7594 31.1111L94.5158 37.707L91.9254 37.7522ZM94.5597 35.9149L95.0916 33.875L99.2062 33.8032L99.8226 35.823L94.5597 35.9149ZM103.149 37.5563L102.975 27.6047L105.852 27.5544L105.989 35.4009L109.995 35.331L110.031 37.4361L103.149 37.5563ZM110.865 37.4216L110.692 27.47L113.569 27.4197L113.706 35.2662L117.711 35.1963L117.748 37.3014L110.865 37.4216ZM118.582 37.2869L118.409 27.3353L125.565 27.2104L125.601 29.3155L121.295 29.3907L121.325 31.0994L125.016 31.035L125.052 33.0923L121.361 33.1567L121.396 35.1456L125.777 35.0692L125.814 37.1607L118.582 37.2869ZM126.094 29.3069L126.057 27.2018L134.382 27.0565L134.419 29.1616L131.698 29.2091L131.835 37.0555L128.951 37.1059L128.814 29.2594L126.094 29.3069Z" fill="#2B4443"/>
</g>
<defs>
<filter id="filter0_i_2144_14773" x="78.5596" y="27.0291" width="55.9962" height="11.9533" filterUnits="userSpaceOnUse" color-interpolation-filters="sRGB">
<feFlood flood-opacity="0" result="BackgroundImageFix"/>
<feBlend mode="normal" in="SourceGraphic" in2="BackgroundImageFix" result="shape"/>
<feColorMatrix in="SourceAlpha" type="matrix" values="0 0 0 0 0 0 0 0 0 0 0 0 0 0 0 0 0 0 127 0" result="hardAlpha"/>
<feOffset dy="1"/>
<feGaussianBlur stdDeviation="1"/>
<feComposite in2="hardAlpha" operator="arithmetic" k2="-1" k3="1"/>
<feColorMatrix type="matrix" values="0 0 0 0 0.221549 0 0 0 0 0.162615 0 0 0 0 0.0757646 0 0 0 1 0"/>
<feBlend mode="normal" in2="shape" result="effect1_innerShadow_2144_14773"/>
</filter>
<linearGradient id="paint0_linear_2144_14773" x1="94.5" y1="1" x2="94.5" y2="60" gradientUnits="userSpaceOnUse">
<stop stop-color="#E4EAE6"/>
<stop offset="1" stop-color="#D3DCD6"/>
</linearGradient>
<linearGradient id="paint1_linear_2144_14773" x1="28.3168" y1="53.9651" x2="31.5726" y2="4.19766" gradientUnits="userSpaceOnUse">
<stop stop-color="#4A615C"/>
<stop offset="1" stop-color="#A4B5AA"/>
</linearGradient>
<linearGradient id="paint2_linear_2144_14773" x1="33.5056" y1="7.46677" x2="33.727" y2="14.4811" gradientUnits="userSpaceOnUse">
<stop stop-color="white" stop-opacity="0.7"/>
<stop offset="1" stop-color="white" stop-opacity="0"/>
</linearGradient>
</defs>
</svg>
