<?xml version="1.0" encoding="UTF-8"?>
<svg id="_Слой_2" data-name="Слой_2" xmlns="http://www.w3.org/2000/svg" xmlns:xlink="http://www.w3.org/1999/xlink" viewBox="0 0 57.64 57.36">
  <defs>
    <style>
      .cls-1 {
        filter: url(#drop-shadow-1);
      }

      .cls-2 {
        fill: #4e3c22;
      }

      .cls-3 {
        fill: #fdf0c6;
        stroke: #1d2015;
        stroke-miterlimit: 10;
      }
    </style>
    <filter id="drop-shadow-1" filterUnits="userSpaceOnUse">
      <feOffset dx="0" dy="4"/>
      <feGaussianBlur result="blur" stdDeviation="0"/>
      <feFlood flood-color="#1d2015" flood-opacity="1"/>
      <feComposite in2="blur" operator="in"/>
      <feComposite in="SourceGraphic"/>
    </filter>
  </defs>
  <g id="_Слой_1-2" data-name="Слой_1">
    <g>
      <g class="cls-1">
        <path class="cls-3" d="M2.24,22.71l.13-.55c1.76-7.32,6.5-13.57,13.07-17.24,4.01-2.24,8.53-3.41,13.12-3.41h1.72c3.77.34,12.22,1.53,15.92,3.56,2.77,1.52,6.28,10.17,8.73,17.42,1.44,4.25,1.54,8.81.56,13.19l-.19.87c-1.54,6.87-5.93,12.76-12.08,16.19-4.41,2.46-9.46,3.51-14.49,3.01l-3.24-.32c-9.15-.91-17.19-6.48-21.26-14.73-2.75-5.57-3.45-11.93-2-17.98Z"/>
        <path class="cls-3" d="M30.38.5h-.04s-.05,0-.05,0h-1.72c-4.76,0-9.45,1.22-13.61,3.54C8.13,7.84,3.22,14.33,1.4,21.92l-.13.55c-1.51,6.27-.77,12.87,2.08,18.65,4.22,8.56,12.56,14.34,22.06,15.28l3.24.32c5.23.52,10.48-.58,15.07-3.13,6.4-3.57,10.97-9.69,12.57-16.84l.19-.87c1.02-4.53.92-9.29-.59-13.73-1.23-3.64-2.74-7.65-4.29-10.96-.78-1.65-1.57-3.15-2.37-4.35-.77-1.16-1.62-2.16-2.54-2.67-2-1.1-5.17-1.93-8.22-2.52-3.09-.6-6.17-.99-8.09-1.16Z"/>
      </g>
      <path class="cls-2" d="M30.51,40.15l-4.61-22.33,1.43-.3,4.61,22.33-1.43.3ZM31.21,24.38c-.21-.69-.63-1.17-1.24-1.45-.61-.28-1.37-.32-2.27-.13-.62.13-1.12.33-1.51.59-.39.26-.67.56-.83.91-.16.35-.2.72-.12,1.1.05.32.18.59.37.79.2.21.45.37.75.49.3.11.63.2,1,.25.37.05.76.08,1.16.08l1.68.04c.81,0,1.58.09,2.29.24s1.35.39,1.91.71c.56.32,1.04.75,1.42,1.27.39.52.66,1.15.82,1.89.22,1.09.14,2.1-.25,3.02-.38.91-1.04,1.7-1.99,2.36-.94.65-2.13,1.14-3.59,1.45-1.44.31-2.74.35-3.9.14-1.15-.22-2.12-.69-2.9-1.43-.77-.75-1.31-1.76-1.6-3.04l3.65-.78c.16.59.44,1.05.82,1.39.39.33.86.54,1.41.64.56.09,1.16.06,1.81-.08.64-.14,1.17-.35,1.61-.63.44-.29.75-.62.95-1.01.19-.39.25-.8.16-1.23-.08-.4-.27-.71-.57-.94-.29-.22-.68-.38-1.17-.48-.49-.1-1.07-.15-1.75-.17l-2.04-.08c-1.58-.05-2.89-.37-3.92-.96-1.03-.59-1.68-1.55-1.95-2.87-.23-1.08-.14-2.09.28-3.02.42-.93,1.09-1.74,2.02-2.41s2.04-1.15,3.34-1.42c1.32-.28,2.53-.3,3.61-.06,1.09.24,1.99.71,2.71,1.4.72.69,1.2,1.57,1.43,2.63l-3.62.77Z"/>
    </g>
  </g>
</svg>