<svg width="133" height="60" viewBox="0 0 133 60" fill="none" xmlns="http://www.w3.org/2000/svg">
<path d="M26.6667 32H27.8333C28.4777 32 29 32.5037 29 33.125V35.375C29 35.9963 28.4777 36.5 27.8333 36.5H26.6667C26.0223 36.5 25.5 35.9963 25.5 35.375V33.125C25.5 32.5037 26.0223 32 26.6667 32Z" fill="white"/>
<path d="M31.6667 30H32.8333C33.4777 30 34 30.5037 34 31.125V35.375C34 35.9963 33.4777 36.5 32.8333 36.5H31.6667C31.0223 36.5 30.5 35.9963 30.5 35.375V31.125C30.5 30.5037 31.0223 30 31.6667 30Z" fill="white"/>
<path opacity="0.2" d="M36.6667 27H37.8333C38.4777 27 39 27.5037 39 28.125V35.375C39 35.9963 38.4777 36.5 37.8333 36.5H36.6667C36.0223 36.5 35.5 35.9963 35.5 35.375V28.125C35.5 27.5037 36.0223 27 36.6667 27Z" fill="white"/>
<path opacity="0.2" d="M41.6667 24H42.8333C43.4777 24 44 24.5037 44 25.125V35.375C44 35.9963 43.4777 36.5 42.8333 36.5H41.6667C41.0223 36.5 40.5 35.9963 40.5 35.375V25.125C40.5 24.5037 41.0223 24 41.6667 24Z" fill="white"/>
<path fill-rule="evenodd" clip-rule="evenodd" d="M63.0005 26.596C65.467 26.5961 67.8393 27.5667 69.6269 29.3071C69.7615 29.4415 69.9766 29.4398 70.1092 29.3033L71.396 27.9734C71.4631 27.9042 71.5006 27.8104 71.5 27.7129C71.4994 27.6153 71.4609 27.522 71.393 27.4536C66.7011 22.8488 59.2991 22.8488 54.6072 27.4536C54.5392 27.522 54.5006 27.6152 54.5 27.7128C54.4994 27.8103 54.5367 27.9041 54.6038 27.9734L55.891 29.3033C56.0235 29.44 56.2388 29.4417 56.3733 29.3071C58.1612 27.5666 60.5337 26.596 63.0005 26.596ZM63.0005 30.9227C64.3557 30.9226 65.6625 31.4384 66.6671 32.37C66.8029 32.5022 67.017 32.4993 67.1494 32.3635L68.4347 31.0336C68.5024 30.9639 68.5399 30.8692 68.539 30.7709C68.538 30.6726 68.4986 30.5787 68.4295 30.5104C65.3704 27.5963 60.6331 27.5963 57.574 30.5104C57.5049 30.5787 57.4655 30.6726 57.4646 30.771C57.4636 30.8693 57.5013 30.964 57.5692 31.0336L58.8541 32.3635C58.9865 32.4993 59.2006 32.5022 59.3364 32.37C60.3403 31.439 61.6461 30.9232 63.0005 30.9227ZM65.5751 33.834C65.5771 33.9326 65.5392 34.0277 65.4705 34.0968L63.2472 36.3945C63.182 36.462 63.0932 36.5 63.0004 36.5C62.9077 36.5 62.8189 36.462 62.7537 36.3945L60.5301 34.0968C60.4614 34.0276 60.4236 33.9325 60.4256 33.8339C60.4277 33.7353 60.4693 33.6419 60.5408 33.5758C61.9607 32.346 64.0402 32.346 65.4601 33.5758C65.5315 33.642 65.5731 33.7354 65.5751 33.834Z" fill="white"/>
<g opacity="0.3">
<path d="M82.166 24.7777C81.5 25.7866 81.5 27.1911 81.5 30C81.5 32.8089 81.5 34.2134 82.166 35.2223C82.4543 35.659 82.8248 36.034 83.2563 36.3259C84.253 37 85.6405 37 88.4155 37H99.2827C102.058 37 103.445 37 104.442 36.3259C104.873 36.034 105.244 35.659 105.532 35.2223C106.198 34.2134 106.198 32.8089 106.198 30C106.198 27.1911 106.198 25.7866 105.532 24.7777C105.244 24.341 104.873 23.966 104.442 23.6741C103.445 23 102.058 23 99.2827 23H88.4155C85.6405 23 84.253 23 83.2563 23.6741C82.8248 23.966 82.4543 24.341 82.166 24.7777Z" fill="white"/>
<path d="M108.5 29.75C108.5 30.6231 107.982 31.4112 107.186 31.75V27.75C107.982 28.0888 108.5 28.8769 108.5 29.75Z" fill="white"/>
</g>
<path d="M81.5 30C81.5 27.1911 81.5 25.7866 82.1741 24.7777C82.466 24.341 82.841 23.966 83.2777 23.6741C84.2866 23 85.6911 23 88.5 23H91.3793V37H88.5C85.6911 37 84.2866 37 83.2777 36.3259C82.841 36.034 82.466 35.659 82.1741 35.2223C81.5 34.2134 81.5 32.8089 81.5 30Z" fill="#F7CE45"/>
<path d="M91.2104 34.1719C90.6268 34.1719 90.1147 34.0752 89.6743 33.8818C89.2375 33.6849 88.8919 33.4128 88.6377 33.0654C88.3835 32.7145 88.2367 32.3081 88.1973 31.8462L88.1919 31.7764H89.7441L89.7495 31.8354C89.7746 32.036 89.848 32.215 89.9697 32.3726C90.0951 32.5265 90.2633 32.6483 90.4746 32.7378C90.6859 32.8237 90.9312 32.8667 91.2104 32.8667C91.4862 32.8667 91.7261 32.8201 91.9302 32.7271C92.1379 32.6304 92.2972 32.4979 92.4082 32.3296C92.5228 32.1613 92.5801 31.9679 92.5801 31.7495V31.7388C92.5801 31.3664 92.4476 31.0817 92.1826 30.8848C91.9212 30.6878 91.556 30.5894 91.0869 30.5894H90.2007V29.4346H91.0654C91.3376 29.4346 91.5739 29.3898 91.7744 29.3003C91.9749 29.2108 92.1307 29.0872 92.2417 28.9297C92.3527 28.7686 92.4082 28.5841 92.4082 28.3765V28.3657C92.4082 28.1509 92.3599 27.9665 92.2632 27.8125C92.1701 27.6549 92.0322 27.535 91.8496 27.4526C91.6706 27.3667 91.4539 27.3237 91.1997 27.3237C90.9455 27.3237 90.7217 27.3667 90.5283 27.4526C90.335 27.5386 90.181 27.6621 90.0664 27.8232C89.9518 27.9808 89.8838 28.167 89.8623 28.3818L89.8569 28.4302H88.3638L88.3691 28.3657C88.4085 27.9002 88.5482 27.4974 88.7881 27.1572C89.0316 26.8135 89.3574 26.5485 89.7656 26.3623C90.1774 26.1725 90.6554 26.0776 91.1997 26.0776C91.7547 26.0776 92.2381 26.1654 92.6499 26.3408C93.0617 26.5127 93.3786 26.7544 93.6006 27.0659C93.8262 27.3739 93.939 27.7355 93.939 28.1509V28.1616C93.939 28.4839 93.8674 28.7668 93.7241 29.0103C93.5809 29.2537 93.3875 29.4543 93.144 29.6118C92.9006 29.7694 92.6266 29.8804 92.3223 29.9448V29.9771C92.8988 30.0308 93.3607 30.217 93.708 30.5356C94.0553 30.8543 94.229 31.2769 94.229 31.8032V31.814C94.229 32.283 94.1019 32.6948 93.8477 33.0493C93.597 33.4038 93.2461 33.6795 92.7949 33.8765C92.3438 34.0734 91.8156 34.1719 91.2104 34.1719ZM95.1738 34V32.9097L97.6714 30.4443C98.0366 30.0934 98.3195 29.8052 98.52 29.5796C98.7205 29.3504 98.8602 29.1517 98.939 28.9834C99.0177 28.8115 99.0571 28.6343 99.0571 28.4517V28.4355C99.0571 28.2135 99.0088 28.0184 98.9121 27.8501C98.819 27.6818 98.6829 27.5511 98.5039 27.458C98.3249 27.3613 98.1118 27.313 97.8647 27.313C97.6141 27.313 97.3921 27.3667 97.1987 27.4741C97.0054 27.578 96.855 27.723 96.7476 27.9092C96.6401 28.0918 96.5864 28.3066 96.5864 28.5537V28.5806H95.0879L95.0825 28.5537C95.0825 28.0596 95.2025 27.6245 95.4424 27.2485C95.6859 26.8726 96.0207 26.5789 96.4468 26.3677C96.8765 26.1564 97.3742 26.0508 97.9399 26.0508C98.4735 26.0508 98.9425 26.1457 99.3472 26.3354C99.7554 26.5252 100.074 26.7884 100.303 27.125C100.536 27.4616 100.652 27.8537 100.652 28.3013V28.3174C100.652 28.611 100.595 28.8993 100.48 29.1821C100.366 29.4614 100.173 29.764 99.9004 30.0898C99.6283 30.4157 99.2559 30.797 98.7832 31.2339L96.9141 32.9795L97.3491 32.2705V32.9795L96.9141 32.6948H100.765V34H95.1738Z" fill="black"/>
</svg>
