<svg width="134" height="60" viewBox="0 0 134 60" fill="none" xmlns="http://www.w3.org/2000/svg">
<path d="M46.0166 23.7231C46.6585 23.7231 47.2673 23.8421 47.8428 24.0801C48.4183 24.3125 48.9274 24.6777 49.3701 25.1758C49.8184 25.6683 50.1698 26.3019 50.4243 27.0767C50.6789 27.8459 50.8062 28.7728 50.8062 29.8574V29.874C50.8062 31.2188 50.6125 32.3698 50.2251 33.3271C49.8377 34.2845 49.2816 35.0205 48.5566 35.5352C47.8372 36.0443 46.9767 36.2988 45.9751 36.2988C45.2391 36.2988 44.575 36.166 43.9829 35.9004C43.3963 35.6292 42.9093 35.2585 42.522 34.7881C42.1401 34.3122 41.8828 33.7699 41.75 33.1611L41.7334 33.0698H43.8335L43.8667 33.1528C43.9718 33.4295 44.1213 33.673 44.3149 33.8833C44.5142 34.0936 44.7521 34.2568 45.0288 34.373C45.311 34.4837 45.6265 34.5391 45.9751 34.5391C46.606 34.5391 47.1206 34.3537 47.519 33.9829C47.923 33.6066 48.2246 33.1058 48.4238 32.4805C48.6286 31.8496 48.7448 31.1523 48.7725 30.3887C48.778 30.3057 48.7808 30.2254 48.7808 30.1479C48.7808 30.0649 48.7808 29.9847 48.7808 29.9072L48.4072 27.9067C48.4072 27.453 48.3021 27.0407 48.0918 26.6699C47.8815 26.2992 47.5965 26.0059 47.2368 25.79C46.8826 25.5742 46.4814 25.4663 46.0332 25.4663C45.6016 25.4663 45.2059 25.5715 44.8462 25.7817C44.4865 25.992 44.1987 26.2798 43.9829 26.645C43.7671 27.0047 43.6592 27.4087 43.6592 27.8569V27.8735C43.6592 28.3384 43.7616 28.7507 43.9663 29.1104C44.1711 29.4645 44.4505 29.744 44.8047 29.9487C45.1589 30.1535 45.5628 30.2559 46.0166 30.2559C46.4704 30.2559 46.8771 30.1562 47.2368 29.957C47.5965 29.7578 47.8815 29.4811 48.0918 29.127C48.3021 28.7728 48.4072 28.3716 48.4072 27.9233V27.9067H48.9053V30.1147H48.6147C48.4709 30.4302 48.2578 30.7235 47.9756 30.9946C47.6934 31.2658 47.3447 31.4844 46.9297 31.6504C46.5202 31.8164 46.0387 31.8994 45.4854 31.8994C44.7217 31.8994 44.0465 31.7279 43.46 31.3848C42.8734 31.0417 42.4113 30.5713 42.0737 29.9736C41.7417 29.376 41.5757 28.7008 41.5757 27.9482V27.9316C41.5757 27.1182 41.7638 26.396 42.1401 25.7651C42.522 25.1287 43.0477 24.6307 43.7173 24.271C44.3924 23.9058 45.1589 23.7231 46.0166 23.7231ZM54.0747 34.3896C53.6984 34.3896 53.383 34.2651 53.1284 34.0161C52.8794 33.7616 52.7549 33.4517 52.7549 33.0864C52.7549 32.7157 52.8794 32.4058 53.1284 32.1567C53.383 31.9022 53.6984 31.7749 54.0747 31.7749C54.4565 31.7749 54.772 31.9022 55.021 32.1567C55.27 32.4058 55.3945 32.7157 55.3945 33.0864C55.3945 33.4517 55.27 33.7616 55.021 34.0161C54.772 34.2651 54.4565 34.3896 54.0747 34.3896ZM54.0747 28.2305C53.6984 28.2305 53.383 28.106 53.1284 27.8569C52.8794 27.6024 52.7549 27.2925 52.7549 26.9272C52.7549 26.5565 52.8794 26.2466 53.1284 25.9976C53.383 25.743 53.6984 25.6157 54.0747 25.6157C54.4565 25.6157 54.772 25.743 55.021 25.9976C55.27 26.2466 55.3945 26.5565 55.3945 26.9272C55.3945 27.2925 55.27 27.6024 55.021 27.8569C54.772 28.106 54.4565 28.2305 54.0747 28.2305ZM63.1538 36V33.7007H57.2935V31.9492C57.6089 31.4124 57.9243 30.8729 58.2397 30.3306C58.5607 29.7882 58.8844 29.2487 59.2109 28.7119C59.543 28.1696 59.8722 27.6356 60.1987 27.1099C60.5308 26.5786 60.86 26.0557 61.1865 25.541C61.5186 25.0208 61.8506 24.5145 62.1826 24.022H65.1958V31.9326H66.8145V33.7007H65.1958V36H63.1538ZM59.2856 31.9824H63.187V25.7319H63.0625C62.819 26.1082 62.5672 26.4956 62.3071 26.894C62.0526 27.2925 61.7952 27.6992 61.5352 28.1143C61.2751 28.5293 61.0177 28.9471 60.7632 29.3677C60.5086 29.7827 60.2568 30.2005 60.0078 30.6211C59.7588 31.0361 59.5181 31.4484 59.2856 31.8579V31.9824ZM71.27 36V26.1304H71.1206L68.1406 28.2305V26.2217L71.27 24.022H73.4033V36H71.27Z" fill="white"/>
<path d="M81.5007 30.5545C81.2699 30.5504 81.0775 30.4996 80.9236 30.4021C80.7737 30.3005 80.6624 30.1724 80.5895 30.0179C80.5166 29.8594 80.4882 29.6928 80.5044 29.518C80.5206 29.3391 80.5814 29.1745 80.6867 29.0241C80.792 28.8696 80.9479 28.7456 81.1544 28.6521L90.8743 24.1584C91.1538 24.0324 91.411 23.9815 91.6459 24.0059C91.8808 24.0263 92.0731 24.1096 92.223 24.2559C92.3728 24.3982 92.4619 24.5852 92.4903 24.8169C92.5227 25.0445 92.4741 25.3006 92.3445 25.5852L87.8794 35.3044C87.7822 35.5239 87.6546 35.6885 87.4967 35.7983C87.3387 35.9121 87.1707 35.9771 86.9925 35.9934C86.8143 36.0137 86.6462 35.9873 86.4882 35.9141C86.3303 35.8409 86.2027 35.7271 86.1055 35.5727C86.0083 35.4223 85.9597 35.2353 85.9597 35.0117L85.9476 30.6643C85.9476 30.5992 85.9152 30.5667 85.8504 30.5667L81.5007 30.5545Z" fill="white"/>
</svg>
