<svg width="32" height="34" viewBox="0 0 32 34" fill="none" xmlns="http://www.w3.org/2000/svg">
<g filter="url(#filter0_di_424_1151)">
<path d="M0 17.7778L2.88288 5.33333L12.1081 0H17.009C19.1231 0.197531 23.8703 0.888889 25.9459 2.07407C28.0216 3.25926 30.8468 11.8519 32 16L29.6937 26.6667L20.4685 32L6.05405 30.5185L0 17.7778Z" fill="url(#paint0_linear_424_1151)" style=""/>
<path d="M6.38495 30.0499L0.526461 17.7207L3.32101 5.65759L12.2422 0.5H16.9856C18.0295 0.598438 19.7146 0.817591 21.3928 1.15676C23.1013 1.50201 24.7363 1.95917 25.698 2.50828C25.8755 2.60959 26.0992 2.81526 26.3605 3.15018C26.6172 3.47909 26.8882 3.904 27.1681 4.40905C27.7278 5.41898 28.3025 6.71124 28.8538 8.10934C29.9346 10.8504 30.9072 13.951 31.4852 16.0152L29.2518 26.3446L20.3585 31.4861L6.38495 30.0499Z" stroke="#4E3C22" style="stroke:#4E3C22;stroke:color(display-p3 0.3059 0.2353 0.1333);stroke-opacity:1;"/>
</g>
<defs>
<filter id="filter0_di_424_1151" x="0" y="0" width="32" height="34" filterUnits="userSpaceOnUse" color-interpolation-filters="sRGB">
<feFlood flood-opacity="0" result="BackgroundImageFix"/>
<feColorMatrix in="SourceAlpha" type="matrix" values="0 0 0 0 0 0 0 0 0 0 0 0 0 0 0 0 0 0 127 0" result="hardAlpha"/>
<feOffset dy="2"/>
<feComposite in2="hardAlpha" operator="out"/>
<feColorMatrix type="matrix" values="0 0 0 0 0.305882 0 0 0 0 0.235294 0 0 0 0 0.133333 0 0 0 1 0"/>
<feBlend mode="normal" in2="BackgroundImageFix" result="effect1_dropShadow_424_1151"/>
<feBlend mode="normal" in="SourceGraphic" in2="effect1_dropShadow_424_1151" result="shape"/>
<feColorMatrix in="SourceAlpha" type="matrix" values="0 0 0 0 0 0 0 0 0 0 0 0 0 0 0 0 0 0 127 0" result="hardAlpha"/>
<feOffset dy="4"/>
<feGaussianBlur stdDeviation="1"/>
<feComposite in2="hardAlpha" operator="arithmetic" k2="-1" k3="1"/>
<feColorMatrix type="matrix" values="0 0 0 0 1 0 0 0 0 1 0 0 0 0 1 0 0 0 0.4 0"/>
<feBlend mode="normal" in2="shape" result="effect2_innerShadow_424_1151"/>
</filter>
<linearGradient id="paint0_linear_424_1151" x1="11.5349" y1="35.3488" x2="14.1395" y2="-4.46512" gradientUnits="userSpaceOnUse">
<stop stop-color="#C1AE7C" style="stop-color:#C1AE7C;stop-color:color(display-p3 0.7569 0.6824 0.4863);stop-opacity:1;"/>
<stop offset="1" stop-color="#F8F1C4" style="stop-color:#F8F1C4;stop-color:color(display-p3 0.9725 0.9451 0.7686);stop-opacity:1;"/>
</linearGradient>
</defs>
</svg>
