<svg width="190" height="64" viewBox="0 0 190 64" fill="none" xmlns="http://www.w3.org/2000/svg">
<path d="M188.5 40.01V29.63C188.5 15.38 176.95 3.83002 162.7 3.83002H151.26C148.84 3.83002 146.42 4.06002 144.05 4.52002C139.64 5.37002 135.11 5.39002 130.7 4.58002L130.25 4.50002C127.84 4.06002 125.39 3.83002 122.93 3.83002H31C14.71 3.83002 1.5 17.04 1.5 33.33C1.5 49.62 14.71 62.83 31 62.83H47.32C48.51 62.83 49.65 62.33 50.46 61.46C51.04 60.84 51.91 60.59 52.73 60.81L58.39 62.34C59.58 62.66 60.81 62.83 62.05 62.83H104.4C106.49 62.83 108.57 62.53 110.58 61.95L113.56 61.09C116.22 60.32 119.06 60.51 121.59 61.64C123.35 62.42 125.25 62.83 127.17 62.83H151.57C152.63 62.83 153.65 62.43 154.42 61.7C155.12 61.04 156.18 60.93 157 61.42L157.98 62.01C158.86 62.54 159.87 62.82 160.9 62.82H165.69C178.29 62.82 188.51 52.6 188.51 40L188.5 40.01Z" fill="#1D2015" style="fill:#1D2015;fill:color(display-p3 0.1137 0.1255 0.0824);fill-opacity:1;"/>
<path d="M188.5 40.01V29.63C188.5 15.38 176.95 3.83002 162.7 3.83002H151.26C148.84 3.83002 146.42 4.06002 144.05 4.52002C139.64 5.37002 135.11 5.39002 130.7 4.58002L130.25 4.50002C127.84 4.06002 125.39 3.83002 122.93 3.83002H31C14.71 3.83002 1.5 17.04 1.5 33.33C1.5 49.62 14.71 62.83 31 62.83H47.32C48.51 62.83 49.65 62.33 50.46 61.46C51.04 60.84 51.91 60.59 52.73 60.81L58.39 62.34C59.58 62.66 60.81 62.83 62.05 62.83H104.4C106.49 62.83 108.57 62.53 110.58 61.95L113.56 61.09C116.22 60.32 119.06 60.51 121.59 61.64C123.35 62.42 125.25 62.83 127.17 62.83H151.57C152.63 62.83 153.65 62.43 154.42 61.7C155.12 61.04 156.18 60.93 157 61.42L157.98 62.01C158.86 62.54 159.87 62.82 160.9 62.82H165.69C178.29 62.82 188.51 52.6 188.51 40L188.5 40.01Z" stroke="#1D2015" style="stroke:#1D2015;stroke:color(display-p3 0.1137 0.1255 0.0824);stroke-opacity:1;" stroke-width="2" stroke-miterlimit="10"/>
<path d="M188.5 37.18V26.8C188.5 12.55 176.95 1 162.7 1H151.26C148.84 1 146.42 1.23 144.05 1.69C139.64 2.54 135.11 2.56 130.7 1.75L130.25 1.67C127.84 1.23 125.39 1 122.93 1H31C14.71 1 1.5 14.21 1.5 30.5C1.5 46.79 14.71 60 31 60H47.32C48.51 60 49.65 59.5 50.46 58.63C51.04 58.01 51.91 57.76 52.73 57.98L58.39 59.51C59.58 59.83 60.81 60 62.05 60H104.4C106.49 60 108.57 59.7 110.58 59.12L113.56 58.26C116.22 57.49 119.06 57.68 121.59 58.81C123.35 59.59 125.25 60 127.17 60H151.57C152.63 60 153.65 59.6 154.42 58.87C155.12 58.21 156.18 58.1 157 58.59L157.98 59.18C158.86 59.71 159.87 59.99 160.9 59.99H165.69C178.29 59.99 188.51 49.77 188.51 37.17L188.5 37.18Z" fill="url(#paint0_linear_630_199)" style=""/>
<path d="M188.5 37.18V26.8C188.5 12.55 176.95 1 162.7 1H151.26C148.84 1 146.42 1.23 144.05 1.69C139.64 2.54 135.11 2.56 130.7 1.75L130.25 1.67C127.84 1.23 125.39 1 122.93 1H31C14.71 1 1.5 14.21 1.5 30.5C1.5 46.79 14.71 60 31 60H47.32C48.51 60 49.65 59.5 50.46 58.63C51.04 58.01 51.91 57.76 52.73 57.98L58.39 59.51C59.58 59.83 60.81 60 62.05 60H104.4C106.49 60 108.57 59.7 110.58 59.12L113.56 58.26C116.22 57.49 119.06 57.68 121.59 58.81C123.35 59.59 125.25 60 127.17 60H151.57C152.63 60 153.65 59.6 154.42 58.87C155.12 58.21 156.18 58.1 157 58.59L157.98 59.18C158.86 59.71 159.87 59.99 160.9 59.99H165.69C178.29 59.99 188.51 49.77 188.51 37.17L188.5 37.18Z" stroke="#1D2015" style="stroke:#1D2015;stroke:color(display-p3 0.1137 0.1255 0.0824);stroke-opacity:1;" stroke-width="2" stroke-miterlimit="10"/>
<defs>
<linearGradient id="paint0_linear_630_199" x1="95" y1="1" x2="95" y2="60" gradientUnits="userSpaceOnUse">
<stop stop-color="#F8F1C4" style="stop-color:#F8F1C4;stop-color:color(display-p3 0.9725 0.9451 0.7686);stop-opacity:1;"/>
<stop offset="1" stop-color="#C1AE7C" style="stop-color:#C1AE7C;stop-color:color(display-p3 0.7569 0.6824 0.4863);stop-opacity:1;"/>
</linearGradient>
</defs>
</svg>
