<?xml version="1.0" encoding="UTF-8"?><svg id="Layer_2" xmlns="http://www.w3.org/2000/svg" viewBox="0 0 337.75 143"><defs><style>.cls-1{fill:#f8f1c4;stroke:#f8f1c4;stroke-width:2px;}</style></defs><g id="Layer_1-2"><path class="cls-1" d="M142.42,1h.06s33.55,2.03,33.55,2.03l52.86-2.03h.02s.02,0,.02,0h99.32c3.65,0,6.07,3.78,4.54,7.09l-.28.6c-.3.64-.36,1.37-.17,2.06l2.62,9.47c.4,1.43.14,2.96-.71,4.18l-.96,1.38c-.68.98-.71,2.27-.09,3.28l2.8,4.53c.68,1.09.9,2.41.64,3.66l-1.08,5.12c-.04.2-.07.41-.07.62v46.84c0,.77-.18,1.53-.52,2.22l-2.69,5.45c-.43.86-.41,1.88.04,2.73l2.6,4.93c.38.72.58,1.52.58,2.33v29.51c0,2.76-2.24,5-5,5H107.95c-.32,0-.63-.03-.95-.09l-35.52-6.84c-.48-.09-.97-.07-1.43.07l-22.06,6.65c-.47.14-.95.21-1.44.21H6c-2.76,0-5-2.24-5-5v-53.19c0-.53.08-1.06.25-1.56l2.36-7.17c.22-.66.2-1.37-.05-2.01l-2.24-5.84c-.22-.57-.33-1.18-.33-1.79v-15.49c0-.63.12-1.25.35-1.84l2.23-5.64c.24-.61.28-1.29.1-1.92l-2.25-7.97c-.32-1.12-.23-2.31.23-3.37l2.92-6.66c.25-.57.32-1.2.19-1.8L1.99,6.99C1.36,3.9,3.73,1,6.89,1h107.73c.59,0,1.17.1,1.73.31l8.67,3.19c.81.3,1.7.23,2.46-.18l5.05-2.72c.73-.39,1.54-.6,2.37-.6h7.51Z"/><path class="cls-1" d="M142,1h.06s33.45,2,33.45,2l52.7-2h.02s.02,0,.02,0h98.97c3.66,0,6.08,3.8,4.53,7.11l-.22.47c-.3.65-.36,1.39-.17,2.08l2.59,9.25c.4,1.44.14,2.99-.72,4.22l-.9,1.28c-.69.99-.72,2.29-.09,3.31l2.74,4.38c.69,1.1.92,2.43.65,3.7l-1.07,5c-.04.21-.07.42-.07.63v46.13c0,.78-.18,1.54-.53,2.24l-2.65,5.31c-.43.87-.42,1.9.04,2.75l2.56,4.79c.39.72.59,1.53.59,2.35v29c0,2.76-2.24,5-5,5H107.63c-.31,0-.63-.03-.94-.09l-35.42-6.75c-.47-.09-.96-.07-1.42.07l-22.01,6.56c-.46.14-.94.21-1.43.21H6c-2.76,0-5-2.24-5-5v-52.35c0-.54.09-1.07.26-1.58l2.34-7.02c.22-.66.2-1.38-.05-2.03l-2.21-5.71c-.22-.58-.34-1.19-.34-1.81v-15.23c0-.64.12-1.27.36-1.86l2.21-5.52c.25-.62.28-1.3.1-1.94l-2.23-7.79c-.32-1.13-.24-2.33.24-3.4l2.89-6.5c.25-.57.32-1.21.2-1.82L2.01,7C1.37,3.9,3.74,1,6.9,1h107.39c.58,0,1.16.1,1.71.3l8.66,3.15c.8.29,1.69.23,2.44-.17l5.04-2.69c.72-.39,1.53-.59,2.35-.59h7.5Z"/></g></svg>