<?xml version="1.0" encoding="UTF-8"?>
<svg id="_Слой_2" data-name="Слой_2" xmlns="http://www.w3.org/2000/svg" xmlns:xlink="http://www.w3.org/1999/xlink" viewBox="0 0 217.62 47">
  <defs>
    <style>
      .cls-1 {
        filter: url(#drop-shadow-1);
      }

      .cls-2 {
        fill: #f9d77d;
        stroke: #b68334;
        stroke-miterlimit: 10;
        stroke-width: 2px;
      }
    </style>
    <filter id="drop-shadow-1" filterUnits="userSpaceOnUse">
      <feOffset dx="0" dy="4"/>
      <feGaussianBlur result="blur" stdDeviation="0"/>
      <feFlood flood-color="#b68334" flood-opacity="1"/>
      <feComposite in2="blur" operator="in"/>
      <feComposite in="SourceGraphic"/>
    </filter>
  </defs>
  <g id="_Слой_1-2" data-name="Слой_1">
    <g class="cls-1">
      <path class="cls-2" d="M215.59,41.22c-12.52,1.11-52.76-2.1-56.35-2.43-10.08-.91-33.85,2.43-87.45,2.43-12.22.61-39,.73-44.5,0-5.5-.73-12.82-2.53-19.24-2.43L1.65,27.37,3.94,4.03c13.9-1.92,44.44-1.85,57.27-1.12,16.04.91,86.59-1.31,95.75-1.31,7.33,0,46.88,1.31,58.64,1.31l-4.12,22.04,4.12,16.28Z"/>
      <path class="cls-2" d="M184.63,1.65c-1.44-.04-2.88-.08-4.3-.11-10.62-.28-20.13-.54-23.38-.54-2.68,0-10.58.19-20.83.43-7.32.17-15.83.38-24.48.56-20.8.44-42.42.77-50.4.31-12.84-.73-43.43-.81-57.38,1.12l-.47.07-.05.48L1.04,27.31l-.02.19.09.17,6.41,11.43.18.32h.36c3.15-.06,6.55.36,9.86.89,1.29.21,2.58.43,3.84.65,1.93.34,3.78.66,5.45.88,2.8.37,10.92.52,19.81.51,8.91-.02,18.66-.2,24.78-.5,26.81,0,46.16-.83,60.06-1.55,2.38-.12,4.6-.24,6.66-.35,10.04-.54,16.52-.89,20.65-.52,1.8.16,12.77,1.05,24.85,1.75,12.06.7,25.3,1.23,31.61.67l.71-.06-.17-.69-4.09-16.15,4.1-21.9.13-.72h-.73c-5.87,0-18.69-.33-30.96-.65Z"/>
    </g>
  </g>
</svg>