<?xml version="1.0" encoding="UTF-8"?>
<svg id="_Слой_2" data-name="Слой_2" xmlns="http://www.w3.org/2000/svg" xmlns:xlink="http://www.w3.org/1999/xlink" viewBox="0 0 219.28 48">
  <defs>
    <style>
      .cls-1 {
        filter: url(#drop-shadow-1);
      }

      .cls-2 {
        fill: #f9d77d;
        stroke: #b68334;
        stroke-miterlimit: 10;
        stroke-width: 2px;
      }
    </style>
    <filter id="drop-shadow-1" filterUnits="userSpaceOnUse">
      <feOffset dx="0" dy="4"/>
      <feGaussianBlur result="blur" stdDeviation="0"/>
      <feFlood flood-color="#b68334" flood-opacity="1"/>
      <feComposite in2="blur" operator="in"/>
      <feComposite in="SourceGraphic"/>
    </filter>
  </defs>
  <g id="_Слой_1-2" data-name="Слой_1">
    <g class="cls-1">
      <path class="cls-2" d="M217.67,37.77c-12.53,1.11-38.25,3.76-40.82,5.46-3.21,2.12-43.57-5.46-97.22-5.46-12.23.61-38.06,1.64-43.57.91-5.5-.73-19.72-.71-26.14-.61L1.67,29.89,3.97,6.55C17.88,4.63,48.91.97,61.75,1.7c16.05.91,86.22,2.43,95.39,2.43h44.48s16.05,25.16,16.05,25.16v8.49Z"/>
      <path class="cls-2" d="M157.14,3.52c-9.16,0-79.32-1.52-95.35-2.42-6.47-.37-17.48.37-28.58,1.43-11.11,1.06-22.36,2.46-29.32,3.42l-.47.07-.05.48L1.07,29.83l-.03.29.21.2,8.26,8.18.18.18h.26c6.44-.11,20.6-.12,26.05.6,2.81.37,10.71.29,19.36.05,8.67-.24,18.19-.65,24.3-.95,26.79,0,50.27,1.89,67.46,3.52,3.29.31,6.35.61,9.15.89,4.53.45,8.41.83,11.55,1.09,2.54.21,4.61.33,6.15.33.77,0,1.42-.03,1.94-.09.5-.06.96-.17,1.29-.38.09-.06.29-.15.6-.26.31-.11.7-.22,1.18-.33.95-.23,2.2-.48,3.68-.73,2.95-.5,6.79-1.03,10.94-1.53,8.31-1.01,17.86-1.95,24.13-2.51l.55-.05v-.55s0-8.49,0-8.49v-.18s-.1-.15-.1-.15l-16.05-25.16-.18-.28h-.33s-44.48,0-44.48,0Z"/>
    </g>
  </g>
</svg>