<?xml version="1.0" encoding="UTF-8"?>
<svg id="_Слой_2" data-name="Слой_2" xmlns="http://www.w3.org/2000/svg" xmlns:xlink="http://www.w3.org/1999/xlink" viewBox="0 0 217.62 47">
  <defs>
    <style>
      .cls-1 {
        filter: url(#drop-shadow-1);
      }

      .cls-2 {
        fill: #f9d77d;
        stroke: #b68334;
        stroke-miterlimit: 10;
        stroke-width: 2px;
      }
    </style>
    <filter id="drop-shadow-1" filterUnits="userSpaceOnUse">
      <feOffset dx="0" dy="4"/>
      <feGaussianBlur result="blur" stdDeviation="0"/>
      <feFlood flood-color="#b68334" flood-opacity="1"/>
      <feComposite in2="blur" operator="in"/>
      <feComposite in="SourceGraphic"/>
    </filter>
  </defs>
  <g id="_Слой_1-2" data-name="Слой_1">
    <g class="cls-1">
      <path class="cls-2" d="M6.14,24.95L2.02,2.91c11.76,0,51.31-1.31,58.64-1.31,9.16,0,79.71,2.22,95.75,1.31,12.83-.73,43.37-.8,57.27,1.12l2.29,23.34-6.41,11.43c-6.41-.1-13.74,1.7-19.24,2.43-5.5.73-32.28.61-44.5,0-53.6,0-77.37-3.33-87.45-2.43-3.59.32-43.83,3.54-56.35,2.43l4.12-16.28Z"/>
      <path class="cls-2" d="M2.02,2.31h-.73l.13.72,4.1,21.9L1.43,41.07l-.17.69.71.06c6.31.56,19.55.03,31.61-.67,12.08-.71,23.04-1.59,24.85-1.75,4.13-.37,10.61-.02,20.65.52,2.07.11,4.28.23,6.66.35,13.91.72,33.26,1.55,60.06,1.55,6.12.3,15.88.49,24.78.5,8.89.02,17.01-.14,19.81-.51,1.67-.22,3.52-.54,5.45-.88,1.26-.22,2.54-.44,3.84-.65,3.31-.53,6.7-.94,9.86-.89h.36s.18-.31.18-.31l6.41-11.43.09-.17-.02-.19-2.29-23.34-.05-.48-.47-.07c-13.96-1.93-44.54-1.85-57.38-1.12-7.99.45-29.6.13-50.4-.31-8.66-.18-17.17-.39-24.48-.56-10.25-.24-18.15-.43-20.83-.43-3.24,0-12.76.25-23.38.54-1.42.04-2.85.08-4.3.11-12.28.33-25.1.65-30.96.65Z"/>
    </g>
  </g>
</svg>