<?xml version="1.0" encoding="UTF-8"?>
<svg id="_Слой_2" data-name="Слой_2" xmlns="http://www.w3.org/2000/svg" xmlns:xlink="http://www.w3.org/1999/xlink" viewBox="0 0 219.28 47">
  <defs>
    <style>
      .cls-1 {
        filter: url(#drop-shadow-1);
      }

      .cls-2 {
        fill: #f9d77d;
        stroke: #b68334;
        stroke-miterlimit: 10;
        stroke-width: 2px;
      }
    </style>
    <filter id="drop-shadow-1" filterUnits="userSpaceOnUse">
      <feOffset dx="0" dy="4"/>
      <feGaussianBlur result="blur" stdDeviation="0"/>
      <feFlood flood-color="#b68334" flood-opacity="1"/>
      <feComposite in2="blur" operator="in"/>
      <feComposite in="SourceGraphic"/>
    </filter>
  </defs>
  <g id="_Слой_1-2" data-name="Слой_1">
    <g class="cls-1">
      <path class="cls-2" d="M1.61,29.29L17.66,4.13h44.48c9.17,0,79.34-1.52,95.39-2.43,12.84-.73,43.87,2.93,57.78,4.85l2.29,23.34-8.26,8.18c-6.42-.1-20.64-.12-26.14.61-5.5.73-31.34-.3-43.57-.91-53.66,0-94.01,7.58-97.22,5.46-2.57-1.7-28.28-4.35-40.82-5.46v-8.49Z"/>
      <path class="cls-2" d="M17.66,3.52h-.33l-.18.28L1.1,28.96l-.1.15v9.22l.55.05c6.26.56,15.82,1.49,24.13,2.51,4.15.51,7.99,1.03,10.94,1.53,1.48.25,2.73.5,3.68.73.48.12.87.23,1.18.33.32.11.51.2.6.26.33.22.79.32,1.29.38.52.07,1.17.09,1.94.09,1.54,0,3.61-.13,6.15-.33,3.13-.25,7.02-.64,11.55-1.09,2.81-.28,5.87-.58,9.15-.89,17.19-1.63,40.66-3.52,67.46-3.52,6.12.3,15.63.71,24.3.95,8.65.24,16.55.32,19.36-.05,5.45-.72,19.62-.7,26.05-.6h.26s.18-.18.18-.18l8.26-8.18.21-.2-.03-.29-2.29-23.34-.05-.48-.47-.07c-6.96-.96-18.21-2.36-29.32-3.42-11.1-1.06-22.11-1.8-28.58-1.43-16.04.91-86.19,2.42-95.35,2.42H17.66Z"/>
    </g>
  </g>
</svg>