<svg width="26" height="28" viewBox="0 0 26 28" fill="none" xmlns="http://www.w3.org/2000/svg">
<g filter="url(#filter0_di_424_1120)">
<mask id="path-1-outside-1_424_1120" maskUnits="userSpaceOnUse" x="-0.00927734" y="0.290527" width="26" height="26" fill="black">
<rect fill="white" x="-0.00927734" y="0.290527" width="26" height="26"/>
<path fill-rule="evenodd" clip-rule="evenodd" d="M10.6593 17.1256C11.061 17.7938 11.2793 18.5636 11.2815 19.3563C11.2848 20.5068 10.8326 21.6118 10.0236 22.4299L9.28119 23.1808L8.53452 22.4341L6.94248 20.8421L3.47565 24.3089L1.99072 22.824L5.45756 19.3571L4.60909 18.5087L3.47565 19.6421L1.99072 18.1572L3.12417 17.0237L3.1195 17.0191L3.86196 16.2766C4.67849 15.4601 5.78595 15.0014 6.9407 15.0014C7.73951 15.0014 8.51567 15.2209 9.18856 15.6265L11.5152 13.2999L1.99072 3.77545L3.47565 2.29053L13.0001 11.815L22.5245 2.29053L24.0094 3.77545L14.485 13.2999L16.8376 15.6525C17.5105 15.2468 18.2868 15.0272 19.0857 15.0272C19.877 15.0272 20.6461 15.2426 21.3146 15.641L21.4088 15.5468L22.1512 16.2893L22.1644 16.3025L22.1595 16.3074L24.0092 18.1572L22.5243 19.6421L21.4038 18.5216L20.5554 19.37L24.0094 22.824L22.5245 24.3089L19.0705 20.8549L17.4853 22.4402L16.7386 23.1868L15.9962 22.436C15.1887 21.6194 14.7366 20.5169 14.7382 19.3685C14.7394 18.5771 14.9559 17.8082 15.3554 17.1401L13.0001 14.7848L10.6593 17.1256ZM6.9407 17.1014C7.44114 17.1014 7.92442 17.2678 8.31655 17.57L8.52134 17.7747C8.94249 18.1959 9.17985 18.7666 9.18153 19.3622C9.18217 19.5857 9.14959 19.8059 9.0865 20.0162L6.27284 17.2026C6.48719 17.1361 6.71216 17.1014 6.9407 17.1014ZM16.9333 20.0223L19.7333 17.2223C19.5251 17.1598 19.307 17.1272 19.0857 17.1272C18.4884 17.1272 17.9155 17.3643 17.4929 17.7864C17.0743 18.2078 16.8391 18.7775 16.8382 19.3715C16.8379 19.5939 16.8705 19.813 16.9333 20.0223Z"/>
</mask>
<path fill-rule="evenodd" clip-rule="evenodd" d="M10.6593 17.1256C11.061 17.7938 11.2793 18.5636 11.2815 19.3563C11.2848 20.5068 10.8326 21.6118 10.0236 22.4299L9.28119 23.1808L8.53452 22.4341L6.94248 20.8421L3.47565 24.3089L1.99072 22.824L5.45756 19.3571L4.60909 18.5087L3.47565 19.6421L1.99072 18.1572L3.12417 17.0237L3.1195 17.0191L3.86196 16.2766C4.67849 15.4601 5.78595 15.0014 6.9407 15.0014C7.73951 15.0014 8.51567 15.2209 9.18856 15.6265L11.5152 13.2999L1.99072 3.77545L3.47565 2.29053L13.0001 11.815L22.5245 2.29053L24.0094 3.77545L14.485 13.2999L16.8376 15.6525C17.5105 15.2468 18.2868 15.0272 19.0857 15.0272C19.877 15.0272 20.6461 15.2426 21.3146 15.641L21.4088 15.5468L22.1512 16.2893L22.1644 16.3025L22.1595 16.3074L24.0092 18.1572L22.5243 19.6421L21.4038 18.5216L20.5554 19.37L24.0094 22.824L22.5245 24.3089L19.0705 20.8549L17.4853 22.4402L16.7386 23.1868L15.9962 22.436C15.1887 21.6194 14.7366 20.5169 14.7382 19.3685C14.7394 18.5771 14.9559 17.8082 15.3554 17.1401L13.0001 14.7848L10.6593 17.1256ZM6.9407 17.1014C7.44114 17.1014 7.92442 17.2678 8.31655 17.57L8.52134 17.7747C8.94249 18.1959 9.17985 18.7666 9.18153 19.3622C9.18217 19.5857 9.14959 19.8059 9.0865 20.0162L6.27284 17.2026C6.48719 17.1361 6.71216 17.1014 6.9407 17.1014ZM16.9333 20.0223L19.7333 17.2223C19.5251 17.1598 19.307 17.1272 19.0857 17.1272C18.4884 17.1272 17.9155 17.3643 17.4929 17.7864C17.0743 18.2078 16.8391 18.7775 16.8382 19.3715C16.8379 19.5939 16.8705 19.813 16.9333 20.0223Z" fill="#E4E4E4" style="fill:#E4E4E4;fill:color(display-p3 0.8938 0.8938 0.8938);fill-opacity:1;"/>
<path d="M11.2815 19.3563L9.88153 19.3602V19.3602L11.2815 19.3563ZM10.6593 17.1256L9.66938 16.1356L8.89585 16.9091L9.45938 17.8468L10.6593 17.1256ZM10.0236 22.4299L9.0281 21.4456H9.0281L10.0236 22.4299ZM9.28119 23.1808L8.29124 24.1707L9.2868 25.1663L10.2767 24.1651L9.28119 23.1808ZM8.53452 22.4341L9.52447 21.4441L9.52447 21.4441L8.53452 22.4341ZM6.94248 20.8421L7.93243 19.8521L6.94248 18.8622L5.95254 19.8521L6.94248 20.8421ZM3.47565 24.3089L2.4857 25.2988L3.47565 26.2888L4.4656 25.2988L3.47565 24.3089ZM1.99072 22.824L1.00077 21.834L0.0108236 22.824L1.00077 23.8139L1.99072 22.824ZM5.45756 19.3571L6.44751 20.3471L7.43746 19.3571L6.44751 18.3672L5.45756 19.3571ZM4.60909 18.5087L5.59904 17.5187L4.60909 16.5288L3.61915 17.5187L4.60909 18.5087ZM3.47565 19.6421L2.4857 20.6321L3.47565 21.622L4.4656 20.6321L3.47565 19.6421ZM1.99072 18.1572L1.00077 17.1672L0.010824 18.1572L1.00077 19.1471L1.99072 18.1572ZM3.12417 17.0237L4.11412 18.0137L5.10411 17.0237L4.11408 16.0338L3.12417 17.0237ZM3.1195 17.0191L2.12955 16.0291L1.13956 17.0191L2.12959 18.0091L3.1195 17.0191ZM3.86196 16.2766L4.85191 17.2666L3.86196 16.2766ZM9.18856 15.6265L8.46581 16.8255L9.40395 17.391L10.1785 16.6164L9.18856 15.6265ZM11.5152 13.2999L12.5051 14.2898L13.4951 13.2999L12.5051 12.3099L11.5152 13.2999ZM1.99072 3.77545L1.00077 2.7855L0.0108237 3.77545L1.00077 4.7654L1.99072 3.77545ZM3.47565 2.29053L4.4656 1.30058L3.47565 0.310628L2.4857 1.30058L3.47565 2.29053ZM13.0001 11.815L12.0101 12.8049L13.0001 13.7949L13.99 12.8049L13.0001 11.815ZM22.5245 2.29053L23.5145 1.30058L22.5245 0.310628L21.5346 1.30058L22.5245 2.29053ZM24.0094 3.77545L24.9994 4.7654L25.9893 3.77545L24.9994 2.7855L24.0094 3.77545ZM14.485 13.2999L13.4951 12.3099L12.5051 13.2999L13.4951 14.2898L14.485 13.2999ZM16.8376 15.6525L15.8477 16.6424L16.6223 17.417L17.5604 16.8515L16.8376 15.6525ZM21.3146 15.641L20.5979 16.8437L21.534 17.4015L22.3045 16.6309L21.3146 15.641ZM21.4088 15.5468L22.3987 14.5569L21.4088 13.5669L20.4188 14.5569L21.4088 15.5468ZM22.1644 16.3025L23.1543 17.2925L24.1444 16.3026L23.1544 15.3125L22.1644 16.3025ZM22.1595 16.3074L21.1696 15.3174L20.1795 16.3074L21.1695 17.2974L22.1595 16.3074ZM24.0092 18.1572L24.9992 19.1471L25.9891 18.1572L24.9992 17.1672L24.0092 18.1572ZM22.5243 19.6421L21.5343 20.6321L22.5243 21.622L23.5142 20.6321L22.5243 19.6421ZM21.4038 18.5216L22.3937 17.5317L21.4038 16.5417L20.4138 17.5317L21.4038 18.5216ZM20.5554 19.37L19.5655 18.38L18.5756 19.37L19.5655 20.3599L20.5554 19.37ZM24.0094 22.824L24.9994 23.8139L25.9893 22.824L24.9994 21.834L24.0094 22.824ZM22.5245 24.3089L21.5346 25.2988L22.5245 26.2888L23.5145 25.2988L22.5245 24.3089ZM19.0705 20.8549L20.0605 19.865L19.0705 18.875L18.0806 19.865L19.0705 20.8549ZM16.7386 23.1868L15.7431 24.1712L16.733 25.1723L17.7285 24.1768L16.7386 23.1868ZM15.9962 22.436L16.9917 21.4516L15.9962 22.436ZM14.7382 19.3685L13.3382 19.3665L14.7382 19.3685ZM15.3554 17.1401L16.5569 17.8586L17.117 16.9219L16.3453 16.1501L15.3554 17.1401ZM13.0001 14.7848L13.99 13.7949L13.0001 12.8049L12.0101 13.7949L13.0001 14.7848ZM8.31655 17.57L9.30649 16.58L9.24265 16.5162L9.17114 16.4611L8.31655 17.57ZM8.52134 17.7747L9.51127 16.7848L9.51127 16.7848L8.52134 17.7747ZM9.18153 19.3622L7.78154 19.3662V19.3662L9.18153 19.3622ZM9.0865 20.0162L8.09655 21.0062L9.75393 22.6636L10.4275 20.4185L9.0865 20.0162ZM6.27284 17.2026L5.85798 15.8654L3.64304 16.5527L5.28289 18.1925L6.27284 17.2026ZM19.7333 17.2223L20.7233 18.2122L22.3806 16.5548L20.1356 15.8813L19.7333 17.2223ZM16.9333 20.0223L15.5923 20.4246L16.2659 22.6696L17.9232 21.0123L16.9333 20.0223ZM17.4929 17.7864L16.5035 16.7958L16.4995 16.7999L17.4929 17.7864ZM16.8382 19.3715L18.2382 19.3735V19.3734L16.8382 19.3715ZM12.6815 19.3523C12.6786 18.3047 12.39 17.2874 11.8593 16.4044L9.45938 17.8468C9.73193 18.3002 9.88001 18.8225 9.88153 19.3602L12.6815 19.3523ZM11.0192 23.4142C12.0882 22.3331 12.6858 20.8727 12.6815 19.3523L9.88153 19.3602C9.88374 20.1408 9.57692 20.8905 9.0281 21.4456L11.0192 23.4142ZM10.2767 24.1651L11.0192 23.4142L9.0281 21.4456L8.28567 22.1964L10.2767 24.1651ZM7.54457 23.424L8.29124 24.1707L10.2711 22.1908L9.52447 21.4441L7.54457 23.424ZM5.95254 21.832L7.54457 23.424L9.52447 21.4441L7.93243 19.8521L5.95254 21.832ZM4.4656 25.2988L7.93243 21.832L5.95254 19.8521L2.4857 23.3189L4.4656 25.2988ZM1.00077 23.8139L2.4857 25.2988L4.4656 23.3189L2.98067 21.834L1.00077 23.8139ZM4.46761 18.3672L1.00077 21.834L2.98067 23.8139L6.44751 20.3471L4.46761 18.3672ZM3.61915 19.4986L4.46761 20.3471L6.44751 18.3672L5.59904 17.5187L3.61915 19.4986ZM4.4656 20.6321L5.59904 19.4986L3.61915 17.5187L2.4857 18.6522L4.4656 20.6321ZM1.00077 19.1471L2.4857 20.6321L4.4656 18.6522L2.98067 17.1672L1.00077 19.1471ZM2.13422 16.0338L1.00077 17.1672L2.98067 19.1471L4.11412 18.0137L2.13422 16.0338ZM2.12959 18.0091L2.13426 18.0137L4.11408 16.0338L4.10941 16.0291L2.12959 18.0091ZM2.87201 15.2867L2.12955 16.0291L4.10945 18.009L4.85191 17.2666L2.87201 15.2867ZM6.9407 13.6014C5.41465 13.6014 3.9511 14.2076 2.87201 15.2867L4.85191 17.2666C5.40589 16.7126 6.15726 16.4014 6.9407 16.4014V13.6014ZM9.91132 14.4275C9.02216 13.8915 7.99641 13.6014 6.9407 13.6014V16.4014C7.4826 16.4014 8.00919 16.5502 8.46581 16.8255L9.91132 14.4275ZM10.5252 12.3099L8.19862 14.6365L10.1785 16.6164L12.5051 14.2898L10.5252 12.3099ZM1.00077 4.7654L10.5252 14.2898L12.5051 12.3099L2.98067 2.7855L1.00077 4.7654ZM2.4857 1.30058L1.00077 2.7855L2.98067 4.7654L4.4656 3.28048L2.4857 1.30058ZM13.99 10.825L4.4656 1.30058L2.4857 3.28048L12.0101 12.8049L13.99 10.825ZM21.5346 1.30058L12.0101 10.825L13.99 12.8049L23.5145 3.28048L21.5346 1.30058ZM24.9994 2.7855L23.5145 1.30058L21.5346 3.28048L23.0195 4.7654L24.9994 2.7855ZM15.475 14.2898L24.9994 4.7654L23.0195 2.7855L13.4951 12.3099L15.475 14.2898ZM17.8275 14.6625L15.475 12.3099L13.4951 14.2898L15.8477 16.6424L17.8275 14.6625ZM19.0857 13.6272C18.0299 13.6272 17.004 13.9174 16.1148 14.4535L17.5604 16.8515C18.0171 16.5761 18.5437 16.4272 19.0857 16.4272V13.6272ZM22.0312 14.4383C21.1479 13.912 20.1315 13.6272 19.0857 13.6272V16.4272C19.6225 16.4272 20.1443 16.5733 20.5979 16.8437L22.0312 14.4383ZM20.4188 14.5569L20.3246 14.651L22.3045 16.6309L22.3987 16.5368L20.4188 14.5569ZM23.1412 15.2993L22.3987 14.5569L20.4188 16.5368L21.1613 17.2792L23.1412 15.2993ZM23.1544 15.3125L23.1412 15.2993L21.1613 17.2792L21.1745 17.2924L23.1544 15.3125ZM23.1493 17.2975L23.1543 17.2925L21.1746 15.3124L21.1696 15.3174L23.1493 17.2975ZM21.1695 17.2974L23.0193 19.1471L24.9992 17.1672L23.1494 15.3175L21.1695 17.2974ZM23.0193 17.1672L21.5343 18.6522L23.5142 20.6321L24.9992 19.1471L23.0193 17.1672ZM23.5142 18.6522L22.3937 17.5317L20.4139 19.5116L21.5343 20.6321L23.5142 18.6522ZM21.5454 20.3599L22.3937 19.5116L20.4138 17.5317L19.5655 18.38L21.5454 20.3599ZM24.9994 21.834L21.5454 18.38L19.5655 20.3599L23.0195 23.8139L24.9994 21.834ZM23.5145 25.2988L24.9994 23.8139L23.0195 21.834L21.5346 23.3189L23.5145 25.2988ZM18.0806 21.8449L21.5346 25.2988L23.5145 23.3189L20.0605 19.865L18.0806 21.8449ZM18.4752 23.4301L20.0605 21.8449L18.0806 19.865L16.4953 21.4502L18.4752 23.4301ZM17.7285 24.1768L18.4752 23.4301L16.4953 21.4502L15.7486 22.1969L17.7285 24.1768ZM15.0006 23.4203L15.7431 24.1712L17.7341 22.2025L16.9917 21.4516L15.0006 23.4203ZM13.3382 19.3665C13.3361 20.8841 13.9336 22.3412 15.0006 23.4203L16.9917 21.4516C16.4439 20.8976 16.1371 20.1496 16.1382 19.3705L13.3382 19.3665ZM14.1538 16.4216C13.6259 17.3045 13.3397 18.3207 13.3382 19.3665L16.1382 19.3705C16.139 18.8336 16.2859 18.3119 16.5569 17.8586L14.1538 16.4216ZM12.0101 15.7748L14.3654 18.13L16.3453 16.1501L13.99 13.7949L12.0101 15.7748ZM11.6493 18.1155L13.99 15.7748L12.0101 13.7949L9.66938 16.1356L11.6493 18.1155ZM9.17114 16.4611C8.53545 15.9712 7.75203 15.7014 6.9407 15.7014V18.5014C7.13026 18.5014 7.3134 18.5644 7.46197 18.6789L9.17114 16.4611ZM9.51127 16.7848L9.30649 16.58L7.32662 18.5599L7.5314 18.7647L9.51127 16.7848ZM10.5815 19.3582C10.5788 18.3927 10.194 17.4675 9.51127 16.7848L7.5314 18.7647C7.69097 18.9243 7.7809 19.1405 7.78154 19.3662L10.5815 19.3582ZM10.4275 20.4185C10.5297 20.0776 10.5826 19.7205 10.5815 19.3582L7.78154 19.3662C7.78178 19.4509 7.76944 19.5343 7.74555 19.6139L10.4275 20.4185ZM5.28289 18.1925L8.09655 21.0062L10.0765 19.0263L7.26279 16.2126L5.28289 18.1925ZM6.9407 15.7014C6.57026 15.7014 6.20548 15.7576 5.85798 15.8654L6.6877 18.5397C6.76889 18.5145 6.85405 18.5014 6.9407 18.5014V15.7014ZM18.7434 16.2323L15.9433 19.0324L17.9232 21.0123L20.7233 18.2122L18.7434 16.2323ZM19.0857 18.5272C19.1696 18.5272 19.2521 18.5396 19.331 18.5632L20.1356 15.8813C19.798 15.78 19.4445 15.7272 19.0857 15.7272V18.5272ZM18.4822 18.777C18.6423 18.6171 18.8594 18.5272 19.0857 18.5272V15.7272C18.1173 15.7272 17.1887 16.1116 16.5036 16.7958L18.4822 18.777ZM18.2382 19.3734C18.2385 19.1484 18.3277 18.9326 18.4863 18.7729L16.4995 16.7999C15.821 17.4831 15.4396 18.4065 15.4382 19.3695L18.2382 19.3734ZM18.2742 19.62C18.2504 19.5407 18.2381 19.4578 18.2382 19.3735L15.4382 19.3695C15.4377 19.73 15.4905 20.0853 15.5923 20.4246L18.2742 19.62Z" fill="#4E3C22" style="fill:#4E3C22;fill:color(display-p3 0.3059 0.2353 0.1333);fill-opacity:1;" mask="url(#path-1-outside-1_424_1120)"/>
</g>
<defs>
<filter id="filter0_di_424_1120" x="0.0108032" y="0.310547" width="25.9785" height="28.778" filterUnits="userSpaceOnUse" color-interpolation-filters="sRGB">
<feFlood flood-opacity="0" result="BackgroundImageFix"/>
<feColorMatrix in="SourceAlpha" type="matrix" values="0 0 0 0 0 0 0 0 0 0 0 0 0 0 0 0 0 0 127 0" result="hardAlpha"/>
<feOffset dy="1.4"/>
<feComposite in2="hardAlpha" operator="out"/>
<feColorMatrix type="matrix" values="0 0 0 0 0.305882 0 0 0 0 0.235294 0 0 0 0 0.133333 0 0 0 1 0"/>
<feBlend mode="normal" in2="BackgroundImageFix" result="effect1_dropShadow_424_1120"/>
<feBlend mode="normal" in="SourceGraphic" in2="effect1_dropShadow_424_1120" result="shape"/>
<feColorMatrix in="SourceAlpha" type="matrix" values="0 0 0 0 0 0 0 0 0 0 0 0 0 0 0 0 0 0 127 0" result="hardAlpha"/>
<feOffset dy="2.8"/>
<feGaussianBlur stdDeviation="2.8"/>
<feComposite in2="hardAlpha" operator="arithmetic" k2="-1" k3="1"/>
<feColorMatrix type="matrix" values="0 0 0 0 1 0 0 0 0 1 0 0 0 0 1 0 0 0 1 0"/>
<feBlend mode="normal" in2="shape" result="effect2_innerShadow_424_1120"/>
</filter>
</defs>
</svg>
