<svg width="22" height="19" viewBox="0 0 22 19" fill="none" xmlns="http://www.w3.org/2000/svg">
<g filter="url(#filter0_di_424_1103)">
<path d="M15.5713 0.768075C14.6635 0.771731 13.7708 1.00036 12.9731 1.43352C12.1753 1.86667 11.4974 2.49084 11 3.25016C10.3484 2.2711 9.39966 1.52711 8.29348 1.12772C7.1873 0.728321 5.98212 0.694622 4.85535 1.03158C3.72858 1.36854 2.73976 2.05835 2.03445 2.99946C1.32915 3.94058 0.944631 5.08327 0.9375 6.25933C0.9375 14.4914 11 17.2322 11 17.2322C11 17.2322 21.0625 14.4914 21.0625 6.25933C21.0638 5.53785 20.9226 4.82322 20.6471 4.15642C20.3716 3.48962 19.9671 2.88377 19.457 2.37361C18.9468 1.86345 18.341 1.45901 17.6742 1.1835C17.0074 0.907986 16.2927 0.766812 15.5713 0.768075Z" fill="#E63434" style="fill:#E63434;fill:color(display-p3 0.9020 0.2039 0.2039);fill-opacity:1;"/>
<path d="M10.4017 3.64839L11.0047 4.55454L11.6012 3.64402C12.0336 2.98409 12.6227 2.44162 13.3161 2.06516C14.0091 1.68883 14.7847 1.49013 15.5733 1.48682C16.1999 1.48583 16.8206 1.60849 17.3997 1.84778C17.9791 2.08717 18.5055 2.43857 18.9487 2.88184C19.392 3.32511 19.7434 3.85153 19.9828 4.43089C20.2222 5.01026 20.3448 5.63119 20.3438 6.25807V6.25933C20.3438 10.0381 18.0455 12.5905 15.6265 14.2389C14.4216 15.0599 13.2117 15.6375 12.3003 16.01C11.8457 16.1958 11.4683 16.3295 11.2066 16.416C11.1264 16.4426 11.0572 16.4646 11 16.4824C10.9428 16.4646 10.8736 16.4426 10.7934 16.416C10.5317 16.3295 10.1543 16.1958 9.69967 16.01C8.78833 15.6375 7.57837 15.0599 6.37349 14.2389C3.95496 12.5908 1.65715 10.0391 1.65625 6.26154C1.6629 5.24018 1.99705 4.24787 2.60961 3.43051C3.2226 2.61257 4.08199 2.01305 5.06128 1.7202C6.04056 1.42734 7.088 1.45663 8.04939 1.80375C9.01079 2.15087 9.83533 2.79748 10.4017 3.64839Z" stroke="#4E3C22" style="stroke:#4E3C22;stroke:color(display-p3 0.3059 0.2353 0.1333);stroke-opacity:1;" stroke-width="1.4375"/>
</g>
<defs>
<filter id="filter0_di_424_1103" x="0.9375" y="0.768066" width="20.125" height="19.3394" filterUnits="userSpaceOnUse" color-interpolation-filters="sRGB">
<feFlood flood-opacity="0" result="BackgroundImageFix"/>
<feColorMatrix in="SourceAlpha" type="matrix" values="0 0 0 0 0 0 0 0 0 0 0 0 0 0 0 0 0 0 127 0" result="hardAlpha"/>
<feOffset dy="1.4375"/>
<feComposite in2="hardAlpha" operator="out"/>
<feColorMatrix type="matrix" values="0 0 0 0 0.305882 0 0 0 0 0.235294 0 0 0 0 0.133333 0 0 0 1 0"/>
<feBlend mode="normal" in2="BackgroundImageFix" result="effect1_dropShadow_424_1103"/>
<feBlend mode="normal" in="SourceGraphic" in2="effect1_dropShadow_424_1103" result="shape"/>
<feColorMatrix in="SourceAlpha" type="matrix" values="0 0 0 0 0 0 0 0 0 0 0 0 0 0 0 0 0 0 127 0" result="hardAlpha"/>
<feOffset dy="2.875"/>
<feGaussianBlur stdDeviation="2.875"/>
<feComposite in2="hardAlpha" operator="arithmetic" k2="-1" k3="1"/>
<feColorMatrix type="matrix" values="0 0 0 0 1 0 0 0 0 0.610807 0 0 0 0 0.610807 0 0 0 1 0"/>
<feBlend mode="normal" in2="shape" result="effect2_innerShadow_424_1103"/>
</filter>
</defs>
</svg>
