<svg id="Layer_5" data-name="Layer 5" xmlns="http://www.w3.org/2000/svg" xmlns:xlink="http://www.w3.org/1999/xlink" viewBox="0 0 93.42 81.46"><defs><style>.cls-1{fill:none;}.cls-2{fill:url(#radial-gradient);}.cls-3{fill:url(#radial-gradient-2);}.cls-4{fill:url(#radial-gradient-3);}.cls-5{fill:url(#radial-gradient-4);}.cls-6{fill:url(#radial-gradient-5);}.cls-7{fill:url(#radial-gradient-6);}.cls-8{fill:#f2ecc4;}.cls-9{fill:#d8cba3;}.cls-10{fill:#997855;}.cls-11{clip-path:url(#clip-path);}.cls-12{clip-path:url(#clip-path-2);}.cls-13{fill:#b79b6a;}.cls-14{clip-path:url(#clip-path-3);}.cls-15{fill:#cc9e5a;}.cls-16{fill:#82482f;}.cls-17{fill:#bc4842;}.cls-18{fill:#d3b37a;}.cls-19{fill:#f2e2c9;}.cls-20{fill:#301b16;}.cls-21{fill:#3f1919;}.cls-22{fill:#ce9d5b;}.cls-23{fill:#efdab9;}.cls-24{clip-path:url(#clip-path-4);}.cls-25{fill:#563329;}.cls-26{clip-path:url(#clip-path-5);}.cls-27{fill:#bca98f;}.cls-28{clip-path:url(#clip-path-6);}.cls-29{fill:#892927;}.cls-30{clip-path:url(#clip-path-7);}.cls-31{fill:#ad815c;}</style><radialGradient id="radial-gradient" cx="69.6" cy="42.63" r="27.86" gradientTransform="matrix(0, 1, -0.9, 0, 107.97, -27.42)" gradientUnits="userSpaceOnUse"><stop offset="0" stop-color="#fff"/><stop offset="0.16" stop-color="#fff" stop-opacity="0.99"/><stop offset="0.29" stop-color="#fff" stop-opacity="0.95"/><stop offset="0.41" stop-color="#fff" stop-opacity="0.88"/><stop offset="0.53" stop-color="#fff" stop-opacity="0.79"/><stop offset="0.63" stop-color="#fff" stop-opacity="0.67"/><stop offset="0.74" stop-color="#fff" stop-opacity="0.52"/><stop offset="0.84" stop-color="#fff" stop-opacity="0.34"/><stop offset="0.94" stop-color="#fff" stop-opacity="0.15"/><stop offset="1" stop-color="#fff" stop-opacity="0"/></radialGradient><radialGradient id="radial-gradient-2" cx="36.57" cy="44.13" r="29.51" gradientTransform="translate(-4.47 -4.81) scale(1 0.89)" xlink:href="#radial-gradient"/><radialGradient id="radial-gradient-3" cx="12.36" cy="74.75" r="27.86" gradientTransform="translate(30.99 12.89) scale(0.55 0.76)" gradientUnits="userSpaceOnUse"><stop offset="0" stop-color="#fff"/><stop offset="0.04" stop-color="#fff" stop-opacity="0.93"/><stop offset="0.2" stop-color="#fff" stop-opacity="0.69"/><stop offset="0.35" stop-color="#fff" stop-opacity="0.48"/><stop offset="0.5" stop-color="#fff" stop-opacity="0.31"/><stop offset="0.64" stop-color="#fff" stop-opacity="0.17"/><stop offset="0.77" stop-color="#fff" stop-opacity="0.08"/><stop offset="0.9" stop-color="#fff" stop-opacity="0.02"/><stop offset="1" stop-color="#fff" stop-opacity="0"/></radialGradient><radialGradient id="radial-gradient-4" cx="47.87" cy="21.72" r="9.78" gradientTransform="matrix(0, 1, -0.9, 0, 69.6, -29.03)" gradientUnits="userSpaceOnUse"><stop offset="0" stop-color="#fff"/><stop offset="0.05" stop-color="#fff" stop-opacity="0.91"/><stop offset="0.2" stop-color="#fff" stop-opacity="0.67"/><stop offset="0.35" stop-color="#fff" stop-opacity="0.46"/><stop offset="0.5" stop-color="#fff" stop-opacity="0.3"/><stop offset="0.64" stop-color="#fff" stop-opacity="0.17"/><stop offset="0.77" stop-color="#fff" stop-opacity="0.08"/><stop offset="0.89" stop-color="#fff" stop-opacity="0.02"/><stop offset="1" stop-color="#fff" stop-opacity="0"/></radialGradient><radialGradient id="radial-gradient-5" cx="21.3" cy="26.9" r="11.66" gradientTransform="translate(1.43 -3.22) scale(1 0.9)" xlink:href="#radial-gradient-4"/><radialGradient id="radial-gradient-6" cx="58.81" cy="77.07" r="27.86" gradientTransform="matrix(0, 0.62, -0.76, 0, 120.47, 33.53)" xlink:href="#radial-gradient-3"/><clipPath id="clip-path" transform="translate(-4.47 -9.84)"><path class="cls-1" d="M18.44,19.78a2.52,2.52,0,0,1,3-3.91A4.77,4.77,0,0,1,22.74,17a2.4,2.4,0,0,1,2.57-1.48A2.79,2.79,0,0,1,27.57,17,2.24,2.24,0,0,1,27,19.65a1.57,1.57,0,0,1,2,.65,2.77,2.77,0,0,1-.36,2.57A3.6,3.6,0,0,1,26.49,24a3.06,3.06,0,0,1-2.06-.38,2.53,2.53,0,0,1-1.69,3c-2.82.54-3.17-1.73-3.23-2.53a2.73,2.73,0,0,1-2.3-.21,2.09,2.09,0,0,1-1-2,1.71,1.71,0,0,1,1.66-1.43"/></clipPath><clipPath id="clip-path-2" transform="translate(-4.47 -9.84)"><path class="cls-1" d="M87,44.68a.39.39,0,0,1-.25-.39.38.38,0,0,1,.31-.33c.16,0,3.88-.72,3.52-3.68-.3-2.39-3.15-2.71-3.18-2.72a.35.35,0,0,1-.31-.26.36.36,0,0,1,.1-.39,5.3,5.3,0,0,0,1.69-3.26,3.2,3.2,0,0,0-1.08-2.38c-2-2-5-.45-5.1-.38a.39.39,0,0,1-.38,0,.4.4,0,0,1-.18-.33s0-2-1.24-2.35a2.57,2.57,0,0,0-2.3.43.39.39,0,0,1-.46,0,.37.37,0,0,1-.14-.44c.07-.22,1.87-5.23-2.7-7a5,5,0,0,0-6.53,2.34.38.38,0,0,1-.31.21.35.35,0,0,1-.34-.17s-.76-1.11-1.76-.91a1.61,1.61,0,0,0-1.22,1.43.38.38,0,0,1-.68.19,4.37,4.37,0,0,0-4.91-1.58c-3.24,1.09-2.25,5-2.21,5.18a.38.38,0,0,1-.15.41.38.38,0,0,1-.43,0,4.05,4.05,0,0,0-3.34-.66,3.06,3.06,0,0,0-1.88,1.49c.11,0,.21-.05.33-.06a5.36,5.36,0,0,1,3.83,1.26,5,5,0,0,1,1.79,3.6,9.23,9.23,0,0,1-.46,3.58,3.26,3.26,0,0,1,1,.63,2.66,2.66,0,0,1,.75,1.42,2.89,2.89,0,0,1-.11,1.59,2.69,2.69,0,0,1-.5.81,2.84,2.84,0,0,1,1.12,1,3.36,3.36,0,0,1,.5,2.08,3.24,3.24,0,0,1-1,1.89,5.68,5.68,0,0,1-1.39,1,3.13,3.13,0,0,1,0,1.14,2.88,2.88,0,0,1-.59,1.32,2.6,2.6,0,0,1-1.15.83,3.07,3.07,0,0,1-1.34.21.14.14,0,0,1-.12-.15.14.14,0,0,1,.09-.12h0a4,4,0,0,0,1.92-1.22,2.22,2.22,0,0,0,.35-2,.4.4,0,0,1,.2-.49,3.64,3.64,0,0,0,2.2-2.46,2.59,2.59,0,0,0-.38-1.58,2.18,2.18,0,0,0-1.28-.92A.39.39,0,0,1,57.1,42a.37.37,0,0,1,.18-.24,1.82,1.82,0,0,0,.69-.87A2.1,2.1,0,0,0,58,39.68a1.78,1.78,0,0,0-.53-1,2.57,2.57,0,0,0-1-.6.4.4,0,0,1-.27-.5v0A8.73,8.73,0,0,0,56.73,34a4.29,4.29,0,0,0-1.51-3.06A4.64,4.64,0,0,0,52,29.83a4.79,4.79,0,0,0-3,1.62.41.41,0,0,1-.57,0,.42.42,0,0,1-.1-.47,2.18,2.18,0,0,0,0-1.61,2.63,2.63,0,0,0-1.16-1.22A2,2,0,0,0,45.55,28a3,3,0,0,0-1.38,1,.42.42,0,0,1-.59.07.44.44,0,0,1-.15-.31A6,6,0,0,0,42,24.93a4.9,4.9,0,0,0-3.74-1.4,5.21,5.21,0,0,0-3.78,1.37A5.54,5.54,0,0,0,33,28.65a.45.45,0,0,1-.45.43.43.43,0,0,1-.33-.17,2.17,2.17,0,0,0-1-.69,2,2,0,0,0-1.23.09,1.28,1.28,0,0,0-.71.89,3.17,3.17,0,0,0-.05,1.34.44.44,0,0,1-.36.49.42.42,0,0,1-.34-.09,6.11,6.11,0,0,0-2.8-1.3,2.91,2.91,0,0,0-2.67,1,3.66,3.66,0,0,0-1,2.77,6.06,6.06,0,0,0,1,2.92.39.39,0,0,1-.11.54.37.37,0,0,1-.45,0,1.5,1.5,0,0,0-.84-.27,1.37,1.37,0,0,0-.85.29,1.33,1.33,0,0,0-.53.73,1.62,1.62,0,0,0,0,.9v0a.37.37,0,0,1-.24.47.36.36,0,0,1-.47-.23,2.25,2.25,0,0,1-.06-1.38h0A7,7,0,0,0,15,37a3.84,3.84,0,0,0-2.2,2.09C11,42.85,15.41,45.6,15.6,45.71a.37.37,0,0,1,.17.34.35.35,0,0,1-.21.32c-.13.06-3.21,1.61-2.45,4.29C14,53.81,17.75,53,17.91,53a.37.37,0,0,1,.3.07.36.36,0,0,1,.15.27,4.23,4.23,0,0,0,1.54,2.85,4.33,4.33,0,0,0,3.05.49.38.38,0,0,1,.45.23c0,.12,1,2.75,5.17,3.1s5.85-1.55,5.87-1.57a.38.38,0,0,1,.5-.07,8.5,8.5,0,0,0,5,1.16A11.87,11.87,0,0,0,45.07,58a.37.37,0,0,1,.47.06s2.1,2.16,4.12,2.32a5.86,5.86,0,0,0,4.46-1.45.37.37,0,0,1,.37-.1.38.38,0,0,1,.27.28s.45,1.61,3.84,2.21,5-.82,5-.84a.39.39,0,0,1,.4-.08.39.39,0,0,1,.24.31,2.07,2.07,0,0,0,1.54,1.73,3.06,3.06,0,0,0,2.63-.74.38.38,0,0,1,.37-.08.39.39,0,0,1,.25.28c0,.1.61,2.52,3.87,2.29a4,4,0,0,0,3.83-3.22.37.37,0,0,1,.25-.3.38.38,0,0,1,.39.1,1.65,1.65,0,0,0,2,.14A1.72,1.72,0,0,0,80.09,59a.39.39,0,0,1,.09-.36.38.38,0,0,1,.36-.11A2.43,2.43,0,0,0,83,57.82c.92-1.23-.26-2.58-.31-2.63a.37.37,0,0,1-.07-.4.38.38,0,0,1,.34-.23,7.15,7.15,0,0,0,6.57-4.68A4,4,0,0,0,87,44.68Z"/></clipPath><clipPath id="clip-path-3" transform="translate(-4.47 -9.84)"><path class="cls-1" d="M87,44.68a.39.39,0,0,1-.25-.39.37.37,0,0,1,.31-.33c.16,0,3.88-.72,3.52-3.68-.3-2.39-3.15-2.71-3.18-2.72a.35.35,0,0,1-.31-.26.36.36,0,0,1,.1-.39,5.3,5.3,0,0,0,1.69-3.26,3.2,3.2,0,0,0-1.08-2.38c-2-2-5-.45-5.1-.38a.39.39,0,0,1-.38,0,.4.4,0,0,1-.18-.33s0-2-1.24-2.35a2.57,2.57,0,0,0-2.3.43.39.39,0,0,1-.46,0,.37.37,0,0,1-.14-.44c.07-.22,1.87-5.23-2.7-7a5,5,0,0,0-6.53,2.34.38.38,0,0,1-.31.21.35.35,0,0,1-.34-.17s-.76-1.11-1.76-.91a1.61,1.61,0,0,0-1.22,1.43.38.38,0,0,1-.68.19,4.37,4.37,0,0,0-4.91-1.58c-3.24,1.09-2.25,5-2.21,5.18a.38.38,0,0,1-.15.41.38.38,0,0,1-.43,0,4.05,4.05,0,0,0-3.34-.66,3.06,3.06,0,0,0-1.88,1.49c.11,0,.21-.05.33-.06a5.36,5.36,0,0,1,3.83,1.26,5,5,0,0,1,1.79,3.6,9.23,9.23,0,0,1-.46,3.58,3.26,3.26,0,0,1,1,.63,2.66,2.66,0,0,1,.75,1.42,2.89,2.89,0,0,1-.11,1.59,2.69,2.69,0,0,1-.5.81,2.84,2.84,0,0,1,1.12,1,3.36,3.36,0,0,1,.5,2.08,3.24,3.24,0,0,1-1,1.89,5.68,5.68,0,0,1-1.39,1,3.13,3.13,0,0,1,0,1.14,2.88,2.88,0,0,1-.59,1.32,2.6,2.6,0,0,1-1.15.83,3.07,3.07,0,0,1-1.34.21.14.14,0,0,1-.12-.15.14.14,0,0,1,.09-.12h0a4,4,0,0,0,1.92-1.22,2.22,2.22,0,0,0,.35-2,.4.4,0,0,1,.2-.49,3.64,3.64,0,0,0,2.2-2.46,2.59,2.59,0,0,0-.38-1.58,2.18,2.18,0,0,0-1.28-.92A.39.39,0,0,1,57.1,42a.37.37,0,0,1,.18-.24,1.82,1.82,0,0,0,.69-.87A2.1,2.1,0,0,0,58,39.68a1.73,1.73,0,0,0-.54-1,2.47,2.47,0,0,0-1-.6.4.4,0,0,1-.27-.5v0A8.73,8.73,0,0,0,56.73,34a4.29,4.29,0,0,0-1.51-3.06A4.64,4.64,0,0,0,52,29.83a4.79,4.79,0,0,0-3,1.62.41.41,0,0,1-.57,0,.42.42,0,0,1-.1-.47,2.18,2.18,0,0,0,0-1.61,2.63,2.63,0,0,0-1.16-1.22A2,2,0,0,0,45.55,28a3,3,0,0,0-1.38,1,.42.42,0,0,1-.59.07.44.44,0,0,1-.15-.31A6,6,0,0,0,42,24.93a4.9,4.9,0,0,0-3.74-1.4,5.21,5.21,0,0,0-3.78,1.37A5.54,5.54,0,0,0,33,28.65a.45.45,0,0,1-.45.43.43.43,0,0,1-.33-.17,2.17,2.17,0,0,0-1-.69,2,2,0,0,0-1.23.09,1.28,1.28,0,0,0-.71.89,3.17,3.17,0,0,0-.05,1.34.44.44,0,0,1-.36.49.42.42,0,0,1-.34-.09,6.11,6.11,0,0,0-2.8-1.3,2.91,2.91,0,0,0-2.67,1,3.66,3.66,0,0,0-1,2.77,6.06,6.06,0,0,0,1,2.92.39.39,0,0,1-.11.54.37.37,0,0,1-.45,0,1.5,1.5,0,0,0-.84-.27,1.37,1.37,0,0,0-.85.29,1.33,1.33,0,0,0-.53.73,1.62,1.62,0,0,0,0,.9v0a.37.37,0,0,1-.24.47.36.36,0,0,1-.47-.23,2.25,2.25,0,0,1-.06-1.38h0A7,7,0,0,0,15,37a3.82,3.82,0,0,0-2.2,2.09C11,42.85,15.41,45.6,15.6,45.71a.37.37,0,0,1,.17.34.35.35,0,0,1-.21.32c-.13.06-3.21,1.61-2.45,4.29C14,53.81,17.75,53,17.91,53a.37.37,0,0,1,.3.07.36.36,0,0,1,.15.27,4.23,4.23,0,0,0,1.54,2.85,4.33,4.33,0,0,0,3.05.49.36.36,0,0,1,.44.23c.05.12,1.05,2.75,5.18,3.1s5.85-1.55,5.87-1.57a.38.38,0,0,1,.5-.07,8.5,8.5,0,0,0,5,1.16A11.87,11.87,0,0,0,45.07,58a.37.37,0,0,1,.47.06s2.1,2.16,4.12,2.32a5.86,5.86,0,0,0,4.46-1.45.37.37,0,0,1,.37-.1.38.38,0,0,1,.27.28s.45,1.61,3.84,2.21,5-.82,5-.84a.38.38,0,0,1,.64.23,2.07,2.07,0,0,0,1.54,1.73,3.06,3.06,0,0,0,2.63-.74.38.38,0,0,1,.37-.08.39.39,0,0,1,.25.28c0,.1.61,2.52,3.87,2.29a4,4,0,0,0,3.83-3.22.37.37,0,0,1,.25-.3.38.38,0,0,1,.39.1,1.64,1.64,0,0,0,2,.14A1.71,1.71,0,0,0,80.09,59a.39.39,0,0,1,.09-.36.38.38,0,0,1,.36-.11A2.43,2.43,0,0,0,83,57.82c.92-1.23-.26-2.58-.31-2.63a.37.37,0,0,1-.07-.4.38.38,0,0,1,.34-.23,7.15,7.15,0,0,0,6.57-4.68A4,4,0,0,0,87,44.68Z"/></clipPath><clipPath id="clip-path-4" transform="translate(-4.47 -9.84)"><path class="cls-1" d="M72.73,57.15c-.44-.26-.85-.49-1.22-.76s-.74-.58-1.21-1c-1.8-1.53-4.69-4-8-4a6.26,6.26,0,0,0-1.21.11c-3.93.74-5.72,3.41-7.8,6.49-.59.87-1.09,1.52-1.53,2.1-1.28,1.67-2,2.59-1.71,4.68a2.82,2.82,0,0,0,1.29,1.89c2.22,1.59,6.6,2,11.17,1.11,6.77-1.35,11.65-2.57,12.82-6C76.25,59.18,74.54,58.19,72.73,57.15Z"/></clipPath><clipPath id="clip-path-5" transform="translate(-4.47 -9.84)"><path class="cls-1" d="M65.47,68c-.9.19-1.82.39-2.8.58-.81.16-1.63.28-2.42.36.28,1,.68,3.4-.6,7.33a34.48,34.48,0,0,1-1.72,4.15c-1.42,3-2,4.49-.27,5.59a4,4,0,0,0,3.58.29A8.18,8.18,0,0,0,65.76,81a21.14,21.14,0,0,0,.3-8.47C65.8,70.41,65.57,68.73,65.47,68Z"/></clipPath><clipPath id="clip-path-6" transform="translate(-4.47 -9.84)"><path class="cls-1" d="M38.18,45.64a8.88,8.88,0,0,0-1.85-.2c-2.57,0-5.26,1.14-8.65,3.61-3.74,2.73-4.85,3.88-4.52,5.76.46,2.63,5,4.83,12.34,6,8.13,1.33,12.39-.47,13-2.84.28-1.08-.39-3.17-1.72-5.33C45,49.78,41.82,46.42,38.18,45.64Z"/></clipPath><clipPath id="clip-path-7" transform="translate(-4.47 -9.84)"><path class="cls-1" d="M37.39,61.85c-.64-.07-1.31-.15-2-.27-1.05-.17-2-.36-3-.57a46.36,46.36,0,0,0,.36,13c1.35,8.2,4.3,9.06,6.44,9a4.75,4.75,0,0,0,4-2,2.71,2.71,0,0,0-.24-2.82c-.5-.84-1-1.58-1.46-2.29a20.78,20.78,0,0,1-3.25-6.59A26,26,0,0,1,37.39,61.85Z"/></clipPath></defs><title>Spores currency</title><ellipse class="cls-2" cx="69.51" cy="42.18" rx="25.62" ry="28.41" transform="translate(16.19 97.33) rotate(-84.32)"/><ellipse class="cls-3" cx="32.09" cy="34.29" rx="30.09" ry="26.65"/><ellipse class="cls-4" cx="37.79" cy="69.73" rx="15.62" ry="21.59" transform="translate(-10.12 -6.47) rotate(-4.75)"/><ellipse class="cls-5" cx="50" cy="18.84" rx="8.99" ry="9.97" transform="translate(21.83 56.89) rotate(-84.32)"/><ellipse class="cls-6" cx="22.73" cy="21.06" rx="11.89" ry="10.72" transform="translate(-11.31 1.93) rotate(-25.38)"/><ellipse class="cls-7" cx="61.87" cy="69.73" rx="21.59" ry="17.48" transform="translate(-15.33 118.21) rotate(-87.14)"/><path class="cls-8" d="M50.24,15.34a3.87,3.87,0,0,0-1.17-1.11A2.11,2.11,0,0,0,47.5,14a2.51,2.51,0,0,0-1.3.95,2.57,2.57,0,0,0-.48.91,1.76,1.76,0,0,0,1.15,2s-2.26,1.74-.68,3.32c1.36,1.36,2.75.13,3.48-.4a1.85,1.85,0,0,0,2,.75A1.82,1.82,0,0,0,53,19.76a1,1,0,0,0-.61-1,1.8,1.8,0,0,0,1.65-.2,2.38,2.38,0,0,0,1.11-2.12,2.23,2.23,0,0,0-1.38-1.93,2.11,2.11,0,0,0-2.3.54" transform="translate(-4.47 -9.84)"/><path class="cls-9" d="M18.44,19.78a2.52,2.52,0,0,1,3-3.91A4.77,4.77,0,0,1,22.74,17a2.4,2.4,0,0,1,2.57-1.48A2.79,2.79,0,0,1,27.57,17,2.24,2.24,0,0,1,27,19.65a1.57,1.57,0,0,1,2,.65,2.77,2.77,0,0,1-.36,2.57A3.6,3.6,0,0,1,26.49,24a3.06,3.06,0,0,1-2.06-.38,2.53,2.53,0,0,1-1.69,3c-2.82.54-3.17-1.73-3.23-2.53a2.73,2.73,0,0,1-2.3-.21,2.09,2.09,0,0,1-1-2,1.71,1.71,0,0,1,1.66-1.43" transform="translate(-4.47 -9.84)"/><path class="cls-9" d="M87,44.68a.39.39,0,0,1-.25-.39.37.37,0,0,1,.31-.33c.16,0,3.88-.72,3.52-3.68-.3-2.39-3.15-2.71-3.18-2.72a.35.35,0,0,1-.31-.26.36.36,0,0,1,.1-.39,5.3,5.3,0,0,0,1.69-3.26,3.2,3.2,0,0,0-1.08-2.38c-2-2-5-.45-5.1-.38a.39.39,0,0,1-.38,0,.4.4,0,0,1-.18-.33s0-2-1.24-2.35a2.57,2.57,0,0,0-2.3.43.39.39,0,0,1-.46,0,.37.37,0,0,1-.14-.44c.07-.22,1.87-5.23-2.7-7a5,5,0,0,0-6.53,2.34.38.38,0,0,1-.31.21.35.35,0,0,1-.34-.17s-.76-1.11-1.76-.91a1.61,1.61,0,0,0-1.22,1.43.38.38,0,0,1-.68.19,4.37,4.37,0,0,0-4.91-1.58c-3.24,1.09-2.25,5-2.21,5.18a.38.38,0,0,1-.15.41.38.38,0,0,1-.43,0,4.05,4.05,0,0,0-3.34-.66,3.06,3.06,0,0,0-1.88,1.49c.11,0,.21-.05.33-.06a5.36,5.36,0,0,1,3.83,1.26,5,5,0,0,1,1.79,3.6,9.23,9.23,0,0,1-.46,3.58,3.26,3.26,0,0,1,1,.63,2.66,2.66,0,0,1,.75,1.42,2.89,2.89,0,0,1-.11,1.59,2.69,2.69,0,0,1-.5.81,2.84,2.84,0,0,1,1.12,1,3.36,3.36,0,0,1,.5,2.08,3.24,3.24,0,0,1-1,1.89,5.68,5.68,0,0,1-1.39,1,3.13,3.13,0,0,1,0,1.14,2.88,2.88,0,0,1-.59,1.32,2.6,2.6,0,0,1-1.15.83,3.07,3.07,0,0,1-1.34.21.14.14,0,0,1-.12-.15.14.14,0,0,1,.09-.12h0a4,4,0,0,0,1.92-1.22,2.22,2.22,0,0,0,.35-2,.4.4,0,0,1,.2-.49,3.64,3.64,0,0,0,2.2-2.46,2.59,2.59,0,0,0-.38-1.58,2.18,2.18,0,0,0-1.28-.92A.39.39,0,0,1,57.1,42a.37.37,0,0,1,.18-.24,1.82,1.82,0,0,0,.69-.87A2.1,2.1,0,0,0,58,39.68a1.73,1.73,0,0,0-.54-1,2.47,2.47,0,0,0-1-.6.4.4,0,0,1-.27-.5v0A8.73,8.73,0,0,0,56.73,34a4.29,4.29,0,0,0-1.51-3.06A4.64,4.64,0,0,0,52,29.83a4.79,4.79,0,0,0-3,1.62.41.41,0,0,1-.57,0,.42.42,0,0,1-.1-.47,2.18,2.18,0,0,0,0-1.61,2.63,2.63,0,0,0-1.16-1.22A2,2,0,0,0,45.55,28a3,3,0,0,0-1.38,1,.42.42,0,0,1-.59.07.44.44,0,0,1-.15-.31A6,6,0,0,0,42,24.93a4.9,4.9,0,0,0-3.74-1.4,5.21,5.21,0,0,0-3.78,1.37A5.54,5.54,0,0,0,33,28.65a.45.45,0,0,1-.45.43.43.43,0,0,1-.33-.17,2.17,2.17,0,0,0-1-.69,2,2,0,0,0-1.23.09,1.28,1.28,0,0,0-.71.89,3.17,3.17,0,0,0-.05,1.34.44.44,0,0,1-.36.49.42.42,0,0,1-.34-.09,6.11,6.11,0,0,0-2.8-1.3,2.91,2.91,0,0,0-2.67,1,3.66,3.66,0,0,0-1,2.77,6.06,6.06,0,0,0,1,2.92.39.39,0,0,1-.11.54.37.37,0,0,1-.45,0,1.5,1.5,0,0,0-.84-.27,1.37,1.37,0,0,0-.85.29,1.33,1.33,0,0,0-.53.73,1.62,1.62,0,0,0,0,.9v0a.37.37,0,0,1-.24.47.36.36,0,0,1-.47-.23,2.25,2.25,0,0,1-.06-1.38h0A7,7,0,0,0,15,37a3.82,3.82,0,0,0-2.2,2.09C11,42.85,15.41,45.6,15.6,45.71a.37.37,0,0,1,.17.34.35.35,0,0,1-.21.32c-.13.06-3.21,1.61-2.45,4.29C14,53.81,17.75,53,17.91,53a.37.37,0,0,1,.3.07.36.36,0,0,1,.15.27,4.23,4.23,0,0,0,1.54,2.85,4.33,4.33,0,0,0,3.05.49.36.36,0,0,1,.44.23c.05.12,1.05,2.75,5.18,3.1s5.85-1.55,5.87-1.57a.38.38,0,0,1,.5-.07,8.5,8.5,0,0,0,5,1.16A11.87,11.87,0,0,0,45.07,58a.37.37,0,0,1,.47.06s2.1,2.16,4.12,2.32a5.86,5.86,0,0,0,4.46-1.45.37.37,0,0,1,.37-.1.38.38,0,0,1,.27.28s.45,1.61,3.84,2.21,5-.82,5-.84a.38.38,0,0,1,.64.23,2.07,2.07,0,0,0,1.54,1.73,3.06,3.06,0,0,0,2.63-.74.38.38,0,0,1,.37-.08.39.39,0,0,1,.25.28c0,.1.61,2.52,3.87,2.29a4,4,0,0,0,3.83-3.22.37.37,0,0,1,.25-.3.38.38,0,0,1,.39.1,1.64,1.64,0,0,0,2,.14A1.71,1.71,0,0,0,80.09,59a.39.39,0,0,1,.09-.36.38.38,0,0,1,.36-.11A2.43,2.43,0,0,0,83,57.82c.92-1.23-.26-2.58-.31-2.63a.37.37,0,0,1-.07-.4.38.38,0,0,1,.34-.23,7.15,7.15,0,0,0,6.57-4.68A4,4,0,0,0,87,44.68Z" transform="translate(-4.47 -9.84)"/><path class="cls-10" d="M88.18,44.44c1.56-.55,3.45-1.85,3.16-4.25A4,4,0,0,0,88.21,37a5.48,5.48,0,0,0,1.44-3.28,3.89,3.89,0,0,0-1.31-2.94C86.46,28.89,84,29.58,82.88,30a2.76,2.76,0,0,0-1.76-2.52,3.32,3.32,0,0,0-2.16.1c.37-1.73.64-5.51-3.36-7.1a5.69,5.69,0,0,0-7.2,2.24,2.36,2.36,0,0,0-2.17-.8,2.2,2.2,0,0,0-1.63,1.36A5,5,0,0,0,59.33,22c-2.9,1-3,3.83-2.83,5.26a4.3,4.3,0,0,0-3.32-.34,3.49,3.49,0,0,0-2.49,2.42,5.59,5.59,0,0,0-1.46.79,2.73,2.73,0,0,0-.18-1,3.38,3.38,0,0,0-1.51-1.63,2.8,2.8,0,0,0-2.23-.28,3.49,3.49,0,0,0-1.15.64,6.62,6.62,0,0,0-1.58-3.47,5.78,5.78,0,0,0-4.35-1.67,6,6,0,0,0-4.38,1.61,6.12,6.12,0,0,0-1.62,3.47,3.1,3.1,0,0,0-.8-.38,2.75,2.75,0,0,0-1.81.14A2.05,2.05,0,0,0,28.44,29a3.23,3.23,0,0,0-.12.8,6.43,6.43,0,0,0-2.5-.95A3.77,3.77,0,0,0,24,29a3.94,3.94,0,0,0-1.52,1.06,4.47,4.47,0,0,0-1.24,3.37,6.55,6.55,0,0,0,.66,2.39l-.23,0a2.23,2.23,0,0,0-1.31.45,2.4,2.4,0,0,0-.45.45,7.78,7.78,0,0,0-5.16-.39A4.55,4.55,0,0,0,12.1,38.8c-1.66,3.52,1.37,6.27,2.61,7.2-1,.66-3,2.34-2.32,4.86.8,2.83,3.61,3.17,5.29,2.93a4.61,4.61,0,0,0,1.81,3,5,5,0,0,0,3.33.64c.41.81,1.84,3,5.68,3.3s5.66-1,6.28-1.6A9.4,9.4,0,0,0,40,60.26a12.84,12.84,0,0,0,5.23-1.51,8.2,8.2,0,0,0,4.39,2.34,6.7,6.7,0,0,0,4.65-1.32c.41.66,1.49,1.78,4.21,2.26a7.28,7.28,0,0,0,5.21-.68,2.73,2.73,0,0,0,1.94,1.78,3.59,3.59,0,0,0,2.91-.57,4.07,4.07,0,0,0,4,2.37l.47,0a4.74,4.74,0,0,0,4.37-3.29,2.4,2.4,0,0,0,2.48-.09,2.31,2.31,0,0,0,1.06-2.17,3,3,0,0,0,2.65-1.09,2.66,2.66,0,0,0,0-3,7.83,7.83,0,0,0,6.59-5.13A4.53,4.53,0,0,0,88.18,44.44Zm1.3,5.44a7.15,7.15,0,0,1-6.57,4.68.38.38,0,0,0-.34.23.37.37,0,0,0,.07.4c0,.05,1.23,1.4.31,2.63a2.43,2.43,0,0,1-2.41.73.38.38,0,0,0-.36.11.39.39,0,0,0-.09.36,1.72,1.72,0,0,1-.63,1.86,1.65,1.65,0,0,1-2-.14.38.38,0,0,0-.39-.1.37.37,0,0,0-.25.3,4,4,0,0,1-3.83,3.22c-3.26.23-3.85-2.19-3.87-2.29a.39.39,0,0,0-.25-.28.38.38,0,0,0-.37.08,3.06,3.06,0,0,1-2.63.74,2.07,2.07,0,0,1-1.54-1.73.39.39,0,0,0-.24-.31.39.39,0,0,0-.4.08s-1.57,1.46-5,.84-3.84-2.2-3.84-2.21a.38.38,0,0,0-.27-.28.37.37,0,0,0-.37.1,5.86,5.86,0,0,1-4.46,1.45c-2-.16-4.09-2.3-4.12-2.32a.37.37,0,0,0-.47-.06,11.87,11.87,0,0,1-5.13,1.54,8.5,8.5,0,0,1-5-1.16.38.38,0,0,0-.5.07s-1.7,1.94-5.87,1.57-5.13-3-5.17-3.1a.38.38,0,0,0-.45-.23,4.33,4.33,0,0,1-3.05-.49,4.23,4.23,0,0,1-1.54-2.85.36.36,0,0,0-.15-.27.37.37,0,0,0-.3-.07c-.16,0-3.91.83-4.8-2.32-.76-2.68,2.32-4.23,2.45-4.29a.35.35,0,0,0,.21-.32.37.37,0,0,0-.17-.34c-.19-.11-4.58-2.86-2.83-6.59A3.84,3.84,0,0,1,15,37a7,7,0,0,1,4.57.36h0a2.25,2.25,0,0,0,.06,1.38.36.36,0,0,0,.47.23.37.37,0,0,0,.24-.47v0a1.62,1.62,0,0,1,0-.9,1.33,1.33,0,0,1,.53-.73,1.37,1.37,0,0,1,.85-.29,1.5,1.5,0,0,1,.84.27.37.37,0,0,0,.45,0,.39.39,0,0,0,.11-.54,6.06,6.06,0,0,1-1-2.92,3.66,3.66,0,0,1,1-2.77,2.91,2.91,0,0,1,2.67-1,6.11,6.11,0,0,1,2.8,1.3.42.42,0,0,0,.34.09.44.44,0,0,0,.36-.49,3.17,3.17,0,0,1,.05-1.34,1.28,1.28,0,0,1,.71-.89,2,2,0,0,1,1.23-.09,2.17,2.17,0,0,1,1,.69.43.43,0,0,0,.33.17.45.45,0,0,0,.45-.43,5.54,5.54,0,0,1,1.44-3.75,5.21,5.21,0,0,1,3.78-1.37A4.9,4.9,0,0,1,42,24.93a6,6,0,0,1,1.46,3.8.44.44,0,0,0,.15.31.42.42,0,0,0,.59-.07,3,3,0,0,1,1.38-1,2,2,0,0,1,1.59.21A2.63,2.63,0,0,1,48.3,29.4a2.18,2.18,0,0,1,0,1.61.42.42,0,0,0,.1.47.41.41,0,0,0,.57,0,4.79,4.79,0,0,1,3-1.62,4.64,4.64,0,0,1,3.26,1.08A4.29,4.29,0,0,1,56.73,34a8.73,8.73,0,0,1-.51,3.58v0a.4.4,0,0,0,.27.5,2.57,2.57,0,0,1,1,.6,1.78,1.78,0,0,1,.53,1A2.1,2.1,0,0,1,58,40.85a1.82,1.82,0,0,1-.69.87.37.37,0,0,0-.18.24.39.39,0,0,0,.29.47,2.18,2.18,0,0,1,1.28.92,2.59,2.59,0,0,1,.38,1.58,3.64,3.64,0,0,1-2.2,2.46.4.4,0,0,0-.2.49,2.22,2.22,0,0,1-.35,2,4,4,0,0,1-1.92,1.22h0a.14.14,0,0,0-.09.12.14.14,0,0,0,.12.15,3.07,3.07,0,0,0,1.34-.21,2.6,2.6,0,0,0,1.15-.83,2.88,2.88,0,0,0,.59-1.32,3.13,3.13,0,0,0,0-1.14,5.68,5.68,0,0,0,1.39-1,3.24,3.24,0,0,0,1-1.89,3.36,3.36,0,0,0-.5-2.08,2.84,2.84,0,0,0-1.12-1,2.69,2.69,0,0,0,.5-.81,2.89,2.89,0,0,0,.11-1.59,2.66,2.66,0,0,0-.75-1.42,3.26,3.26,0,0,0-1-.63,9.23,9.23,0,0,0,.46-3.58,5,5,0,0,0-1.79-3.6A5.36,5.36,0,0,0,51.89,29c-.12,0-.22.05-.33.06a3.06,3.06,0,0,1,1.88-1.49,4.05,4.05,0,0,1,3.34.66.38.38,0,0,0,.43,0,.38.38,0,0,0,.15-.41c0-.16-1-4.09,2.21-5.18a4.37,4.37,0,0,1,4.91,1.58.38.38,0,0,0,.68-.19,1.61,1.61,0,0,1,1.22-1.43c1-.2,1.75.9,1.76.91a.35.35,0,0,0,.34.17.38.38,0,0,0,.31-.21,5,5,0,0,1,6.53-2.34c4.57,1.81,2.77,6.82,2.7,7a.37.37,0,0,0,.14.44.39.39,0,0,0,.46,0,2.57,2.57,0,0,1,2.3-.43c1.28.36,1.24,2.33,1.24,2.35a.4.4,0,0,0,.18.33.39.39,0,0,0,.38,0c.12-.07,3.06-1.62,5.1.38a3.2,3.2,0,0,1,1.08,2.38,5.3,5.3,0,0,1-1.69,3.26.36.36,0,0,0-.1.39.35.35,0,0,0,.31.26s2.88.33,3.18,2.72c.36,3-3.36,3.65-3.52,3.68a.38.38,0,0,0-.31.33.39.39,0,0,0,.25.39A4,4,0,0,1,89.48,49.88Z" transform="translate(-4.47 -9.84)"/><path class="cls-10" d="M50.4,15.24a3.28,3.28,0,0,0-1.94-1.58,2.34,2.34,0,0,0-2.3.81,2.48,2.48,0,0,0-.79,2.12,2.16,2.16,0,0,0,1.4,1.62l-.15-.59c-.9.7-1.69,1.94-1.21,3.09a2.43,2.43,0,0,0,2.23,1.49,4.2,4.2,0,0,0,2.23-1.07L49.33,21a2.22,2.22,0,0,0,3.28.48c.89-.8,1.12-2.52-.16-3.06l-.2.74c1.94.73,3.72-1.5,3.15-3.31a2.53,2.53,0,0,0-4.24-1.05c-.35.37.2.92.55.55a1.74,1.74,0,0,1,2.92.71c.39,1.24-.82,2.88-2.18,2.36-.4-.15-.7.53-.29.7.79.34.34,1.48-.18,1.86a1.41,1.41,0,0,1-2-.38.41.41,0,0,0-.55-.15,4.78,4.78,0,0,1-1.58.93A1.61,1.61,0,0,1,46,20.21a2.34,2.34,0,0,1,1.09-2.09c.22-.18.06-.51-.16-.59A1.42,1.42,0,0,1,46,16.32a2.1,2.1,0,0,1,.77-1.54c1.13-1.1,2.44-.25,3.32.69a.19.19,0,0,0,.29-.23Z" transform="translate(-4.47 -9.84)"/><g class="cls-11"><path class="cls-8" d="M16.79,18.68l2.4,1.58s-.1-1.13,1.43-1.58S22.35,20,22.35,20a1.06,1.06,0,0,1,1.2,0,1.09,1.09,0,0,1,.57,1.08s.85-1.1,2.27,0c1.83,1.41,0,4.13,0,4.13L31.33,24V16.28l-2.6-3.53-8.11.06L16.21,15Z" transform="translate(-4.47 -9.84)"/></g><path class="cls-10" d="M18.58,19.7c-.64-1.14-.76-2.69.5-3.47a2.38,2.38,0,0,1,1.71-.31,3.43,3.43,0,0,1,1.74,1.24A.3.3,0,0,0,23,17c.47-1.34,2.22-1.55,3.31-.89a2,2,0,0,1,.46,3.29c-.28.25.07.65.38.5a1.25,1.25,0,0,1,1.72.87,2.47,2.47,0,0,1-.54,2,3.29,3.29,0,0,1-2,.9,3.1,3.1,0,0,1-.91-.05c-.13,0-.65-.08-.72-.19-.19-.3-.75-.11-.6.25a2.15,2.15,0,0,1-2.49,2.63,2.18,2.18,0,0,1-1.75-2.26.36.36,0,0,0-.45-.34,2.17,2.17,0,0,1-2.65-.85A1.42,1.42,0,0,1,17.9,20.7a.33.33,0,0,0,0-.65A2.08,2.08,0,0,0,16,22.79a2.82,2.82,0,0,0,3.63,1.6l-.45-.34c.13,1.57,1,2.92,2.71,2.95a2.69,2.69,0,0,0,2.52-1.28,2.74,2.74,0,0,0,.32-2.29l-.57.33c.4.61,1.73.62,2.35.54a3.57,3.57,0,0,0,2.65-1.52,2.87,2.87,0,0,0,.15-2.71,1.9,1.9,0,0,0-2.43-.69l.38.5a2.68,2.68,0,0,0-.58-4.28,2.87,2.87,0,0,0-4.2,1.27l.49-.13a3.85,3.85,0,0,0-2.17-1.41,3,3,0,0,0-2.15.52,2.66,2.66,0,0,0-.3,4c.13.11.34,0,.25-.19Z" transform="translate(-4.47 -9.84)"/><g class="cls-12"><path class="cls-13" d="M12.81,34.85s-.87,4.6,1.26,6.51c2.4,2.15,4.36.82,4.36.82a3.66,3.66,0,0,0,0,4,3.78,3.78,0,0,0,3.92,1.61,1.91,1.91,0,0,0,1.8,1.38,2.09,2.09,0,0,0,2.05-1.38S26,49.82,29,51.27a5.91,5.91,0,0,0,5.42,0s0,2.23,3.8,2.79,5.62-.69,5.62-.69L42.37,64.66l-22.49,1.2-8.4-10.54-7-8.53,1-8Z" transform="translate(-4.47 -9.84)"/><path class="cls-13" d="M45.84,55.69a6.65,6.65,0,0,1,4.61-3,3.7,3.7,0,0,1,3.94,1.83l3.83-.5a9.33,9.33,0,0,0-1.64-2.15C55.63,51,55.12,51,55.12,51s1.73-.38,1.88-1.89.21-1.84.21-1.84,1.94-2.08,4.25-1.45a3.53,3.53,0,0,1,2.7,2.34s2.78-1.72,5.3,0a4.69,4.69,0,0,1,1.87,4.7,2.44,2.44,0,0,1,2,.63,2,2,0,0,1,.57,2.19,3.08,3.08,0,0,1,3,0,2.49,2.49,0,0,1,1,2.73,3.91,3.91,0,0,1,2.6-.58c1.82.08,3.78,4.43,3.78,4.43L67.59,70.54l-19-.57-3.42-5.73Z" transform="translate(-4.47 -9.84)"/><path class="cls-13" d="M33.08,47.2a4,4,0,0,1,2.21-3c1.77-.69,2.5,0,2.5,0a3.27,3.27,0,0,1,6.09-.07,2.81,2.81,0,0,1,2-.52c1.41.06,2.27,1.83,2.27,1.83a3.74,3.74,0,0,0-3.85,0,4.21,4.21,0,0,0-2,3.24,6.15,6.15,0,0,0-4.68-2A27,27,0,0,0,33.08,47.2Z" transform="translate(-4.47 -9.84)"/></g><g class="cls-14"><path class="cls-8" d="M63.72,19.32s-3.1,3-3.6,6.06,2.08,5.87,2.08,5.87a3.81,3.81,0,0,0,.19,4,4.59,4.59,0,0,0,3.33,2s-.11-1.64,2.23-1.89a2.86,2.86,0,0,1,3,2.15s.5-.76,2.08-.51,2.21,2.27,2.21,2.27l3.16-1.45A2.89,2.89,0,0,1,80.14,35c2-1,3.47,1.39,3.47,1.39a1.79,1.79,0,0,1,2.21-.19c1.45.69,1.39,1.58,1.39,1.58l7-2.47L92.14,22.66,74.39,15Z" transform="translate(-4.47 -9.84)"/><path class="cls-8" d="M70.47,46.79a4.6,4.6,0,0,1,7.39-2.46,4.94,4.94,0,0,1,4-1.71,10.6,10.6,0,0,1,4.86,1.64l6.82.43-3,14.23-8,3.62-.19-8.48s0-3.38-2.78-4.06a4.51,4.51,0,0,0-4.42,1.27,4.89,4.89,0,0,0-1.64-3.53A3.42,3.42,0,0,0,70.47,46.79Z" transform="translate(-4.47 -9.84)"/><path class="cls-8" d="M39.84,20.64s-5.3,1.58-5.93,5.12S35.17,31,35.17,31A3.27,3.27,0,0,0,33,32.45c-.89,1.33.44,3.35.44,3.35L31,36.68H33.4l1.39.89L37,36.49l3.16.64,1.64.44,3.73,1.32s1.68-1.2,4.47,0,1.59,5,1.59,5a1.74,1.74,0,0,1,1.7.45c.76.75,0,1.83,0,1.83s.83.06,1.52,1.58a3.12,3.12,0,0,1-.42,3s2.51-.06,2.82-1.62a3.63,3.63,0,0,0,0-1.8A3.89,3.89,0,0,0,59.11,45c.37-1.51-1.77-2.84-1.77-2.84s1.95-2,.82-3.41-2-.82-2-.82,2.59-5-1.75-8C51.11,27.74,50,28.54,50,28.54l-1.43-4.93Z" transform="translate(-4.47 -9.84)"/><path class="cls-8" d="M21.27,36.37c1.77,0,2.21,1,2.21,1a2.36,2.36,0,0,1,1.9-1.9A2.18,2.18,0,0,1,27.62,37,4.38,4.38,0,0,1,31,36.05a5.82,5.82,0,0,1,3.39,1.27s.64-1,2.6-.83,2.17,1.37,2.17,1.37-1.78-.36-2.6.72-.73,1.61-.73,1.61-1.62-1.17-3-.66a2.54,2.54,0,0,0-1.56,1.77,2,2,0,0,0-2.09-.51,3.16,3.16,0,0,0-1.62,2l-3.19,1.32-.69.07a3.37,3.37,0,0,0-3.12-2.53A3.41,3.41,0,0,0,17,44.2l-5.43,3L6.24,38.58l5.69-4.79Z" transform="translate(-4.47 -9.84)"/></g><path class="cls-15" d="M20.63,47A4.1,4.1,0,0,1,24,44.69a3.86,3.86,0,0,1,3.17.75,2.11,2.11,0,0,1,1.85-2.22c2-.33,2.27.43,2.27.43s.05-1-1.55-1.64a2.72,2.72,0,0,0-2.38.12,2.4,2.4,0,0,0-2.46-.76c-1.61.38-1.61,2.28-1.61,2.28a2.53,2.53,0,0,0-1.8.76A3.48,3.48,0,0,0,20.63,47Z" transform="translate(-4.47 -9.84)"/><path class="cls-15" d="M29.2,38.58a3.72,3.72,0,0,1,2.91-1.75c2.29-.15,2.5,1.56,2.5,1.56A2.62,2.62,0,0,1,37.69,37a3.53,3.53,0,0,1,2.4,2.58,5.19,5.19,0,0,1,2.52-1,2.92,2.92,0,0,1,2.84,1.61,2.27,2.27,0,0,0-.67-2.61,2.57,2.57,0,0,0-2.41-.19s.09-2.32-1.71-2.79a2.8,2.8,0,0,0-2.87,1,2.47,2.47,0,0,0-2.62-1.8,2.3,2.3,0,0,0-2.37,2.09,2.19,2.19,0,0,0-2.51,0A3,3,0,0,0,29.2,38.58Z" transform="translate(-4.47 -9.84)"/><path class="cls-15" d="M47.86,36.59a3.81,3.81,0,0,1,2.94.14,3.38,3.38,0,0,1,1.47,2.46,1.72,1.72,0,0,1,1.37.67,4,4,0,0,1,.75,2.22,2.29,2.29,0,0,0,.48-2.64A2.23,2.23,0,0,0,53,38s.41-2.27-1.53-2.84S47.86,36.59,47.86,36.59Z" transform="translate(-4.47 -9.84)"/><path class="cls-15" d="M60.49,33.91a3.65,3.65,0,0,1,3.29-1.58,3.72,3.72,0,0,1,3.09,1.58s.07-2,2.59-2,3.1,1,3.1,1-.89-2.4-3.1-2.58a2.89,2.89,0,0,0-2.93,1.13A3.6,3.6,0,0,0,62.8,30,3.27,3.27,0,0,0,60.49,33.91Z" transform="translate(-4.47 -9.84)"/><path class="cls-15" d="M70.73,40.47A3.59,3.59,0,0,1,74,39.72a5,5,0,0,1,3.22,1.7s1.08-1.51,3.92-1.33a5.45,5.45,0,0,1,4.1,2.09s.89-1.9-.5-3a2.84,2.84,0,0,0-3.16-.57,3.92,3.92,0,0,0-3.73-2.21c-2.84,0-3.28,2.08-3.28,2.08a2.62,2.62,0,0,0-2.78.13A2.16,2.16,0,0,0,70.73,40.47Z" transform="translate(-4.47 -9.84)"/><path class="cls-15" d="M72.56,47.42s.64-1,3-.57a4.45,4.45,0,0,1,3.28,2.34,2.53,2.53,0,0,1,2.09-1,2.74,2.74,0,0,1,2.27,1s-.5-2.14-2.34-2.43-2.33.47-2.33.47a3.34,3.34,0,0,0-3-2A3.1,3.1,0,0,0,72.56,47.42Z" transform="translate(-4.47 -9.84)"/><path class="cls-15" d="M61.06,42.49a4.89,4.89,0,0,1,3.54-.63,5.7,5.7,0,0,1,3.54,2.34,3.44,3.44,0,0,0-2.42-3.54C63,39.59,61.06,42.49,61.06,42.49Z" transform="translate(-4.47 -9.84)"/><path class="cls-16" d="M72.73,57.15c-.44-.26-.85-.49-1.22-.76s-.74-.58-1.21-1c-1.8-1.53-4.69-4-8-4a6.26,6.26,0,0,0-1.21.11c-3.93.74-5.72,3.41-7.8,6.49-.59.87-1.09,1.52-1.53,2.1-1.28,1.67-2,2.59-1.71,4.68a2.82,2.82,0,0,0,1.29,1.89c2.22,1.59,6.6,2,11.17,1.11,6.77-1.35,11.65-2.57,12.82-6C76.25,59.18,74.54,58.19,72.73,57.15Z" transform="translate(-4.47 -9.84)"/><path class="cls-17" d="M38.18,45.64a8.88,8.88,0,0,0-1.85-.2c-2.57,0-5.26,1.14-8.65,3.61-3.74,2.73-4.85,3.88-4.52,5.76.46,2.63,5,4.83,12.34,6,8.13,1.33,12.39-.47,13-2.84.28-1.08-.39-3.17-1.72-5.33C45,49.78,41.82,46.42,38.18,45.64Z" transform="translate(-4.47 -9.84)"/><path class="cls-18" d="M37.39,61.85c-.64-.07-1.31-.15-2-.27-1.05-.17-2-.36-3-.57a46.36,46.36,0,0,0,.36,13c1.35,8.2,4.3,9.06,6.44,9a4.75,4.75,0,0,0,4-2,2.71,2.71,0,0,0-.24-2.82c-.5-.84-1-1.58-1.46-2.29a20.78,20.78,0,0,1-3.25-6.59A26,26,0,0,1,37.39,61.85Z" transform="translate(-4.47 -9.84)"/><path class="cls-19" d="M65.47,68c-.9.19-1.82.39-2.8.58-.81.16-1.63.28-2.42.36.28,1,.68,3.4-.6,7.33a34.48,34.48,0,0,1-1.72,4.15c-1.42,3-2,4.49-.27,5.59a4,4,0,0,0,3.58.29A8.18,8.18,0,0,0,65.76,81a21.14,21.14,0,0,0,.3-8.47C65.8,70.41,65.57,68.73,65.47,68Z" transform="translate(-4.47 -9.84)"/><path class="cls-20" d="M73.1,56.5c-.42-.25-.82-.47-1.16-.72s-.7-.55-1.16-.94c-2.12-1.79-5.69-4.79-9.81-4s-6.11,3.59-8.33,6.88c-.53.78-1,1.43-1.46,2-1.3,1.71-2.17,2.84-1.86,5.24a3.61,3.61,0,0,0,1.6,2.4,12.47,12.47,0,0,0,7,1.72c.49,0,1,0,1.52-.06.22.7.76,3-.54,7a35,35,0,0,1-1.69,4.06c-1.33,2.82-2.38,5.05,0,6.54a4.49,4.49,0,0,0,2.43.7A5,5,0,0,0,61.5,87a8.83,8.83,0,0,0,5-5.83,21.86,21.86,0,0,0,.32-8.79c-.27-2.14-.5-3.85-.6-4.55,5.16-1.19,8.79-2.62,9.86-5.75S74.91,57.54,73.1,56.5ZM65.76,81a8.18,8.18,0,0,1-4.52,5.35A4,4,0,0,1,57.66,86c-1.75-1.1-1.15-2.59.27-5.59a34.48,34.48,0,0,0,1.72-4.15c1.28-3.93.88-6.35.6-7.33.79-.08,1.61-.2,2.42-.36,1-.19,1.9-.39,2.8-.58.1.73.33,2.41.59,4.48A21.14,21.14,0,0,1,65.76,81Zm9.59-19.12c-1.17,3.44-6,4.66-12.82,6-4.57.92-9,.48-11.17-1.11a2.82,2.82,0,0,1-1.29-1.89c-.27-2.09.43-3,1.71-4.68.44-.58.94-1.23,1.53-2.1,2.08-3.08,3.87-5.75,7.8-6.49a6.26,6.26,0,0,1,1.21-.11c3.29,0,6.18,2.43,8,4,.47.39.87.73,1.21,1s.78.5,1.22.76C74.54,58.19,76.25,59.18,75.35,61.83Z" transform="translate(-4.47 -9.84)"/><path class="cls-21" d="M47.43,52.27c-1.86-3-5.22-6.53-9.09-7.36-3.38-.73-6.7.33-11.1,3.53-3.76,2.74-5.24,4.1-4.82,6.5s3.69,4.54,9.25,5.9A46.77,46.77,0,0,0,32,74.13c1.09,6.59,3.33,9.67,7,9.67h.15a5.45,5.45,0,0,0,4.61-2.37,3.41,3.41,0,0,0-.26-3.57c-.5-.85-1-1.59-1.48-2.31a20,20,0,0,1-3.15-6.38,25.6,25.6,0,0,1-.8-7.24c.88.08,1.7.12,2.47.12,5.52,0,8.11-1.9,8.63-3.86C49.57,56.9,48.88,54.64,47.43,52.27Zm-9.21,17.1A20.78,20.78,0,0,0,41.47,76c.47.71,1,1.45,1.46,2.29a2.71,2.71,0,0,1,.24,2.82,4.75,4.75,0,0,1-4,2c-2.14,0-5.09-.84-6.44-9a46.36,46.36,0,0,1-.36-13c.94.21,1.93.4,3,.57.7.12,1.37.2,2,.27A26,26,0,0,0,38.22,69.37ZM48.51,58c-.62,2.37-4.88,4.17-13,2.84-7.38-1.2-11.88-3.4-12.34-6-.33-1.88.78-3,4.52-5.76,3.39-2.47,6.08-3.61,8.65-3.61a8.88,8.88,0,0,1,1.85.2c3.64.78,6.83,4.14,8.61,7C48.12,54.83,48.79,56.92,48.51,58Z" transform="translate(-4.47 -9.84)"/><path class="cls-22" d="M60.36,54.06a4.56,4.56,0,0,0-3,2.17A2.68,2.68,0,0,0,57,57.51a1.41,1.41,0,0,0,.56,1.17,1.84,1.84,0,0,0,1.71.06,4.08,4.08,0,0,0,2.49-2.56,2.13,2.13,0,0,0,.07-1.12,1.2,1.2,0,0,0-.7-.83" transform="translate(-4.47 -9.84)"/><path class="cls-22" d="M54.75,60.94l.29-.06a1.32,1.32,0,0,0-1.09.45,3.25,3.25,0,0,0-.8,1A1.53,1.53,0,0,0,53,63.52a1,1,0,0,0,.95.7,1.33,1.33,0,0,0,.7-.28,2.81,2.81,0,0,0,1.16-2.44c0-.18-.08-.4-.26-.45" transform="translate(-4.47 -9.84)"/><path class="cls-22" d="M68.46,57.83a2.8,2.8,0,0,0-2.13,1.06,2.18,2.18,0,0,0-.56.85,1,1,0,0,0,.17,1A1.21,1.21,0,0,0,67,61a3.06,3.06,0,0,0,2.33-1.44,1,1,0,0,0,.18-.61.46.46,0,0,0-.41-.42" transform="translate(-4.47 -9.84)"/><path class="cls-20" d="M60.36,53.86a4.22,4.22,0,0,0-2.64,1.44,2.89,2.89,0,0,0-.84,3c.48,1.08,1.73,1.07,2.67.67a4.36,4.36,0,0,0,2.18-2,3.07,3.07,0,0,0,.4-1.82,1.42,1.42,0,0,0-.37-.78.66.66,0,0,0-.66-.24.1.1,0,0,0-.06.14,4.12,4.12,0,0,0,.32.41,1.3,1.3,0,0,1,.23.63,2.46,2.46,0,0,1-.32,1.3,3.92,3.92,0,0,1-1.67,1.63c-.64.35-1.72.67-2.16-.13s.12-1.79.64-2.41a5.23,5.23,0,0,1,2.33-1.46c.2-.07.18-.41,0-.39Z" transform="translate(-4.47 -9.84)"/><path class="cls-20" d="M54.79,61h.1c.13.11.31-.07.19-.19s-.73,0-1,.15a3.9,3.9,0,0,0-.83.74,2,2,0,0,0-.42,2.12,1.32,1.32,0,0,0,.74.65,1.27,1.27,0,0,0,1-.13,3,3,0,0,0,1.28-1.58c.14-.39.46-1.93-.36-1.77-.08,0-.09.11,0,.16s.06.22.07.29a1,1,0,0,1,0,.35,2.2,2.2,0,0,1-.15.71,2.55,2.55,0,0,1-.84,1.18,1.06,1.06,0,0,1-.69.28.73.73,0,0,1-.52-.31,1.34,1.34,0,0,1,.19-1.53,3.83,3.83,0,0,1,.64-.69,1.48,1.48,0,0,1,.4-.27,2.83,2.83,0,0,0,.44-.14l-.2-.12-.08,0c-.11-.08-.06.19,0,.07Z" transform="translate(-4.47 -9.84)"/><path class="cls-20" d="M68.51,57.78a1.19,1.19,0,0,0-1,0,3.09,3.09,0,0,0-1,.58,2.22,2.22,0,0,0-1,2c.16.84,1,1,1.75.87a3.25,3.25,0,0,0,1.91-1.05A1.84,1.84,0,0,0,69.7,59c0-.31-.39-.88-.72-.51a.09.09,0,0,0,0,.13s0,.09.07.12.09.07.12.12a.45.45,0,0,1,0,.42,2.32,2.32,0,0,1-.52.68,2.88,2.88,0,0,1-1.4.76c-.46.1-1.17.1-1.26-.5s.42-1.08.8-1.43a3.59,3.59,0,0,1,.82-.58A2.32,2.32,0,0,1,68,58a1.37,1.37,0,0,0,.45-.13.07.07,0,0,0,0-.11Z" transform="translate(-4.47 -9.84)"/><path class="cls-23" d="M33.58,48.18a10,10,0,0,0-5.4,3.24,2.09,2.09,0,0,0-.55,1,.83.83,0,0,0,.49.92,1.18,1.18,0,0,0,.85-.18,25.74,25.74,0,0,0,4.64-3c.41-.35.86-.8.78-1.33" transform="translate(-4.47 -9.84)"/><path class="cls-23" d="M38.82,48.55a1.15,1.15,0,0,1-1.26,1.07c-.5,0-1-.15-1-.81s.42-1,1.12-1.07S38.82,47.89,38.82,48.55Z" transform="translate(-4.47 -9.84)"/><g class="cls-24"><path class="cls-25" d="M48.31,60.86s.59,6.68,9.53,6c9.29-.69,12.8-3.9,14.15-7a16.84,16.84,0,0,0,1.2-6.52l8.4,5.1-2.15,8.41-15,6.37L54,73.88,47.48,69Z" transform="translate(-4.47 -9.84)"/></g><g class="cls-26"><path class="cls-27" d="M56.58,70.85s3.52.38,4.88.44a17,17,0,0,0,3.08-.22S65.42,77,64,80.71c-1,2.66-2.1,4.48-5.43,4.29-2-.12-4.42-3.73-4.42-3.73l-.83,8.78H66.35l8.23-13.64L72.32,65l-7.66-1.11-8.4,1.45Z" transform="translate(-4.47 -9.84)"/></g><g class="cls-28"><path class="cls-29" d="M22.71,48.68S22.43,53,28.54,56.2,41.71,60,45.92,57.62s2.65-8.94,2.65-8.94L55,53.07,52.46,64.22,37.79,66.48,25.08,62.26l-5.69-4.88Z" transform="translate(-4.47 -9.84)"/></g><g class="cls-30"><path class="cls-31" d="M28,62a44.7,44.7,0,0,0,6.15,1.33,10.74,10.74,0,0,0,2.14,0,26.46,26.46,0,0,0,1,8c1.18,3.36,2.74,5.92,2,8.19s-5.17,5.78-5.17,5.78L44.78,86.8,50,81.16,46.16,70.08,42.94,59.89,35.26,57.1l-6.77.47Z" transform="translate(-4.47 -9.84)"/></g></svg>