<svg id="Layer_4" data-name="Layer 4" xmlns="http://www.w3.org/2000/svg" xmlns:xlink="http://www.w3.org/1999/xlink" viewBox="0 0 110.18 83.39"><defs><style>.cls-1,.cls-7,.cls-8{fill:none;}.cls-2{fill:url(#radial-gradient);}.cls-3{fill:url(#radial-gradient-2);}.cls-4{fill:#423931;}.cls-5{clip-path:url(#clip-path);}.cls-6{fill:#1e1915;}.cls-7{stroke:#190903;}.cls-7,.cls-8{stroke-linecap:round;stroke-linejoin:round;}.cls-8{stroke:#000;stroke-width:1.5px;}.cls-9{fill:#544b43;}.cls-10{clip-path:url(#clip-path-2);}.cls-11{fill:#725f58;}.cls-12{fill:#332c28;}.cls-13{fill:url(#radial-gradient-3);}.cls-14{clip-path:url(#clip-path-3);}.cls-15{fill:#7f6b63;}.cls-16{fill:#ddbf92;}.cls-17{fill:#e8e3c5;}</style><radialGradient id="radial-gradient" cx="61.82" cy="46.68" r="38.67" gradientTransform="translate(4.98 -13.92) scale(1.05 1.04)" gradientUnits="userSpaceOnUse"><stop offset="0.45" stop-color="#fff" stop-opacity="0.7"/><stop offset="0.6" stop-color="#fff" stop-opacity="0.4"/><stop offset="0.77" stop-color="#fff" stop-opacity="0"/></radialGradient><radialGradient id="radial-gradient-2" cx="44.37" cy="49.69" r="38.67" gradientTransform="translate(-9.99 -10.65) scale(1.19 1)" xlink:href="#radial-gradient"/><clipPath id="clip-path" transform="translate(4.09 -10.65)"><path class="cls-1" d="M47.11,40c-1.84-4.83-1.26-10.76,1.75-14s5-2.72,9.62-2.33,6.41-.88,11-1.07S79.76,24.43,82.09,27s4.66,5.15,5.44,7,1.65,5.78,2.91,8.82-.09,8.08-2.13,12.16-2.14,5.44-5.15,9.23a12.31,12.31,0,0,1-15.74,2.92c-6.61-3.5-10.59-5.35-15.35-12.34A30.62,30.62,0,0,1,47.11,40Z"/></clipPath><clipPath id="clip-path-2" transform="translate(4.09 -10.65)"><path class="cls-1" d="M54.61,53.87c3.08-6,5.65-13.86,2.27-17.87s-3.74-5.06-7.65-6.87a13.12,13.12,0,0,0-9.45-.78,9.66,9.66,0,0,1-5.85.26c-3-.52-5.18-1.81-10.23.52S18.51,31.2,17,34.57s-2.59,6-4.15,8.84-2.07,5-.77,8.91,1,5.07,3.49,8.56,3.37,3.95,5.45,6.5,4.65,2.77,7.5,3.57a13.73,13.73,0,0,0,11.3-1.34C44.56,67,52.26,58.45,54.61,53.87Z"/></clipPath><radialGradient id="radial-gradient-3" cx="54.35" cy="58.5" r="34.34" gradientTransform="translate(-5.06 -10.44) scale(1.26 1.07)" gradientUnits="userSpaceOnUse"><stop offset="0.33" stop-color="#fff" stop-opacity="0.7"/><stop offset="0.53" stop-color="#fff" stop-opacity="0.4"/><stop offset="0.77" stop-color="#fff" stop-opacity="0"/></radialGradient><clipPath id="clip-path-3" transform="translate(4.09 -10.65)"><path class="cls-1" d="M35.65,72.4s4.93,3.75,7.39,5.31,3.24,1.29,6.35,1.55,3.49,1.95,7.12,1.69,4.15.39,7.26.77,4.53.65,7.77-.9S80.22,75.25,82.81,71s1.68-13.6,0-18.39-2.2-7.26-6.48-8.55-7.25-3.76-13.6-5.57S52.37,42.08,44.33,42,34,47.9,34,47.9C31.51,54.84,31,66.6,35.65,72.4Z"/></clipPath></defs><title>Truffles</title><ellipse class="cls-2" cx="70.15" cy="34.7" rx="36.56" ry="34.7"/><ellipse class="cls-3" cx="42.85" cy="39.04" rx="41.3" ry="33.31"/><path class="cls-4" d="M47.11,40c-1.84-4.83-1.26-10.76,1.75-14s5-2.72,9.62-2.33,6.41-.88,11-1.07S79.76,24.43,82.09,27s4.66,5.15,5.44,7,1.65,5.78,2.91,8.82-.09,8.08-2.13,12.16-2.14,5.44-5.15,9.23a12.31,12.31,0,0,1-15.74,2.92c-6.61-3.5-10.59-5.35-15.35-12.34A30.62,30.62,0,0,1,47.11,40Z" transform="translate(4.09 -10.65)"/><g class="cls-5"><path class="cls-6" d="M90.93,22.57s1.21,11.34-4.08,18.56-27,8.66-27,8.66l4.72,24L90.93,82,106.09,49.6l-8-20.41Z" transform="translate(4.09 -10.65)"/><path class="cls-7" d="M44.68,38.23a65.12,65.12,0,0,1,8.94-7.09c5-3.21,3.3-2.24,9.81-4s16.81-5.24,16.81-5.24" transform="translate(4.09 -10.65)"/><path class="cls-7" d="M43.81,25s6.6.29,8.64,1.75A17.78,17.78,0,0,0,57.11,29" transform="translate(4.09 -10.65)"/><path class="cls-7" d="M54.79,20.55s2.62,2.91,4,4.47a20.63,20.63,0,0,0,2.79,2.62A62.16,62.16,0,0,0,68.49,29a56,56,0,0,1,11.36,1.1c5.06,1.16,5.75,5.6,7.58,7.48a88.39,88.39,0,0,1,5.93,8.1" transform="translate(4.09 -10.65)"/><path class="cls-7" d="M68.49,19.28A22.94,22.94,0,0,0,69.94,24c.69,1.08,2.14,1.91,2.34,3s-.78,1.91-1.07,3.76,0,2.43-.39,3.11-4.67,1.46-6.12,3.5-4,11.51-4,11.51" transform="translate(4.09 -10.65)"/><path class="cls-7" d="M79.37,20.55s-.49,4.24-.49,6.44.2,4.48-1.26,6.11-.88,2.7-3.55,4.55-3.25,1.65-4.81,3.2-3.3,8-3.3,8" transform="translate(4.09 -10.65)"/><path class="cls-7" d="M43.32,33.1s7.51-1.43,9.25-1.26,5.42-1.29,8.14-1.29,5.15,0,6.9,1.28a14.6,14.6,0,0,0,3.21,2c1.46.68,4.47,1.16,6.7,2.91s2.82,2.14,4.18,7,1.36,5,1.26,7.77-6.9,7.87-6.9,7.87" transform="translate(4.09 -10.65)"/><path class="cls-7" d="M76.84,51.54s4.57-4.66,6.9-5.44,2-.1,3.3-1.12,3.89-8.79,3.89-8.79" transform="translate(4.09 -10.65)"/><path class="cls-7" d="M63.16,21.23s4.26,3,4.41,4.74S66.28,31.14,66,31.82s-1.17,1.36-3.5,1.75-4.08,3.49-4.08,3.49A50.31,50.31,0,0,0,60,31.56a15.68,15.68,0,0,1,1.53-3.92" transform="translate(4.09 -10.65)"/><path class="cls-7" d="M42.74,32.21s4.37-.88,6-2.14a45.87,45.87,0,0,0,3.69-3.3,7.94,7.94,0,0,1,3.79-1.27,23.16,23.16,0,0,1,3,0l3.25-3.59" transform="translate(4.09 -10.65)"/><path class="cls-7" d="M75.63,23.44s.44,2.81,0,3.55.19,2,.19,2" transform="translate(4.09 -10.65)"/><path class="cls-7" d="M70.82,33.86s2.72-2,4.18-1.65,1.74.23,2.62.89,3.3.56,4.66,2S83.55,38,84.52,39.4s2.91-1.85,2.91-1.85" transform="translate(4.09 -10.65)"/><path class="cls-7" d="M83,25a32,32,0,0,0,.55,5.05,1.53,1.53,0,0,1-.28,1.7,4.2,4.2,0,0,0-1.45,2.94c0,1.77.07,3-.41,3.52a3.16,3.16,0,0,1-1.71.53s-3.24.73-3.88,2.09-2,7.88-1.75,8" transform="translate(4.09 -10.65)"/><line class="cls-7" x1="81.9" y1="36.03" x2="88.61" y2="28.75"/><path class="cls-7" d="M85,39.73a13.8,13.8,0,0,1,.88,4.14c0,1.75-.78,4.08-.44,6.31s3.94,9.23,3.94,9.23" transform="translate(4.09 -10.65)"/><path class="cls-7" d="M87.83,43.87A29.4,29.4,0,0,1,89,49.57a25,25,0,0,0,1.36,5.76" transform="translate(4.09 -10.65)"/><path class="cls-7" d="M85.59,34.71s1.84-1.92,1.84-3.48a10.33,10.33,0,0,1,.4-2.81" transform="translate(4.09 -10.65)"/><path class="cls-7" d="M89,49.57a2.17,2.17,0,0,0-2.28.61,2.32,2.32,0,0,0-.56,2.26s.17,4.15-2.48,5.8A27.64,27.64,0,0,0,78.4,63" transform="translate(4.09 -10.65)"/><path class="cls-7" d="M51.39,36.19s5-3,6.6-3.09a5.5,5.5,0,0,1,4.08,1A36.64,36.64,0,0,0,66,36.21c.87.47,3-.6,4.86.85s1.16.59,2.38,1.17a9.69,9.69,0,0,1,2.62,2.62,14.44,14.44,0,0,1,3,2.19c1.19,1.21,0,10.25,0,10.25" transform="translate(4.09 -10.65)"/><line class="cls-7" x1="79.91" y1="18.73" x2="78.89" y2="20.92"/><line class="cls-7" x1="68.59" y1="16.21" x2="64.8" y2="10.58"/><path class="cls-7" d="M86.15,52.44A10.93,10.93,0,0,0,83,51.06c-1.67-.39-6.14,2.23-6.14,2.23" transform="translate(4.09 -10.65)"/><path class="cls-7" d="M79.85,53.29s3.26.55,3.82,3,1,1.52,1.92,3.17a50.09,50.09,0,0,1,2.24,5.34" transform="translate(4.09 -10.65)"/></g><path class="cls-8" d="M47.11,40c-1.84-4.83-1.26-10.76,1.75-14s5-2.72,9.62-2.33,6.41-.88,11-1.07S79.76,24.43,82.09,27s4.66,5.15,5.44,7,1.65,5.78,2.91,8.82-.09,8.08-2.13,12.16-2.14,5.44-5.15,9.23a12.31,12.31,0,0,1-15.74,2.92c-6.61-3.5-10.59-5.35-15.35-12.34A30.62,30.62,0,0,1,47.11,40Z" transform="translate(4.09 -10.65)"/><path class="cls-9" d="M54.61,53.87c3.08-6,5.65-13.86,2.27-17.87s-3.74-5.06-7.65-6.87a13.12,13.12,0,0,0-9.45-.78,9.66,9.66,0,0,1-5.85.26c-3-.52-5.18-1.81-10.23.52S18.51,31.2,17,34.57s-2.59,6-4.15,8.84-2.07,5-.77,8.91,1,5.07,3.49,8.56,3.37,3.95,5.45,6.5,4.65,2.77,7.5,3.57a13.73,13.73,0,0,0,11.3-1.34C44.56,67,52.26,58.45,54.61,53.87Z" transform="translate(4.09 -10.65)"/><g class="cls-10"><path class="cls-11" d="M41.58,30.05s-2.16,2-7,.31S27,30.18,24.33,31.44s-5.19,4.61-5.46,6.15,4.17,5.24,8.91,4.82,3.81-5.44,9-4.32,12.28-3.32,10-5.39S43.48,29.21,41.58,30.05Z" transform="translate(4.09 -10.65)"/><path class="cls-12" d="M10.48,32.69a70.94,70.94,0,0,0,13.22,15c8,6.59,32.63-1.42,32.63-1.42L54.61,68,35.79,86.71,9.9,73.79l-14-23.61Z" transform="translate(4.09 -10.65)"/><path class="cls-7" d="M14.27,61.84a27.87,27.87,0,0,1-.39-6.9c.39-2.52,1-1.88,1.75-4.49s.88-4.08,2.33-5,2.24-.38,4.57-1.54,1.65-2,3.4-3.22,1.94-1,3.21-2.13,2.52-2.82,4.27-3.3,2.31.1,4.46-.49,1.29-1.55,4-3.79,8.34-4,8.34-4" transform="translate(4.09 -10.65)"/><path class="cls-7" d="M21.27,72.35s-1.17-5.36,0-7.21a11.28,11.28,0,0,0,1.65-3.88c.39-1.36.78-2.87,1.46-5.13s0-2.21.87-5.1,1.36-4.47,3.3-6.5,4.08-3.3,6-5.33,3.47-1.16,4.79-2.43-.11-4.08.41-6.8a44.51,44.51,0,0,1,1.68-5.83" transform="translate(4.09 -10.65)"/><path class="cls-7" d="M30.93,36.77s1.9-.68,3.06,0a7.92,7.92,0,0,0,2.8,1.32c1.19.24,3-.26,5.2,1.11s2.49.84,4.39,1.92,4.71,2.42,7,2.29a28.73,28.73,0,0,0,6.42-1.72" transform="translate(4.09 -10.65)"/><path class="cls-7" d="M27.78,25.41A49,49,0,0,1,25,30.55c-1.36,2-1.26,1.17-1.85,4.09a67.92,67.92,0,0,0-.58,9.23" transform="translate(4.09 -10.65)"/><path class="cls-7" d="M26.44,37.55s-5.17,1.17-7.12,2.77-1.55,2.38-3,3.55a25.06,25.06,0,0,1-3.11,2.38c-2.62,1.7-3.11,8.3-3.11,8.3" transform="translate(4.09 -10.65)"/><path class="cls-7" d="M13.77,35.61s2.64,1.65,3.71,2.48a12,12,0,0,1,3.27,4.16c1,2,4,2.69,4.63,3.46s2.11,4,3.37,6,4.08,3.77,4.66,5.67,1.48,4.19,1.48,4.19" transform="translate(4.09 -10.65)"/><path class="cls-7" d="M18.61,39.13a11.74,11.74,0,0,1,1.69-5c1.36-1.75,1.79-2.12,2.23-3.4S25.74,27,25.74,27" transform="translate(4.09 -10.65)"/><path class="cls-7" d="M24.33,31.44a9.16,9.16,0,0,0,3.45.38c1.16-.29.87-1.95,2.72-1.95s2.52.49,4.08.49,1.84-4.95,1.84-4.95" transform="translate(4.09 -10.65)"/><line class="cls-7" x1="31.87" y1="21.17" x2="31.87" y2="24.47"/><path class="cls-7" d="M35.23,30a8.13,8.13,0,0,0,1.85,1.14c.8.29,2.88-2,2.88-2" transform="translate(4.09 -10.65)"/><path class="cls-7" d="M28.94,26a13.8,13.8,0,0,0,.79,2.66,1.49,1.49,0,0,1,0,1.35,6.8,6.8,0,0,1,2.34,1.89,22.46,22.46,0,0,1,1,2.22" transform="translate(4.09 -10.65)"/><path class="cls-7" d="M37.08,31.14s-1.28.4-1.31,1.41,0,2.46,0,2.46a5.59,5.59,0,0,0-2.67-.9c-1.65-.13-2,.23-5.34,1s-4.74,0-4.74,0-.06.79-1.48.5S20.3,34.15,18.61,33s-3.85,0-3.85,0" transform="translate(4.09 -10.65)"/><path class="cls-7" d="M40,33a6.78,6.78,0,0,1,4.42,0c2.73.82,2.95,1.83,4.74,2.63s2.8.64,4.4,2.07,2.81,8.51,2.81,8.51" transform="translate(4.09 -10.65)"/><path class="cls-7" d="M26.69,35.33a3.66,3.66,0,0,0,0,2.76,13.34,13.34,0,0,1,1.09,4.32,4.88,4.88,0,0,0,3.15,4.43,6.46,6.46,0,0,1,4,3.61,53.92,53.92,0,0,0,3.79,5.68" transform="translate(4.09 -10.65)"/><path class="cls-7" d="M39.78,36.13s2.46-1.36,4.31-.46,1.5,1.3,3,2.42,5,7,5,7" transform="translate(4.09 -10.65)"/><path class="cls-7" d="M46.13,26a31,31,0,0,1,1,5.17c0,1.53-2.73,1.88-2.73,1.88a4.59,4.59,0,0,1-1.24,2.08c-.87.68-2.94,3.3-3.18,3.25s-2,3-3.17,3.88-1.63.45-3.09,0a5.84,5.84,0,0,1-3.32-2.79,3.75,3.75,0,0,1-.45-1.72" transform="translate(4.09 -10.65)"/><path class="cls-7" d="M47.11,31.16s2,1.17,3.41,1.88,4-3,4-3" transform="translate(4.09 -10.65)"/><path class="cls-7" d="M50.52,33l-1.4,2.63s-2.42.13-3.43,1.1a9.16,9.16,0,0,0-2,3.27c-.22.72-1.38,4.34-1.38,4.34s-.92,5.74-2.7,4.17-2.77-6.3-2.77-6.3" transform="translate(4.09 -10.65)"/><path class="cls-7" d="M35.23,42.78a5.11,5.11,0,0,1-1.33,2.95c-1.17,1.05-3,1-3.52,2.52s0,3.12-1.1,4.23-1.11.62-1.5,2.46-3.13,0-3.13,0" transform="translate(4.09 -10.65)"/><path class="cls-7" d="M13.77,38.33a7.73,7.73,0,0,1,2.35,2.6c.58,1.38-.1,2.55,1.46,2.94s1.74,1.16,2.23,2.38a8.85,8.85,0,0,0,1.94,2.62c.78.92,0,.92.78,3.45s.44,7,2.62,8c2.53,1.17,2.43,1.46,4.28,3.21s6.22,2.33,6.22,2.33" transform="translate(4.09 -10.65)"/><path class="cls-7" d="M8,48.6s3.3-.46,5.15.22,3.1,1.75,4.47,1.94,1.45-1,4.17-1.89a35.79,35.79,0,0,1,4.69-1.27" transform="translate(4.09 -10.65)"/><path class="cls-7" d="M13.77,64c-.28,0,.6-5.06,2-6.42s1.87-.2,2.54-1.8,1-2.28,2.48-2.28a1.71,1.71,0,0,0,1.78-1.16" transform="translate(4.09 -10.65)"/><path class="cls-7" d="M15.63,50.45a4.75,4.75,0,0,1,2,3c.6,2.28.39,3,1.36,4.67s4.68.27,4.68.27" transform="translate(4.09 -10.65)"/><path class="cls-7" d="M19.14,67.47c-.09-.29-1-4.76-.53-5.87s1.06-2.89,1.06-2.89.56,2.26,1.08,3.62,1.42,1.19,1.42,1.19,1.6,2,2.48,2.89,1.77.19,3.13,1.06,3.11,1.92,3.79,3A24.74,24.74,0,0,0,35.23,74" transform="translate(4.09 -10.65)"/><polyline class="cls-7" points="15.39 43.23 18.2 43.23 19.82 46.92 22.57 53.92"/><path class="cls-7" d="M22.17,63.52S25,64,25.74,64s2.51-1.65,2.51-1.65A11.82,11.82,0,0,1,31,58.15a17.87,17.87,0,0,1,4.62-2.82" transform="translate(4.09 -10.65)"/><path class="cls-7" d="M27.78,54.94a13.65,13.65,0,0,1,1.13,3.21,18.59,18.59,0,0,1-.66,4.18" transform="translate(4.09 -10.65)"/><path class="cls-7" d="M33.12,62.33s-4.2,1.06-4.77,3.1-5.43,6.92-5.43,6.92" transform="translate(4.09 -10.65)"/><path class="cls-7" d="M29.93,75.93s.48-6.41,1.64-8.59,5.51-4.43,5.51-4.43" transform="translate(4.09 -10.65)"/></g><path class="cls-8" d="M54.61,53.87c3.08-6,5.65-13.86,2.27-17.87s-3.74-5.06-7.65-6.87a13.12,13.12,0,0,0-9.45-.78,9.66,9.66,0,0,1-5.85.26c-3-.52-5.18-1.81-10.23.52S18.51,31.2,17,34.57s-2.59,6-4.15,8.84-2.07,5-.77,8.91,1,5.07,3.49,8.56,3.37,3.95,5.45,6.5,4.65,2.77,7.5,3.57a13.73,13.73,0,0,0,11.3-1.34C44.56,67,52.26,58.45,54.61,53.87Z" transform="translate(4.09 -10.65)"/><ellipse class="cls-13" cx="63.37" cy="51.88" rx="38.78" ry="31.51"/><path class="cls-9" d="M35.65,72.4s4.93,3.75,7.39,5.31,3.24,1.29,6.35,1.55,3.49,1.95,7.12,1.69,4.15.39,7.26.77,4.53.65,7.77-.9S80.22,75.25,82.81,71s1.68-13.6,0-18.39-2.2-7.26-6.48-8.55-7.25-3.76-13.6-5.57S52.37,42.08,44.33,42,34,47.9,34,47.9C31.51,54.84,31,66.6,35.65,72.4Z" transform="translate(4.09 -10.65)"/><g class="cls-14"><path class="cls-15" d="M75.38,46.92a100.82,100.82,0,0,1,2.86,9.8c.34,1.26,1.32,4.92,3.27,3.87,2.15-1.16.35-6.64-.16-8.17-.86-2.56-2.16-5.73-5-6.43-.5-.12-1.14.36-.92.93Z" transform="translate(4.09 -10.65)"/><polyline class="cls-7" points="41.95 31.76 44.38 32.93 45.06 35.94"/><path class="cls-7" d="M40.58,41.13A28.56,28.56,0,0,1,45.44,44c.87.68.58,3.89.58,3.89" transform="translate(4.09 -10.65)"/><path class="cls-7" d="M45.79,44.5a11.55,11.55,0,0,1,3.05,0c.68.25,4.37,3.84,4.37,3.84" transform="translate(4.09 -10.65)"/><path class="cls-7" d="M48.84,44.49a2.26,2.26,0,0,0,2.24-.92,9.3,9.3,0,0,0,1.65-2.44S55.45,40.46,57,40s2.53-3.21,2.53-3.21" transform="translate(4.09 -10.65)"/><path class="cls-7" d="M57,40s2.14-.11,2.53.67,4.27,2.76,4.27,2.76" transform="translate(4.09 -10.65)"/><path class="cls-7" d="M71.58,47.36a7.11,7.11,0,0,1,3.49-1.65c2-.29,3.21-2.82,3.21-2.82" transform="translate(4.09 -10.65)"/><path class="cls-7" d="M68.85,44.53s2.06-.25,2.73-1.12A11.08,11.08,0,0,0,72.64,40" transform="translate(4.09 -10.65)"/><path class="cls-7" d="M63.8,36.77s.11,3.38.78,3.88,1.55,3.22,1.55,3.22" transform="translate(4.09 -10.65)"/><path class="cls-7" d="M76,45.41a8.13,8.13,0,0,1,1.23,2.44,3.66,3.66,0,0,1,0,1.94l-3.7,2.53" transform="translate(4.09 -10.65)"/><path class="cls-7" d="M77.22,49.79a1.77,1.77,0,0,1,1.93,0c.88.68,4.47,1.07,4.47,1.07" transform="translate(4.09 -10.65)"/><path class="cls-7" d="M59.53,40.65a4.22,4.22,0,0,1,2-1.45c1.47-.55,4.56-1.46,4.56-1.46" transform="translate(4.09 -10.65)"/><path class="cls-7" d="M74,55.43a8.15,8.15,0,0,1,3.22-1.56c1.35-.09,1.84,1,2.13,0A37.41,37.41,0,0,0,80,50.18" transform="translate(4.09 -10.65)"/><path class="cls-7" d="M79.35,53.87a13.24,13.24,0,0,1,1.46,1.56c.77,1,3.88,0,3.88,0" transform="translate(4.09 -10.65)"/><path class="cls-7" d="M74.39,61.84s4.28-2,5-2.43,2.14-3.62,2.14-3.62" transform="translate(4.09 -10.65)"/><path class="cls-7" d="M74.93,55.86s2.57,0,3.35.93,1.47,3.69,2.14,4.47,5.92,0,5.92,0" transform="translate(4.09 -10.65)"/><path class="cls-7" d="M72.64,65.34s3-1.07,4.36-.49,1.76.72,2.35-.17a14.39,14.39,0,0,0,1.07-3.42" transform="translate(4.09 -10.65)"/><path class="cls-7" d="M79.35,64.68s1.37,1.34,2.14,2.21,4.37,0,4.37,0" transform="translate(4.09 -10.65)"/><path class="cls-7" d="M72.16,66.89s2.72-.19,3.88,1.26.69,2.63,1.9,1.75S80.64,66,80.64,66" transform="translate(4.09 -10.65)"/><path class="cls-7" d="M47.09,40a14.86,14.86,0,0,0,3.21,2.3c1.37.59,2.43-1.14,2.43-1.14a15.23,15.23,0,0,0,2.72,2.15c.77.29,6.9,0,6.9,0" transform="translate(4.09 -10.65)"/><path class="cls-7" d="M78.9,68.89A20.85,20.85,0,0,1,80,71c.43,1,4.7,2,4.7,2" transform="translate(4.09 -10.65)"/><path class="cls-7" d="M76.4,68.66s-1.29,3.48-1,4.35,6.37,2.53,6.37,2.53" transform="translate(4.09 -10.65)"/><path class="cls-7" d="M75.38,72.1s-2,.18-3.8.43S67.49,71,67.49,71" transform="translate(4.09 -10.65)"/><path class="cls-7" d="M71.58,72.53a23.08,23.08,0,0,0,0,3.79c.19,1,2.33.48,3.35,0A7,7,0,0,0,77,74" transform="translate(4.09 -10.65)"/><line class="cls-7" x1="78.34" y1="65.93" x2="79.94" y2="69.65"/><path class="cls-7" d="M71.49,75.54s-3.32,1-4,1.34-3.69-1.34-3.69-1.34" transform="translate(4.09 -10.65)"/><path class="cls-7" d="M71.58,76.32a9,9,0,0,1-.83,2.91c-.63,1.07.83,4.37.83,4.37" transform="translate(4.09 -10.65)"/><path class="cls-7" d="M67.49,76.88A27.6,27.6,0,0,1,66.13,80c-.58,1-2.42,0-3.3-.34s-2-4.08-2-4.08" transform="translate(4.09 -10.65)"/><line class="cls-7" x1="70.23" y1="69.31" x2="74.01" y2="72.28"/><path class="cls-7" d="M62.83,79.62s-3,1.79-4,2.4-1.84-1.23-2.52-2.4,0-4.92,0-4.92" transform="translate(4.09 -10.65)"/><path class="cls-7" d="M50,74.7s1.16,5,1.65,5.26,1.16-1,2.52-2,3.31-2.43,3.31-2.43" transform="translate(4.09 -10.65)"/><path class="cls-7" d="M45.79,73.4a34.55,34.55,0,0,1-2.46,3.52A35.66,35.66,0,0,1,39.42,80" transform="translate(4.09 -10.65)"/><path class="cls-7" d="M43.33,80.88s3.28-1.71,4.54-2.46a8.4,8.4,0,0,0,2.34-2.88" transform="translate(4.09 -10.65)"/></g><path class="cls-8" d="M35.61,72.4s4.93,3.75,7.39,5.31,3.24,1.29,6.35,1.55,3.49,1.95,7.12,1.69,4.15.39,7.26.77,4.53.65,7.77-.9S80.18,75.25,82.77,71s1.68-13.6,0-18.39-2.2-7.26-6.48-8.55S69,40.27,62.69,38.46,52.33,42.08,44.29,42,33.92,47.9,33.92,47.9C31.47,54.84,30.93,66.6,35.61,72.4Z" transform="translate(4.09 -10.65)"/><path class="cls-16" d="M31.21,55.17c1.07-4.89,2.59-8.42,5.44-9.59s4.79-.65,8.42,0,3.19,2.33,6.32,1.69,6.12-3.63,9.87-4.8,4.93-2.33,8,0,4.92,5.7,6.08,9.46,3.37,6.22,1.3,11.27S70.33,72.92,67,75.64s-4.52,3-7,2.86-3.82-3-5.61-3.12-4.17,1.49-8.52,0c-4.54-1.56-7.9-1.56-10.24-3s-4.14-6.48-4.4-9.85S30.74,57.29,31.21,55.17Z" transform="translate(4.09 -10.65)"/><path class="cls-7" d="M31.21,55.17c1.07-4.89,2.59-8.42,5.44-9.59s4.79-.65,8.42,0,3.19,2.33,6.32,1.69,6.12-3.63,9.87-4.8,4.93-2.33,8,0,4.92,5.7,6.08,9.46,3.37,6.22,1.3,11.27S70.33,72.92,67,75.64s-4.52,3-7,2.86-3.82-3-5.61-3.12-4.17,1.49-8.52,0c-4.54-1.56-7.9-1.56-10.24-3s-4.14-6.48-4.4-9.85S30.74,57.29,31.21,55.17Z" transform="translate(4.09 -10.65)"/><path class="cls-17" d="M37.63,49.7h0l0-.07s0,.19,0,.1,0,.1,0,.14-.06.19-.1.29-.14.41-.22.61l-.25.55a3.13,3.13,0,0,0-.15.32.74.74,0,0,0-.06.36.27.27,0,0,0,.41.24.62.62,0,0,0,.17-.11,1.33,1.33,0,0,0,.14-.19c.07-.12.11-.26.17-.38a5.73,5.73,0,0,0,.23-.7,4.15,4.15,0,0,0,.15-.7c0-.22.12-.62-.18-.69a.2.2,0,0,0-.24.09c0,.05,0,.08,0,.13s0,0,.06,0Z" transform="translate(4.09 -10.65)"/><path class="cls-17" d="M44,51a1.94,1.94,0,0,1-.14.3.78.78,0,0,1-.2.24,5.7,5.7,0,0,0-.52.46,3.45,3.45,0,0,0-.56,1.27,1.24,1.24,0,0,1-.28.5,5.74,5.74,0,0,1-.45.41c-.33.29-.71.72-.54,1.19a.28.28,0,0,0,.41.16,3.27,3.27,0,0,0,.9-.88,3.18,3.18,0,0,0,.68-1.25c.06-.23.1-.46.18-.68a1.45,1.45,0,0,1,.37-.55,1.65,1.65,0,0,0,.39-.58.62.62,0,0,0,.06-.3c0-.2-.12-.19-.24-.32S44,51,44,51Z" transform="translate(4.09 -10.65)"/><path class="cls-17" d="M43,52.66a1.92,1.92,0,0,0-.13.86,5.49,5.49,0,0,0,0,.81,4,4,0,0,0,.14.84,2.08,2.08,0,0,0,.15.39c.08.12.16.24.25.35s.22,0,.23-.09,0-.25,0-.38a1.9,1.9,0,0,0,0-.41c0-.26-.08-.52-.12-.78a6,6,0,0,1-.07-.73,3.13,3.13,0,0,0-.07-.81.21.21,0,0,0-.38-.05Z" transform="translate(4.09 -10.65)"/><path class="cls-17" d="M49.67,50.53s0,0,0,0v.07c0,.09,0,0,0,.12a2.25,2.25,0,0,0-.15.46c-.1.29-.21.59-.32.87s-.26.57-.36.86a7.49,7.49,0,0,0-.24.9.16.16,0,0,0,.27.16,3.16,3.16,0,0,0,.42-.4,2.36,2.36,0,0,0,.35-.57A6.8,6.8,0,0,0,50,51.82c0-.21.07-.41.09-.62a1.1,1.1,0,0,0,0-.54c-.05-.13-.11-.26-.26-.28a.19.19,0,0,0-.21.08,0,0,0,0,0,.05.07Z" transform="translate(4.09 -10.65)"/><path class="cls-17" d="M52.17,52.08a.2.2,0,0,1-.12-.08v0l.06,0c.27-.19,0-.58-.27-.36a1.16,1.16,0,0,0-.24.73,5.1,5.1,0,0,0,0,.68,3,3,0,0,0,.11.73,1.24,1.24,0,0,0,.17.37,2.46,2.46,0,0,0,.25.22.14.14,0,0,0,.23-.06c0-.1.07-.18.09-.27a.87.87,0,0,0,0-.36c0-.26-.05-.47-.08-.71,0,0,0-.19,0-.27s0-.22,0-.33a1.31,1.31,0,0,0-.11-.68l-.25.33c.08,0,.14.1.23.11a0,0,0,0,0,0-.06Z" transform="translate(4.09 -10.65)"/><path class="cls-17" d="M53.68,52.4a.8.8,0,0,0-.13.19l-.1.17a.76.76,0,0,0-.09.18l-.06.12a.28.28,0,0,0,0,.13.13.13,0,0,0,.19.11.48.48,0,0,0,.11-.09l.06-.09.09-.19.08-.19.05-.09a.25.25,0,0,0,0-.07.22.22,0,0,0,0-.08.14.14,0,0,0-.08-.13.14.14,0,0,0-.15,0Z" transform="translate(4.09 -10.65)"/><path class="cls-17" d="M47.33,55.31s.05,0,0,0l0-.11a2.13,2.13,0,0,0-.42.48c-.13.17-.26.33-.37.5l-.33.52a1.59,1.59,0,0,0-.16.32,1,1,0,0,0-.06.3c0,.13.12.18.23.13a1.1,1.1,0,0,0,.25-.19,1.51,1.51,0,0,0,.22-.28l.35-.53c.11-.18.21-.37.31-.55a1,1,0,0,0,.21-.59.17.17,0,0,0-.11-.12c-.08,0-.16,0-.19.08a.07.07,0,0,0,.08.1.05.05,0,1,0,0-.1Z" transform="translate(4.09 -10.65)"/><path class="cls-17" d="M49.86,56.29a.65.65,0,0,1-.09-.16.25.25,0,0,0-.37-.21c-.25.1-.23.55-.23.78a3.29,3.29,0,0,0,.09.76,2.91,2.91,0,0,0,.27.69.72.72,0,0,0,.29.31,2.08,2.08,0,0,0,.32.12.08.08,0,0,0,.11-.08,2.11,2.11,0,0,1,0-.25.92.92,0,0,0-.11-.4,3,3,0,0,1-.23-.57,2.43,2.43,0,0,1-.1-.58c0-.12,0-.23,0-.34a.47.47,0,0,0-.1-.4l-.05.39a.37.37,0,0,1,.18,0s0,0,0,0Z" transform="translate(4.09 -10.65)"/><path class="cls-17" d="M58.23,47.9s-.06-.09-.08-.14a.36.36,0,0,0,0,.11h0c0-.06,0,.08,0,.09a.5.5,0,0,0,0,.12l.09.39a2.26,2.26,0,0,0,.11.37c.06.19.11.45.34.49l-.19-.15a2.15,2.15,0,0,0,.18.24.23.23,0,0,0,.39-.1c0-.1,0-.2,0-.3l-.09.22c.19-.16.08-.45,0-.66a3.19,3.19,0,0,0-.13-.44,2.74,2.74,0,0,0-.17-.48.45.45,0,0,0-.5-.25.27.27,0,0,0-.06.49Z" transform="translate(4.09 -10.65)"/><path class="cls-17" d="M63.8,45.62a.39.39,0,0,0-.21.23,1.11,1.11,0,0,0,0,.17s0,.06,0,.08,0-.1,0,0a.14.14,0,0,0,0,.06.87.87,0,0,0,0,.39,1.21,1.21,0,0,0,.11.32,1.8,1.8,0,0,0,.34.52,1.71,1.71,0,0,0,.26.21.79.79,0,0,0,.31.17h.06l.06,0,.12,0a.68.68,0,0,0,.4,0c.08,0,.17-.09.14-.19s-.15-.18-.21-.22L65,47.21s0-.07,0,0a.23.23,0,0,0-.07-.07l-.08-.05,0,0a1.07,1.07,0,0,1-.19-.18l-.08-.09,0-.06,0,0s0,0,0,0a1.78,1.78,0,0,1-.17-.27l0,0s0-.12,0,0a.88.88,0,0,1,0-.15A1.46,1.46,0,0,0,64.1,46l0-.06c0,.08,0,.09,0,0s0,0,0-.07v0s0,0,0,0a.27.27,0,0,0-.06-.12s0,0,0,0l-.06-.07a.11.11,0,0,0-.13,0Z" transform="translate(4.09 -10.65)"/><path class="cls-17" d="M68.39,45.62h0l.06,0a.21.21,0,0,0-.17.13l.09-.09a.29.29,0,0,0-.15.21s0,.14,0,0l-.06.16a.3.3,0,0,1,0,.1l.1-.16a.59.59,0,0,0-.14.27.56.56,0,0,1,0,.12l-.08.26a.4.4,0,0,0,0,.28.39.39,0,0,0,.17.14.37.37,0,0,0,.23,0,.38.38,0,0,0,.21-.16.87.87,0,0,0,.17-.33.67.67,0,0,0,0-.44v.1a.72.72,0,0,0-.06-.36c0,.06,0,0,0,0v-.06a.32.32,0,0,0-.23-.23l.15.11,0,0a.22.22,0,0,0-.2-.11h0l.07,0h0a.14.14,0,0,0-.15,0Z" transform="translate(4.09 -10.65)"/><path class="cls-17" d="M62.78,48.9a1.15,1.15,0,0,0-.11.45c0,.17,0,.34-.05.51,0,.35-.06.7-.1,1s-.12.66-.2,1l-.13.49a.82.82,0,0,0-.06.53.34.34,0,0,0,.32.24c.46.05.55-.62.62-.94a8.9,8.9,0,0,0,.19-1.15,6.07,6.07,0,0,0,.05-1.13A1.85,1.85,0,0,0,63,48.87a.16.16,0,0,0-.25,0Z" transform="translate(4.09 -10.65)"/><path class="cls-17" d="M63.3,51.05a.9.9,0,0,0,.18-.15l.14-.15.27-.33a3.37,3.37,0,0,0,.3-.36l.06-.09c0-.07,0,0,0,0a.08.08,0,0,0,0,0,.3.3,0,0,0,.09-.25v.08l0,0a.13.13,0,0,0-.14-.19l-.08,0h.08a.3.3,0,0,0-.24.08l0,0s0,0,0,0l-.07,0-.08.06a1.07,1.07,0,0,0-.16.14,1.15,1.15,0,0,0-.14.17,2,2,0,0,0-.5.78.2.2,0,0,0,.29.22Z" transform="translate(4.09 -10.65)"/><path class="cls-17" d="M69,51.47a.66.66,0,0,1,0,.15.36.36,0,0,0,0,.14l0,0,0,.05c.06.14.1.29.16.43l.18.36a.64.64,0,0,0,.1.18.91.91,0,0,0,.2.24.33.33,0,0,0,.47-.19.81.81,0,0,0,0-.22l0-.1c0-.09-.06-.18-.1-.27s-.13-.25-.2-.36-.2-.24-.29-.36a.74.74,0,0,0-.19-.16l-.09,0,0,0,0,0c-.12-.09-.25.05-.23.17Z" transform="translate(4.09 -10.65)"/><path class="cls-17" d="M71.3,48.5a2.13,2.13,0,0,0,.4,1.42c.12.2.27.37.39.58a.39.39,0,0,1,0,.09s0,0,0,0v.07a1.55,1.55,0,0,0,0,.21.42.42,0,0,0,0,.1l0,0s0,0,0,0l0-.11v0a.18.18,0,0,0,.22.22l.08,0s0,0,0,0h.06a.37.37,0,0,0,.22-.17.62.62,0,0,0,.07-.48,1.66,1.66,0,0,0-.42-.74c-.15-.19-.29-.42-.43-.62a6.2,6.2,0,0,0-.44-.69c-.07-.08-.25,0-.26.07Z" transform="translate(4.09 -10.65)"/><path class="cls-17" d="M71.26,49.88a1.68,1.68,0,0,1,.17.63c0,.27,0,.53,0,.8a2.31,2.31,0,0,0,.29.92c.15.25.36.63.68.65a.12.12,0,0,0,.11-.08.58.58,0,0,0-.12-.45c-.09-.15-.18-.29-.26-.45a1.93,1.93,0,0,1-.23-.85c0-.41,0-1.28-.58-1.28a.07.07,0,0,0-.06.11Z" transform="translate(4.09 -10.65)"/><path class="cls-17" d="M60.3,52.22c0,.14,0,.29,0,.43s0,.29,0,.44a2.83,2.83,0,0,0,.15.86,1.08,1.08,0,0,0,.62.7.5.5,0,0,0,.21,0l.06,0h0a.31.31,0,0,0,.16-.11.17.17,0,0,0,0-.18c0-.07,0,.1,0,0a.88.88,0,0,0,0-.15l0,.16a.53.53,0,0,0-.12-.29L61.4,54l0-.05s0,.05,0,0l-.08-.11-.06-.12,0-.06s0,0,0,0a1.38,1.38,0,0,1-.08-.27l0-.17v-.07c0,.05,0,0,0,0L61,52.7a1.06,1.06,0,0,0-.36-.63c-.12-.1-.37,0-.35.15Z" transform="translate(4.09 -10.65)"/><path class="cls-17" d="M59.36,53.85v.26s0-.09,0,0a.78.78,0,0,0,0,.14s0,.07,0,0h0a.83.83,0,0,1,0,.15s0,.09,0,0,0,0,0,0a.41.41,0,0,0,0,.09s0,.05,0,.07,0,.05,0,0v0a.76.76,0,0,0-.09.18.22.22,0,0,0,0,.08s0-.05,0,0a.14.14,0,0,0,0,.06.16.16,0,0,0,.15.21h.11s.06,0,0,0h.09a.62.62,0,0,0,.22-.15.78.78,0,0,0,.24-.38.94.94,0,0,0-.07-.82.28.28,0,0,0-.29-.12.27.27,0,0,0-.18.24Z" transform="translate(4.09 -10.65)"/><path class="cls-17" d="M59.69,56.85a.69.69,0,0,1,0,.13.58.58,0,0,0,0,.18,1.94,1.94,0,0,0,0,.24,3.75,3.75,0,0,0,.13.58c.1.33.22.79.56,1a.16.16,0,0,0,.23-.09c0-.05,0-.09,0-.14a.9.9,0,0,0,0-.16,2.1,2.1,0,0,0-.06-.24,4.68,4.68,0,0,1-.18-.48l-.15-.5-.08-.26a.64.64,0,0,0-.08-.14.48.48,0,0,1-.09-.11.11.11,0,0,0-.2,0Z" transform="translate(4.09 -10.65)"/><path class="cls-17" d="M56.89,56.48c0,.06,0,.07-.06.11a.29.29,0,0,0-.11.11.57.57,0,0,0-.08.28,3.38,3.38,0,0,0,0,.45l0,.43a1.17,1.17,0,0,0,.11.49.24.24,0,0,0,.37,0,.87.87,0,0,0,.22-.52,3.39,3.39,0,0,0,0-.45,2.74,2.74,0,0,0,0-.5s0-.07,0-.1a.32.32,0,0,0-.08-.14h0s-.07-.09-.12-.11-.1,0-.13-.11a0,0,0,0,0-.06,0Z" transform="translate(4.09 -10.65)"/><path class="cls-17" d="M55.62,58.13a1.57,1.57,0,0,1-.19.55,3.62,3.62,0,0,1-.38.58l-.4.57c-.07.09-.13.19-.19.28s-.16.2-.12.33l0-.12a.56.56,0,0,0-.12.26.07.07,0,0,0,.07.08.52.52,0,0,0,.26-.12h-.12c.16,0,.26-.07.37-.16a3.57,3.57,0,0,0,.28-.27,5.74,5.74,0,0,0,.51-.68c.21-.34.62-1.09.09-1.36a.06.06,0,0,0-.08.05Z" transform="translate(4.09 -10.65)"/><path class="cls-17" d="M56.16,60.13a1,1,0,0,0-.13.23l-.09.24c-.06.15-.1.3-.15.45a4.05,4.05,0,0,0-.12.47,2.48,2.48,0,0,0,0,.27,1,1,0,0,0,0,.24.12.12,0,0,0,.19,0,.9.9,0,0,0,.15-.19c0-.08.07-.17.11-.25a7.29,7.29,0,0,0,.23-.93,2.21,2.21,0,0,0,0-.25,1.13,1.13,0,0,0,0-.26.13.13,0,0,0-.24-.07Z" transform="translate(4.09 -10.65)"/><path class="cls-17" d="M52.13,59.86c-.2,0-.31.17-.39.32a3.35,3.35,0,0,0-.21.36l-.19.35s-.06.13,0,.14.05-.12,0-.05l0,.08-.12.18a.21.21,0,0,0,.28.28l.2-.16.08-.07c.05,0,0,0,0,0a.29.29,0,0,0,.12-.07,2.3,2.3,0,0,0,.32-.38,1.57,1.57,0,0,0,.22-.45.75.75,0,0,0,0-.26.28.28,0,0,0-.24-.28Z" transform="translate(4.09 -10.65)"/><path class="cls-17" d="M36.84,54.69l-.07.06.26-.11h0a.41.41,0,0,0-.36.21l-.1.15-.06.08c.08-.12,0,0,0,0l-.23.27-.24.24c-.09.09-.2.16-.28.25a.45.45,0,0,0-.07.54h0V56a.77.77,0,0,0-.1.29.51.51,0,0,0,.06.22.44.44,0,0,0,.2.13.69.69,0,0,0,.32,0l-.41-.11h0a.44.44,0,0,0,.54.07,2,2,0,0,0,.36-.29A3.45,3.45,0,0,0,36.9,56a4.08,4.08,0,0,0,.47-.7.5.5,0,0,0,.05-.27.51.51,0,0,0-.12-.23h0l.1.36s0-.06,0-.09a.33.33,0,0,0-.56-.33Z" transform="translate(4.09 -10.65)"/><path class="cls-17" d="M39.48,57.8a.11.11,0,0,0-.08,0l-.13.05-.11.09,0,0a.9.9,0,0,0-.22.36s0,0,0,0a.9.9,0,0,0,0,.16.76.76,0,0,0,0,.21A.62.62,0,0,0,39,59a1,1,0,0,0,.12.17.48.48,0,0,0,.23.13.42.42,0,0,0,.27,0,.56.56,0,0,0,.24-.13l-.21.12.12,0,.09-.07a.31.31,0,0,0,.1-.15.2.2,0,0,0,0-.11.37.37,0,0,0,0-.18v0l0,.36s0-.09.06-.13a.57.57,0,0,0-.14-.51h0l.08.1a.16.16,0,0,1,0-.07l0,.13a.24.24,0,0,1,0-.08l0,.14v-.07l0,.13a.14.14,0,0,1,0-.06l0,.12a.41.41,0,0,1,0-.09l-.07.1,0-.06a1.67,1.67,0,0,0,.12-.16l-.07.1,0,0,.07-.1a.27.27,0,0,0,.06-.17.24.24,0,0,0,0-.12A.28.28,0,0,0,40,58a.55.55,0,0,0-.17-.17.34.34,0,0,0-.17-.05.31.31,0,0,0-.19,0Z" transform="translate(4.09 -10.65)"/><path class="cls-17" d="M46.72,61a2.44,2.44,0,0,1-.09.47,2.1,2.1,0,0,0,0,.5c0,.36.19.7.26,1.06A5.53,5.53,0,0,1,46.74,65a.17.17,0,0,0,.28.17A2.16,2.16,0,0,0,47.65,63c-.06-.37-.26-.71-.32-1.08,0-.18,0-.35,0-.53a.8.8,0,0,0-.23-.53.23.23,0,0,0-.39.16Z" transform="translate(4.09 -10.65)"/><path class="cls-17" d="M48.28,61.87a.43.43,0,0,0,0,.11s0,0,0,0,0,0,0,0l.07-.26c-.2.25-.38.51-.56.77s-.17.25-.24.37a.56.56,0,0,0-.1.24.4.4,0,0,0,0,.15c0,.07,0,.09,0,.06v.05c0,.14.14.2.26.15l.11-.05.09-.07a.94.94,0,0,0,.24-.28,5.11,5.11,0,0,0,.28-.46,4.83,4.83,0,0,0,.26-.45c.06-.11.15-.23.11-.36a.32.32,0,0,0-.29-.24.25.25,0,0,0-.24.25Z" transform="translate(4.09 -10.65)"/><path class="cls-17" d="M48.89,64.59a.37.37,0,0,0-.07.14s0,.09,0,.13a2.09,2.09,0,0,0,0,.25c0,.15,0,.3,0,.44s0,.33.08.49.2.4.41.4.31-.34.27-.52-.07-.28-.1-.42,0-.09,0-.13,0-.1,0,0,0-.14,0-.22a1.48,1.48,0,0,1,0-.21.9.9,0,0,0-.09-.32.27.27,0,0,0-.46,0Z" transform="translate(4.09 -10.65)"/><path class="cls-17" d="M52.74,65s0,0,0,0a.12.12,0,0,0,0,.08s0,0,0,.08a2.21,2.21,0,0,0-.05.25,2.3,2.3,0,0,1,0,.37.28.28,0,0,1,0,.09c0-.08,0,0,0,0a2,2,0,0,0,0,.24s0,.07,0,.1a.31.31,0,0,0,0,.1h0a.34.34,0,0,0,.1.3l-.07-.16s0,.1,0,.16a.19.19,0,0,0,.3.07.46.46,0,0,0,.07-.07l-.1.06a.31.31,0,0,0,.23-.21h0a.24.24,0,0,0,.06-.09.78.78,0,0,0,.05-.14,1.84,1.84,0,0,0,.07-.47c0-.3,0-.7-.23-.9l.09.08,0,0a.2.2,0,0,0-.36,0Z" transform="translate(4.09 -10.65)"/><path class="cls-17" d="M58.27,61.8c-.29,0-.35.32-.42.55a7.55,7.55,0,0,0-.19.79,5.9,5.9,0,0,0-.11.83,2.09,2.09,0,0,0,0,.43c0,.11,0,.25.1.34a.12.12,0,0,0,.17,0c.09-.08.1-.23.14-.34a2,2,0,0,0,.1-.4c0-.27.08-.54.13-.81s.1-.53.16-.8a.8.8,0,0,0,0-.43c0-.05-.09-.16-.16-.16Z" transform="translate(4.09 -10.65)"/><path class="cls-17" d="M58.33,64.56a1.57,1.57,0,0,0-.16.49,1.41,1.41,0,0,0,.06.61,1.14,1.14,0,0,0,.7.88.22.22,0,0,0,.26-.26,2.3,2.3,0,0,0-.18-.43l-.11-.19,0-.06h0s0-.07,0-.11l-.06-.21s0-.12,0,0a1,1,0,0,0,0-.17.36.36,0,0,1,0-.1s0,0,0,0v0a.28.28,0,0,0,0-.09s0,0,0,0a.57.57,0,0,1,0-.13.2.2,0,0,0-.36-.1Z" transform="translate(4.09 -10.65)"/><path class="cls-17" d="M63.53,58.89l0,0,0,0a.31.31,0,0,0-.2.11.61.61,0,0,0-.07.1l-.11.21c-.08.13-.14.28-.22.42s-.17.26-.26.39l0,0s0,0,0,0,0,0,0,0,0,.08-.07.12,0,0,0,0,0,0,0,0l0,0-.09.1a.23.23,0,0,0,0,.3.22.22,0,0,0,.29.06,2.62,2.62,0,0,0,.32-.23l-.12.07a.93.93,0,0,0,.43-.38,1.83,1.83,0,0,0,.23-.38,1.5,1.5,0,0,0,.17-.46,2.06,2.06,0,0,0,0-.26.34.34,0,0,0-.16-.3l0,0V58.9a0,0,0,0,0-.08,0Z" transform="translate(4.09 -10.65)"/><path class="cls-17" d="M65.52,60.26l0,0,.14-.06a.31.31,0,0,0-.21.09l0,.07,0,0v0l.13-.07a.34.34,0,0,0-.19.14l0,.11a.65.65,0,0,1,0,.13c0,.1,0,.21,0,.31a.91.91,0,0,0,0,.33.45.45,0,0,0,.26.28c.13,0,.21-.08.27-.18a.44.44,0,0,0,.06-.23.53.53,0,0,1,0-.13.62.62,0,0,1,0-.13s0,0,0,0v-.1c0-.15.1-.29,0-.43l0,.14v0h0a.27.27,0,0,0,0-.23l0,.1v0a.2.2,0,0,0-.11-.17.19.19,0,0,0-.2,0Z" transform="translate(4.09 -10.65)"/><path class="cls-17" d="M66.5,54.48a2.07,2.07,0,0,0,0,.22.17.17,0,0,0,0,.07c0,.08,0,0,0,0s0,.22-.07.33,0,.21-.08.31a.8.8,0,0,0,0,.15.39.39,0,0,0,0,.28l0-.18,0,.11a.58.58,0,0,0,0,.18.16.16,0,0,0,.24.14.6.6,0,0,0,.25-.25l-.13.1c.08,0,.13-.08.18-.14a.71.71,0,0,0,.12-.18,2.39,2.39,0,0,0,.15-.37,2.73,2.73,0,0,0,.05-.4,1.31,1.31,0,0,0-.05-.39.25.25,0,0,0-.24-.18.26.26,0,0,0-.25.18Z" transform="translate(4.09 -10.65)"/><path class="cls-17" d="M69.52,58.53v0L68.7,59a2.6,2.6,0,0,1,.21.36l-.06-.12a1.11,1.11,0,0,1,.09.31l0-.13a1.71,1.71,0,0,1,0,.32l0-.14s0,.06,0,.09a.88.88,0,0,0,0,.16c0,.05,0,.11,0,.16l0-.13a.37.37,0,0,1,0,.11.69.69,0,0,0,.08.28.43.43,0,0,0,.48.2.71.71,0,0,0,.36-.3.79.79,0,0,0,.13-.4,1.75,1.75,0,0,0,0-.51,2,2,0,0,0-.17-.47,1.36,1.36,0,0,0-.42-.44.48.48,0,0,0-.61.12.47.47,0,0,0,0,.62l0,0a.48.48,0,0,0,.61,0,.47.47,0,0,0,.12-.6Z" transform="translate(4.09 -10.65)"/><path class="cls-17" d="M71.33,55.24a2.6,2.6,0,0,0,0,.39l.07.31c0,.11,0,.21.08.32s.22.36.4.35l-.09,0h0a.17.17,0,0,0,.22-.06h0l-.07.06c.11,0,.14-.13.18-.23s0,0,0-.07a.5.5,0,0,0,0-.21,2.84,2.84,0,0,0-.06-.31l-.07-.3a.8.8,0,0,0,0-.15,1.11,1.11,0,0,0-.07-.16.33.33,0,0,0-.37-.24.34.34,0,0,0-.29.33Z" transform="translate(4.09 -10.65)"/><path class="cls-17" d="M37,60.92c0,.07-.1.09-.13.17a1.17,1.17,0,0,0-.06.2l-.09.47a5.53,5.53,0,0,1-.28.9,1.79,1.79,0,0,1-.36.68c-.06,0-.12.09-.18.07s0,0-.06,0,0,0,0-.05a.26.26,0,0,0-.39-.22,1.12,1.12,0,0,0-.49.71l.33-.14a1.93,1.93,0,0,0-.67-.16.07.07,0,0,0,0,.12,1.83,1.83,0,0,0,.49.43.23.23,0,0,0,.33-.13.66.66,0,0,1,.32-.39l-.37-.29a.6.6,0,0,0,.58.7.9.9,0,0,0,.82-.61,4.88,4.88,0,0,0,.39-1.17c0-.21.07-.43.1-.65a1.14,1.14,0,0,0,0-.32l0-.12c0-.08-.08-.1-.1-.17a.05.05,0,0,0-.09,0Z" transform="translate(4.09 -10.65)"/><path class="cls-17" d="M37.08,63.08l.26-.17a1.51,1.51,0,0,0,.28-.22,1.71,1.71,0,0,0,.21-.26.43.43,0,0,1,0-.07l0,0a.19.19,0,0,0,0-.07v0a.37.37,0,0,0,0-.18v.07s0-.07,0-.1-.05-.13-.12-.09l-.08,0a.37.37,0,0,0-.12.07l.09,0a.28.28,0,0,0-.15.06l0,0,0,0s0,0,0,0a1.86,1.86,0,0,0-.22.19l-.11.08s0,.05,0,0l-.06,0a1.64,1.64,0,0,1-.22.14.24.24,0,1,0,.24.42Z" transform="translate(4.09 -10.65)"/><path class="cls-17" d="M39,64.85a3.43,3.43,0,0,0-.07.56,1.89,1.89,0,0,1-.16.51,2.09,2.09,0,0,1-.29.44,5.76,5.76,0,0,0-.41.44,3.58,3.58,0,0,0-.19.55.83.83,0,0,1-.25.28c-.28.23-.57.39-.69.74a.3.3,0,0,0,.43.34,6.51,6.51,0,0,0,.82-.65,1.36,1.36,0,0,0,.32-.47c.07-.18.06-.38.18-.53a3,3,0,0,0,.66-1,2.2,2.2,0,0,0,.12-.61,1,1,0,0,0-.08-.63.22.22,0,0,0-.39,0Z" transform="translate(4.09 -10.65)"/><path class="cls-17" d="M38.52,66.6a.47.47,0,0,0-.1.41,2.58,2.58,0,0,0,0,.39,3.33,3.33,0,0,0,.21.7,2.88,2.88,0,0,0,.39.65,1.07,1.07,0,0,0,.28.28.48.48,0,0,0,.19.09h.08a.61.61,0,0,0,.14,0,.15.15,0,0,0,.15-.19.8.8,0,0,0,0-.15.53.53,0,0,0-.08-.17,2.26,2.26,0,0,0-.25-.28l-.07-.09-.09-.13a1.67,1.67,0,0,1-.18-.28,2.39,2.39,0,0,1-.2-.55c0-.1,0-.19,0-.28s0-.29-.1-.4a.24.24,0,0,0-.33,0Z" transform="translate(4.09 -10.65)"/><path class="cls-17" d="M41.75,63.05v0l0-.14a.51.51,0,0,0-.07.34c0-.08,0,0,0,0v.08l0,.25s0,.06,0,.09,0,0,0,0a2.26,2.26,0,0,0,.07.43.7.7,0,0,0,.08.2l.06.09a.25.25,0,0,0,.1.08c.09,0,.1,0,0,0L42,64.48s.05.09.07.14a.18.18,0,0,0,.3,0,1.67,1.67,0,0,0,.08-.2l-.06.11,0,0-.13.08a.5.5,0,0,0,.3-.51,1.65,1.65,0,0,0-.05-.44,1.87,1.87,0,0,0-.13-.4l-.07-.16a.6.6,0,0,0-.09-.13l-.1-.07a.24.24,0,0,0-.28,0,.26.26,0,0,0-.16.23Z" transform="translate(4.09 -10.65)"/><path class="cls-17" d="M44.26,67.74c-.08.24-.15.48-.24.71l0,.09,0-.05,0,.05-.07.16a3.42,3.42,0,0,0-.21.43.46.46,0,0,0,.27.54.44.44,0,0,0,.3,0,.54.54,0,0,0,.28-.22.53.53,0,0,0,.08-.17c0-.09.08-.18.11-.27s.09-.24.13-.36a3,3,0,0,0,.15-.84.39.39,0,0,0-.33-.38.41.41,0,0,0-.43.28Z" transform="translate(4.09 -10.65)"/><path class="cls-17" d="M48,70.37l0,0,.05-.08c-.17.17-.14.45-.14.67,0,0,0,.07,0,.11a1.06,1.06,0,0,0,0,.19.87.87,0,0,0,.07.17.34.34,0,0,0,.22.17l-.13-.1h0a.21.21,0,0,0,.36,0h0l-.13.1a.37.37,0,0,0,.22-.17,1,1,0,0,0,.06-.16,1.17,1.17,0,0,0,.05-.2V71c0-.22,0-.5-.14-.67l.06.08,0,0a.33.33,0,0,0-.57,0Z" transform="translate(4.09 -10.65)"/><path class="cls-17" d="M54.22,67.84a1.49,1.49,0,0,0-.13.25l0,.16-.08.37a2.46,2.46,0,0,0-.08.46v.18a.59.59,0,0,0,.15.4l-.11-.19a.6.6,0,0,0,.13.28.38.38,0,0,0,.45,0,.58.58,0,0,0,.21-.23l-.16.16a.8.8,0,0,0,.32-.5,2.41,2.41,0,0,0,.07-.37l0-.36a2.7,2.7,0,0,0,0-.28A2.51,2.51,0,0,0,55,68a.4.4,0,0,0-.11-.19.42.42,0,0,0-.25-.12.43.43,0,0,0-.43.2Z" transform="translate(4.09 -10.65)"/><path class="cls-17" d="M55.83,72.16a.48.48,0,0,0-.2.2l-.08.13-.18.26c-.06.08-.11.17-.17.26a1.23,1.23,0,0,0-.19.31l.07-.13c-.11.14-.23.26-.33.41a.18.18,0,0,0,0,.21.17.17,0,0,0,.19.06.68.68,0,0,0,.24-.08,1.32,1.32,0,0,0,.2-.12s0,0,0,0,.07,0,.1,0l.14-.11.17-.15a1.7,1.7,0,0,0,.31-.41c0-.09.09-.19.13-.28a.56.56,0,0,0,0-.34.3.3,0,0,0-.43-.18Z" transform="translate(4.09 -10.65)"/><path class="cls-17" d="M59.45,70.16a.61.61,0,0,0-.07.14.46.46,0,0,0,0,.26.61.61,0,0,0,.16.28.34.34,0,0,0,.33.08h-.13a.28.28,0,0,0,.34-.19h0l-.07.12h0l-.07,0h0a.34.34,0,0,0,.12-.12.37.37,0,0,0,0-.18v-.1s0-.08,0-.11v0l0-.09h0a.21.21,0,0,1,0-.06.32.32,0,0,0-.56,0Z" transform="translate(4.09 -10.65)"/><path class="cls-17" d="M61.81,65.2a1.21,1.21,0,0,0-.05.42V66c0,.12,0,.23,0,.34s.06.45.31.53l-.23-.24,0,.16a.28.28,0,0,0,.54,0l.05-.16-.23.24c.25-.08.28-.31.31-.53s0-.22,0-.34v-.33a1.18,1.18,0,0,0,0-.42.38.38,0,0,0-.36-.27.4.4,0,0,0-.36.27Z" transform="translate(4.09 -10.65)"/><path class="cls-17" d="M66,65.08a1.27,1.27,0,0,0-.06.18,1.06,1.06,0,0,1,0,.19c0,.12,0,.24-.08.36s-.06.25-.09.36a1.8,1.8,0,0,0,0,.19.66.66,0,0,0,0,.28.29.29,0,0,0,.17.17.27.27,0,0,0,.24-.07.69.69,0,0,0,.22-.4l.09-.39c0-.15,0-.29,0-.44a1.15,1.15,0,0,0,0-.19,1,1,0,0,0,0-.24.22.22,0,0,0-.22-.16.25.25,0,0,0-.22.16Z" transform="translate(4.09 -10.65)"/><path class="cls-17" d="M67.42,64.85a.55.55,0,0,0-.24.34c0,.1,0,.2-.05.3a2,2,0,0,0,0,.42,2.19,2.19,0,0,0,.29,1,.48.48,0,0,0,.9-.24,1.13,1.13,0,0,0,0-.32,1.21,1.21,0,0,0,0-.18,3,3,0,0,1-.09-.41c0-.13,0-.27-.08-.4l0-.18L68,65a.74.74,0,0,0-.18-.17.38.38,0,0,0-.37,0Z" transform="translate(4.09 -10.65)"/><path class="cls-17" d="M70.72,61.85h0V62a1.08,1.08,0,0,0,0,.18.11.11,0,0,1,0,0s0-.06,0,0,0,.08,0,.11,0,.08,0,.13a3,3,0,0,0,.09.32l0,0v0l0,.11a.37.37,0,0,0,.2.14L71,62.85,71,63a.26.26,0,0,0,.11.14.16.16,0,0,0,.15,0,.38.38,0,0,0,.16-.26l-.11.14a.31.31,0,0,0,.18-.26,1.23,1.23,0,0,0,0-.2,1,1,0,0,0-.11-.41,1,1,0,0,0-.2-.28.78.78,0,0,0-.2-.11l-.05,0h0c-.12-.05-.23,0-.2.15Z" transform="translate(4.09 -10.65)"/><path class="cls-17" d="M64.25,70.33l0,0h0l-.12-.44a.78.78,0,0,0-.07.3v.2c0,.14,0,.27,0,.41s0,.26,0,.4a1.21,1.21,0,0,1,0,.19.86.86,0,0,0,0,.16.3.3,0,0,0,0,.15c.08.1.09.11,0,0l0-.18a1,1,0,0,0,.07.41.25.25,0,0,0,.34.08c.13-.05.2-.19.27-.31l-.13.13,0,0a.54.54,0,0,0,.15-.15,1.11,1.11,0,0,0,.07-.16,1.8,1.8,0,0,0,.06-.22,1.82,1.82,0,0,0,0-.52,1.75,1.75,0,0,0-.08-.51.84.84,0,0,0-.34-.52.33.33,0,0,0-.4.51l0,0v-.07l0,0s0,.11.08.06Z" transform="translate(4.09 -10.65)"/><path class="cls-17" d="M61.52,73.56l.06,0h0a.09.09,0,0,0,.07,0l-.1,0h0v-.34l-.05,0a.35.35,0,0,0-.08.13.54.54,0,0,0-.07.13l0,.08,0-.06c0,.08-.08.15-.11.23a.2.2,0,0,0,0,.11.41.41,0,0,0,0,.09l.09,0h.11l.1,0,.1-.08a.87.87,0,0,0,.11-.09.57.57,0,0,0,.11-.16l0,0a.42.42,0,0,0,0-.15v-.07a.24.24,0,0,0-.12-.21.31.31,0,0,0-.19,0,.24.24,0,0,0-.14.12.23.23,0,0,0,0,.24V73.4a.13.13,0,0,0,0,.06l0,0-.05,0s0,.15.08.11Z" transform="translate(4.09 -10.65)"/><path class="cls-17" d="M41.55,48.55a1,1,0,0,0-.1.21l-.06.18c0,.05,0,.11,0,.17s0,0,0,.08a.31.31,0,0,0,0,.23l0-.12s0,0,0,0v.1a1.11,1.11,0,0,0,0,.17.17.17,0,0,0,.13.18.18.18,0,0,0,.21-.08l.06-.11.06-.1s0,0,0,0a.16.16,0,0,0,.07-.07l0-.06.06-.11A2,2,0,0,0,42,49s0-.08,0-.12a.5.5,0,0,0,0-.12.27.27,0,0,0-.15-.32.26.26,0,0,0-.33.11Z" transform="translate(4.09 -10.65)"/><path class="cls-17" d="M56.51,50.94a.76.76,0,0,0,0,.15.29.29,0,0,1,0,.09l.06.17a.84.84,0,0,1,0,.17l0,.08a.52.52,0,0,0,.06.13l.11.09-.11-.11,0,.06,0-.07a.57.57,0,0,0,.1.19A.22.22,0,0,0,57,52a.23.23,0,0,0,.18-.12.63.63,0,0,0,.06-.27l-.08.2.06-.08a.33.33,0,0,0,0-.17.88.88,0,0,0,0-.16,1.06,1.06,0,0,0,0-.19.86.86,0,0,0-.26-.43.29.29,0,0,0-.12-.07.27.27,0,0,0-.18,0,.27.27,0,0,0-.17.26Z" transform="translate(4.09 -10.65)"/><path class="cls-17" d="M42.88,59.46c-.14.18,0,.46,0,.64a2.14,2.14,0,0,1,.15.55.35.35,0,0,0,.38.25.35.35,0,0,0,.3-.35,1,1,0,0,0,0-.17c0-.08,0,0,0-.05s0,0,0-.07a2.53,2.53,0,0,1,.12-.36,2.21,2.21,0,0,1,.13-.29l.16-.4c.17-.42.34-1.05-.11-1.36a.1.1,0,0,0-.15.06c0,.2-.09.39-.15.61a2.72,2.72,0,0,1-.26.58,6.21,6.21,0,0,0-.31.7,1.72,1.72,0,0,0-.14.75l.68-.09a2.1,2.1,0,0,0-.24-.69.89.89,0,0,0-.28-.3c-.09-.06-.26-.12-.35,0Z" transform="translate(4.09 -10.65)"/><path class="cls-17" d="M70.33,67.33s0,0,0,.08a.75.75,0,0,0,0,.16.31.31,0,0,1,0,.1,1.15,1.15,0,0,0,0,.19,2,2,0,0,0,0,.24l0,.09a.29.29,0,0,0,.15.19l-.1-.13a.85.85,0,0,0,.06.17.14.14,0,0,0,.22,0,.78.78,0,0,0,.1-.15l-.12.1a.33.33,0,0,0,.19-.14l0-.08.08-.15a.66.66,0,0,0,0-.15l0-.09a.83.83,0,0,0,0-.27v-.1a.33.33,0,0,0-.07-.13.36.36,0,0,0-.19-.13.34.34,0,0,0-.2,0,.34.34,0,0,0-.22.17Z" transform="translate(4.09 -10.65)"/></svg>