<svg width="66" height="66" viewBox="0 0 66 66" fill="none" xmlns="http://www.w3.org/2000/svg">
<path fill-rule="evenodd" clip-rule="evenodd" d="M19.4983 66L19.4425 65.9595L19.4415 65.9588C19.3981 65.9272 19.3548 65.8958 19.3108 65.8653C19.3026 65.8527 19.2942 65.8377 19.2855 65.8222C19.2568 65.7712 19.2253 65.7152 19.1917 65.7219C18.949 65.7649 18.7621 65.6351 18.5754 65.5054C18.3968 65.3813 18.2184 65.2574 17.9914 65.2848C17.9108 65.2952 17.832 65.2323 17.8583 65.1134L17.8624 65.1101C17.8333 65.077 17.8204 65.0223 17.8076 64.9677C17.7793 64.8473 17.7511 64.727 17.5483 64.8388C17.5454 64.8377 17.5426 64.8366 17.5397 64.8356L17.3661 64.8406L17.3627 64.8392L17.3643 64.8441C17.3615 64.845 17.3587 64.8462 17.356 64.8473C17.3483 64.8505 17.3409 64.8536 17.3345 64.8511C17.1537 64.7958 16.9865 64.7031 16.8193 64.6102C16.6824 64.5342 16.5454 64.4582 16.4008 64.4027C16.3984 64.4035 16.396 64.4043 16.3936 64.4051C16.3095 64.4331 16.2271 64.4156 16.1623 64.3457C16.1593 64.3414 16.1562 64.3373 16.1532 64.3331C16.1336 64.3298 16.1139 64.327 16.0939 64.3247L16.1439 64.3209C16.105 64.2708 16.0624 64.2299 16.0152 64.1998C16.0279 64.2266 16.036 64.2597 16.0378 64.3002C16.0448 64.3159 16.0448 64.3334 16.0378 64.3492C15.8574 64.2722 15.7347 64.3352 15.605 64.4891C15.4228 64.7077 15.2826 64.6622 15.2231 64.3806C15.2018 64.2769 15.1521 64.1848 15.1023 64.0928C15.0289 63.9568 14.9554 63.821 14.9743 63.6479C14.9794 63.602 14.9763 63.5551 14.9732 63.5083C14.9668 63.4135 14.9605 63.3191 15.0233 63.234C15.0479 62.8545 15.0724 62.4727 15.0952 62.0933C15.1022 61.9691 15.1022 61.8502 14.9743 61.775C14.8658 61.71 14.7957 61.7504 14.7045 61.803L14.7036 61.8035C14.692 61.8102 14.6801 61.8171 14.6677 61.824C14.5698 61.879 14.4653 61.9162 14.3602 61.9536C14.2281 62.0006 14.0949 62.048 13.9721 62.1317C13.8792 62.1947 13.7355 62.081 13.6584 61.9656C13.6515 61.9552 13.6444 61.9436 13.6371 61.9315C13.594 61.861 13.5418 61.7756 13.4762 61.8292C13.3682 61.9161 13.2539 61.9071 13.1412 61.8983C13.0656 61.8923 12.9907 61.8865 12.919 61.9096C12.7262 61.9709 12.6281 61.8764 12.6369 61.6928C12.6456 61.4917 12.5405 61.434 12.3986 61.4078L12.3696 61.4027C12.2824 61.3877 12.1951 61.3728 12.1463 61.2941C11.9093 60.916 11.8414 61.2026 11.7942 61.4018L11.7923 61.4095C11.7398 61.6316 11.6259 61.768 11.4349 61.8344C11.1324 61.9392 10.9712 62.1588 10.9392 62.4951C10.9154 62.5161 10.8996 62.5419 10.8876 62.5701C10.8656 62.6685 10.8427 62.7667 10.818 62.8645C10.7496 63.0026 10.6901 63.146 10.6463 63.2964C10.5814 63.5185 10.4745 63.6846 10.2187 63.6374C10.1767 63.6287 10.1364 63.6287 10.1031 63.6654C9.83673 63.947 9.61596 63.8193 9.41095 63.5745C9.35839 63.5115 9.28304 63.4486 9.22346 63.5115C9.09777 63.6427 8.96612 63.6109 8.83482 63.5793C8.76479 63.5624 8.69485 63.5456 8.62597 63.5535C8.50331 63.5675 8.4122 63.4503 8.38066 63.3279C8.3351 63.1443 8.22296 63.0796 8.06351 63.0568C7.96889 63.0429 7.85675 63.0079 7.82697 62.9117C7.75337 62.6861 7.63072 62.6651 7.42571 62.7001C7.20318 62.7386 6.98942 62.6389 6.83172 62.4553C6.63446 62.2256 6.37423 62.1544 6.11425 62.0832C6.01398 62.0558 5.91376 62.0284 5.8172 61.9918C5.66475 61.9341 5.55612 62.0618 5.458 62.1965C5.3003 62.415 5.19867 62.3958 5.04097 62.1842C4.80968 61.8729 4.80092 61.5249 4.87451 61.1647C4.89386 61.0681 4.90122 60.9726 4.90863 60.8765L4.90872 60.8754L4.91155 60.839L4.91481 60.7992C4.93409 60.5614 4.84473 60.4127 4.63096 60.3463C4.44873 60.2903 4.3068 60.1889 4.25423 59.9808C4.21984 59.8674 4.13443 59.8469 4.04696 59.826C4.03193 59.8224 4.01683 59.8187 4.00192 59.8146C3.96181 59.8039 3.9215 59.7941 3.88107 59.7848L3.87585 59.7849C3.72517 59.7884 3.5552 59.7657 3.42203 59.694C3.39373 59.6789 3.36649 59.6659 3.34018 59.655C3.20296 59.6233 3.07572 59.6345 2.9547 59.7185C2.9259 59.749 2.89782 59.7866 2.87009 59.8321C2.75795 60.0158 2.62828 59.9703 2.54068 59.7867L2.52668 59.7573C2.41367 59.5206 2.30054 59.2836 2.34093 59.0015C2.35825 58.8838 2.37583 58.7662 2.39342 58.6486L2.39372 58.6466L2.39405 58.6443L2.39443 58.6418C2.44058 58.3332 2.48677 58.0242 2.52842 57.7144C2.53373 57.6773 2.5326 57.6228 2.52385 57.5818C2.51545 57.5624 2.5053 57.5438 2.49362 57.5255C2.38187 57.4632 2.28805 57.3698 2.1959 57.278C2.15241 57.2347 2.10927 57.1917 2.06482 57.1526C1.90766 57.0765 1.73938 57.0404 1.57161 57.0044C1.47095 56.9828 1.37049 56.9612 1.27273 56.9311C1.18987 56.9151 1.10855 56.8883 1.03125 56.8393C0.959206 56.8248 0.893234 56.8561 0.829407 56.8963C0.819534 56.9081 0.810471 56.9205 0.802498 56.9327C0.630783 57.2002 0.453812 57.16 0.266327 56.9554L0.264572 56.9607C0.152435 56.6336 0.0560608 56.3031 -7.62939e-06 55.9586C0.0350342 55.4952 0.0192719 55.03 0.00350189 54.5666C0.0181503 54.1797 0.0393143 53.7928 0.0604782 53.406C0.0722275 53.1913 0.0839767 52.9766 0.0946121 52.7619C0.0961304 52.7275 0.0933914 52.6923 0.0906448 52.6571C0.0839157 52.5705 0.0771408 52.4834 0.133156 52.4051C0.165359 52.1092 0.19735 51.8133 0.229347 51.5174L0.229988 51.5114C0.290062 50.9558 0.350166 50.3999 0.411758 49.8432C0.480095 49.2381 0.549309 48.633 0.618523 48.0279C0.687737 47.4229 0.756943 46.8178 0.825279 46.2128C0.830536 46.1629 0.82988 46.1131 0.829224 46.0633L0.829041 46.0493L0.828781 46.0134C0.945961 45.5331 0.989273 45.0418 1.03259 44.5504L1.03261 44.5494V44.5483V44.5473C1.05599 44.2831 1.07938 44.0183 1.11439 43.7558C1.17574 43.297 1.23669 42.8381 1.29692 42.3792L1.30879 42.2746C1.34866 41.9202 1.39801 41.5665 1.4482 41.2129C1.58815 40.1197 1.72248 39.0257 1.84681 37.9306L1.9438 37.0771L1.94398 37.0757L1.94412 37.0746L1.94426 37.0735L1.9444 37.0723L1.94453 37.0712L1.94467 37.0701L1.94481 37.069L1.94495 37.0679L1.94508 37.0668L1.94522 37.0657L1.94536 37.0646L1.9455 37.0635L1.94563 37.0624L1.94577 37.0612L1.94591 37.0601L1.94604 37.059L1.94618 37.0579L1.94632 37.0568L1.94646 37.0557L1.94659 37.0546L1.94673 37.0535L1.94687 37.0524L1.94701 37.0513L1.94714 37.0501L1.94728 37.049L1.94742 37.0479L1.94756 37.0468L1.94769 37.0457L1.94783 37.0446L1.94797 37.0435L1.9481 37.0424L1.94824 37.0413L1.94838 37.0401L1.94852 37.039L1.94865 37.0379L1.94879 37.0368L1.94893 37.0357L1.94907 37.0346L1.9492 37.0335L1.94934 37.0324C2.03784 36.2533 2.12637 35.4738 2.21241 34.6945L2.21292 34.6884C2.25235 34.2154 2.30623 33.7437 2.36011 33.272C2.39242 32.9891 2.42474 32.7062 2.45393 32.423L2.47049 32.2587C2.48371 32.1244 2.49609 31.99 2.5073 31.8554C2.55665 31.271 2.6121 30.6866 2.67209 30.1029L2.69312 29.8549C2.80701 28.5048 2.89112 27.153 2.96471 25.8012C2.96809 25.7439 2.96495 25.6866 2.96181 25.6292C2.96007 25.5974 2.95832 25.5655 2.9577 25.5337C3.0015 25.1402 3.02954 24.7415 3.03655 24.348C3.04186 24.0456 3.06046 23.7434 3.07907 23.4411C3.10963 22.9448 3.14021 22.4482 3.11189 21.9505C3.11014 21.905 3.1189 21.863 3.14343 21.8246C3.19595 21.1973 3.20551 20.5688 3.21507 19.9402C3.22433 19.3316 3.23359 18.7228 3.28186 18.1154C3.30241 17.8553 3.31216 17.5944 3.31854 17.3331C3.31603 17.2873 3.31444 17.2364 3.3133 17.1798C3.31112 17.081 3.31747 16.9831 3.32752 16.8858C3.33027 16.7401 3.33327 16.5944 3.33783 16.4487L3.32216 16.1673L3.33793 15.9767C3.36188 15.8903 3.36969 15.7993 3.3775 15.7084C3.39197 15.5399 3.40644 15.3714 3.52367 15.2317C3.55378 15.2135 3.58027 15.1909 3.60667 15.1685C3.674 15.1112 3.74075 15.0545 3.86535 15.0708C4.01253 15.0883 4.20001 14.9397 4.24382 14.7753C4.28671 14.611 4.37254 14.4819 4.4582 14.3531C4.50202 14.2872 4.54579 14.2214 4.58374 14.151V14.1492L4.60951 14.1355L4.64682 14.116L4.6749 14.1014C4.68384 14.0799 4.69202 14.058 4.6993 14.0356C4.95336 13.824 5.0252 13.8345 5.2197 14.1073C5.22404 14.2084 5.24779 14.3011 5.28679 14.3791C5.3293 14.4076 5.3789 14.4495 5.42762 14.4906C5.4923 14.5453 5.55544 14.5986 5.59838 14.6175C5.60754 14.6186 5.61683 14.6193 5.62621 14.6197C5.63156 14.6198 5.63679 14.6198 5.6419 14.6195C5.64486 14.617 5.64727 14.6136 5.64909 14.6092C5.68718 14.5195 5.74059 14.4405 5.79385 14.3616C5.87045 14.2482 5.94678 14.1352 5.97675 13.9919C6.05507 13.6148 6.13445 13.2377 6.2259 12.8648C6.23254 12.801 6.2501 12.7371 6.27395 12.6738C6.28395 12.6351 6.2941 12.5965 6.30441 12.5579C6.35783 12.3539 6.4367 12.1581 6.51541 11.9627L6.54965 11.8775C6.56267 11.8449 6.57558 11.8123 6.58826 11.7797C6.69118 11.5153 6.89737 11.4441 7.12329 11.4116C7.14359 11.3951 7.16437 11.379 7.18566 11.3635C7.33014 11.2739 7.39947 11.1271 7.46886 10.9802C7.50382 10.9062 7.5388 10.8322 7.58341 10.7654C7.5874 10.7616 7.59134 10.7578 7.59524 10.754C7.59897 10.7503 7.60266 10.7466 7.60632 10.7428V10.6499C7.66307 10.5851 7.71041 10.5094 7.75772 10.4338C7.87107 10.2526 7.98429 10.0717 8.22659 10.0396L8.23224 10.0404C8.46299 9.93273 8.59898 10.0871 8.72625 10.2315L8.74959 10.2579C8.75865 10.2681 8.7677 10.2781 8.77676 10.288C8.80444 10.3184 8.82393 10.3609 8.84338 10.4032C8.88426 10.4923 8.92499 10.581 9.04134 10.5573C9.22883 10.5205 9.38828 10.4016 9.45661 10.1935C9.51443 10.0152 9.5635 9.83504 9.60906 9.65316C9.69842 9.29642 9.82458 8.98689 10.2539 9.0376L10.2521 9.0341C10.3735 8.98714 10.4484 8.8852 10.5235 8.783C10.5689 8.72118 10.6144 8.65927 10.6703 8.60938C10.6801 8.58464 10.6886 8.55899 10.6953 8.53222C10.7175 8.48635 10.7386 8.43966 10.7597 8.39297C10.8585 8.17468 10.9575 7.95578 11.1667 7.82047C11.1882 7.8107 11.2096 7.80217 11.2308 7.795C11.4328 7.60149 11.6359 7.67776 11.745 8.00584C11.7523 8.02843 11.7589 8.0513 11.7651 8.07436C11.7696 8.09155 11.7739 8.10884 11.778 8.1262C11.7965 8.17752 11.8081 8.23024 11.8118 8.28449C11.8168 8.30868 11.8219 8.33281 11.8272 8.3568L11.8273 8.35558C11.8646 8.38602 11.8828 8.44788 11.901 8.50979C11.9392 8.63996 11.9774 8.77033 12.1936 8.60915L12.1918 8.6109L12.1936 8.6109C12.1988 8.56958 12.1977 8.52458 12.1967 8.47937C12.1935 8.34283 12.1902 8.2044 12.36 8.15973C12.5065 8.12058 12.5758 8.21776 12.6497 8.32121C12.6748 8.35638 12.7004 8.39228 12.7297 8.42379C12.8577 8.5602 13.0837 8.63015 13.2922 8.64239C13.3541 8.64589 13.4168 8.64471 13.4793 8.64355L13.5347 8.64264L13.5725 8.64239C13.5813 8.65987 13.5848 8.67736 13.5831 8.6966L13.5794 8.69736L13.5831 8.69834C13.5942 8.71373 13.6055 8.72853 13.6172 8.74277C13.6526 8.7625 13.6813 8.79025 13.6989 8.83009C13.8902 9.00864 14.1332 9.07343 14.3856 9.11805C14.3899 9.13465 14.3939 9.15168 14.3978 9.16872L14.405 9.19916L14.425 9.2097C15.0218 9.10221 15.4576 9.41196 15.8468 9.84553C16.1307 10.1953 16.2428 10.622 16.2884 11.0644C16.3345 11.508 16.3591 11.9542 16.3837 12.3996L16.397 12.6383C16.4058 12.7887 16.4338 12.8761 16.602 12.8219C16.7037 12.7904 16.8246 12.7974 16.8999 12.8831C17.1722 13.196 17.5188 13.256 17.8771 13.3179C17.9454 13.3297 18.014 13.3416 18.0827 13.3553C18.335 13.406 18.6013 13.5861 18.8098 13.7995L18.8096 13.8033L18.815 13.796C18.9173 13.829 18.9879 13.9129 19.0584 13.9968C19.1486 14.104 19.2387 14.2112 19.395 14.2122C19.4136 14.2244 19.4328 14.2364 19.4519 14.2484C19.4848 14.2689 19.5183 14.2898 19.5492 14.3119C19.847 14.5287 19.9802 14.4658 20.01 14.095L20.0617 13.4114L20.0899 13.0383C20.1451 12.3064 20.2003 11.5749 20.2571 10.8441C20.265 10.743 20.2796 10.6419 20.2942 10.5413L20.3033 10.4777C20.3078 10.4461 20.3121 10.4146 20.3161 10.3831L20.3131 10.3807V10.3789C20.2816 10.0327 20.2833 9.67941 20.385 9.35239C20.4523 9.13227 20.4664 8.90517 20.4804 8.67893C20.4944 8.45224 20.5084 8.22641 20.5759 8.00935C20.7582 7.42176 20.851 6.81494 20.9439 6.20637C20.9842 5.93881 21.0928 5.76394 21.3592 5.69573C21.6413 5.62228 21.8165 5.41593 21.8936 5.1029C21.9633 4.82126 22.1472 4.6053 22.3302 4.39487L22.3299 4.39114C22.5139 4.11309 22.7329 4.19703 22.9537 4.32294H22.9554L22.9659 4.5153C22.9073 4.55186 22.8717 4.51963 22.8359 4.48727C22.8203 4.47319 22.8047 4.45908 22.7872 4.4506C22.6851 4.37748 22.6018 4.42566 22.5187 4.47369C22.4762 4.49823 22.4338 4.52273 22.389 4.53102C22.3817 4.66646 22.3038 4.75966 22.226 4.85279C22.1575 4.93478 22.089 5.01672 22.0688 5.12738C22.0355 5.22357 22.0057 5.33199 22.046 5.42293C22.1527 5.66151 22.045 5.83567 21.9394 6.00629C21.908 6.05702 21.8768 6.10744 21.8515 6.15915C21.8165 6.23138 21.7755 6.25105 21.7331 6.24346L21.748 6.26279L21.7847 6.31128C21.9291 6.50265 22.0736 6.6942 22.3439 6.73099C22.4631 6.74673 22.5524 6.87963 22.6138 6.99855C22.6856 7.13845 22.7942 7.17517 22.9291 7.15944C22.9463 7.15759 22.9659 7.16038 22.9856 7.1632C23.0406 7.17104 23.0971 7.17909 23.1061 7.08773C23.1148 6.99596 23.0358 6.96248 22.9663 6.93297L22.9642 6.9321C22.6979 6.82193 22.4543 6.66803 22.2475 6.45644C22.1547 6.362 22.0688 6.25183 22.1249 6.10144C22.1752 5.96803 22.2749 5.97689 22.3823 5.98643L22.4044 5.98835L22.4193 5.98951C22.481 5.99401 22.542 5.97166 22.6032 5.94925C22.7087 5.91058 22.8147 5.87175 22.9256 5.97028L22.9599 6.00163L22.9624 6.00126C22.9542 5.97156 22.9448 5.94203 22.9355 5.91251C22.9153 5.84838 22.8951 5.78415 22.8855 5.71844C22.8574 5.52433 22.9433 5.42814 23.1062 5.53481C23.1814 5.58406 23.2407 5.56668 23.299 5.54963C23.3172 5.5443 23.3353 5.53899 23.3538 5.53577C23.3362 5.51999 23.319 5.50399 23.3024 5.48762C23.2986 5.4839 23.2947 5.48024 23.2909 5.47662C23.2891 5.47496 23.2873 5.4733 23.2855 5.47165L23.2641 5.46321C23.1571 5.42125 23.0498 5.37916 23.0765 5.18334C23.0958 5.04694 23.1361 4.98398 23.264 4.99622L23.2657 4.9962C23.2524 4.98679 23.2388 4.97765 23.225 4.96862L23.1886 4.94511C23.0438 4.85234 22.8991 4.75977 22.9659 4.5153C23.0851 4.77062 23.1991 4.98745 23.5233 4.75312C23.6055 4.69346 23.7231 4.69034 23.8396 4.68725C23.887 4.68599 23.9342 4.68473 23.9788 4.67968C24.0594 4.67093 24.1418 4.71115 24.1453 4.79684C24.1593 5.19381 24.3906 5.23053 24.6815 5.19731C24.7031 5.1949 24.7273 5.21478 24.7516 5.23484C24.7603 5.24197 24.769 5.24912 24.7776 5.2553L24.7849 5.26027C24.8119 5.26027 24.8397 5.26185 24.8673 5.26342L24.8904 5.2647L24.9074 5.26552C25.0756 5.47887 25.2771 5.56981 25.5312 5.45089C25.5995 5.19036 25.7499 4.9841 25.9001 4.77815C25.9424 4.72009 25.9848 4.66196 26.0253 4.60274C26.1304 4.4471 26.2863 4.39289 26.4686 4.42786C26.4833 4.43048 26.4985 4.43394 26.5138 4.43743C26.6007 4.45721 26.6933 4.4783 26.7454 4.35791C26.8979 4.00991 27.1151 3.74234 27.4726 3.62343C27.5142 3.61 27.5455 3.5616 27.5768 3.51338C27.5824 3.50461 27.5882 3.49567 27.594 3.48713C27.6018 3.47543 27.6098 3.46414 27.618 3.4538H27.6198C27.6593 3.4298 27.6988 3.4058 27.7399 3.38345L27.7407 3.38211C27.7882 3.31224 27.8343 3.24107 27.8804 3.16994C27.9854 3.00786 28.0903 2.84593 28.212 2.70009C28.5204 2.3311 28.8551 2.34859 29.1512 2.73682C29.2563 2.87497 29.3615 2.90295 29.5279 2.87322C29.8328 2.81726 30.0799 2.9047 30.3444 3.13903C30.6511 3.41009 31.0278 3.62869 31.4396 3.72312C31.5694 3.83573 31.7258 3.85973 31.8828 3.88382C32.0329 3.90687 32.1837 3.93 32.3122 4.0309C32.3649 4.07272 32.4259 4.0007 32.4733 3.94481L32.4909 3.92423C32.5314 3.87625 32.5694 3.82625 32.6074 3.77636C32.6483 3.72261 32.6891 3.66899 32.7327 3.61819C33.0306 3.27369 33.2969 3.30866 33.5264 3.71962L33.5271 3.72199C33.6696 3.86136 33.8244 3.86606 34.0118 3.82104C34.3097 3.75109 34.5865 3.72136 34.7793 4.10434C34.8544 4.25439 35.0223 4.28685 35.1903 4.31935C35.269 4.33457 35.3478 4.34981 35.4171 4.37714C35.4269 4.38694 35.437 4.39674 35.4472 4.4064C35.4607 4.41915 35.4742 4.43166 35.4872 4.4436L35.4889 4.44709L35.5034 4.48976L35.5134 4.51875C35.5217 4.54265 35.5301 4.56702 35.538 4.59049L35.5397 4.59225C35.7535 4.70432 35.981 4.76969 36.2081 4.83496C36.3885 4.88681 36.5687 4.93861 36.7417 5.01371C37.3427 5.27427 37.758 5.7272 37.9297 6.41096C38.2153 7.93414 38.4098 9.47129 38.5658 11.0155C38.6148 11.5016 38.8776 11.7622 39.3805 11.8041C39.5435 11.8181 39.6784 11.8566 39.8168 11.9475C40.0096 12.0735 40.1427 12.0437 40.1848 11.7604C40.2206 11.5202 40.2639 11.2811 40.3072 11.0419C40.3573 10.7657 40.4074 10.4894 40.4459 10.211C40.4746 10.0045 40.5349 9.80607 40.5951 9.60772C40.6782 9.33404 40.7613 9.06058 40.7613 8.76655L40.763 8.76466C40.7574 8.53291 40.8266 8.32011 40.8957 8.10744C40.9469 7.95014 40.998 7.7929 41.0188 7.6281C41.1397 7.47946 41.2747 7.39377 41.4779 7.39377C41.7145 7.39377 41.8424 7.16643 41.923 6.97581C42.0231 6.73413 42.1664 6.52723 42.309 6.32133C42.3635 6.24269 42.4178 6.16418 42.4697 6.08395C42.7255 5.68873 43.0864 5.72895 43.316 6.14516C43.3346 6.17897 43.352 6.21415 43.3693 6.24941C43.3959 6.30348 43.4226 6.35772 43.4544 6.40747C43.5385 6.53863 43.6209 6.56486 43.761 6.44944C44.1237 6.1504 44.4987 6.24308 44.6897 6.68727C44.7756 6.88663 44.8702 6.96532 45.0664 6.92335C45.2724 6.87979 45.4104 6.99944 45.5482 7.11894C45.5875 7.15294 45.6267 7.18693 45.6674 7.21714C45.6956 7.24828 45.7313 7.23259 45.7671 7.21689C45.803 7.20113 45.8389 7.18536 45.8671 7.2171L45.9227 7.1423L45.9948 7.0458C46.0796 6.93248 46.1646 6.81887 46.2474 6.70301C46.4432 6.42727 46.6478 6.3971 46.9273 6.6073L46.929 6.60858L46.93 6.61154C46.9475 6.64294 46.9656 6.67398 46.9837 6.70497C47.0191 6.76549 47.0543 6.82582 47.085 6.88838C47.1884 7.10173 47.2725 7.25037 47.5248 7.02128C47.8052 6.76596 48.2941 6.93909 48.422 7.29583C48.4461 7.36395 48.4668 7.43206 48.4878 7.5011L48.502 7.54764L48.4994 7.54757L48.5025 7.54941H48.5007C48.5613 7.59761 48.6268 7.6001 48.6928 7.59463C48.6321 7.57932 48.5711 7.56461 48.51 7.54987L48.502 7.54764L49.065 7.54765C49.2786 7.75377 49.4991 7.89184 49.758 7.62551L49.7588 7.62461C49.779 7.57909 49.7991 7.53313 49.8193 7.48718L49.8205 7.48449L49.8509 7.41534L49.8795 7.3504C49.9146 6.83976 50.1075 6.39173 50.351 5.96153C50.4028 5.87049 50.4852 5.8428 50.5695 5.81447C50.5937 5.80635 50.6181 5.79814 50.6419 5.78841C50.6702 5.77656 50.7014 5.76875 50.7329 5.76086C50.8222 5.73847 50.914 5.71546 50.9503 5.59779C51.0531 5.50819 51.1096 5.38483 51.166 5.26152C51.2229 5.13734 51.2797 5.01316 51.3839 4.9236L51.3831 4.92277H51.3848C51.4917 4.67969 51.6231 4.45935 51.8457 4.31945C51.9964 4.22502 52.1698 4.1778 52.3223 4.27398C52.5385 4.41202 52.56 4.29958 52.5909 4.13779C52.594 4.12126 52.5973 4.10421 52.6009 4.08686L52.6141 4.02124C52.7497 3.34703 52.8855 2.67222 53.1265 2.02857C53.2439 1.71729 53.4139 1.46722 53.7486 1.39726C53.8782 1.37103 53.9711 1.27836 54.0289 1.1507L54.0309 1.1496C54.1105 0.800095 54.3256 0.531395 54.5335 0.271637L54.5703 0.225601C54.8366 -0.106667 55.2256 -0.0629501 55.5165 0.306038C55.6251 0.444191 55.7057 0.482666 55.8774 0.426704C56.2804 0.2938 56.5065 0.393478 56.75 0.764214C56.8207 0.872093 56.9252 0.899757 57.0292 0.927299C57.1057 0.947533 57.1818 0.967697 57.2441 1.01954C57.2441 1.04402 57.2441 1.0685 57.2424 1.09123L57.2393 1.09406L57.2442 1.09473C57.4748 1.40839 57.8219 1.48941 58.1509 1.56619L58.1763 1.57214C58.5531 1.65958 58.8702 1.85895 59.1786 2.07404C59.6131 2.37658 59.6605 2.88896 59.6955 3.38211C59.8444 5.42991 59.9864 7.47771 60.123 9.52726L60.1244 9.54783C60.1375 9.75419 60.1488 9.9306 60.3981 9.96445C60.4612 9.97319 60.5295 10.0396 60.5751 10.0974C60.9203 10.5433 61.3776 10.6814 61.8945 10.6744C61.9776 10.7168 62.0623 10.7558 62.147 10.7947C62.3972 10.9099 62.6472 11.025 62.8549 11.2256C62.9914 11.2016 63.0855 11.288 63.1794 11.3743C63.2136 11.4057 63.2478 11.4371 63.284 11.4631C63.8324 12.0018 63.9866 12.717 64.097 13.469C64.1261 13.6681 64.1568 13.8671 64.1874 14.066C64.2857 14.704 64.384 15.342 64.4334 15.9872C64.4439 16.1253 64.4579 16.2565 64.6139 16.2985C65.4637 17.1903 65.6214 18.3393 65.7581 19.5389C65.935 21.1297 65.9594 22.7247 65.9839 24.3214C65.9868 24.5115 65.9897 24.7017 65.9928 24.8919C66.0197 26.5272 65.9678 28.1603 65.9158 29.7932C65.8866 30.7132 65.8573 31.6331 65.8422 32.5532C65.8213 33.836 65.8171 35.1193 65.813 36.4025C65.8084 37.808 65.8039 39.2135 65.7773 40.6185C65.7389 42.6181 65.7413 44.6181 65.7437 46.6179C65.7469 49.2683 65.7501 51.9183 65.6582 54.5666C65.6004 56.2524 65.5092 57.9452 65.1465 59.6013C65.129 59.6809 65.1206 59.7634 65.1121 59.8458C65.0901 60.0601 65.0682 60.2738 64.8872 60.4354C64.8592 60.4617 64.8574 60.5456 64.8697 60.5946C64.9495 60.9361 64.7414 61.1188 64.5428 61.2933L64.4982 61.3326C64.4594 61.3673 64.4178 61.3993 64.3758 61.4314C64.325 61.4703 64.2737 61.5096 64.2266 61.5546C64.2249 61.5652 64.2239 61.5764 64.223 61.5876C64.221 61.6098 64.2191 61.6322 64.2109 61.6508C64.1641 61.7588 64.1072 61.8606 64.0501 61.9626C63.9362 62.1661 63.8219 62.3703 63.7869 62.6266C63.7466 62.9257 63.503 63.0901 63.2227 63.1653C63.1508 63.1849 63.0828 63.2199 63.0145 63.255C62.9796 63.2729 62.9446 63.2909 62.909 63.3069V63.3087C62.7005 63.3454 62.5849 63.2352 62.5323 63.0306C62.5481 63.0149 62.5726 62.9956 62.5849 63.0044C62.8274 63.1875 62.9872 63.0511 63.1401 62.8873C62.9244 62.9902 62.7646 62.8372 62.6271 62.6704C62.4939 62.5077 62.3747 62.4657 62.1995 62.5882C62.0786 62.6727 61.94 62.7007 61.8013 62.7287C61.745 62.74 61.6887 62.7514 61.6336 62.7665C61.5364 62.7933 61.4488 62.7897 61.4536 62.6516C61.4306 62.6626 61.4077 62.6592 61.3847 62.6424L61.3829 62.6406C61.2866 62.5724 61.1902 62.5112 61.0693 62.506C60.9764 62.5025 60.9186 62.4378 60.8818 62.3521C60.8512 62.2824 60.8209 62.2231 60.7899 62.1741L58.2741 62.4072C58.3041 62.3125 58.3411 62.2217 58.3859 62.1351L59.9261 61.9821C59.9206 61.9675 59.9156 61.952 59.9111 61.9359C59.8585 61.7522 59.7622 61.7225 59.6097 61.7383L59.5899 61.7405C59.5106 61.7496 59.4327 61.7584 59.3562 61.7586C59.2878 61.7883 59.2152 61.7761 59.1282 61.7236C59.0537 61.6972 58.9806 61.6531 58.9088 61.5826C58.8066 61.4817 58.7496 61.5619 58.6901 61.6457C58.6797 61.6603 58.6692 61.6751 58.6584 61.689C58.65 61.7272 58.639 61.7643 58.6214 61.7995C58.5261 61.9025 58.4483 62.0146 58.3859 62.1351L52.9403 62.6763C52.9317 62.6215 52.9221 62.5668 52.9092 62.513L52.9075 62.4565L52.028 61.079L52.0374 61.0848C52.1388 61.2079 52.24 61.287 52.3566 61.2831L52.9036 61.6229L52.9023 61.6211C52.9018 61.5904 52.9019 61.5598 52.9021 61.5291C52.9023 61.4602 52.9026 61.3916 52.8953 61.3238C52.8743 61.1262 52.7692 61.016 52.608 61.1594C52.5148 61.2429 52.4325 61.2806 52.3566 61.2831L52.0374 61.0848L52.0297 61.0755L52.028 61.079C51.9997 60.9442 51.9382 60.9736 51.8768 61.003C51.8614 61.0103 51.8461 61.0177 51.8313 61.0224L51.8211 61.0283C51.7948 61.044 51.7668 61.051 51.737 61.0528C51.7205 61.0458 51.7042 61.0385 51.688 61.0309C51.6588 61.0369 51.6292 61.0444 51.5997 61.0519C51.4117 61.0998 51.2251 61.1473 51.1676 60.7834C51.1617 60.7468 51.1498 60.718 51.1335 60.695C51.0614 60.653 51.0004 60.6218 50.9471 60.6029C50.9293 60.5998 50.9112 60.5971 50.8932 60.5943C50.8753 60.5916 50.8575 60.5889 50.84 60.5858C50.8331 60.5846 50.8265 60.5835 50.82 60.5828C50.7391 60.591 50.675 60.6493 50.6035 60.7683L50.5999 60.7834C50.5357 61.0601 50.3875 61.1747 50.1554 61.1547C50.1354 61.1657 50.1158 61.1776 50.097 61.1909C50.0724 61.2067 50.0444 61.2206 50.0164 61.2311C50.0067 61.2346 49.9966 61.2377 49.9866 61.2408C49.9765 61.2438 49.9664 61.2469 49.9568 61.2504C49.9459 61.2537 49.9353 61.2565 49.9249 61.2586C49.7971 61.3485 49.6684 61.3022 49.5487 61.1577C49.4348 61.0213 49.3296 60.9845 49.1719 61.0895C49.0556 61.1682 48.9346 61.1386 48.812 61.1085C48.7222 61.0865 48.6315 61.0643 48.5411 61.0842C48.4921 61.0947 48.4535 61.002 48.4518 60.9268C48.4518 60.6668 48.3725 60.6971 48.2364 60.7492C48.2069 60.7605 48.1745 60.7728 48.1399 60.7834L48.1286 60.787C48.0841 60.8131 48.0363 60.8322 47.9873 60.8487C47.761 60.9782 47.6635 61.2057 47.5662 61.4328C47.5252 61.5284 47.4843 61.6239 47.4338 61.712C47.3373 61.8797 47.256 62.0598 47.1753 62.2388L47.1446 62.3066C47.0325 62.5549 46.8766 62.7281 46.5962 62.7211C46.5894 62.7211 46.5823 62.7214 46.575 62.7221C46.5293 62.7494 46.4879 62.7737 46.45 62.7949C46.2256 63.0443 46.031 62.9754 45.8428 62.7071C45.8165 62.6703 45.7394 62.6319 45.7096 62.6459C45.3162 62.8405 44.9712 62.7582 44.6524 62.4958C44.6296 62.5026 44.6069 62.5107 44.5846 62.52C44.3445 62.7263 44.108 62.7753 43.8784 62.5042C43.7943 62.4046 43.6962 62.4168 43.5963 62.471C43.582 62.4786 43.5678 62.487 43.5537 62.4954C43.4869 62.5352 43.4212 62.5743 43.3387 62.5252C43.2777 62.4491 43.198 62.4432 43.116 62.4372C43.1038 62.4363 43.0916 62.4354 43.0794 62.4343C42.934 62.4203 42.8113 62.3731 42.8078 62.179C42.8078 62.0845 42.7693 61.9814 42.6817 61.9674C42.4521 61.9306 42.2664 61.8432 42.149 61.6106C42.1176 61.5479 42.067 61.5667 42.0162 61.5855C41.9934 61.594 41.9705 61.6025 41.9492 61.6036C41.6742 61.6194 41.4061 61.6106 41.2291 61.3273C41.21 61.2852 41.2009 61.2418 41.1971 61.1974C41.0514 61.0312 40.8553 60.9622 40.6586 60.893C40.5102 60.8408 40.3615 60.7885 40.234 60.6942C40.1657 60.6435 40.0325 60.7712 39.9554 60.8691C39.6452 61.2643 39.5787 61.2573 39.3439 60.8079C39.3388 60.7982 39.3346 60.7879 39.3311 60.7771L39.2912 60.7118C39.2771 60.682 39.2684 60.6523 39.2614 60.6191L39.264 60.5914C39.2274 60.4757 39.2559 60.3563 39.2835 60.2404C39.2886 60.219 39.2937 60.1977 39.2983 60.1766C39.3284 60.0405 39.3271 59.9052 39.3258 59.7702C39.3253 59.7162 39.3248 59.6622 39.3263 59.6083C39.3299 59.4999 39.2913 59.3582 39.2107 59.3547C39.0104 59.3445 38.8762 59.2195 38.7429 59.0952C38.6682 59.0256 38.5938 58.9562 38.5081 58.9074C38.4856 58.9019 38.4628 58.8971 38.4396 58.893L38.4051 58.8908C38.36 58.8879 38.3152 58.8851 38.2707 58.8812C38.0983 58.8918 37.9285 58.8875 37.7727 58.7583C37.6763 58.7405 37.5729 58.7477 37.4708 58.7761C37.4005 58.8477 37.315 58.9002 37.2294 58.9528C37.0755 59.0475 36.9214 59.1422 36.8557 59.3477C36.8417 59.3914 36.7856 59.4334 36.7401 59.4526C36.6971 59.4695 36.6588 59.4893 36.6249 59.5118C36.5833 59.5517 36.5412 59.5909 36.499 59.6301C36.4022 59.7596 36.3711 59.931 36.3634 60.1207C36.3623 60.148 36.3619 60.1756 36.3615 60.2033C36.3598 60.3315 36.3581 60.4612 36.2839 60.5691C36.2736 60.5957 36.2595 60.6197 36.2406 60.6401C36.2374 60.6424 36.2342 60.6446 36.231 60.6467C36.1779 60.8133 36.1656 60.9862 36.1533 61.1594C36.1453 61.2714 36.1373 61.3837 36.1183 61.4944C36.1235 61.5098 36.128 61.5264 36.132 61.5442C36.1149 61.7752 35.9635 61.8446 35.8112 61.9145C35.7625 61.9368 35.7137 61.9592 35.6692 61.9869L35.6704 61.998C35.6717 62.0106 35.673 62.0233 35.6747 62.0356C35.5363 62.0845 35.4908 62.2017 35.4592 62.3398L35.4494 62.3833C35.4091 62.5631 35.3687 62.7435 35.2893 62.9134C35.2642 62.9668 35.2439 63.0247 35.2238 63.0823C35.1481 63.2987 35.0737 63.5112 34.7513 63.4643C34.7199 63.4602 34.6912 63.4869 34.6598 63.516C34.6248 63.5485 34.5866 63.5841 34.5376 63.5832V63.585C34.3703 63.6509 34.289 63.5426 34.2074 63.4338C34.1915 63.4126 34.1756 63.3915 34.1591 63.3716C34.1405 63.2033 34.0754 63.2419 34.0103 63.2805C33.9713 63.3037 33.9322 63.3268 33.9033 63.3052L33.9039 63.3028L33.8822 63.3072C33.8171 63.3193 33.7514 63.3316 33.7055 63.2532L33.7053 63.2545C33.686 63.2518 33.6667 63.2496 33.6474 63.2475L33.6142 63.2436C33.6029 63.2558 33.5894 63.2659 33.5737 63.2737C33.4423 63.2982 33.3845 63.209 33.3442 63.0988C33.3152 63.0184 33.2803 62.9498 33.2012 62.9257C33.1984 62.9281 33.1952 62.9304 33.1917 62.9327C33.1642 62.9311 33.136 62.9343 33.1077 62.9375C33.0387 62.9454 32.9693 62.9532 32.9096 62.8924L32.8483 62.826L32.8343 62.8054C32.7686 62.7084 32.7099 62.6216 32.5609 62.6249C32.3086 62.6301 32.0616 62.5847 31.9354 62.2891C31.8962 62.1995 31.8069 62.1752 31.7183 62.1511L31.6989 62.1457C31.5377 62.1003 31.373 62.0495 31.2836 61.8747C31.2705 61.8478 31.2622 61.8181 31.254 61.7884C31.2425 61.7471 31.231 61.7056 31.2062 61.6706C31.1901 61.6568 31.1722 61.6378 31.154 61.6183C31.1395 61.6028 31.1247 61.587 31.1103 61.5734C31.0884 61.5572 31.0652 61.5441 31.0405 61.5357C31.0125 61.5421 30.9959 61.595 31.0034 61.74C31.0071 61.8229 30.9477 61.876 30.889 61.9285C30.8648 61.9502 30.8406 61.9718 30.8211 61.9953C30.8034 62.0169 30.7843 62.0375 30.7652 62.0581C30.6903 62.1388 30.6162 62.2187 30.6301 62.3538C30.6126 62.3643 30.5933 62.3661 30.5741 62.3608L30.5621 62.3489C30.4799 62.2673 30.3981 62.1861 30.4386 62.0531C30.4211 62.0433 30.4031 62.0322 30.3847 62.0198C30.2656 61.8956 30.2568 61.7278 30.2936 61.5826C30.3417 61.3916 30.3617 61.1968 30.3818 61.0021C30.3975 60.8493 30.4133 60.6963 30.4425 60.5456C30.4521 60.5203 30.4618 60.4955 30.4714 60.4706L30.4838 60.4385L30.5004 60.3952L30.5032 60.3965L30.5021 60.3952C30.5669 60.1375 30.619 59.8775 30.6712 59.6173C30.7404 59.272 30.8097 58.9263 30.9086 58.5852C30.9922 58.2982 31.018 57.9899 31.0441 57.6793C31.0623 57.4621 31.0807 57.2436 31.1189 57.0306C31.1609 56.7927 31.1955 56.5527 31.2302 56.3131C31.2403 56.2427 31.2505 56.1723 31.2608 56.102L31.262 56.1003L31.2608 56.1003C31.2443 55.9381 31.262 55.7786 31.2799 55.6176C31.2999 55.4367 31.3202 55.2539 31.2924 55.0633C31.268 55.1297 31.2438 55.1965 31.2197 55.2632C31.1536 55.4458 31.0873 55.629 31.0155 55.8082C30.9472 55.9796 30.8718 56.0583 30.6511 56.123C30.5293 56.159 30.4217 56.1849 30.3196 56.1934C30.2702 56.208 30.2219 56.2076 30.1746 56.1929C30.0525 56.1807 29.9324 56.1369 29.7977 56.0478C29.7686 56.0284 29.7121 56.039 29.644 56.0517C29.5415 56.0709 29.4128 56.0949 29.3117 56.0287L29.3089 56.0321C29.2232 56.1308 29.1774 56.0753 29.132 56.0204C29.1115 55.9955 29.0911 55.9707 29.0671 55.9604L29.0665 55.9584C29.0607 55.957 29.0538 55.9556 29.0465 55.9542L29.0292 55.951C29.0058 55.9467 28.9837 55.9427 28.9849 55.9394C28.9989 55.6946 28.8552 55.6141 28.6642 55.5739C28.6528 55.5716 28.6459 55.5494 28.6385 55.5259C28.6349 55.5142 28.6311 55.5022 28.6267 55.4922L28.6255 55.4917C28.5414 55.3011 28.4713 55.1717 28.2225 55.3238C28.1089 55.3928 27.9442 55.2684 27.8086 55.166L27.7713 55.138L27.7529 55.1245C27.4586 54.9094 27.0643 55.0615 26.9925 55.4392C26.9487 55.6718 26.8786 55.8922 26.7734 56.1003C26.756 56.1348 26.7402 56.1693 26.7247 56.2033C26.6402 56.3882 26.5634 56.5561 26.2793 56.6004C26.0042 56.6424 25.787 56.9537 25.7992 57.3314C25.8097 57.6514 25.6783 57.8525 25.3804 57.9487C25.1386 58.0257 24.9827 58.1883 24.9582 58.4961C24.9415 58.7118 24.8457 58.8989 24.7495 59.0864C24.6937 59.1953 24.6378 59.3044 24.5972 59.4194C24.548 59.5591 24.4558 59.5474 24.3642 59.5358C24.3123 59.5293 24.2607 59.5227 24.217 59.5436L24.2142 59.5412C23.9675 59.7954 23.8762 59.7962 23.658 59.5436C23.6458 59.5293 23.6347 59.5117 23.6236 59.494C23.5868 59.4355 23.5495 59.3761 23.4688 59.4351C23.3135 59.5489 23.1466 59.5277 22.9833 59.507C22.9182 59.4988 22.8537 59.4906 22.7907 59.4911C22.6277 59.4911 22.5944 59.5401 22.5594 59.6642L22.4569 60.0332L22.3544 60.4022L22.3535 60.4051L22.3545 60.404C22.3772 60.7038 22.2729 60.9706 22.1594 61.2338L22.1599 61.2346L22.1584 61.2362C22.0767 61.512 22.0089 61.7928 21.9415 62.0733C21.8122 62.6107 21.6829 63.1479 21.4539 63.6511C21.4352 63.685 21.4265 63.7301 21.4177 63.7751C21.3959 63.887 21.374 63.9994 21.1984 63.9436C21.1949 63.9432 21.1912 63.9426 21.1875 63.9417L21.1629 63.9277L21.1502 63.9388C21.101 64.0691 20.9944 64.1148 20.8872 64.1608C20.8131 64.1926 20.7388 64.2245 20.6828 64.2845C20.669 64.2994 20.6519 64.3105 20.6353 64.3213C20.5952 64.3474 20.5576 64.3719 20.5725 64.4436L20.5725 64.4474L20.5742 64.4454C20.7021 64.7444 20.6495 65.1046 20.3849 65.3442C20.3409 65.3846 20.3052 65.4393 20.2691 65.4948C20.1815 65.6291 20.091 65.768 19.8715 65.7184C19.8297 65.7089 19.7692 65.7968 19.7083 65.8854C19.6838 65.921 19.6591 65.9568 19.6356 65.9864L19.4983 66ZM52.9739 62.8983L58.2741 62.4072C58.2431 62.5054 58.2196 62.6078 58.2026 62.7141C58.1834 62.833 58.1536 62.9677 58.0239 63.0079C57.6752 63.1146 57.542 63.3961 57.4877 63.7459C57.4694 63.7622 57.4527 63.7798 57.4373 63.7984L57.4334 63.8455L57.414 63.8883C57.3885 63.9441 57.3629 64.0004 57.3405 64.0589C57.1688 64.5101 56.7886 64.636 56.4049 64.3754C56.3012 64.3052 56.2017 64.3426 56.0991 64.3811C56.0126 64.4136 55.9238 64.447 55.8284 64.4174C55.8125 64.4124 55.7965 64.4083 55.7809 64.4043C55.7134 64.3869 55.6526 64.3712 55.6427 64.3002C55.6166 64.0958 55.4957 64.0193 55.3497 63.927L55.315 63.905C55.2769 63.8809 55.2427 63.8536 55.2094 63.827C55.1003 63.7399 55.0019 63.6612 54.8139 63.7336C54.7122 63.7721 54.4844 63.6881 54.4003 63.4958C54.332 63.3384 54.2094 63.3087 54.0604 63.3262C53.915 63.3436 53.7731 63.3471 53.6434 63.237C53.5102 63.1233 53.4086 63.223 53.328 63.3349C53.2386 63.4591 53.1615 63.5185 53.0827 63.3297C53.0653 63.2976 53.0642 63.2686 53.0804 63.2426C53.0226 63.1341 52.9942 63.0174 52.9739 62.8983ZM10.9392 62.4951L10.9408 62.4937L10.939 62.4972L10.9392 62.4951ZM24.7856 5.27015C24.766 5.26907 24.7465 5.26789 24.727 5.26659L24.783 5.26048L24.7856 5.27015ZM62.1611 62.0471L62.3769 62.0271C62.3907 62.0178 62.4052 62.0072 62.4203 61.9953C62.4991 61.9331 62.6087 61.9337 62.6971 61.9974L63.2865 61.9428C63.3398 61.8398 63.3336 61.7418 63.2832 61.6484L62.0143 61.7745C62.0317 61.8015 62.0463 61.8301 62.0576 61.8607C62.0897 61.9485 62.122 62.0117 62.1611 62.0471ZM64.0234 61.8607C63.9914 61.8742 63.9615 61.8829 63.9336 61.8872L63.9517 61.8668C63.9612 61.8561 63.9707 61.8454 63.9802 61.8344L63.9832 61.8345V61.831L63.9802 61.8344C63.7897 61.8335 63.7047 61.7383 63.6593 61.611L64.2266 61.5546C64.2114 61.5709 64.1989 61.5909 64.1864 61.611C64.1658 61.6441 64.1452 61.6772 64.1123 61.6928C64.0944 61.7549 64.0756 61.8184 64.0234 61.8607ZM60.9407 61.8812L61.6155 61.8142C61.6118 61.8705 61.5647 61.9148 61.5053 61.9706L61.4846 61.9901C61.3036 62.1638 61.1399 62.1339 60.9574 62.0289C60.9535 61.9777 60.9483 61.9278 60.9407 61.8812ZM35.0405 62.088L35.0449 62.0913C35.0108 62.1872 35.0581 62.251 35.1052 62.3147C35.1331 62.3524 35.1609 62.39 35.1719 62.4343C35.1876 62.4745 35.1999 62.5165 35.2034 62.5602L35.1988 62.584C35.1375 62.8996 35.0766 63.2127 34.704 63.2912C34.6173 63.3085 34.5529 63.3977 34.516 63.4928C34.3987 63.3625 34.2902 63.2299 34.485 63.0586C34.4745 63.0288 34.457 63.0044 34.4325 62.9869C34.3602 62.9622 34.3473 62.8989 34.3343 62.8356C34.3241 62.7853 34.3138 62.735 34.2738 62.7039L34.2782 62.6966V62.6949L34.2782 62.6983C34.3974 62.6424 34.4324 62.5532 34.3676 62.429C34.3233 62.345 34.2783 62.2611 34.2331 62.1771C34.2345 62.167 34.2359 62.1569 34.2372 62.1468C34.2396 62.1289 34.242 62.111 34.245 62.0933C34.2861 61.9807 34.3644 61.9939 34.4441 62.0072C34.456 62.0092 34.4679 62.0112 34.4798 62.0128C34.5535 62.0218 34.6263 62.036 34.6991 62.0503C34.7975 62.0697 34.8959 62.089 34.9967 62.095C35.0124 62.0915 35.0265 62.0898 35.0405 62.088ZM35.5451 59.4509C35.7783 59.5864 35.7243 59.7504 35.646 59.9158C35.5942 59.8604 35.5528 59.7965 35.5114 59.7324C35.4994 59.7137 35.4872 59.695 35.4749 59.6765C35.4715 59.6713 35.4683 59.6661 35.4654 59.6608C35.471 59.6405 35.4738 59.6186 35.4766 59.5967C35.4838 59.5406 35.491 59.4842 35.5451 59.4509ZM21.4118 63.2469C21.4047 63.1939 21.4333 63.1582 21.4682 63.1253L21.4523 63.1582C21.4381 63.1874 21.4239 63.2167 21.4118 63.2469ZM22.1443 60.9531V60.9481L22.1485 60.9499L22.1443 60.9548V60.9531ZM52.6951 61.0693C52.8196 61.0868 52.9023 61.1577 52.9433 61.2821C52.956 61.0665 52.8218 61.0255 52.6951 61.0693ZM10.2128 9.37876C10.1613 9.40607 10.0922 9.40793 9.99278 9.36811C9.94326 9.34877 9.89903 9.41064 9.85155 9.47704C9.84306 9.48892 9.83443 9.50098 9.82568 9.51271C9.88405 9.48695 9.94743 9.47484 10.0085 9.4643C10.0908 9.45047 10.1593 9.42279 10.2128 9.37876ZM8.47282 10.2072C8.51353 10.2427 8.55526 10.2765 8.6037 10.2989C8.5504 10.2864 8.50905 10.2515 8.47282 10.2072ZM4.04886 15.1611C3.95863 15.24 3.8662 15.3174 3.75145 15.3646C3.64836 15.4073 3.60294 15.513 3.57006 15.6286C3.64595 15.5137 3.7505 15.4257 3.85509 15.3377C3.92217 15.2812 3.98932 15.2247 4.04886 15.1611ZM19.4073 65.0207C19.4884 64.9947 19.4989 64.9198 19.5011 64.8433C19.5127 64.8382 19.5233 64.8324 19.5329 64.8261C19.4674 65.0203 19.4494 65.2143 19.6911 65.4089C19.7699 65.4736 19.6735 65.5506 19.5772 65.5751C19.4701 65.6018 19.3936 65.5485 19.3173 65.4953C19.2737 65.465 19.2302 65.4347 19.1812 65.4194C19.1531 65.4177 19.1233 65.4212 19.0953 65.4299C18.9271 65.5348 18.8763 65.4159 18.836 65.276C18.7103 65.1282 18.5412 65.0849 18.3723 65.0417L18.335 65.0321C18.354 65.0082 18.3712 64.9825 18.3884 64.9569C18.4152 64.9171 18.4419 64.8773 18.4752 64.8441C18.4996 64.8211 18.5251 64.8001 18.5499 64.7797L18.5715 64.7619C18.5794 64.7572 18.5873 64.7528 18.5952 64.7485C18.6389 64.7601 18.6793 64.7674 18.703 64.7496C18.8715 64.6192 18.9941 64.7037 19.1158 64.7876C19.1687 64.8241 19.2214 64.8605 19.2777 64.879C19.2988 64.8858 19.3056 64.9144 19.3128 64.9447C19.3242 64.9924 19.3366 65.0442 19.4073 65.0207ZM20.1151 64.5538C20.1587 64.622 20.2118 64.6735 20.2786 64.7C20.1853 64.7523 20.1081 64.8141 20.0864 64.9089C20.0583 64.8221 20.0485 64.7295 20.0485 64.629C20.0468 64.3533 19.9453 64.2896 19.71 64.4024C19.9292 64.2589 20.0124 64.2934 20.1151 64.5538ZM23.9644 59.5916C23.9135 59.5896 23.8646 59.5764 23.8176 59.552C23.8625 59.5986 23.9125 59.6048 23.9644 59.5916ZM28.65 55.3589C28.663 55.3861 28.6824 55.4052 28.7121 55.4075C28.6904 55.393 28.6693 55.377 28.65 55.3589ZM29.1719 55.9016L29.174 55.9254C29.2008 55.9263 29.2221 55.9221 29.2397 55.9143C29.2154 55.9026 29.1917 55.8894 29.169 55.8744L29.1719 55.9016ZM31.8589 61.1697C31.8854 61.1571 31.9106 61.143 31.9357 61.1261C31.9843 61.1567 32.0405 61.1609 32.1019 61.1655C32.1568 61.1696 32.2158 61.174 32.2771 61.1979C32.0878 61.2521 31.9932 61.3745 31.9196 61.5249C31.8513 61.6631 31.7637 61.7068 31.6656 61.5494C31.6449 61.5157 31.6167 61.4901 31.5886 61.4646C31.5716 61.4491 31.5546 61.4337 31.5394 61.4165C31.692 61.3786 31.7985 61.2964 31.8589 61.1697ZM20.392 10.3911L20.3918 10.3935L20.3874 10.3886L20.3925 10.3848L20.392 10.3911ZM21.0918 6.65387L21.0908 6.67298C21.0946 6.68483 21.0988 6.69659 21.1035 6.70826C21.1641 6.85738 21.1449 6.92422 21.0604 6.98142C21.0536 7.00203 21.0447 7.02173 21.035 7.04227L21.0134 7.07354C20.9835 7.11641 20.9545 7.15799 20.9376 7.19958C20.9192 7.30545 20.9667 7.37802 21.1718 7.37802C21.227 7.37802 21.2813 7.41565 21.3078 7.4771C21.3645 7.42246 21.3989 7.35246 21.4332 7.28271C21.4502 7.24791 21.4673 7.21316 21.4871 7.18042C21.6133 6.97581 21.587 6.7817 21.431 6.60508L21.4073 6.57824C21.3655 6.53107 21.323 6.4831 21.2891 6.4302C21.212 6.31303 21.1805 6.18712 21.2646 6.05946C21.2699 6.05137 21.2754 6.04396 21.281 6.03719C21.2242 6.08567 21.1756 6.14785 21.1391 6.21787C21.1072 6.36211 21.0995 6.50804 21.0918 6.65387ZM21.3718 5.97543C21.3684 5.97721 21.365 5.97905 21.3616 5.98093C21.3814 5.9752 21.4018 5.97395 21.4225 5.97587C21.4162 5.97412 21.4101 5.97256 21.404 5.97119C21.3983 5.96988 21.3927 5.96875 21.3873 5.96778C21.3821 5.97022 21.3769 5.97277 21.3718 5.97543ZM54.2847 0.814926L54.2844 0.831924C54.2738 0.832359 54.264 0.833603 54.2549 0.835564C54.2628 0.82737 54.2715 0.819862 54.2812 0.813179L54.2847 0.809685L54.2892 0.808624L54.2847 0.814926ZM15.5402 63.9924C15.5412 64.06 15.567 64.1047 15.6076 64.1287C15.3857 64.1222 15.2332 63.973 15.0934 63.7808L15.0927 63.7796C15.1318 63.7494 15.1504 63.7075 15.1613 63.6615C15.174 63.67 15.1886 63.6739 15.2056 63.6707C15.4561 63.6199 15.5402 63.7441 15.5402 63.9924Z" fill="#F8F1C4" style="fill:#F8F1C4;fill:color(display-p3 0.9725 0.9451 0.7686);fill-opacity:1;"/>
</svg>
