<svg width="419" height="103" viewBox="0 0 419 103" fill="none" xmlns="http://www.w3.org/2000/svg">
<g filter="url(#filter0_i_2168_11013)">
<path d="M4.24975 98.57C3.05047 100.502 4.43996 103 6.71401 103H106.75L159.5 101.496L193 103H200.728C201.238 103 201.743 102.902 202.217 102.713L207.753 100.493C208.562 100.168 209.455 100.117 210.296 100.347L219.482 102.858C219.826 102.952 220.181 103 220.537 103H413.762C416.4 103 418.316 100.492 417.621 97.9471L415.445 89.9715C415.161 88.9282 415.311 87.8141 415.861 86.8831L418.02 83.2301C418.639 82.1828 418.748 80.9108 418.316 79.7736L416.645 75.3759C416.235 74.2974 416.311 73.0946 416.853 72.0761L418.531 68.9211C418.839 68.3427 419 67.6975 419 67.0423V56.4164C419 55.7794 418.848 55.1516 418.556 54.5853L416.876 51.3226C416.322 50.2463 416.285 48.9769 416.776 47.8703L418.657 43.6283C418.883 43.1178 419 42.5655 419 42.007V4C419 1.79086 417.209 0 415 0H288.442C288.148 0 287.855 0.0324238 287.568 0.0966836L265.215 5.10256C264.742 5.20849 264.254 5.22756 263.774 5.15885L228.032 0.0403952C227.844 0.0134993 227.655 0 227.465 0H212H5.5C3.29086 0 1.5 1.79086 1.5 4V17.6679V24.2874C1.5 25.1166 1.75773 25.9254 2.23752 26.6017L3.91007 28.9594C4.8679 30.3097 4.89502 32.1104 3.97828 33.4889L2.16931 36.2089C1.73285 36.8652 1.5 37.6358 1.5 38.424V60.146V57.8905V72.3681C1.5 72.7389 1.44844 73.1079 1.3468 73.4645L0.578635 76.1596C0.216544 77.43 0.505024 78.7973 1.34949 79.8131L3.07042 81.8832C4.17365 83.2103 4.11914 85.1505 2.94314 86.4135V86.4135C2.05855 87.3636 1.78607 88.7316 2.23913 89.9481L4.5035 96.0282C4.81668 96.8691 4.72299 97.8076 4.24975 98.57V98.57Z" fill="#3A4A20"/>
</g>
<defs>
<filter id="filter0_i_2168_11013" x="0.425781" y="0" width="418.574" height="107" filterUnits="userSpaceOnUse" color-interpolation-filters="sRGB">
<feFlood flood-opacity="0" result="BackgroundImageFix"/>
<feBlend mode="normal" in="SourceGraphic" in2="BackgroundImageFix" result="shape"/>
<feColorMatrix in="SourceAlpha" type="matrix" values="0 0 0 0 0 0 0 0 0 0 0 0 0 0 0 0 0 0 127 0" result="hardAlpha"/>
<feOffset dy="4"/>
<feGaussianBlur stdDeviation="2"/>
<feComposite in2="hardAlpha" operator="arithmetic" k2="-1" k3="1"/>
<feColorMatrix type="matrix" values="0 0 0 0 0 0 0 0 0 0 0 0 0 0 0 0 0 0 0.25 0"/>
<feBlend mode="normal" in2="shape" result="effect1_innerShadow_2168_11013"/>
</filter>
</defs>
</svg>
