<svg width="96" height="81" viewBox="0 0 96 81" fill="none" xmlns="http://www.w3.org/2000/svg">
<g filter="url(#filter0_di_1_1764)">
<path d="M91.5159 2.17749C92.9517 2.17749 94.1157 3.34149 94.1157 4.77735L94.1157 62.2744C94.1157 62.7814 93.9674 63.2774 93.6891 63.7013L92.167 66.0196C91.8025 66.5747 92.0483 67.3247 92.6707 67.5564C93.36 67.8131 93.5687 68.6869 93.0697 69.2273L92.5038 69.8402C91.9195 70.4731 91.9437 71.4556 92.5584 72.0589L93.337 72.8232C93.8351 73.3121 94.1157 73.9807 94.1157 74.6786L94.1157 75.4001C94.1157 76.836 92.9517 78 91.5159 78L47.9981 78L36.8217 77.2143C36.5874 77.1979 36.3521 77.2132 36.122 77.2599L32.7899 77.9366C32.5826 77.9787 32.3709 77.9953 32.1595 77.9861L13.8533 77.1895L4.65593 77.8121C3.1544 77.9137 1.88049 76.7231 1.88049 75.2182L1.88049 40.0887L1.88049 33.3444C1.88049 32.8511 2.18605 32.4093 2.64769 32.2352L2.80365 32.1763C3.67638 31.8472 3.77524 30.6522 2.96848 30.1841C2.39148 29.8493 2.23974 29.0838 2.6454 28.5543L3.81779 27.0237C4.51142 26.1182 4.53382 24.8664 3.87303 23.9366L2.36121 21.8095C2.0485 21.3695 1.88049 20.8431 1.88049 20.3033L1.88049 4.77734C1.88049 3.34148 3.04449 2.17749 4.48035 2.17749L91.5159 2.17749Z" fill="#3A4A20" shape-rendering="crispEdges"/>
<path d="M47.9525 78.6483L47.9753 78.6499L47.9981 78.6499L91.5159 78.6499C93.3107 78.6499 94.7657 77.1949 94.7657 75.4001L94.7657 74.6786C94.7657 73.8062 94.4149 72.9704 93.7923 72.3593L93.0136 71.595C92.6496 71.2378 92.6353 70.6559 92.9813 70.2812L93.5473 69.6682C94.3598 68.7882 94.02 67.3652 92.8975 66.9473C92.6662 66.8612 92.5749 66.5826 92.7103 66.3763L94.2325 64.058C94.5803 63.5282 94.7657 62.9082 94.7657 62.2744L94.7657 4.77735C94.7657 2.98252 93.3107 1.52753 91.5159 1.52753L4.48035 1.52752C2.68553 1.52752 1.23053 2.98251 1.23053 4.77734L1.23053 20.3033C1.23053 20.978 1.44054 21.636 1.83142 22.186L3.34325 24.3131C3.83884 25.0105 3.82204 25.9494 3.30181 26.6285L2.12942 28.159C1.48545 28.9997 1.72633 30.2148 2.64229 30.7463C2.97513 30.9394 2.93434 31.4324 2.57429 31.5682L2.41833 31.627C1.7036 31.8965 1.23053 32.5806 1.23053 33.3444L1.23053 40.0887L1.23053 75.2182C1.23053 77.0994 2.82291 78.5876 4.69983 78.4606L13.8612 77.8404L32.1312 78.6355C32.3955 78.647 32.6601 78.6262 32.9193 78.5735L36.2513 77.8969C36.4239 77.8618 36.6004 77.8503 36.7761 77.8627L47.9525 78.6483Z" stroke="#CCDA8E" stroke-opacity="0.2" stroke-width="1.29993" shape-rendering="crispEdges"/>
</g>
<defs>
<filter id="filter0_di_1_1764" x="0.580566" y="0.877563" width="94.8351" height="81.0222" filterUnits="userSpaceOnUse" color-interpolation-filters="sRGB">
<feFlood flood-opacity="0" result="BackgroundImageFix"/>
<feColorMatrix in="SourceAlpha" type="matrix" values="0 0 0 0 0 0 0 0 0 0 0 0 0 0 0 0 0 0 127 0" result="hardAlpha"/>
<feOffset dy="1.29993"/>
<feComposite in2="hardAlpha" operator="out"/>
<feColorMatrix type="matrix" values="0 0 0 0 0.384314 0 0 0 0 0.454902 0 0 0 0 0.25098 0 0 0 1 0"/>
<feBlend mode="normal" in2="BackgroundImageFix" result="effect1_dropShadow_1_1764"/>
<feBlend mode="normal" in="SourceGraphic" in2="effect1_dropShadow_1_1764" result="shape"/>
<feColorMatrix in="SourceAlpha" type="matrix" values="0 0 0 0 0 0 0 0 0 0 0 0 0 0 0 0 0 0 127 0" result="hardAlpha"/>
<feOffset dy="2.59986"/>
<feGaussianBlur stdDeviation="1.29993"/>
<feComposite in2="hardAlpha" operator="arithmetic" k2="-1" k3="1"/>
<feColorMatrix type="matrix" values="0 0 0 0 0 0 0 0 0 0 0 0 0 0 0 0 0 0 0.25 0"/>
<feBlend mode="normal" in2="shape" result="effect2_innerShadow_1_1764"/>
</filter>
</defs>
</svg>
