<svg width="96" height="467" viewBox="0 0 96 467" fill="none" xmlns="http://www.w3.org/2000/svg">
<g filter="url(#filter0_di_1_1731)">
<path d="M91.8738 1.68164C93.3096 1.68164 94.4736 2.84564 94.4736 4.2815L94.4736 373.144L91.8872 397.181C91.8386 397.634 91.9094 398.091 92.0926 398.507L94.1697 403.226C94.3682 403.677 94.4345 404.175 94.3608 404.662L91.8749 421.091C91.8339 421.362 91.836 421.638 91.8811 421.908L94.4381 437.223C94.4617 437.365 94.4736 437.508 94.4736 437.651L94.4736 461.761C94.4736 463.197 93.3096 464.361 91.8738 464.361L48.8901 464.361C48.5377 464.361 48.189 464.29 47.8652 464.151L38.6374 460.192C37.5666 459.733 36.3209 460.042 35.5892 460.949L33.8953 463.048C33.2508 463.847 32.1967 464.192 31.2048 463.928L15.0597 459.641C14.5093 459.495 13.9262 459.533 13.3999 459.751L5.8308 462.877C4.11929 463.584 2.23838 462.326 2.23838 460.474L2.23839 233.021L2.2384 187.404C2.2384 187.047 2.31171 186.695 2.45378 186.368L4.97292 180.57C5.21191 180.02 5.25343 179.405 5.09043 178.827L2.38171 169.237C2.28713 168.902 2.26073 168.552 2.30407 168.207L5.30329 144.314C5.32932 144.107 5.33025 143.897 5.30608 143.69L2.2384 117.352L2.2384 4.2815C2.2384 2.84563 3.4024 1.68164 4.83826 1.68164L91.8738 1.68164Z" fill="#3A4A20" shape-rendering="crispEdges"/>
<path d="M95.1199 373.214L95.1236 373.179L95.1236 373.144L95.1236 4.2815C95.1236 2.48667 93.6686 1.03168 91.8738 1.03168L4.83826 1.03167C3.04344 1.03167 1.58844 2.48667 1.58844 4.2815L1.58843 117.352L1.58843 117.389L1.5928 117.427L4.66048 143.765C4.67861 143.921 4.6779 144.078 4.65838 144.233L1.65916 168.126C1.60499 168.557 1.63799 168.995 1.75621 169.414L4.46494 179.004C4.58718 179.437 4.55605 179.899 4.37681 180.311L1.85767 186.109C1.68008 186.517 1.58843 186.958 1.58843 187.404L1.58843 233.021L1.58842 460.474C1.58842 462.789 3.93955 464.362 6.07894 463.478L13.648 460.352C14.0427 460.189 14.4801 460.16 14.8929 460.269L31.038 464.556C32.2779 464.886 33.5955 464.455 34.4011 463.456L36.095 461.357C36.6438 460.677 37.578 460.445 38.3811 460.79L47.6089 464.748C48.0137 464.922 48.4496 465.011 48.8901 465.011L91.8738 465.011C93.6686 465.011 95.1236 463.556 95.1236 461.761L95.1236 437.651C95.1236 437.472 95.1087 437.293 95.0792 437.116L92.5222 421.801C92.4884 421.598 92.4868 421.392 92.5175 421.188L95.0034 404.759C95.0956 404.15 95.0127 403.528 94.7646 402.964L92.6875 398.245C92.5501 397.933 92.497 397.59 92.5335 397.251L95.1199 373.214Z" stroke="#CCDA8E" stroke-opacity="0.2" stroke-width="1.29993" shape-rendering="crispEdges"/>
</g>
<defs>
<filter id="filter0_di_1_1731" x="0.938477" y="0.381714" width="94.8351" height="467.879" filterUnits="userSpaceOnUse" color-interpolation-filters="sRGB">
<feFlood flood-opacity="0" result="BackgroundImageFix"/>
<feColorMatrix in="SourceAlpha" type="matrix" values="0 0 0 0 0 0 0 0 0 0 0 0 0 0 0 0 0 0 127 0" result="hardAlpha"/>
<feOffset dy="1.29993"/>
<feComposite in2="hardAlpha" operator="out"/>
<feColorMatrix type="matrix" values="0 0 0 0 0.384314 0 0 0 0 0.454902 0 0 0 0 0.25098 0 0 0 1 0"/>
<feBlend mode="normal" in2="BackgroundImageFix" result="effect1_dropShadow_1_1731"/>
<feBlend mode="normal" in="SourceGraphic" in2="effect1_dropShadow_1_1731" result="shape"/>
<feColorMatrix in="SourceAlpha" type="matrix" values="0 0 0 0 0 0 0 0 0 0 0 0 0 0 0 0 0 0 127 0" result="hardAlpha"/>
<feOffset dy="2.59986"/>
<feGaussianBlur stdDeviation="1.29993"/>
<feComposite in2="hardAlpha" operator="arithmetic" k2="-1" k3="1"/>
<feColorMatrix type="matrix" values="0 0 0 0 0 0 0 0 0 0 0 0 0 0 0 0 0 0 0.25 0"/>
<feBlend mode="normal" in2="shape" result="effect2_innerShadow_1_1731"/>
</filter>
</defs>
</svg>
