<svg width="78" height="79" viewBox="0 0 78 79" fill="none" xmlns="http://www.w3.org/2000/svg">
<path d="M0.674046 3.26968C0.465687 2.08542 1.37681 1 2.57926 1H19.5508L29.0178 1.95205C29.1468 1.96503 29.2768 1.965 29.4058 1.95196L38.827 1H49.8651C50.1345 1 50.4009 1.05626 50.6472 1.16518L53.4799 2.4174C54.199 2.73532 55.0391 2.58631 55.605 2.04046L56.1217 1.54212C56.4822 1.19434 56.9637 1 57.4646 1H75.2894C76.4165 1 77.305 1.95983 77.2181 3.08364L76.6649 10.2371C76.6528 10.3936 76.6598 10.551 76.6857 10.7059L77.3353 14.5824C77.3644 14.7565 77.3696 14.9338 77.3507 15.1093L76.8566 19.697C76.8388 19.862 76.8423 20.0286 76.8671 20.1927L77.3576 23.4455C77.372 23.5409 77.3792 23.6374 77.3792 23.7339V31.5853C77.3792 31.6788 77.3725 31.7722 77.359 31.8647L76.8677 35.2306C76.8426 35.4031 76.8408 35.5782 76.8626 35.7512L77.3792 39.8626V76.7907C77.3792 77.8591 76.5131 78.7252 75.4448 78.7252H69.8096C69.3744 78.7252 68.9519 78.5784 68.6104 78.3086L65.8029 76.0904C65.2119 75.6235 64.4036 75.542 63.7313 75.8817L58.5145 78.5173C58.244 78.654 57.9452 78.7252 57.6422 78.7252H38.827H2.2092C1.14082 78.7252 0.274719 77.8591 0.274719 76.7907V67.9169C0.274719 67.6568 0.564314 67.5013 0.781108 67.6451V67.6451C1.01358 67.7992 1.31973 67.6094 1.28495 67.3326L0.274719 59.2939V39.8626V30.1469V20.4313L0.0245022 17.3341C0.0082672 17.1332 0.0235463 16.9309 0.0697862 16.7347L0.804934 13.6148C0.877681 13.306 0.873398 12.9842 0.79246 12.6775L0.36536 11.0591C0.305434 10.832 0.287355 10.5959 0.31201 10.3624L0.887181 4.91382C0.906121 4.7344 0.899869 4.55322 0.868608 4.37553L0.674046 3.26968Z" fill="#2A3717"/>
<g filter="url(#filter0_i_2168_11026)">
<path d="M0.674046 2.26968C0.465687 1.08542 1.37681 0 2.57926 0H19.5508L29.0178 0.952052C29.1468 0.965028 29.2768 0.964997 29.4058 0.95196L38.827 0H49.8651C50.1345 0 50.4009 0.0562595 50.6472 0.165175L53.4799 1.4174C54.199 1.73532 55.0391 1.58631 55.605 1.04046L56.1217 0.54212C56.4822 0.19434 56.9637 0 57.4646 0H75.2894C76.4165 0 77.305 0.959826 77.2181 2.08364L76.6649 9.23706C76.6528 9.39361 76.6598 9.55105 76.6857 9.70591L77.3353 13.5824C77.3644 13.7565 77.3696 13.9338 77.3507 14.1093L76.8566 18.697C76.8388 18.862 76.8423 19.0286 76.8671 19.1927L77.3576 22.4455C77.372 22.5409 77.3792 22.6374 77.3792 22.7339V30.5853C77.3792 30.6788 77.3725 30.7722 77.359 30.8647L76.8677 34.2306C76.8426 34.4031 76.8408 34.5782 76.8626 34.7512L77.3792 38.8626V75.7907C77.3792 76.8591 76.5131 77.7252 75.4448 77.7252H69.8096C69.3744 77.7252 68.9519 77.5784 68.6104 77.3086L65.8029 75.0904C65.2119 74.6235 64.4036 74.542 63.7313 74.8817L58.5145 77.5173C58.244 77.654 57.9452 77.7252 57.6422 77.7252H38.827H2.2092C1.14082 77.7252 0.274719 76.8591 0.274719 75.7907V66.9169C0.274719 66.6568 0.564314 66.5013 0.781108 66.6451V66.6451C1.01358 66.7992 1.31973 66.6094 1.28495 66.3326L0.274719 58.2939V38.8626V29.1469V19.4313L0.0245022 16.3341C0.0082672 16.1332 0.0235463 15.9309 0.0697862 15.7347L0.804934 12.6148C0.877681 12.306 0.873398 11.9842 0.79246 11.6775L0.36536 10.0591C0.305434 9.83203 0.287355 9.59595 0.31201 9.3624L0.887181 3.91382C0.906121 3.7344 0.899869 3.55322 0.868608 3.37553L0.674046 2.26968Z" fill="#3A4A20"/>
</g>
<defs>
<filter id="filter0_i_2168_11026" x="0.0185547" y="0" width="77.3604" height="79.6597" filterUnits="userSpaceOnUse" color-interpolation-filters="sRGB">
<feFlood flood-opacity="0" result="BackgroundImageFix"/>
<feBlend mode="normal" in="SourceGraphic" in2="BackgroundImageFix" result="shape"/>
<feColorMatrix in="SourceAlpha" type="matrix" values="0 0 0 0 0 0 0 0 0 0 0 0 0 0 0 0 0 0 127 0" result="hardAlpha"/>
<feOffset dy="1.93448"/>
<feGaussianBlur stdDeviation="0.96724"/>
<feComposite in2="hardAlpha" operator="arithmetic" k2="-1" k3="1"/>
<feColorMatrix type="matrix" values="0 0 0 0 0 0 0 0 0 0 0 0 0 0 0 0 0 0 0.25 0"/>
<feBlend mode="normal" in2="shape" result="effect1_innerShadow_2168_11026"/>
</filter>
</defs>
</svg>
