<svg width="427" height="166" viewBox="0 0 427 166" fill="none" xmlns="http://www.w3.org/2000/svg">
<g filter="url(#filter0_di_424_1203)">
<path d="M6.65605 7.69154C5.41849 5.03962 7.35431 2 10.2808 2H109.25L162 4L214.5 2H276.669C276.889 2 277.109 2.0182 277.327 2.05442L299.963 5.8272C300.643 5.94048 301.34 5.87627 301.988 5.6408L311.338 2.24083C311.776 2.0815 312.238 2 312.705 2H420.096C422.628 2 424.523 4.3232 424.015 6.80378L421.258 20.2436C421.09 21.0607 421.182 21.9098 421.521 22.672L424.41 29.1729C424.791 30.0303 424.859 30.9943 424.601 31.8964L422.376 39.6852C422.132 40.5375 422.179 41.4466 422.508 42.2696L424.714 47.7848C424.903 48.2572 425 48.7615 425 49.2703V64.5028C425 64.9967 424.909 65.4862 424.73 65.9468L422.52 71.6572C422.184 72.5251 422.161 73.4831 422.455 74.366L424.795 81.3842C424.931 81.7921 425 82.2192 425 82.6491V158C425 160.209 423.209 162 421 162H380.583C380.196 162 379.812 161.944 379.441 161.834L357.434 155.278C356.82 155.095 356.172 155.062 355.543 155.182L320.121 161.929C319.874 161.976 319.624 162 319.372 162H214.5H8C5.79086 162 4 160.209 4 158V141.053C4 139.756 5.21879 138.805 6.47696 139.119C8.00303 139.501 9.34907 138.047 8.85163 136.555L4.20527 122.616C4.06931 122.208 4 121.781 4 121.351V82V62V42.4238C4 42.142 3.97024 41.8611 3.91121 41.5856L2.83947 36.5842C2.62175 35.5682 2.80796 34.5073 3.35869 33.6261L6.09687 29.245C6.94757 27.8839 6.90227 26.1461 5.98181 24.8312L5.08514 23.5502C4.39821 22.5689 4.18723 21.3313 4.51021 20.1778L7.10041 10.9271C7.35824 10.0063 7.27766 9.02357 6.87329 8.15704L6.65605 7.69154Z" fill="#3c4721" style="fill:#3c4721;fill:color(display-p3 0.2353 0.2784 0.1294);fill-opacity:1;"/>
<path d="M109.288 1.00072L109.269 1H109.25H10.2808C6.62269 1 4.20291 4.79952 5.74987 8.11443L5.9671 8.57993C6.27039 9.22982 6.33082 9.96686 6.13745 10.6575L3.54724 19.9082C3.14352 21.3501 3.40724 22.897 4.26591 24.1237L5.06898 23.5615L4.26591 24.1237L5.16258 25.4046C5.85292 26.3908 5.8869 27.6942 5.24888 28.715L2.51069 33.0961C1.82228 34.1976 1.58952 35.5237 1.86167 36.7937L2.93341 41.7952C2.97768 42.0018 3 42.2125 3 42.4238V62V82V121.351C3 121.888 3.08664 122.422 3.25658 122.932L4.20284 122.617L3.25658 122.932L7.90295 136.871C8.15085 137.615 7.48003 138.339 6.7195 138.149C4.83018 137.677 3 139.106 3 141.053V158C3 160.761 5.23858 163 8 163H214.5H319.372C319.686 163 320 162.97 320.308 162.912L355.73 156.165C356.202 156.075 356.688 156.099 357.148 156.236L379.156 162.792C379.619 162.93 380.1 163 380.583 163H421C423.761 163 426 160.761 426 158V82.6491C426 82.1117 425.913 81.5778 425.743 81.068L423.404 74.0498C423.183 73.3876 423.2 72.6691 423.452 72.0182L425.663 66.3078L424.73 65.9468L425.663 66.3077C425.886 65.7321 426 65.1201 426 64.5028V49.2703C426 48.6342 425.879 48.004 425.642 47.4134L423.436 41.8983C423.189 41.281 423.155 40.5991 423.337 39.9599L425.563 32.1711C425.885 31.0435 425.8 29.8384 425.324 28.7668L422.435 22.2659C422.181 21.6942 422.112 21.0574 422.237 20.4446L424.994 7.00472C425.63 3.904 423.261 1 420.096 1H312.705C312.122 1 311.544 1.10188 310.996 1.30103L301.646 4.70101C301.16 4.87761 300.637 4.92577 300.128 4.84081L277.491 1.06803C277.219 1.02275 276.944 1 276.669 1H214.5H214.481L214.462 1.00072L162 2.99928L109.288 1.00072Z" stroke="#CDB984" style="stroke:#CDB984;stroke:color(display-p3 0.8034 0.7254 0.5187);stroke-opacity:1;" stroke-width="2"/>
<path d="M109.288 1.00072L109.269 1H109.25H10.2808C6.62269 1 4.20291 4.79952 5.74987 8.11443L5.9671 8.57993C6.27039 9.22982 6.33082 9.96686 6.13745 10.6575L3.54724 19.9082C3.14352 21.3501 3.40724 22.897 4.26591 24.1237L5.06898 23.5615L4.26591 24.1237L5.16258 25.4046C5.85292 26.3908 5.8869 27.6942 5.24888 28.715L2.51069 33.0961C1.82228 34.1976 1.58952 35.5237 1.86167 36.7937L2.93341 41.7952C2.97768 42.0018 3 42.2125 3 42.4238V62V82V121.351C3 121.888 3.08664 122.422 3.25658 122.932L4.20284 122.617L3.25658 122.932L7.90295 136.871C8.15085 137.615 7.48003 138.339 6.7195 138.149C4.83018 137.677 3 139.106 3 141.053V158C3 160.761 5.23858 163 8 163H214.5H319.372C319.686 163 320 162.97 320.308 162.912L355.73 156.165C356.202 156.075 356.688 156.099 357.148 156.236L379.156 162.792C379.619 162.93 380.1 163 380.583 163H421C423.761 163 426 160.761 426 158V82.6491C426 82.1117 425.913 81.5778 425.743 81.068L423.404 74.0498C423.183 73.3876 423.2 72.6691 423.452 72.0182L425.663 66.3078L424.73 65.9468L425.663 66.3077C425.886 65.7321 426 65.1201 426 64.5028V49.2703C426 48.6342 425.879 48.004 425.642 47.4134L423.436 41.8983C423.189 41.281 423.155 40.5991 423.337 39.9599L425.563 32.1711C425.885 31.0435 425.8 29.8384 425.324 28.7668L422.435 22.2659C422.181 21.6942 422.112 21.0574 422.237 20.4446L424.994 7.00472C425.63 3.904 423.261 1 420.096 1H312.705C312.122 1 311.544 1.10188 310.996 1.30103L301.646 4.70101C301.16 4.87761 300.637 4.92577 300.128 4.84081L277.491 1.06803C277.219 1.02275 276.944 1 276.669 1H214.5H214.481L214.462 1.00072L162 2.99928L109.288 1.00072Z" stroke="url(#paint0_linear_424_1203)" style="" stroke-width="2"/>
</g>
<defs>
<filter id="filter0_di_424_1203" x="0.750671" y="0" width="426.249" height="168" filterUnits="userSpaceOnUse" color-interpolation-filters="sRGB">
<feFlood flood-opacity="0" result="BackgroundImageFix"/>
<feColorMatrix in="SourceAlpha" type="matrix" values="0 0 0 0 0 0 0 0 0 0 0 0 0 0 0 0 0 0 127 0" result="hardAlpha"/>
<feOffset dy="2"/>
<feComposite in2="hardAlpha" operator="out"/>
<feColorMatrix type="matrix" values="0 0 0 0 0.486275 0 0 0 0 0.443137 0 0 0 0 0.313726 0 0 0 1 0"/>
<feBlend mode="normal" in2="BackgroundImageFix" result="effect1_dropShadow_424_1203"/>
<feBlend mode="normal" in="SourceGraphic" in2="effect1_dropShadow_424_1203" result="shape"/>
<feColorMatrix in="SourceAlpha" type="matrix" values="0 0 0 0 0 0 0 0 0 0 0 0 0 0 0 0 0 0 127 0" result="hardAlpha"/>
<feOffset dy="4"/>
<feGaussianBlur stdDeviation="2"/>
<feComposite in2="hardAlpha" operator="arithmetic" k2="-1" k3="1"/>
<feColorMatrix type="matrix" values="0 0 0 0 0.240641 0 0 0 0 0.211607 0 0 0 0 0.136947 0 0 0 0.2 0"/>
<feBlend mode="normal" in2="shape" result="effect2_innerShadow_424_1203"/>
</filter>
<linearGradient id="paint0_linear_424_1203" x1="21" y1="7.00001" x2="274.5" y2="178.5" gradientUnits="userSpaceOnUse">
<stop stop-color="#FFE600" style="stop-color:#FFE600;stop-color:color(display-p3 1.0000 0.9000 0.0000);stop-opacity:1;"/>
<stop offset="0.35" stop-color="#00FF94" style="stop-color:#00FF94;stop-color:color(display-p3 0.0000 1.0000 0.5800);stop-opacity:1;"/>
<stop offset="0.665" stop-color="#00FFFF" style="stop-color:#00FFFF;stop-color:color(display-p3 0.0000 1.0000 1.0000);stop-opacity:1;"/>
<stop offset="0.995" stop-color="#0094FF" style="stop-color:#0094FF;stop-color:color(display-p3 0.0000 0.5800 1.0000);stop-opacity:1;"/>
</linearGradient>
</defs>
</svg>
