<?xml version="1.0" encoding="UTF-8"?>
<svg xmlns="http://www.w3.org/2000/svg" version="1.1" viewBox="0 0 35 35">
  <defs>
    <style>
      .cls-1, .cls-2 {
        fill: #bf7449;
      }

      .cls-3, .cls-4 {
        fill: #f9a94b;
      }

      .cls-5, .cls-6 {
        fill: #252b18;
      }

      .cls-4 {
        opacity: .59;
      }

      .cls-4, .cls-2 {
        mix-blend-mode: multiply;
      }

      .cls-7 {
        fill: #eca8ff;
      }

      .cls-6, .cls-8 {
        stroke: #252b18;
        stroke-miterlimit: 10;
      }

      .cls-9 {
        isolation: isolate;
      }

      .cls-2 {
        opacity: .29;
      }

      .cls-10 {
        fill: #ffe270;
      }

      .cls-11 {
        fill: #faaa55;
      }

      .cls-8 {
        fill: none;
      }

      .cls-12 {
        mix-blend-mode: hue;
      }

      .cls-12, .cls-13 {
        opacity: .26;
      }

      .cls-12, .cls-13, .cls-14 {
        fill: #b381cc;
      }

      .cls-13 {
        mix-blend-mode: hard-light;
      }
    </style>
  </defs>
  <!-- Generator: Adobe Illustrator 28.6.0, SVG Export Plug-In . SVG Version: 1.2.0 Build 709)  -->
  <g class="cls-9">
    <g id="MAIN">
      <path class="cls-6" d="M12.396,3.184l-7.66,4.197c-.562.308-.967.839-1.115,1.462l-2.524,8.539c-.125.525-.059,3.133.187,3.614l5.361,10.473c.336.656.969,1.107,1.698,1.211l11.819,1.678c.504.072,1.017-.029,1.457-.284l7.74-4.497c.518-.301.896-.795,1.051-1.374l2.359-8.836c.12-.451.233-2.341.072-2.779l-3.756-8.427c-.16-.435-.45-.811-.83-1.076l-4.785-3.336c-.348-.243-.758-.383-1.182-.404l-8.687-.434c-.418-.021-.834.075-1.202.276Z"/>
      <path class="cls-8" d="M12.396,1.045l-7.66,4.197c-.562.308-.967.839-1.115,1.462l-2.524,10.596c-.125.525-.059,1.077.187,1.557l5.361,10.473c.336.656.969,1.107,1.698,1.211l11.819,1.678c.504.072,1.017-.029,1.457-.284l7.74-4.497c.518-.301.896-.795,1.051-1.374l2.359-8.836c.12-.451.098-.928-.063-1.367l-3.621-9.84c-.16-.435-.45-.811-.83-1.076l-4.785-3.336c-.348-.243-.758-.383-1.182-.404l-8.687-.434c-.418-.021-.834.075-1.202.276Z"/>
      <g>
        <path class="cls-14" d="M32.39,18.64l-1.98,7.42c-.16.58-.53,1.08-1.05,1.38l-7.74,4.49c-.44.26-.96.36-1.46.29l-9.7-1.38,6.215-11.46,15.715-.74Z"/>
        <path class="cls-3" d="M32.77,17.23l-.38,1.41-15.715.74L8.55,3.15l3.85-2.11c.36-.2.78-.29,1.2-.27l8.68.43c.43.02.84.16,1.19.41l4.78,3.33c.38.27.67.64.83,1.08l3.62,9.84c.17.44.19.91.07,1.37Z"/>
        <path class="cls-1" d="M16.675,19.38l-6.215,11.46-2.12-.3c-.73-.1-1.36-.56-1.7-1.21L1.28,18.86c-.24-.48-.31-1.04-.18-1.56L3.62,6.7c.15-.62.55-1.15,1.12-1.46l3.81-2.09,8.125,16.23Z"/>
        <path class="cls-2" d="M16.675,19.38l-6.374-12.732,8.727-.401c.537-.047,1.066.154,1.437.545l4.65,4.906c.377.398.548.949.463,1.49l-.914,5.815-7.989.376Z"/>
        <path class="cls-4" d="M24.665,19.003l-2.843,6.84c-.258.599-.869.968-1.519.918l-7.477-.285,3.849-7.097,7.989-.376Z"/>
        <path class="cls-13" d="M12.826,26.477l-5.053-7.101c-.271-.37-.256-.877.036-1.231l5.22-6.05,3.647,7.284-3.849,7.097Z"/>
        <path class="cls-12" d="M13.029,12.095l3.647,7.284,2.619-5.268c.28-.563-.096-1.232-.723-1.284l-5.542-.732Z"/>
      </g>
      <path class="cls-11" d="M8.245,4.232c-.952.508-2.087.943-2.941,1.602-.638.492-.829,1.113-1.058,1.86-.324,1.054-.622,2.117-.905,3.182-.584,2.201-1.068,4.376-1.263,6.646-.05.582.825.655.986.133.561-1.809,1.002-3.635,1.472-5.47.235-.916.483-1.828.745-2.736.257-.891.351-2.029,1.165-2.564,1.02-.67,2.143-1.233,3.26-1.788-.181-.434-.338-.897-.509-1.375-.317.169-.635.339-.952.508Z"/>
      <path class="cls-10" d="M31.796,16.185c-.518-2.037-1.427-3.93-2.137-5.901-.531-1.475-.809-3.432-2.047-4.488-.837-.715-1.813-1.306-2.71-1.943-.753-.536-1.502-1.216-2.362-1.564-.731-.297-1.573-.271-2.349-.318-1.187-.072-2.374-.143-3.561-.215-1.014-.061-2.116-.26-3.126-.104-.826.128-1.553.603-2.279.991-.676.361-2.311,1.234-2.311,1.234l.648,1.295s1.39-.689,1.991-1.011c.83-.443,1.647-1.021,2.609-1.057.892-.033,1.814.106,2.705.159.95.057,1.899.114,2.849.171.927.056,1.841,0,2.671.458.745.411,1.439,1.018,2.133,1.511.727.517,1.766,1.042,2.352,1.719.521.603.66,1.64.947,2.372.254.647.547,1.274.837,1.906.763,1.663,1.498,3.347,2.127,5.066.229.626,1.183.386,1.013-.279Z"/>
      <path class="cls-8" d="M12.386,1.045l-7.66,4.197c-.552.308-.957.839-1.105,1.462l-2.524,10.596c-.125.525-.059,1.077.187,1.557l5.361,10.473c.336.656.969,1.107,1.698,1.211l11.819,1.678c.504.072,1.017-.029,1.457-.284l7.74-4.497c.518-.301.896-.795,1.051-1.374l2.359-8.836c.12-.451.098-.928-.063-1.367l-3.621-9.84c-.16-.435-.45-.811-.83-1.076l-4.785-3.336c-.348-.243-.758-.383-1.182-.404l-8.687-.434c-.418-.021-.834.075-1.212.276Z"/>
      <path class="cls-5" d="M16.98,19.558c.52-.809.794-1.744,1.164-2.623.374-.887.711-1.803,1.008-2.719.091-.28-.106-.654-.404-.711-1.153-.222-2.32-.362-3.494-.386-1.048-.022-2.044-.12-2.773.73-.773.902-1.51,1.839-2.238,2.777-.574.739-1.338,1.398-.809,2.36.55,1.002,1.247,1.953,1.908,2.883.586.824,1.19,1.869,1.94,2.554.304.277.629.317,1.029.332.632.024,1.266.031,1.898.046,1.266.031,2.531.061,3.797.092.21.005.407-.118.514-.295,1.15-1.917,2.068-4.076,2.768-6.198.357-1.083.41-2.195.464-3.325.044-.932.307-1.942-.36-2.694-.751-.848-1.607-1.625-2.455-2.375-.702-.621-1.411-1.436-2.408-1.465-2.321-.068-4.772.376-7.056.751-.754.124-.434,1.27.316,1.147,2.016-.331,4.047-.56,6.087-.678.511-.03.831-.075,1.246.253.372.294.726.613,1.08.928.726.648,1.537,1.316,2.152,2.074.532.657.219,1.945.174,2.765-.055.997-.229,1.906-.58,2.841-.692,1.843-1.441,3.684-2.456,5.376l.514-.295c-.974-.023-1.947-.047-2.921-.07-.876-.021-1.918.109-2.774-.067-.347-.071.007.102-.286-.098-.129-.088-.246-.31-.343-.434-.309-.396-.612-.798-.908-1.203-.544-.744-1.069-1.503-1.573-2.276-.201-.308-.577-.699-.667-1.051-.105-.405.383-.82.638-1.149.555-.713,1.12-1.419,1.695-2.116.382-.464.638-.83,1.267-.931.444-.071.952-.024,1.401-.01.978.029,1.946.142,2.907.322l-.404-.711c-.572,1.794-1.179,3.571-1.702,5.377-.114.393.432.602.644.272h0Z"/>
      <path class="cls-5" d="M11.594,10.666c.989.151,1.995.04,2.987-.034,1.074-.081,2.146-.182,3.219-.275.246-.021.554-.097.793,0,.199.08.394.326.555.466.375.326.747.656,1.116.988.762.685,1.482,1.442,2.276,2.088.571.464,1.32-.252.817-.817-.748-.84-1.651-1.577-2.49-2.325-.674-.6-1.46-1.594-2.428-1.625-1.117-.036-2.302.182-3.414.287-1.133.107-2.346.148-3.431.517-.317.108-.401.67,0,.731h0Z"/>
      <path class="cls-5" d="M9.405,18.516c.351,2.313,1.944,4.26,3.376,6.028.325.401.621.871,1.165.964.603.104,1.298-.025,1.908-.053,1.31-.06,2.619-.121,3.929-.181.76-.035.765-1.222,0-1.186-1.113.051-2.226.102-3.339.154-.557.026-1.113.051-1.67.077-.283.013-.525.082-.736-.106-.2-.178-.368-.447-.535-.655-.665-.828-1.306-1.677-1.944-2.526-.616-.82-1.22-1.7-1.535-2.686-.128-.401-.678-.229-.617.17h0Z"/>
      <path class="cls-5" d="M13.226,14.843c.355.19.836.159,1.231.173.406.014.812.019,1.218.025.79.011,1.603.075,2.39.008.311-.026.578-.247.578-.578,0-.338-.266-.546-.578-.578-.786-.079-1.601-.029-2.39-.03-.391,0-.782-.002-1.173.005-.411.008-.904-.034-1.276.158-.313.161-.305.655,0,.818h0Z"/>
      <path class="cls-5" d="M13.326,14.182c-.163.162-.343.303-.503.471-.149.157-.296.317-.437.481-.307.358-.603.726-.882,1.106-.265.361-.519.729-.762,1.106-.252.391-.539.8-.704,1.236-.08.213.072.467.268.546.229.092.436,0,.578-.189.255-.341.438-.759.661-1.123.227-.37.464-.734.713-1.09.241-.345.486-.687.742-1.021.266-.346.518-.718.798-1.051.273-.324-.163-.78-.472-.472h0Z"/>
      <path class="cls-5" d="M14.09,25.459c.447.16.95.12,1.421.115.515-.005,1.03-.022,1.544-.04s1.03-.047,1.544-.074c.504-.026,1.049.008,1.544-.08.455-.081.571-.397.783-.778l.7-1.257c.503-.903,1.008-1.803,1.508-2.708.198-.36.471-.755.577-1.156.098-.373-.01-.669-.066-1.03-.094-.603-.015-1.269.002-1.878.025-.897.004-1.8.052-2.696.024-.437-.657-.436-.68,0-.072,1.328-.182,2.645-.189,3.977-.003.476-.029.885-.234,1.329-.258.559-.615,1.092-.916,1.63-.683,1.224-1.367,2.448-2.05,3.672l.514-.295c-1.066.06-2.134.107-3.199.188-.916.07-2.102.006-2.942.413-.306.148-.183.57.087.667h0Z"/>
      <path class="cls-7" d="M12.723,29.772c1.374.227,2.764.349,4.139.587,1.213.21,2.618.558,3.854.391.546-.074,1-.345,1.47-.613.664-.378,1.328-.755,1.991-1.133,1.245-.708,2.486-1.422,3.729-2.133.676-.387.068-1.432-.611-1.046-1.161.662-2.323,1.322-3.483,1.986-.58.332-1.159.665-1.739.998-.554.318-1.092.721-1.746.755-2.533.135-5.07-1.159-7.604-.537-.352.086-.385.682,0,.746h0Z"/>
      <path class="cls-5" d="M14.331,20.065c.644.182,1.318.263,1.985.312.41.03.661-.213.793-.581.114-.318.216-.642.322-.963.415-1.255.829-2.51,1.244-3.765l-1.147-.316c-.315,1.092-.612,2.191-.948,3.277-.063.204-.173.389-.239.588-.028.083-.097.078.047.039.18-.048.026-.03-.024-.031-.132-.005-.263-.014-.395-.014-.561-.002-1.125.073-1.67.205-.26.063-.428.317-.437.574l-.007.211c-.027.766,1.163.765,1.19,0l.007-.211-.437.574c.568-.138,1.13-.176,1.713-.151.738.032,1.061-.539,1.293-1.151.212-.557.349-1.148.515-1.72.18-.624.36-1.249.541-1.873.089-.308-.108-.647-.415-.732-.324-.089-.631.109-.732.415-.268.811-.536,1.622-.804,2.433-.262.794-.483,1.618-.791,2.395l.152-.261-.036.041.26-.152c.07-.005.072-.009.006-.011l-.143-.012c-.064-.005-.127-.011-.191-.016-.175-.014-.35-.025-.526-.031-.336-.012-.668-.005-1.003.029-.489.049-.647.748-.121.897h0Z"/>
    </g>
  </g>
</svg>