<?xml version="1.0" encoding="UTF-8"?>
<svg xmlns="http://www.w3.org/2000/svg" version="1.1" viewBox="0 0 35 35">
  <defs>
    <style>
      .cls-1, .cls-2 {
        fill: #252b18;
      }

      .cls-2, .cls-3, .cls-4 {
        stroke: #252b18;
        stroke-miterlimit: 10;
      }

      .cls-5 {
        fill: #ffa480;
      }

      .cls-3 {
        fill: #d9634a;
      }

      .cls-4 {
        fill: none;
      }
    </style>
  </defs>
  <!-- Generator: Adobe Illustrator 28.6.0, SVG Export Plug-In . SVG Version: 1.2.0 Build 709)  -->
  <g>
    <g id="MAIN">
      <path class="cls-2" d="M12.396,3.184l-7.66,4.197c-.562.308-.967.839-1.115,1.462l-2.524,8.539c-.125.525-.059,3.133.187,3.614l5.361,10.473c.336.656.969,1.107,1.698,1.211l11.819,1.678c.504.072,1.017-.029,1.457-.284l7.74-4.497c.518-.301.896-.795,1.051-1.374l2.359-8.836c.12-.451.233-2.341.072-2.779l-3.756-8.427c-.16-.435-.45-.811-.83-1.076l-4.785-3.336c-.348-.243-.758-.383-1.182-.404l-8.687-.434c-.418-.021-.834.075-1.202.276Z"/>
      <path class="cls-4" d="M12.396,1.045l-7.66,4.197c-.562.308-.967.839-1.115,1.462l-2.524,10.596c-.125.525-.059,1.077.187,1.557l5.361,10.473c.336.656.969,1.107,1.698,1.211l11.819,1.678c.504.072,1.017-.029,1.457-.284l7.74-4.497c.518-.301.896-.795,1.051-1.374l2.359-8.836c.12-.451.098-.928-.063-1.367l-3.621-9.84c-.16-.435-.45-.811-.83-1.076l-4.785-3.336c-.348-.243-.758-.383-1.182-.404l-8.687-.434c-.418-.021-.834.075-1.202.276Z"/>
      <path class="cls-3" d="M12.396,1.045l-7.66,4.197c-.562.308-.967.839-1.115,1.462l-2.524,10.596c-.125.525-.059,1.077.187,1.557l5.361,10.473c.336.656.969,1.107,1.698,1.211l11.819,1.678c.504.072,1.017-.029,1.457-.284l7.74-4.497c.518-.301.896-.795,1.051-1.374l2.359-8.836c.12-.451.098-.928-.063-1.367l-3.621-9.84c-.16-.435-.45-.811-.83-1.076l-4.785-3.336c-.348-.243-.758-.383-1.182-.404l-8.687-.434c-.418-.021-.834.075-1.202.276Z"/>
      <path class="cls-5" d="M3.064,17.656c.561-1.809,1.002-3.635,1.472-5.47.235-.916.483-1.828.745-2.736.257-.891.351-2.029,1.165-2.564,1.59-1.044,3.429-1.83,5.108-2.727.83-.443,1.647-1.021,2.609-1.057.892-.033,1.814.106,2.705.159.95.057,1.899.114,2.849.171.927.056,1.841,0,2.671.458.745.411,1.439,1.018,2.133,1.511.727.517,1.766,1.041,2.351,1.718.521.603.66,1.64.947,2.372.254.647.547,1.274.837,1.906.763,1.663,1.498,3.347,2.127,5.066.229.626,1.183.386,1.013-.279-.518-2.037-1.427-3.93-2.137-5.901-.531-1.475-.809-3.432-2.047-4.488-.837-.715-1.813-1.306-2.71-1.943-.753-.535-1.502-1.216-2.362-1.564-.731-.296-1.573-.271-2.349-.318-1.187-.072-2.374-.143-3.561-.215-1.014-.061-2.116-.261-3.126-.104-.826.128-1.553.603-2.279.991-.993.53-1.986,1.06-2.98,1.59-.952.508-2.087.943-2.941,1.602-.638.492-.829,1.113-1.058,1.86-.324,1.054-.622,2.117-.905,3.182-.584,2.201-1.068,4.376-1.263,6.646-.05.582.825.655.986.133h0Z"/>
      <g>
        <path class="cls-5" d="M8.353,9.733c1.609.802,2.996,1.81,4.194,3.153,1.14,1.278,2.188,2.806,3.636,3.761.641.423,1.395-.548.824-1.068-.66-.6-1.307-1.182-1.903-1.849s-1.159-1.351-1.774-1.995c-1.284-1.346-2.784-2.424-4.611-2.87-.503-.123-.865.619-.366.867h0Z"/>
        <path class="cls-5" d="M13.298,20.508c1.954-1.917,3.868-3.875,5.817-5.797.948-.935,1.905-1.86,2.876-2.771.836-.785,1.769-1.74,2.999-1.703.963.029.963-1.472,0-1.496-1.287-.032-2.359.65-3.299,1.463-1.088.941-2.109,1.974-3.132,2.984-2.12,2.095-4.145,4.25-6.008,6.574-.415.518.249,1.233.746.746h0Z"/>
        <path class="cls-5" d="M19.329,19.533c.104.212.287.39.443.565.132.149.27.292.407.436l.398.421c.208.22.41.448.707.544.482.156,1.008-.355.843-.843-.067-.197-.176-.34-.32-.487-.07-.071-.144-.137-.217-.204l-.439-.404c-.142-.131-.283-.263-.43-.39-.183-.158-.364-.345-.583-.449-.124-.058-.239-.089-.377-.07-.124.017-.253.068-.34.163-.188.204-.213.471-.093.717h0Z"/>
        <path class="cls-5" d="M19.984,24.493c.809-.487,1.519-1.119,2.205-1.763.327-.307.648-.622.962-.943.161-.165.317-.334.473-.504.226-.247.538-.516.489-.886-.05-.378-.276-.682-.691-.691-.396-.009-.61.262-.85.525-.148.162-.298.321-.447.481-.306.329-.619.651-.939.966-.639.629-1.317,1.217-1.928,1.874-.205.22-.233.547-.047.787.179.232.515.31.774.154h0Z"/>
        <path class="cls-5" d="M9.629,21.132c.782.755,1.568,1.497,2.389,2.211.399.347.801.689,1.207,1.027.215.179.437.415.687.54.488.244.993.019,1.179-.478.09-.24-.017-.54-.189-.715-.181-.183-.485-.291-.739-.209-.22.071-.467.254-.502.501-.041.285.023.615.309.76.173.088.331.106.519.068l-.76-.309c-.055-.09-.081-.187-.08-.292l.1-.371-.013.023.264-.264-.042.018.372-.101.233.049-.067-.049c-.039-.037-.091-.067-.134-.099-.089-.066-.179-.132-.268-.199-.178-.133-.355-.267-.532-.402-.335-.256-.67-.517-1.016-.793-.71-.565-1.426-1.13-2.12-1.714-.233-.196-.57-.229-.798,0-.213.213-.22.586,0,.798h0Z"/>
        <path class="cls-1" d="M26.083,8.128c-.544.111-1.09.218-1.635.324-.273.053-.546.103-.818.157-.262.052-.588.077-.82.214-.036.021-.057.058-.08.092-1,.896-1.905,1.922-2.854,2.873-.97.972-1.946,1.938-2.926,2.9-.017.017-.035.034-.052.051-.962-.945-1.921-1.893-2.874-2.847-.485-.486-.97-.973-1.452-1.462-.497-.503-.971-1.053-1.506-1.515-.023-.033-.043-.07-.08-.091-.233-.137-.557-.161-.82-.214-.272-.055-.546-.104-.818-.157-.545-.106-1.091-.213-1.635-.324-.207-.042-.498.1-.466.355.069.55.137,1.101.206,1.651.034.275.069.55.103.826.016.127.032.254.047.381.019.153.019.332.077.474.054.132.157.226.3.244.61.645,1.252,1.262,1.884,1.884.645.634,1.29,1.266,1.938,1.897.659.641,1.341,1.269,1.981,1.929-.812.763-1.685,1.523-2.36,2.403-.499-.46-1.172-.884-1.837-.466-.321.202-.471.564-.405.936.067.371.328.684.547.978.245.328.504.645.773.953-.167.108-.322.237-.469.365-.197.173-.386.359-.572.543-.374.369-.746.741-1.115,1.115-.059.06-.089.141-.099.224-.045.063-.072.14-.046.238.117.445.374.849.677,1.191.298.338.831.91,1.284.505.397-.356.758-.763,1.133-1.142.19-.192.379-.384.569-.576.193-.196.436-.388.546-.643.132.107.272.21.42.28.003.003.003.007.006.01.453.508,1.166.937,1.828.529.313-.193.469-.552.408-.913-.064-.377-.327-.671-.575-.944-.046-.051-.094-.101-.14-.152.04-.028.083-.052.121-.084.303-.251.575-.552.858-.825.521-.503,1.042-1.007,1.563-1.511.625.605,1.251,1.21,1.877,1.815.214.206.421.434.663.607-.046.05-.093.1-.139.15-.248.273-.511.568-.575.944-.061.361.095.719.408.913.663.409,1.375-.021,1.828-.529.003-.003.003-.007.006-.01.067-.032.132-.072.196-.115.005.006.006.013.011.018.358.401.785.748,1.179,1.112.194.179.387.359.581.538.193.179.381.397.603.541.469.304.941-.135,1.274-.444.171-.159.325-.332.468-.516.153-.197.327-.411.398-.653.045-.153-.028-.284-.136-.373-.013-.066-.039-.131-.091-.183-.37-.374-.741-.746-1.115-1.115-.182-.179-.366-.359-.556-.529-.15-.134-.312-.268-.485-.379.27-.308.529-.625.774-.953.219-.293.481-.607.547-.978.067-.372-.083-.733-.405-.936-.665-.418-1.337.006-1.836.466-.333-.441-.729-.838-1.107-1.238-.393-.416-.795-.825-1.203-1.226,1.452-1.406,2.908-2.808,4.343-4.231.472-.468.95-.933,1.407-1.416.145-.016.248-.112.303-.244.058-.141.058-.322.077-.474.016-.127.032-.254.047-.381.034-.275.069-.55.103-.826.069-.55.137-1.101.206-1.651.032-.255-.259-.397-.466-.355ZM12.327,15.395c-.668-.638-1.337-1.273-2.007-1.908-.651-.617-1.322-1.215-1.967-1.838.002-.23-.035-.464-.063-.69-.034-.275-.068-.55-.102-.826-.049-.398-.098-.796-.148-1.194.381.076.762.154,1.145.225.273.05.547.103.821.148.173.028.358.062.542.081.001.001.001.003.002.004.438.539.972,1.017,1.46,1.511.496.503.994,1.004,1.494,1.503.952.952,1.909,1.897,2.869,2.84-.69.676-1.381,1.352-2.073,2.025-.674-.607-1.317-1.256-1.972-1.882ZM8.911,25.07c.349-.355.701-.708,1.054-1.059.181-.18.362-.361.538-.547.088-.093.174-.189.257-.285.049-.057.1-.116.147-.179.116.122.226.25.346.368.134.132.28.251.42.378-.01.01-.022.018-.031.028-.116.114-.232.227-.347.341-.237.234-.473.469-.706.705-.336.34-.697.691-.957,1.1-.003-.003-.007-.006-.011-.009-.121-.109-.235-.224-.342-.347-.136-.156-.253-.324-.367-.495ZM13.982,24.628c-.258-.055-.453-.286-.629-.464-.061-.061-.127-.087-.192-.099-.147-.14-.327-.263-.461-.376-.219-.184-.434-.375-.644-.57-.448-.417-.871-.863-1.263-1.334-.189-.226-.37-.458-.543-.697-.107-.147-.412-.467-.345-.673.045-.14.26-.159.38-.135.22.044.405.206.57.364.788.837,1.62,1.629,2.412,2.463.219.23.436.463.65.698.135.148.473.434.438.664-.025.163-.243.188-.373.16ZM21.97,24.168s-.004.001-.005.002c.019-.021.032-.048.047-.073-.014.023-.027.047-.041.07ZM23.279,23.449c.179.192.366.378.553.563.345.342.687.687,1.028,1.032-.05.08-.1.161-.156.236-.106.143-.227.276-.353.4-.068.067-.145.125-.218.187-.257-.386-.602-.721-.923-1.047-.228-.231-.458-.46-.689-.688-.115-.114-.231-.228-.347-.341-.016-.015-.033-.029-.049-.045.14-.126.285-.246.42-.378.123-.12.234-.251.352-.375.113.164.255.318.383.455ZM23.89,20.407c.076.208-.236.532-.344.681-.173.239-.354.471-.543.697-.384.461-.797.897-1.234,1.307-.219.205-.443.404-.672.597-.133.112-.313.236-.46.376-.066.011-.132.037-.193.099-.177.179-.37.409-.629.464-.12.026-.326.007-.367-.134-.066-.222.274-.517.401-.657.224-.246.451-.49.681-.732.793-.834,1.626-1.628,2.415-2.465.164-.157.349-.32.567-.361.113-.021.33-.006.378.128ZM20.746,19.452c.4.412.797.853,1.27,1.184-.751.639-1.445,1.345-2.118,2.067-.18-.228-.399-.423-.607-.624-.623-.602-1.248-1.203-1.872-1.803.239-.231.478-.462.717-.693.468-.453.932-.911,1.4-1.364.41.405.809.819,1.21,1.232ZM15.107,21.498c-.352.34-.724.668-1.06,1.024-.055.058-.098.124-.146.186-.675-.725-1.372-1.433-2.125-2.074,1.009-.708,1.87-1.695,2.748-2.548.985-.957,1.967-1.915,2.947-2.877.953-.936,1.903-1.876,2.848-2.821.979-.979,2.034-1.932,2.928-2.989,0-.001,0-.002.002-.003.173-.019.346-.051.51-.077.285-.046.569-.1.853-.153.382-.071.763-.148,1.145-.225-.049.398-.098.796-.148,1.194-.034.275-.068.55-.102.826-.028.226-.065.462-.063.692-3.415,3.312-6.913,6.542-10.337,9.846Z"/>
      </g>
    </g>
  </g>
</svg>