<?xml version="1.0" encoding="UTF-8"?>
<svg xmlns="http://www.w3.org/2000/svg" version="1.1" viewBox="0 0 35 35">
  <defs>
    <style>
      .cls-1 {
        fill: #efd6ff;
      }

      .cls-2, .cls-3 {
        fill: #252b18;
      }

      .cls-3, .cls-4, .cls-5 {
        stroke: #252b18;
        stroke-miterlimit: 10;
      }

      .cls-4 {
        fill: #8f8ecb;
      }

      .cls-5 {
        fill: none;
      }
    </style>
  </defs>
  <!-- Generator: Adobe Illustrator 28.6.0, SVG Export Plug-In . SVG Version: 1.2.0 Build 709)  -->
  <g>
    <g id="MAIN">
      <path class="cls-3" d="M12.396,3.184l-7.66,4.197c-.562.308-.967.839-1.115,1.462l-2.524,8.539c-.125.525-.059,3.133.187,3.614l5.361,10.473c.336.656.969,1.107,1.698,1.211l11.819,1.678c.504.072,1.017-.029,1.457-.284l7.74-4.497c.518-.301.896-.795,1.051-1.374l2.359-8.836c.12-.451.233-2.341.072-2.779l-3.756-8.427c-.16-.435-.45-.811-.83-1.076l-4.785-3.336c-.348-.243-.758-.383-1.182-.404l-8.687-.434c-.418-.021-.834.075-1.202.276Z"/>
      <path class="cls-5" d="M12.396,1.045l-7.66,4.197c-.562.308-.967.839-1.115,1.462l-2.524,10.596c-.125.525-.059,1.077.187,1.557l5.361,10.473c.336.656.969,1.107,1.698,1.211l11.819,1.678c.504.072,1.017-.029,1.457-.284l7.74-4.497c.518-.301.896-.795,1.051-1.374l2.359-8.836c.12-.451.098-.928-.063-1.367l-3.621-9.84c-.16-.435-.45-.811-.83-1.076l-4.785-3.336c-.348-.243-.758-.383-1.182-.404l-8.687-.434c-.418-.021-.834.075-1.202.276Z"/>
      <path class="cls-4" d="M12.396,1.045l-7.66,4.197c-.562.308-.967.839-1.115,1.462l-2.524,10.596c-.125.525-.059,1.077.187,1.557l5.361,10.473c.336.656.969,1.107,1.698,1.211l11.819,1.678c.504.072,1.017-.029,1.457-.284l7.74-4.497c.518-.301.896-.795,1.051-1.374l2.359-8.836c.12-.451.098-.928-.063-1.367l-3.621-9.84c-.16-.435-.45-.811-.83-1.076l-4.785-3.336c-.348-.243-.758-.383-1.182-.404l-8.687-.434c-.418-.021-.834.075-1.202.276Z"/>
      <path class="cls-1" d="M3.064,17.656c.561-1.809,1.002-3.635,1.472-5.47.235-.916.483-1.828.745-2.736.257-.891.351-2.029,1.165-2.564,1.59-1.044,3.429-1.83,5.108-2.727.83-.443,1.647-1.021,2.609-1.057.892-.033,1.814.106,2.705.159.95.057,1.899.114,2.849.171.927.056,1.841,0,2.671.458.745.411,1.439,1.018,2.133,1.511.727.517,1.766,1.041,2.351,1.718.521.603.66,1.64.947,2.372.254.647.547,1.274.837,1.906.763,1.663,1.498,3.347,2.127,5.066.229.626,1.183.386,1.013-.279-.518-2.037-1.427-3.93-2.137-5.901-.531-1.475-.809-3.432-2.047-4.488-.837-.715-1.813-1.306-2.71-1.943-.753-.535-1.502-1.216-2.362-1.564-.731-.296-1.573-.271-2.349-.318-1.187-.072-2.374-.143-3.561-.215-1.014-.061-2.116-.261-3.126-.104-.826.128-1.553.603-2.279.991-.993.53-1.986,1.06-2.98,1.59-.952.508-2.087.943-2.941,1.602-.638.492-.829,1.113-1.058,1.86-.324,1.054-.622,2.117-.905,3.182-.584,2.201-1.068,4.376-1.263,6.646-.05.582.825.655.986.133h0Z"/>
      <g>
        <g>
          <path class="cls-1" d="M25.455,19.94c-1.505-4.259-3.01-8.518-4.515-12.776-.123-.348-.496-.637-.885-.502-1.864.645-3.715,1.334-5.537,2.094-1.743.727-3.686,1.406-5.224,2.518-.473.342-.211,1.157.416.987,1.827-.497,3.572-1.462,5.324-2.175,1.578-.643,3.171-1.243,4.776-1.81,1.418,4.016,2.837,8.032,4.255,12.048.307.869,1.7.494,1.39-.383Z"/>
          <path class="cls-1" d="M19.812,13.537c-.139-.119-.284-.217-.451-.29-.424-.186-.871-.225-1.326-.144-.342.061-.69.198-.981.39-.293.193-.594.501-.656.861-.033.189.022.38.196.482.156.091.393.074.517-.067.038-.043.074-.089.114-.131.018-.019.04-.035.057-.054,0,0,0,0,0,0,.096-.058.191-.113.292-.163,0,0,0,0,.001,0,.002,0,0,0,.002,0,.026-.008.051-.019.077-.027.052-.017.104-.032.156-.046.069-.018.139-.032.21-.047.034-.007.067-.015.101-.021.009-.002.06-.009.084-.013.017-.001.034-.003.039-.003.034-.003.068-.005.102-.007.077-.004.153-.001.229.001.013,0,.016,0,.022,0,.022.004.046.011.054.013.058.013.113.033.17.051.021.012.044.022.065.034.026.015.051.031.076.047-.002-.003-.007-.006-.007-.008,0,0,.008.008.009.009.004.003.009.005.013.008.058.036.021.02-.004.001.025.027.098.101.102.101-.059-.077-.057-.075.005.005.027.046.063.082.109.109.07.054.151.098.239.115.284.053.653-.076.71-.403.04-.227.011-.409-.13-.59-.06-.078-.121-.149-.195-.212Z"/>
          <path class="cls-1" d="M19.111,14.226s.006.008.013.013c-.003-.003-.009-.01-.011-.011,0,0-.001,0-.002-.001Z"/>
          <path class="cls-1" d="M18.711,15.699s0,0,0,0c0,0,0,0,0,0Z"/>
          <path class="cls-1" d="M18.738,15.711c-.007-.007-.019-.005-.026-.012-.003-.002.004.002.023.016.031.023.032.022.003-.004Z"/>
          <path class="cls-1" d="M19.367,16.743c-.057-.125-.122-.246-.19-.365-.066-.116-.135-.23-.214-.338-.057-.078-.116-.155-.176-.231-.02-.026-.04-.052-.061-.077-.02-.024-.037-.037-.063-.058-.023-.017-.035-.026-.038-.029-.131-.112-.322-.124-.459-.019-.153.118-.173.305-.094.473.014.03.014.03,0,0-.025-.052-.015-.029.028.07.007.015.015.03.023.044.022.04.044.08.065.121.041.078.078.157.118.235.08.156.157.314.226.475-.015-.035-.03-.071-.045-.106.034.082.069.163.104.244-.015-.036-.03-.071-.045-.107.037.089.075.179.114.268.027.062.062.114.1.17.1.148.286.249.468.19.068-.022.13-.058.183-.106.068-.063.132-.198.121-.293-.011-.094-.015-.193-.047-.282-.035-.095-.074-.188-.116-.28Z"/>
        </g>
        <g>
          <path class="cls-2" d="M26.472,22.721c-1.588.446-3.192.845-4.781,1.294-.79.223-1.575.465-2.361.702,1.78-.885,3.549-1.795,5.302-2.732.926-.495,2.853-1.06,2.515-2.44-.217-.886-.772-1.776-1.136-2.612-.376-.866-.753-1.732-1.13-2.598-.806-1.855-1.622-3.705-2.453-5.549-.419-.929-.854-2.988-2.073-3.182-.81-.129-1.844.48-2.579.752-.899.334-1.797.672-2.688,1.025-1.781.704-3.563,1.4-5.307,2.192-.037.001-.073,0-.113.014-.643.223-1.297.391-1.954.565-.325.086-.544.455-.444.782.058.192.127.38.187.572.545,3.354,1.666,6.68,2.764,9.883.543,1.585,1.139,3.151,1.797,4.692.153.358.298.772.569,1.029.039.214.193.407.443.386,2.114-.172,4.232-.287,6.347-.441,1.044-.076,2.089-.159,3.132-.248,1.037-.089,2.121-.136,3.141-.349.631-.132.484-1.128-.151-1.116-1.064.02-2.149.188-3.21.282-1.045.093-2.092.173-3.137.264-.037.003-.074.007-.111.011.986-.255,1.972-.508,2.953-.782,1.118-.312,2.233-.632,3.347-.954.34-.098.681-.195,1.019-.301.094-.03.188-.059.282-.09.077-.025.377-.114.107-.039.649-.182.373-1.195-.279-1.012ZM9.752,10.487c.067.022.14.029.218.011,1.018,2.394,1.939,4.843,2.819,7.29.438,1.218.873,2.438,1.286,3.665.346,1.031.599,2.191,1.055,3.194-.392.226-.796.419-1.208.592-1.707-4.735-3.311-9.542-5.244-14.188.354-.197.711-.386,1.075-.564ZM19.33,7.075c.305-.127.656-.403.973-.289.353.127.519.961.656,1.304.3.75.602,1.5.904,2.249.605,1.501,1.227,2.994,1.85,4.488.619,1.481,1.357,2.961,1.863,4.484.18.54.23.39-.261.685-.339.203-.707.378-1.056.562-.705.373-1.411.743-2.118,1.111-1.937,1.007-3.893,1.975-5.858,2.926-.163-1.25-.729-2.542-1.133-3.726-.419-1.226-.856-2.445-1.326-3.653-.921-2.369-1.957-4.677-3.034-6.977,2.885-.926,5.746-2.002,8.539-3.165Z"/>
          <path class="cls-2" d="M15.502,16c.008.067.014.134.023.201-.007-.05-.013-.1-.02-.15-.021.279.106.553.35.701.219.132.468.118.701.038.142-.049.281-.104.423-.154.194.806.497,1.64,1.33,1.938.51.182,1.095,0,1.432-.416.394-.486.447-1.09.323-1.688-.055-.264-.147-.528-.249-.776-.119-.289-.25-.636-.489-.848-.152-.134-.388-.191-.569-.073-.175.113-.274.324-.216.53.044.156.124.291.196.434.027.054.053.109.077.164.005.013.032.078.035.085.048.125.092.254.124.384.014.057.024.116.035.174.002.013.012.082.016.11.013.126.014.25.007.376-.004.017-.011.08-.014.09-.008.034-.018.068-.029.101-.007.019-.007.019-.01.027-.013.031-.029.057-.048.082-.004.005-.002.002-.009.01-.014.016-.028.031-.044.045-.015.014-.015.016-.02.023-.004.002-.002,0-.008.003-.023.015-.047.028-.071.041-.002.001,0,0-.003.002-.012.004-.023.007-.035.011-.013,0-.019.002-.039,0-.005-.001-.001,0-.009-.002-.013-.003-.025-.008-.038-.012-.022-.012-.043-.024-.064-.038-.009-.006-.017-.012-.025-.018-.005-.005-.002-.003-.012-.011-.028-.03-.059-.057-.087-.086-.039-.039-.078-.079-.115-.12-.01-.011-.047-.055-.066-.079-.03-.039-.06-.078-.09-.117.012.015.024.03.036.046-.038-.033-.067-.094-.094-.136-.074-.114-.139-.234-.211-.35-.104-.169-.185-.339-.259-.517.007-.097,0-.193-.039-.287-.115-.273-.419-.43-.712-.349-.142.039-.28.099-.419.149-.017.006-.034.013-.051.02-.021-.036-.041-.073-.063-.108-.044-.069-.077-.144-.112-.217.028-.378.089-.756.324-1.051.314-.394.792-.736,1.274-.882.113-.034.213-.059.312-.069.073-.007.147-.008.22-.006.004,0,.191.018.098.004.274.041.397.096.624.238-.003-.002.149.102.086.054.051.039.098.083.144.127.046.044.089.092.132.139.073.079-.003-.016.061.08.056.084.095.151.127.216-.001.001-.003.002-.005.004-.402.428-.001,1.092.562.965.166-.037.311-.122.457-.206.247-.143.331-.42.279-.686-.293-1.506-1.92-2.435-3.366-1.967-.743.241-1.431.752-1.887,1.385-.507.703-.454,1.574-.241,2.369.006.023.018.038.027.058ZM16.348,15.982s.001.002.002.003c.02.048.041.096.061.145-.024-.056-.042-.103-.063-.147Z"/>
        </g>
      </g>
    </g>
  </g>
</svg>