<?xml version="1.0" encoding="UTF-8"?>
<svg xmlns="http://www.w3.org/2000/svg" version="1.1" viewBox="0 0 35 35">
  <defs>
    <style>
      .cls-1, .cls-2 {
        fill: #252b18;
      }

      .cls-3 {
        fill: #eca8ff;
      }

      .cls-2, .cls-4, .cls-5 {
        stroke: #252b18;
        stroke-miterlimit: 10;
      }

      .cls-4 {
        fill: #b381cc;
      }

      .cls-5 {
        fill: none;
      }
    </style>
  </defs>
  <!-- Generator: Adobe Illustrator 28.6.0, SVG Export Plug-In . SVG Version: 1.2.0 Build 709)  -->
  <g>
    <g id="MAIN">
      <path class="cls-2" d="M12.396,3.184l-7.66,4.197c-.562.308-.967.839-1.115,1.462l-2.524,8.539c-.125.525-.059,3.133.187,3.614l5.361,10.473c.336.656.969,1.107,1.698,1.211l11.819,1.678c.504.072,1.017-.029,1.457-.284l7.74-4.497c.518-.301.896-.795,1.051-1.374l2.359-8.836c.12-.451.233-2.341.072-2.779l-3.756-8.427c-.16-.435-.45-.811-.83-1.076l-4.785-3.336c-.348-.243-.758-.383-1.182-.404l-8.687-.434c-.418-.021-.834.075-1.202.276Z"/>
      <path class="cls-5" d="M12.396,1.045l-7.66,4.197c-.562.308-.967.839-1.115,1.462l-2.524,10.596c-.125.525-.059,1.077.187,1.557l5.361,10.473c.336.656.969,1.107,1.698,1.211l11.819,1.678c.504.072,1.017-.029,1.457-.284l7.74-4.497c.518-.301.896-.795,1.051-1.374l2.359-8.836c.12-.451.098-.928-.063-1.367l-3.621-9.84c-.16-.435-.45-.811-.83-1.076l-4.785-3.336c-.348-.243-.758-.383-1.182-.404l-8.687-.434c-.418-.021-.834.075-1.202.276Z"/>
      <path class="cls-4" d="M12.396,1.045l-7.66,4.197c-.562.308-.967.839-1.115,1.462l-2.524,10.596c-.125.525-.059,1.077.187,1.557l5.361,10.473c.336.656.969,1.107,1.698,1.211l11.819,1.678c.504.072,1.017-.029,1.457-.284l7.74-4.497c.518-.301.896-.795,1.051-1.374l2.359-8.836c.12-.451.098-.928-.063-1.367l-3.621-9.84c-.16-.435-.45-.811-.83-1.076l-4.785-3.336c-.348-.243-.758-.383-1.182-.404l-8.687-.434c-.418-.021-.834.075-1.202.276Z"/>
      <path class="cls-3" d="M3.064,17.656c.561-1.809,1.002-3.635,1.472-5.47.235-.916.483-1.828.745-2.736.257-.891.351-2.029,1.165-2.564,1.59-1.044,3.429-1.83,5.108-2.727.83-.443,1.647-1.021,2.609-1.057.892-.033,1.814.106,2.705.159.95.057,1.899.114,2.849.171.927.056,1.841,0,2.671.458.745.411,1.439,1.018,2.133,1.511.727.517,1.766,1.041,2.351,1.718.521.603.66,1.64.947,2.372.254.647.547,1.274.837,1.906.763,1.663,1.498,3.347,2.127,5.066.229.626,1.183.386,1.013-.279-.518-2.037-1.427-3.93-2.137-5.901-.531-1.475-.809-3.432-2.047-4.488-.837-.715-1.813-1.306-2.71-1.943-.753-.535-1.502-1.216-2.362-1.564-.731-.296-1.573-.271-2.349-.318-1.187-.072-2.374-.143-3.561-.215-1.014-.061-2.116-.261-3.126-.104-.826.128-1.553.603-2.279.991-.993.53-1.986,1.06-2.98,1.59-.952.508-2.087.943-2.941,1.602-.638.492-.829,1.113-1.058,1.86-.324,1.054-.622,2.117-.905,3.182-.584,2.201-1.068,4.376-1.263,6.646-.05.582.825.655.986.133h0Z"/>
      <g>
        <g>
          <path class="cls-3" d="M23.219,9.283c-1.172.223-2.325.584-3.471.914-.554.16-1.108.317-1.662.473-.299.084-.597.168-.896.251-.306.085-.631.148-.899.323-.494.322-.311,1.116.305,1.125.6.008,1.258-.304,1.827-.481.572-.178,1.142-.359,1.713-.541,1.155-.369,2.327-.739,3.431-1.243.491-.224.122-.91-.346-.821Z"/>
          <path class="cls-3" d="M23.59,12.386c.017.007.033.014.05.021-.018-.013-.041-.019-.062-.029-.007-.002-.01-.009-.016-.011-.007-.002-.014-.004-.022-.007-.081-.034-.167-.059-.251-.079-.124-.031-.252-.042-.38-.055-.166-.016-.331-.029-.498-.029-.16,0-.321.002-.48.013-.186.013-.364.037-.527.136-.219.133-.381.357-.381.621,0,.469.484.747.908.7.16-.018.32-.036.48-.047.16-.012.32-.027.481-.037.243-.016.529-.028.747-.148-.047.02-.095.04-.142.06.021-.004.043-.007.064-.01.046-.019.092-.039.139-.058.068-.036.122-.086.163-.149.076-.098.13-.224.125-.351-.011-.249-.165-.455-.398-.54Z"/>
          <path class="cls-3" d="M15.802,16.725c-.367.578-.703,1.136-.961,1.773-.121.298-.231.601-.32.91-.053.183-.077.442-.141.653-.21.006-.546-.061-.701-.092-.375-.076-.711-.254-1.078-.342-.785-.188-1.43.622-1.899,1.14-.947,1.046-1.868,2.397-2.193,3.791-.163.696.873,1.217,1.21.51.432-.906.81-1.794,1.415-2.608.279-.375.594-.725.927-1.052.09-.089.183-.176.277-.261.018-.017.037-.033.055-.049.172.089.606.181.698.203.526.131,1.108.207,1.649.14.6-.075.886-.495.995-1.057.206-1.055.495-2.165.961-3.137.286-.596-.533-1.092-.894-.522Z"/>
          <path class="cls-3" d="M13.899,11.59c-.127,0-.245.032-.354.096-.243.114-.484.235-.73.342-.092.037-.185.073-.278.108-.086.033-.19.059-.268.105-.109.064-.169.151-.242.25-.057.077-.07.229-.042.318.035.109.099.177.189.246-.143-.109.022.025.074.05.102.05.174.074.29.079.07.003.141.003.211.001.13-.004.261-.015.391-.029.32-.035.641-.08.946-.187.18-.063.317-.163.42-.323.121-.187.119-.427.035-.625-.074-.176-.196-.297-.371-.371-.084-.044-.174-.064-.271-.06Z"/>
          <path class="cls-3" d="M11.971,9.185c.06.06.132.1.213.124-.014-.006-.028-.012-.042-.018.098.045.19.109.283.163.091.053.181.106.273.156.093.05.19.09.287.132.094.041.186.087.284.118.148.047.336.056.484.007.2-.066.347-.189.43-.384.042-.079.06-.164.057-.255,0-.12-.031-.231-.091-.334-.073-.097-.115-.153-.204-.222-.073-.057-.112-.076-.198-.112-.079-.033-.151-.054-.234-.07-.155-.031-.307-.058-.465-.078-.179-.022-.36-.034-.54-.048-.018-.004-.036-.008-.053-.012-.13-.029-.267-.018-.384.05-.103.06-.202.179-.229.298-.029.128-.023.271.05.384.026.034.052.067.078.101Z"/>
          <path class="cls-3" d="M15.133,7.709c.006.041.012.082.019.122.015.09.053.178.097.256.032.042.065.084.097.126.056.06.123.103.2.128.048.028.101.042.157.042.083.018.165.015.247-.011.102-.033.195-.087.274-.16.111-.102.186-.289.182-.439-.003-.092-.015-.189-.047-.276-.013-.036-.026-.071-.039-.107-.028-.078-.057-.154-.089-.23-.062-.152-.122-.305-.169-.462-.073-.241-.303-.394-.553-.361-.106.014-.215.058-.289.139-.088.096-.153.222-.148.356.007.164.009.328.017.492.007.129.025.256.044.384Z"/>
        </g>
        <path class="cls-1" d="M26.502,15.481c-.661-2.624-1.393-5.229-2.194-7.814-.103-.333-.457-.56-.806-.458-1.353.399-2.706.797-4.059,1.196l-1.982.584c-.575.169-1.306.265-1.811.603-.508.34-.496.903-.407,1.441.113.689.237,1.376.358,2.063.24,1.371.453,2.756.779,4.11-.639,1.16-1.215,2.351-1.745,3.564-.634-.128-1.291-.278-1.916-.286-.825-.011-1.311.729-1.812,1.279-.898.987-1.76,1.993-2.603,3.019-.269.25-.549.49-.807.751-.594.6.332,1.527.926.926,1.03-1.041,2.16-1.977,3.243-2.962.261-.237.519-.477.772-.723.118-.115.248-.226.354-.351.021-.025.046-.043.059-.055.075-.006.165.012.231.017.328.023.653-.006.979-.042.34-.038.684-.031,1.021-.068.221-.024.39-.188.445-.376.016-.023.039-.04.051-.067.578-1.359,1.225-2.685,1.94-3.978.116-.21.1-.41.018-.577,0-.011.004-.019.003-.03-.118-1.244-.345-2.479-.551-3.711-.104-.623-.207-1.247-.313-1.87-.029-.17-.058-.341-.087-.511,1.193-.235,2.376-.609,3.54-.955.576-.171,1.149-.349,1.718-.542.509-.172,1.029-.354,1.507-.608.613,2.029,1.187,4.07,1.714,6.123-1.124.273-2.247.546-3.371.819.006-.984-.016-1.967-.073-2.95.183-.028.369-.038.57-.026.842.05.839-1.26,0-1.31-.487-.029-.962.036-1.422.199-.258.091-.501.334-.481.632.098,1.428.129,2.858.095,4.289-.005.204.093.371.233.487.002.01,0,.021.002.03.101.366.456.521.806.458.824-.15,1.645-.315,2.46-.507.4-.094.802-.184,1.195-.301.393-.117.968-.211,1.234-.549.118-.15.154-.316.117-.462.085-.15.115-.333.072-.504Z"/>
      </g>
    </g>
  </g>
</svg>