<?xml version="1.0" encoding="UTF-8"?>
<svg xmlns="http://www.w3.org/2000/svg" version="1.1" viewBox="0 0 35 35">
  <defs>
    <style>
      .cls-1, .cls-2 {
        fill: #252b18;
      }

      .cls-2, .cls-3, .cls-4 {
        stroke: #252b18;
        stroke-miterlimit: 10;
      }

      .cls-3 {
        fill: #79c6bf;
      }

      .cls-4 {
        fill: none;
      }

      .cls-5 {
        fill: #affcd1;
      }
    </style>
  </defs>
  <!-- Generator: Adobe Illustrator 28.6.0, SVG Export Plug-In . SVG Version: 1.2.0 Build 709)  -->
  <g>
    <g id="MAIN">
      <path class="cls-2" d="M12.396,3.184l-7.66,4.197c-.562.308-.967.839-1.115,1.462l-2.524,8.539c-.125.525-.059,3.133.187,3.614l5.361,10.473c.336.656.969,1.107,1.698,1.211l11.819,1.678c.504.072,1.017-.029,1.457-.284l7.74-4.497c.518-.301.896-.795,1.051-1.374l2.359-8.836c.12-.451.233-2.341.072-2.779l-3.756-8.427c-.16-.435-.45-.811-.83-1.076l-4.785-3.336c-.348-.243-.758-.383-1.182-.404l-8.687-.434c-.418-.021-.834.075-1.202.276Z"/>
      <path class="cls-4" d="M12.396,1.045l-7.66,4.197c-.562.308-.967.839-1.115,1.462l-2.524,10.596c-.125.525-.059,1.077.187,1.557l5.361,10.473c.336.656.969,1.107,1.698,1.211l11.819,1.678c.504.072,1.017-.029,1.457-.284l7.74-4.497c.518-.301.896-.795,1.051-1.374l2.359-8.836c.12-.451.098-.928-.063-1.367l-3.621-9.84c-.16-.435-.45-.811-.83-1.076l-4.785-3.336c-.348-.243-.758-.383-1.182-.404l-8.687-.434c-.418-.021-.834.075-1.202.276Z"/>
      <path class="cls-3" d="M12.396,1.045l-7.66,4.197c-.562.308-.967.839-1.115,1.462l-2.524,10.596c-.125.525-.059,1.077.187,1.557l5.361,10.473c.336.656.969,1.107,1.698,1.211l11.819,1.678c.504.072,1.017-.029,1.457-.284l7.74-4.497c.518-.301.896-.795,1.051-1.374l2.359-8.836c.12-.451.098-.928-.063-1.367l-3.621-9.84c-.16-.435-.45-.811-.83-1.076l-4.785-3.336c-.348-.243-.758-.383-1.182-.404l-8.687-.434c-.418-.021-.834.075-1.202.276Z"/>
      <path class="cls-5" d="M3.064,17.656c.561-1.809,1.002-3.635,1.472-5.47.235-.916.483-1.828.745-2.736.257-.891.351-2.029,1.165-2.564,1.59-1.044,3.429-1.83,5.108-2.727.83-.443,1.647-1.021,2.609-1.057.892-.033,1.814.106,2.705.159.95.057,1.899.114,2.849.171.927.056,1.841,0,2.671.458.745.411,1.439,1.018,2.133,1.511.727.517,1.766,1.041,2.351,1.718.521.603.66,1.64.947,2.372.254.647.547,1.274.837,1.906.763,1.663,1.498,3.347,2.127,5.066.229.626,1.183.386,1.013-.279-.518-2.037-1.427-3.93-2.137-5.901-.531-1.475-.809-3.432-2.047-4.488-.837-.715-1.813-1.306-2.71-1.943-.753-.535-1.502-1.216-2.362-1.564-.731-.296-1.573-.271-2.349-.318-1.187-.072-2.374-.143-3.561-.215-1.014-.061-2.116-.261-3.126-.104-.826.128-1.553.603-2.279.991-.993.53-1.986,1.06-2.98,1.59-.952.508-2.087.943-2.941,1.602-.638.492-.829,1.113-1.058,1.86-.324,1.054-.622,2.117-.905,3.182-.584,2.201-1.068,4.376-1.263,6.646-.05.582.825.655.986.133h0Z"/>
      <g>
        <path class="cls-1" d="M26.01,13.822c-3.295-.328-6.601-.35-9.9-.092,1.054-1.844,2.053-3.771,2.682-5.791.024-.078.014-.148-.009-.212.063-.296-.173-.675-.569-.595-1.021.207-2.045.402-3.07.587-.503.091-1.006.178-1.508.269-.499.091-1.054.139-1.519.345-.171.076-.205.218-.165.352-.036.037-.065.079-.084.131-.502,1.379-.756,2.875-1.056,4.309-.304,1.449-.58,2.902-.834,4.36-.028.159.019.321.116.437-.046.742,1.914.573,2.276.555,1.717-.089,3.433-.178,5.15-.267-1.197,2.352-2.267,4.767-3.147,7.254-.128.261-.256.522-.385.783-.067.137-.064.269-.02.382-.032.1-.071.197-.103.297-.153.481.451.737.784.456,4.463-3.761,8.408-8.08,11.766-12.854.225-.319-.086-.674-.405-.705ZM15.401,25.487c.598-1.218,1.197-2.436,1.795-3.654.687-1.398,1.551-2.809,1.944-4.326.074-.287-.142-.601-.451-.593-2.564.07-5.128.141-7.692.211.234-1.31.476-2.618.747-3.92.29-1.394.677-2.788.867-4.2.399-.009.823-.101,1.202-.153.526-.073,1.052-.157,1.576-.245.827-.139,1.651-.298,2.475-.46-.984,1.969-1.883,3.966-2.998,5.873-.167.285.041.739.405.705,3.287-.306,6.583-.308,9.869-.032-2.845,3.944-6.11,7.559-9.738,10.793Z"/>
        <path class="cls-5" d="M13.28,10.231c.623.002,1.238-.053,1.855-.134.337-.045.672-.105,1.006-.173.37-.075.74-.166,1.033-.414.318-.27.163-.902-.257-.973-.382-.065-.752.041-1.12.139-.285.076-.573.142-.859.213-.592.145-1.189.27-1.786.397-.539.115-.406.944.128.946h0Z"/>
        <path class="cls-5" d="M16.373,15.492c2.254.403,4.583.599,6.874.417.743-.059.765-1.164,0-1.173-2.254-.027-4.508-.006-6.761-.077-.468-.015-.591.748-.113.833h0Z"/>
      </g>
    </g>
  </g>
</svg>