<?xml version="1.0" encoding="UTF-8"?>
<svg xmlns="http://www.w3.org/2000/svg" version="1.1" viewBox="0 0 35 35">
  <defs>
    <style>
      .cls-1, .cls-2 {
        fill: #252b18;
      }

      .cls-2, .cls-3, .cls-4 {
        stroke: #252b18;
        stroke-miterlimit: 10;
      }

      .cls-3 {
        fill: #f7cc75;
      }

      .cls-5 {
        fill: #fff9e6;
      }

      .cls-4 {
        fill: none;
      }
    </style>
  </defs>
  <!-- Generator: Adobe Illustrator 28.6.0, SVG Export Plug-In . SVG Version: 1.2.0 Build 709)  -->
  <g>
    <g id="MAIN">
      <path class="cls-2" d="M12.396,3.184l-7.66,4.197c-.562.308-.967.839-1.115,1.462l-2.524,8.539c-.125.525-.059,3.133.187,3.614l5.361,10.473c.336.656.969,1.107,1.698,1.211l11.819,1.678c.504.072,1.017-.029,1.457-.284l7.74-4.497c.518-.301.896-.795,1.051-1.374l2.359-8.836c.12-.451.233-2.341.072-2.779l-3.756-8.427c-.16-.435-.45-.811-.83-1.076l-4.785-3.336c-.348-.243-.758-.383-1.182-.404l-8.687-.434c-.418-.021-.834.075-1.202.276Z"/>
      <path class="cls-4" d="M12.396,1.045l-7.66,4.197c-.562.308-.967.839-1.115,1.462l-2.524,10.596c-.125.525-.059,1.077.187,1.557l5.361,10.473c.336.656.969,1.107,1.698,1.211l11.819,1.678c.504.072,1.017-.029,1.457-.284l7.74-4.497c.518-.301.896-.795,1.051-1.374l2.359-8.836c.12-.451.098-.928-.063-1.367l-3.621-9.84c-.16-.435-.45-.811-.83-1.076l-4.785-3.336c-.348-.243-.758-.383-1.182-.404l-8.687-.434c-.418-.021-.834.075-1.202.276Z"/>
      <path class="cls-3" d="M12.396,1.045l-7.66,4.197c-.562.308-.967.839-1.115,1.462l-2.524,10.596c-.125.525-.059,1.077.187,1.557l5.361,10.473c.336.656.969,1.107,1.698,1.211l11.819,1.678c.504.072,1.017-.029,1.457-.284l7.74-4.497c.518-.301.896-.795,1.051-1.374l2.359-8.836c.12-.451.098-.928-.063-1.367l-3.621-9.84c-.16-.435-.45-.811-.83-1.076l-4.785-3.336c-.348-.243-.758-.383-1.182-.404l-8.687-.434c-.418-.021-.834.075-1.202.276Z"/>
      <path class="cls-5" d="M3.064,17.656c.561-1.809,1.002-3.635,1.472-5.47.235-.916.483-1.828.745-2.736.257-.891.351-2.029,1.165-2.564,1.59-1.044,3.429-1.83,5.108-2.727.83-.443,1.647-1.021,2.609-1.057.892-.033,1.814.106,2.705.159.95.057,1.899.114,2.849.171.927.056,1.841,0,2.671.458.745.411,1.439,1.018,2.133,1.511.727.517,1.766,1.041,2.351,1.718.521.603.66,1.64.947,2.372.254.647.547,1.274.837,1.906.763,1.663,1.498,3.347,2.127,5.066.229.626,1.183.386,1.013-.279-.518-2.037-1.427-3.93-2.137-5.901-.531-1.475-.809-3.432-2.047-4.488-.837-.715-1.813-1.306-2.71-1.943-.753-.535-1.502-1.216-2.362-1.564-.731-.296-1.573-.271-2.349-.318-1.187-.072-2.374-.143-3.561-.215-1.014-.061-2.116-.261-3.126-.104-.826.128-1.553.603-2.279.991-.993.53-1.986,1.06-2.98,1.59-.952.508-2.087.943-2.941,1.602-.638.492-.829,1.113-1.058,1.86-.324,1.054-.622,2.117-.905,3.182-.584,2.201-1.068,4.376-1.263,6.646-.05.582.825.655.986.133h0Z"/>
      <g>
        <path class="cls-5" d="M10.675,12.536c2.36.3,4.809-.928,6.613-2.343l-.903.117c1.817,1.083,3.808,1.835,5.89,2.209.942.169,1.345-1.274.398-1.443-1.965-.351-3.819-1.032-5.535-2.053-.312-.186-.64-.09-.903.117-1.706,1.342-3.655,1.804-5.699,2.362-.617.168-.416.965.14,1.036h0Z"/>
        <g>
          <path class="cls-1" d="M24.643,15.831c.128-1.665.07-3.351-.133-4.983-.036-.288-.199-.464-.494-.494-2.451-.253-4.761-1.174-6.762-2.603-.131-.094-.341-.081-.473,0-2.114,1.29-4.365,2.005-6.726,2.687-.085.025-.143.081-.179.149-.164-.045-.382.045-.379.251.002.112-.001.225-.001.337-.006.019-.023.028-.025.05-.18,1.862-.343,3.748-.38,5.618-.035,1.746.432,3.256,1.36,4.73,1.539,2.445,3.762,4.219,6.36,5.439.133.062.26.06.372.023.118.048.253.05.389-.041,1.09-.735,2.092-1.72,3.016-2.651.936-.944,1.805-1.973,2.5-3.108.371-.606.676-1.241.92-1.893.047-.053.087-.119.109-.207.027-.107.047-.215.072-.322.304-.967.466-1.968.454-2.982ZM16.991,8.707c1.949,1.404,4.19,2.257,6.564,2.574.243,2.339.104,4.617-.273,6.927-.048.05-.088.112-.115.189-.751,2.119-2.266,3.799-3.9,5.293-.416.38-.842.749-1.27,1.115-.332.283-.474.457-.923.505-.432.046-.6-.063-.967-.267-.904-.503-1.729-1.131-2.461-1.861-1.465-1.459-2.553-3.302-3.11-5.294-.637-2.274-.186-4.556-.46-6.849.023.004.036.023.063.021,2.409-.204,4.759-1.168,6.852-2.352Z"/>
          <path class="cls-1" d="M11.494,19.367c.001.006.003.012.004.018.013.031.027.063.04.094.025.046.059.083.102.111.025.025.054.041.087.051.047.025.098.036.152.034l.105-.014c.031-.013.063-.027.094-.04.046-.025.083-.059.111-.102.035-.038.059-.083.071-.134.001-.006.002-.012.004-.018.019-.071.019-.142,0-.212-.019-.068-.053-.126-.103-.176l-.081-.062c-.062-.036-.129-.054-.202-.055-.055-.002-.106.009-.154.034-.049.016-.092.044-.128.083-.049.05-.084.109-.103.176-.019.071-.019.141,0,.212Z"/>
          <path class="cls-1" d="M13.287,22.175c.028.022.056.044.085.065.065.038.136.057.211.057.043-.003.092-.004.131-.016.033-.014.066-.028.1-.042.032-.017.061-.039.087-.067.022-.028.043-.056.065-.084l.002-.003c.037-.064.056-.133.056-.206,0-.074-.019-.143-.056-.206-.021-.03-.041-.061-.067-.087-.047-.047-.122-.094-.187-.109-.037-.005-.074-.01-.111-.015-.003,0-.005,0-.008,0h-.012c-.058-.003-.111.009-.161.035-.052.017-.097.046-.135.087-.041.038-.07.083-.087.135-.026.05-.038.104-.036.161.005.037.01.074.015.111.02.071.056.133.108.185Z"/>
          <path class="cls-1" d="M16.809,23.611c-.04,0-.076.01-.111.03-.054.018-.101.048-.141.091-.003.003-.006.007-.009.01-.041.038-.071.084-.088.137-.027.051-.039.105-.037.163l.015.113c.02.072.057.134.109.187.003.003.006.007.009.01.03.023.059.046.089.069.035.015.07.029.105.044.058.018.117.021.175.008.04,0,.076-.01.111-.03.037-.01.069-.029.097-.056.033-.019.059-.046.079-.079.027-.027.046-.06.056-.097.027-.052.04-.108.038-.169-.005-.039-.01-.078-.016-.116-.015-.035-.029-.07-.044-.105-.023-.03-.046-.059-.068-.089-.03-.023-.059-.046-.089-.068-.035-.015-.07-.029-.105-.044-.058-.018-.116-.021-.175-.008Z"/>
          <path class="cls-1" d="M21.693,18.085c.014.034.029.068.043.102.027.05.063.09.11.12.027.026.058.045.094.055.051.027.106.039.164.037.038-.005.076-.01.113-.015.034-.014.068-.029.102-.043.05-.027.09-.063.12-.11.038-.041.063-.09.076-.145l.002-.011c.005-.038.01-.076.015-.114-.004-.039-.01-.079-.016-.118-.014-.034-.029-.068-.043-.102-.027-.05-.064-.09-.11-.12-.027-.026-.058-.045-.094-.055-.051-.027-.106-.039-.165-.037-.038.005-.076.01-.114.015-.034.014-.068.029-.102.043-.05.027-.09.064-.12.11-.038.041-.063.09-.077.146-.003.02-.006.04-.008.061-.013.057-.01.114.008.171l.002.011Z"/>
          <path class="cls-1" d="M22.426,15.727c.068.039.14.059.219.059.06.002.115-.01.167-.037.054-.017.1-.047.139-.09.054-.054.091-.118.111-.191.021-.077.021-.153,0-.23-.01-.025-.019-.05-.029-.075l-.041-.096c-.025-.047-.06-.085-.104-.113-.025-.025-.055-.042-.089-.052-.048-.025-.1-.037-.155-.035-.036.005-.071.01-.107.014l-.096.041c-.047.025-.085.06-.113.104-.036.039-.06.085-.072.137-.01.025-.019.05-.029.075-.021.077-.021.153,0,.23.021.073.058.137.111.191.029.023.058.045.088.068Z"/>
          <path class="cls-1" d="M11.328,15.446c-.048-.025-.1-.037-.155-.035-.036.005-.071.01-.107.014l-.096.041c-.047.025-.085.06-.113.104-.036.039-.06.085-.072.137-.01.025-.019.05-.029.075-.021.077-.021.153,0,.23.021.073.058.137.111.191.029.023.058.045.088.068.068.039.14.059.219.059.06.002.115-.01.167-.037.054-.017.1-.047.139-.089.054-.054.091-.118.111-.191.021-.077.021-.153,0-.23-.01-.025-.019-.05-.029-.075l-.041-.096c-.025-.047-.06-.085-.104-.113-.025-.025-.055-.042-.089-.052Z"/>
          <path class="cls-1" d="M20.103,21.488c.068.039.14.059.219.059.06.002.115-.01.167-.037.054-.017.1-.047.139-.089.054-.054.091-.118.111-.191.021-.077.021-.153,0-.23-.01-.025-.019-.05-.029-.075l-.041-.096c-.025-.047-.06-.085-.104-.113-.025-.025-.055-.042-.089-.052-.048-.025-.1-.037-.155-.035-.036.005-.071.01-.107.014l-.096.041c-.047.025-.085.06-.113.104-.036.039-.06.085-.072.137-.01.025-.019.05-.029.075-.021.077-.021.153,0,.23.021.073.058.137.111.191.029.023.058.045.088.068Z"/>
          <path class="cls-1" d="M22.507,12.867c.076.047.12.046.206.056.005,0,.01.001.015.002.055.002.106-.009.153-.034.049-.016.092-.044.128-.082.039-.036.066-.079.082-.128.025-.047.036-.099.034-.153-.005-.035-.009-.071-.014-.106-.019-.067-.053-.126-.102-.176l-.081-.062c-.062-.036-.129-.054-.201-.054-.005,0-.01.001-.015.002-.087.011-.13.01-.206.056-.059.035-.106.082-.141.141-.036.061-.054.128-.054.199,0,.071.018.137.054.199.035.059.082.106.141.141Z"/>
          <path class="cls-1" d="M11.006,12.705c.077,0,.149-.02.216-.058.011-.005.022-.01.033-.015.062-.036.111-.086.147-.147.037-.064.056-.133.056-.207,0-.074-.019-.143-.056-.207-.036-.062-.086-.111-.147-.147-.011-.005-.022-.01-.033-.015-.067-.039-.139-.058-.216-.058-.077,0-.149.02-.216.058-.13.076-.212.219-.212.369s.082.293.212.369c.067.039.139.058.216.058Z"/>
          <path class="cls-1" d="M13.92,11.713s.001.001.002.002l.081.063c.007.004.091.039.098.041,0,0,.001,0,.002,0,.017.003.035.005.052.007.052.012.103.009.155-.007.055-.009.148-.062.183-.106.021-.027.042-.055.063-.082.014-.032.027-.064.041-.097.017-.054.019-.108.007-.161,0-.037-.009-.071-.028-.102-.01-.034-.027-.064-.052-.089-.018-.03-.042-.055-.073-.073-.025-.025-.055-.042-.089-.052-.048-.025-.1-.037-.156-.035l-.108.014c-.032.014-.064.027-.097.041-.027.021-.055.042-.082.063-.021.027-.042.055-.063.082-.014.032-.027.064-.041.097-.017.054-.019.108-.007.161,0,.036.009.071.028.102.016.05.044.094.084.13Z"/>
          <path class="cls-1" d="M16.439,10.684l.009.004c.016.008.031.015.048.02.045.023.093.034.145.032.04,0,.079-.006.117-.018.03-.012.059-.025.089-.037.043-.023.078-.055.104-.096.023-.023.039-.05.048-.082.023-.044.034-.092.032-.143-.004-.033-.009-.066-.013-.099-.012-.03-.025-.059-.037-.089-.023-.043-.055-.078-.096-.104-.036-.033-.078-.055-.126-.066-.003-.001-.007-.002-.01-.003-.017-.005-.035-.008-.053-.008-.018-.003-.036-.005-.054-.007-.033.005-.067.009-.1.013-.032.011-.063.024-.093.039-.003.001-.006.003-.009.004-.055.033-.099.077-.132.132-.033.058-.05.12-.05.186,0,.067.017.129.05.186.033.055.077.099.132.132Z"/>
          <path class="cls-1" d="M20.208,11.976c.03.055.07.099.122.133.029.029.064.05.104.061.056.03.117.043.182.041.053-.006.107-.012.159-.025.012-.003.025-.006.037-.009.036-.015.072-.031.109-.046.053-.029.096-.068.128-.117.028-.028.048-.062.059-.1.028-.054.042-.113.039-.175-.005-.04-.011-.081-.016-.121-.015-.036-.031-.072-.046-.109-.029-.053-.068-.096-.117-.128-.044-.04-.096-.067-.155-.081-.012-.003-.025-.006-.037-.009-.053-.013-.102-.018-.159-.025-.042.006-.084.011-.126.017-.061.015-.115.043-.161.085-.036.021-.064.049-.085.085-.042.046-.07.099-.085.161-.023.097-.023.154,0,.251.016.038.032.075.048.113Z"/>
        </g>
      </g>
    </g>
  </g>
</svg>