<?xml version="1.0" encoding="UTF-8"?>
<svg xmlns="http://www.w3.org/2000/svg" version="1.1" viewBox="0 0 35 35">
  <defs>
    <style>
      .cls-1 {
        fill: #bf7449;
      }

      .cls-1, .cls-2, .cls-3 {
        stroke: #252b18;
        stroke-miterlimit: 10;
      }

      .cls-4, .cls-2 {
        fill: #252b18;
      }

      .cls-5 {
        fill: #faaa55;
      }

      .cls-3 {
        fill: none;
      }
    </style>
  </defs>
  <!-- Generator: Adobe Illustrator 28.6.0, SVG Export Plug-In . SVG Version: 1.2.0 Build 709)  -->
  <g>
    <g id="MAIN">
      <path class="cls-2" d="M12.396,3.184l-7.66,4.197c-.562.308-.967.839-1.115,1.462l-2.524,8.539c-.125.525-.059,3.133.187,3.614l5.361,10.473c.336.656.969,1.107,1.698,1.211l11.819,1.678c.504.072,1.017-.029,1.457-.284l7.74-4.497c.518-.301.896-.795,1.051-1.374l2.359-8.836c.12-.451.233-2.341.072-2.779l-3.756-8.427c-.16-.435-.45-.811-.83-1.076l-4.785-3.336c-.348-.243-.758-.383-1.182-.404l-8.687-.434c-.418-.021-.834.075-1.202.276Z"/>
      <path class="cls-3" d="M12.396,1.045l-7.66,4.197c-.562.308-.967.839-1.115,1.462l-2.524,10.596c-.125.525-.059,1.077.187,1.557l5.361,10.473c.336.656.969,1.107,1.698,1.211l11.819,1.678c.504.072,1.017-.029,1.457-.284l7.74-4.497c.518-.301.896-.795,1.051-1.374l2.359-8.836c.12-.451.098-.928-.063-1.367l-3.621-9.84c-.16-.435-.45-.811-.83-1.076l-4.785-3.336c-.348-.243-.758-.383-1.182-.404l-8.687-.434c-.418-.021-.834.075-1.202.276Z"/>
      <path class="cls-1" d="M12.396,1.045l-7.66,4.197c-.562.308-.967.839-1.115,1.462l-2.524,10.596c-.125.525-.059,1.077.187,1.557l5.361,10.473c.336.656.969,1.107,1.698,1.211l11.819,1.678c.504.072,1.017-.029,1.457-.284l7.74-4.497c.518-.301.896-.795,1.051-1.374l2.359-8.836c.12-.451.098-.928-.063-1.367l-3.621-9.84c-.16-.435-.45-.811-.83-1.076l-4.785-3.336c-.348-.243-.758-.383-1.182-.404l-8.687-.434c-.418-.021-.834.075-1.202.276Z"/>
      <path class="cls-5" d="M3.064,17.656c.561-1.809,1.002-3.635,1.472-5.47.235-.916.483-1.828.745-2.736.257-.891.351-2.029,1.165-2.564,1.59-1.044,3.429-1.83,5.108-2.727.83-.443,1.647-1.021,2.609-1.057.892-.033,1.814.106,2.705.159.95.057,1.899.114,2.849.171.927.056,1.841,0,2.671.458.745.411,1.439,1.018,2.133,1.511.727.517,1.766,1.041,2.351,1.718.521.603.66,1.64.947,2.372.254.647.547,1.274.837,1.906.763,1.663,1.498,3.347,2.127,5.066.229.626,1.183.386,1.013-.279-.518-2.037-1.427-3.93-2.137-5.901-.531-1.475-.809-3.432-2.047-4.488-.837-.715-1.813-1.306-2.71-1.943-.753-.535-1.502-1.216-2.362-1.564-.731-.296-1.573-.271-2.349-.318-1.187-.072-2.374-.143-3.561-.215-1.014-.061-2.116-.261-3.126-.104-.826.128-1.553.603-2.279.991-.993.53-1.986,1.06-2.98,1.59-.952.508-2.087.943-2.941,1.602-.638.492-.829,1.113-1.058,1.86-.324,1.054-.622,2.117-.905,3.182-.584,2.201-1.068,4.376-1.263,6.646-.05.582.825.655.986.133h0Z"/>
      <g>
        <path class="cls-5" d="M17.329,10.175c.912.364,1.884.103,2.823.269.433.076.857.244,1.261.411.23.095.463.239.701.31l.126.058-.164-.217s.014.33.013.318c.05.882.313,1.732.663,2.54.182.42.388.828.601,1.232.224.426.425,1.026.851,1.28.416.249,1.029.049,1.056-.493.028-.547-.34-1.018-.586-1.489-.222-.424-.437-.852-.622-1.294-.175-.418-.316-.843-.402-1.288s-.007-.985-.206-1.396c-.232-.48-.806-.651-1.262-.844-.49-.207-.982-.374-1.506-.475-1.06-.206-2.073.14-3.128.084-.579-.031-.765.777-.221.994h0Z"/>
        <path class="cls-5" d="M13.851,12.703c.182.049.35.099.541.105.129.004.257-.005.385-.012.144-.008-.06,0,.097-.004.323-.011.645-.014.968-.019s.648-.001.972.011c.162.006.324.015.486.025.069.004.139.013.208.014.235.004.391-.066.579-.201.279-.201.342-.735.082-.977-.167-.155-.302-.264-.537-.292-.069-.008-.139-.007-.208-.01-.162-.006-.324-.01-.487-.012-.336-.004-.673.002-1.009.017-.364.016-.726.047-1.088.092-.16.02-.322.035-.479.073-.079.019-.157.042-.234.066-.097.03-.279.134-.32.158-.185.106-.308.279-.294.501.013.192.137.413.338.467h0Z"/>
        <path class="cls-5" d="M15.885,17.76c-.325-.019-.629.185-.701.511-.047.212-.009.414.068.614.059.152.171.288.263.423.076.111.157.219.235.328.153.212.307.425.46.637.155.214.325.421.472.642l-.103-.16.014.03-.06-.183c.008.018.011.037.01.057l.033-.392c-.015.066-.051.158-.048.225l.128-.352-.003.004.274-.231c-.217.097-.39.336-.4.578-.011.267.101.484.307.652.124.101.302.133.456.125.168-.008.296-.065.434-.165.308-.223.347-.65.204-.974-.066-.149-.197-.289-.298-.419-.152-.195-.309-.385-.465-.577-.151-.186-.302-.373-.454-.559-.08-.099-.162-.195-.246-.291-.03-.035-.061-.069-.09-.104-.018-.021-.074-.104-.012-.006.061.096.012.014.003-.01l.051.156c-.032-.118-.065-.221-.145-.318-.057-.07.081.157.038.054-.07-.163-.25-.284-.425-.294h0Z"/>
        <path class="cls-4" d="M26.259,14.863c-.468-1.103-1.141-2.148-1.842-3.115-.007-.01-.019-.013-.026-.022.174-.643.144-1.298-.336-1.894-.621-.772-1.797-1.284-2.846-1.326-.014-.034-.019-.069-.037-.102-.227-.424-.667-.578-1.123-.562-.4.014-.8.031-1.2.046-.775.03-1.566.033-2.142.635-.572.598-.925,1.357-1.342,2.063-.107.007-.214.006-.32.014-.451.034-.949.038-1.359.252-.322.168-.539.464-.758.743-.318.405-.635.81-.951,1.217-1.211,1.562-2.553,3.107-3.503,4.844-.196.359.22.853.573.524,1.112-1.034,2.018-2.274,2.954-3.466.477-.608.953-1.215,1.425-1.826.212-.274.413-.657.68-.877.241-.199.696-.141,1.003-.153.751-.028,1.506-.012,2.256.043.251.018.568.009.813.07.003.023.006.049.004.098-.007.18.023.367.024.548.003.276.039.664-.03.95-.052.007-.104.015-.156.021-.186.023-.372.043-.558.064-.775.09-1.55.179-2.325.268-.664.077-.688.856-.291,1.207.04.139.125.271.257.338.249.125.581.157.855.202.282.046.567.063.852.084.249.019.498.039.747.055.039.002.079.005.118.007.075.08.193.214.209.23.368.383.743.758,1.126,1.125.355.34.71.713,1.121.989.217.381.529.701.966.815.361.094.694.022,1.013-.106-.046.439-.092.877-.138,1.316-1.424.151-2.847.304-4.271.459-.188.021-.378.052-.566.062-.215.012-.183.039-.287-.071-.226-.24-.381-.597-.557-.876-.433-.683-.885-1.365-1.41-1.979-.337-.394-.896.019-.728.47.322.865.764,1.685,1.207,2.495.188.343.356.739.653,1.003.213.189.459.275.719.311-.082.112-.167.222-.248.332-.341.463-.678.929-1.011,1.397-.321.451-.637.905-.963,1.352-.149.204-.3.408-.469.596-.191.214-.391.373-.514.642-.195.425.269,1.029.74.876.567-.184.951-.731,1.297-1.198.336-.454.651-.924.973-1.388.328-.473.654-.946.974-1.424.133-.199.273-.401.407-.607.9-.079,1.79-.167,2.683-.311.452-.073.903-.157,1.355-.236.45-.079,1.004-.098,1.333-.454.302-.326.308-.843.376-1.261l.216-1.329c.023-.141.031-.384.094-.47.064-.088.345-.229.459-.306.386-.26.778-.512,1.156-.782.238-.17.286-.435.218-.677.092-.061.187-.119.266-.195.499-.483.438-1.158.187-1.75ZM22.681,10.391c.205.156.431.359.45.631.026.372-.238.794-.409,1.108-.37.681-.825,1.325-1.344,1.9-.246.273-.514.529-.791.771-.146.128-.296.252-.45.371-.047.036-.095.072-.142.107-.006-.008-.013-.016-.019-.023-.086-.107-.172-.214-.259-.322-.144-.179-.286-.362-.436-.537.222-.338.289-.793.299-1.299.003-.131.007-.276.01-.425.376-.69.705-1.411,1.052-2.114.132-.268.318-.577.458-.898.557.173,1.094.361,1.581.73ZM19.769,15.437h.011c-.069.052-.083.06-.011,0ZM17.853,10.584c-.387-.027-.775-.035-1.163-.038.067-.071.133-.143.198-.215.251-.277.446-.572.685-.784.021-.019.21-.162.14-.118.054-.034.115-.063.175-.086.009-.002.03-.007.069-.018.049-.01.099-.019.149-.025.019-.003.222-.022.119-.015.405-.028.813-.028,1.219-.043.103-.004.207-.006.311-.011-.009.018-.017.037-.026.055-.096.194-.192.388-.288.582-.158.318-.323.636-.486.954-.328-.194-.731-.214-1.101-.24ZM21.401,17.637c.039.014-.036-.076-.057-.108-.103-.157-.175-.349-.257-.516-.095-.194-.189-.397-.296-.592.1-.073.197-.148.289-.221.958-.756,1.799-1.688,2.451-2.719.06-.095.12-.194.18-.293.381.57.737,1.155,1.046,1.769.097.193.213.393.282.598.01.029.019.063.024.094-.065.064-.2.112-.277.155-.107.06-.213.121-.32.181-.231.131-.462.262-.694.393-.427.241-.854.482-1.282.723-.211.119-.421.24-.633.356-.092.05-.337.223-.458.18Z"/>
        <path class="cls-4" d="M8.025,19.464c.019-.135-.046-.268-.143-.356-.094-.086-.243-.148-.373-.11-.112.033-.223.069-.314.144-.068.056-.124.127-.18.194-.069.084-.137.168-.203.254-.129.17-.252.343-.374.518-.123.176-.093.418.064.562.15.137.409.161.565.014.154-.146.307-.292.455-.444.098-.101.193-.204.287-.309.035-.039.071-.078.1-.122.068-.104.099-.222.116-.344Z"/>
      </g>
    </g>
  </g>
</svg>