<?xml version="1.0" encoding="UTF-8"?>
<svg xmlns="http://www.w3.org/2000/svg" version="1.1" viewBox="0 0 35 35">
  <defs>
    <style>
      .cls-1 {
        fill: #cafcaf;
      }

      .cls-2, .cls-3 {
        fill: #252b18;
      }

      .cls-3, .cls-4, .cls-5 {
        stroke: #252b18;
        stroke-miterlimit: 10;
      }

      .cls-4 {
        fill: none;
      }

      .cls-5 {
        fill: #9abf5b;
      }
    </style>
  </defs>
  <!-- Generator: Adobe Illustrator 28.6.0, SVG Export Plug-In . SVG Version: 1.2.0 Build 709)  -->
  <g>
    <g id="MAIN">
      <path class="cls-3" d="M12.396,3.184l-7.66,4.197c-.562.308-.967.839-1.115,1.462l-2.524,8.539c-.125.525-.059,3.133.187,3.614l5.361,10.473c.336.656.969,1.107,1.698,1.211l11.819,1.678c.504.072,1.017-.029,1.457-.284l7.74-4.497c.518-.301.896-.795,1.051-1.374l2.359-8.836c.12-.451.233-2.341.072-2.779l-3.756-8.427c-.16-.435-.45-.811-.83-1.076l-4.785-3.336c-.348-.243-.758-.383-1.182-.404l-8.687-.434c-.418-.021-.834.075-1.202.276Z"/>
      <path class="cls-4" d="M12.396,1.045l-7.66,4.197c-.562.308-.967.839-1.115,1.462l-2.524,10.596c-.125.525-.059,1.077.187,1.557l5.361,10.473c.336.656.969,1.107,1.698,1.211l11.819,1.678c.504.072,1.017-.029,1.457-.284l7.74-4.497c.518-.301.896-.795,1.051-1.374l2.359-8.836c.12-.451.098-.928-.063-1.367l-3.621-9.84c-.16-.435-.45-.811-.83-1.076l-4.785-3.336c-.348-.243-.758-.383-1.182-.404l-8.687-.434c-.418-.021-.834.075-1.202.276Z"/>
      <path class="cls-5" d="M12.396,1.045l-7.66,4.197c-.562.308-.967.839-1.115,1.462l-2.524,10.596c-.125.525-.059,1.077.187,1.557l5.361,10.473c.336.656.969,1.107,1.698,1.211l11.819,1.678c.504.072,1.017-.029,1.457-.284l7.74-4.497c.518-.301.896-.795,1.051-1.374l2.359-8.836c.12-.451.098-.928-.063-1.367l-3.621-9.84c-.16-.435-.45-.811-.83-1.076l-4.785-3.336c-.348-.243-.758-.383-1.182-.404l-8.687-.434c-.418-.021-.834.075-1.202.276Z"/>
      <path class="cls-1" d="M3.064,17.656c.561-1.809,1.002-3.635,1.472-5.47.235-.916.483-1.828.745-2.736.257-.891.351-2.029,1.165-2.564,1.59-1.044,3.429-1.83,5.108-2.727.83-.443,1.647-1.021,2.609-1.057.892-.033,1.814.106,2.705.159.95.057,1.899.114,2.849.171.927.056,1.841,0,2.671.458.745.411,1.439,1.018,2.133,1.511.727.517,1.766,1.041,2.351,1.718.521.603.66,1.64.947,2.372.254.647.547,1.274.837,1.906.763,1.663,1.498,3.347,2.127,5.066.229.626,1.183.386,1.013-.279-.518-2.037-1.427-3.93-2.137-5.901-.531-1.475-.809-3.432-2.047-4.488-.837-.715-1.813-1.306-2.71-1.943-.753-.535-1.502-1.216-2.362-1.564-.731-.296-1.573-.271-2.349-.318-1.187-.072-2.374-.143-3.561-.215-1.014-.061-2.116-.261-3.126-.104-.826.128-1.553.603-2.279.991-.993.53-1.986,1.06-2.98,1.59-.952.508-2.087.943-2.941,1.602-.638.492-.829,1.113-1.058,1.86-.324,1.054-.622,2.117-.905,3.182-.584,2.201-1.068,4.376-1.263,6.646-.05.582.825.655.986.133h0Z"/>
      <g>
        <path class="cls-1" d="M10.455,11.751c.388.286.988.222,1.44.173.5-.055,1.001-.135,1.481-.288.414-.132.825-.321,1.187-.563.358-.238.851-.59,1.028-.999.13-.3.113-.635-.169-.846-.28-.209-.599-.16-.861.051-.141.114-.247.273-.379.399-.066.063-.135.124-.207.181.054-.043-.009.006-.029.021-.038.026-.075.053-.114.079-.154.102-.316.193-.482.274-.185.09-.228.106-.453.185-.405.142-.823.23-1.245.303-.436.075-.939.107-1.273.434-.19.186-.115.456.077.597h0Z"/>
        <path class="cls-1" d="M17.13,15.287c.544.528,1.206.712,1.944.774.33.028.662.022.993.037.149.007.298.017.446.035-.114-.014.094.018.124.023.088.017.175.038.261.064.074.022.149.045.221.076-.093-.04.053.031.079.045.272.148.558.237.849.071.279-.159.371-.514.254-.799-.095-.23-.289-.38-.509-.486-.659-.317-1.381-.371-2.102-.379-.354-.004-.708.002-1.06-.033-.045-.004-.09-.009-.135-.014-.112-.011.079.01-.033-.003-.077-.009-.154-.02-.231-.031-.107-.016.072.015-.036-.006-.163-.031-.324-.072-.47-.146-.481-.242-1.014.366-.596.772h0Z"/>
        <path class="cls-1" d="M22.475,16.802c.045.061.091.125.126.193.007.015.014.03.021.045.017.037.01.02-.021-.051,0,.027.025.064.034.091.049.14.089.284.125.428.072.288.124.58.165.874l-.023-.169c.01.083.008.162,0,.245l.023-.171c-.01.066-.088.249.008.04-.102.224-.111.456.046.66.156.201.381.253.624.213.266-.044.466-.278.548-.521.062-.184.045-.366.014-.553-.034-.206-.092-.413-.15-.613-.071-.246-.158-.495-.286-.717-.124-.215-.297-.42-.474-.594s-.457-.19-.652-.039c-.178.138-.276.442-.128.641h0Z"/>
        <path class="cls-1" d="M14.265,23.983c.271.312.591.597.965.778.202.098.412.184.628.244.257.072.535.131.795.047.194-.063.335-.216.362-.42.025-.182-.06-.422-.241-.504-.068-.031-.136-.069-.207-.089-.077-.021-.159-.025-.238-.036l.145.019c-.08-.011-.16-.022-.24-.031-.021-.002-.042-.005-.063-.007.091.013.107.014.049.006-.073-.014-.146-.026-.219-.044-.082-.02-.164-.043-.245-.069-.04-.013-.08-.027-.12-.042-.015-.006-.142-.05-.057-.022.083.028-.041-.019-.056-.027-.039-.018-.077-.036-.117-.053-.073-.032-.144-.067-.215-.105-.069-.037-.138-.077-.204-.121-.018-.012-.136-.088-.04-.028-.035-.022-.067-.055-.098-.082-.164-.141-.426-.173-.585,0-.161.175-.152.41,0,.585h0Z"/>
        <path class="cls-1" d="M17.734,25.295c.268.079.542.072.815.032.133-.02.272-.07.387-.136.077-.044.148-.101.213-.162.099-.093.16-.213.193-.343.047-.184,0-.379-.136-.514-.066-.066-.144-.111-.233-.136-.094-.025-.187-.025-.281,0l-.013.002.143-.019c-.015.002-.031.003-.046.004-.139.012-.19.026-.315.089-.035.018-.071.035-.106.054-.069.037-.138.074-.211.105l.137-.058c-.077.032-.158.057-.241.069l.146-.02c-.079.007-.158.006-.236-.003l.143.019c-.025-.003-.049-.008-.073-.012-.142-.029-.284-.021-.411.054-.111.065-.216.192-.245.319-.031.137-.024.29.054.411.076.118.182.205.319.245h0Z"/>
        <path class="cls-1" d="M12.305,13.699c.714-.036,1.391-.123,2.058-.393.332-.134.663-.282.963-.479.337-.221.674-.466.867-.829.103-.194.082-.437-.077-.596-.164-.164-.395-.169-.596-.077-.284.131-.513.343-.769.519-.258.177-.521.345-.8.487-.27.137-.464.207-.77.311-.285.097-.577.192-.877.223-.224.023-.417.175-.417.417,0,.217.191.429.417.417h0Z"/>
        <g>
          <path class="cls-2" d="M12.459,9.815s0,0,0,0c-.017.013-.034.026-.051.039.017-.013.034-.026.051-.039Z"/>
          <path class="cls-2" d="M12.496,9.787c-.016.013-.022.016-.033.025-.001,0-.002.003-.003.003.012-.009.024-.019.036-.028Z"/>
          <path class="cls-2" d="M11.604,10.121c.04.013.081.014.121.005.016,0,.029-.01.044-.014.017-.002.034.005.052,0,.038-.01.073-.026.106-.046.021-.013.042-.025.063-.036.037-.02.075-.038.114-.055.033-.013.066-.026.099-.037.02-.007.04-.012.06-.02.009-.003.017-.007.026-.01.092-.036.117-.053.173-.097.045-.03.081-.068.107-.117.021-.035.036-.074.049-.113.005-.037.01-.074.015-.111.002-.057-.01-.111-.036-.161-.01-.035-.028-.066-.054-.092-.029-.045-.068-.081-.117-.107-.035-.019-.071-.037-.11-.046-.024-.005-.098-.018-.122-.016-.04.004-.089.007-.128.017-.036.009-.079.031-.113.047-.027.013-.051.027-.075.044-.072.051-.144.104-.209.164-.04.037-.076.079-.111.121-.036.044-.07.088-.104.134-.024.032-.042.07-.053.108-.004.013.002.027,0,.04-.003.008-.007.016-.01.024-.013.04-.014.081-.005.121.009.064.035.13.084.174.039.036.084.062.134.078ZM12.121,9.967c.021-.009.041-.017.062-.026-.021.009-.042.018-.063.027,0,0,0,0,.001,0Z"/>
          <path class="cls-2" d="M24.85,15.775c-.707-1.041-1.904-1.644-3.101-1.929-1.329-.316-3.924.099-4.293-1.669-.011-.053-.034-.092-.057-.131.081-.163.147-.33.168-.5.031-.254-.066-.471-.16-.701-.102-.249-.207-.495-.318-.74-.181-.4-.371-.827-.616-1.2-.111-.559-.561-.85-1.125-.89-.618-.044-1.377.047-1.918.366-.426.251-.141.9.332.787.535-.127,1.022-.315,1.586-.254.476.051.194.522.01.765-.52.687-1.243,1.22-2.018,1.583-.777.363-1.649.538-2.506.501-.218-.009-.689-.029-.742-.308-.039-.208.197-.428.33-.547.182-.163.357-.318.525-.497.229-.245-.109-.559-.36-.36-.407.322-.901.459-1.171.943-.157.282-.168.609-.054.893-.022.044-.05.084-.051.14-.006.418.17.842.358,1.206.178.345.39.668.595.997.1.161.194.324.287.489.046.081.097.158.152.233.043.058.095.113.137.171.028.039.069.097.08.109.165.183.403.291.642.335.139.026.282.043.424.046.153.004.293-.03.433-.08.149.493.273.993.261,1.507-.017.768-.449,1.445-.678,2.16-.426,1.327-.495,2.823.055,4.125.02.047.05.087.071.134.386,1.147.981,2.21,1.969,2.98,1.512,1.178,3.667,1.257,5.469.831,1.763-.416,3.394-1.421,4.5-2.86,1.178-1.532,1.564-3.328,1.476-5.198.08-1.17-.03-2.461-.692-3.435ZM13.297,18.32c.455-1.228.168-2.388-.386-3.503.357-.05.718-.13,1.016-.288.19-.101.263-.356.179-.547-.094-.214-.294-.289-.516-.253-.208.033-.412.115-.619.16-.193.042-.386.072-.583.088-.212.018-.426.022-.639.016-.15-.004-.288.016-.384-.103-.116-.145-.204-.323-.301-.482-.112-.184-.233-.363-.347-.546-.042-.067-.078-.138-.117-.207.561.068,1.178-.021,1.656-.11.959-.18,1.879-.595,2.655-1.185.415-.315.945-.76,1.28-1.273.017.047.033.097.049.144.067.19.131.381.202.569.041.108.084.215.126.322.032.083.101.195.107.285.008.123-.098.268-.159.374-.083.144-.173.286-.274.418-.212.278-.47.531-.753.737-.196.143-.292.39-.161.615.113.193.418.305.615.161.307-.224.579-.479.825-.764.848,1.854,3.685,1.378,5.333,1.933,1.194.402,2.174,1.203,2.442,2.479.117.557.141,1.141.109,1.723-.292,1.45-.757,2.943-1.578,4.162-.839,1.247-2.182,2.109-3.617,2.508-.791.22-1.641.303-2.469.22-1.82-.304-3.541-1.403-4.179-3.168-.565-1.562-.058-3.016.487-4.485Z"/>
        </g>
      </g>
    </g>
  </g>
</svg>