<?xml version="1.0" encoding="UTF-8"?>
<svg xmlns="http://www.w3.org/2000/svg" version="1.1" viewBox="0 0 35 35">
  <defs>
    <style>
      .cls-1, .cls-2 {
        fill: #252b18;
      }

      .cls-2, .cls-3, .cls-4 {
        stroke: #252b18;
        stroke-miterlimit: 10;
      }

      .cls-5 {
        fill: #ffe270;
      }

      .cls-3 {
        fill: #f9a94b;
      }

      .cls-4 {
        fill: none;
      }
    </style>
  </defs>
  <!-- Generator: Adobe Illustrator 28.6.0, SVG Export Plug-In . SVG Version: 1.2.0 Build 709)  -->
  <g>
    <g id="MAIN">
      <path class="cls-2" d="M12.396,3.184l-7.66,4.197c-.562.308-.967.839-1.115,1.462l-2.524,8.539c-.125.525-.059,3.133.187,3.614l5.361,10.473c.336.656.969,1.107,1.698,1.211l11.819,1.678c.504.072,1.017-.029,1.457-.284l7.74-4.497c.518-.301.896-.795,1.051-1.374l2.359-8.836c.12-.451.233-2.341.072-2.779l-3.756-8.427c-.16-.435-.45-.811-.83-1.076l-4.785-3.336c-.348-.243-.758-.383-1.182-.404l-8.687-.434c-.418-.021-.834.075-1.202.276Z"/>
      <path class="cls-4" d="M12.396,1.045l-7.66,4.197c-.562.308-.967.839-1.115,1.462l-2.524,10.596c-.125.525-.059,1.077.187,1.557l5.361,10.473c.336.656.969,1.107,1.698,1.211l11.819,1.678c.504.072,1.017-.029,1.457-.284l7.74-4.497c.518-.301.896-.795,1.051-1.374l2.359-8.836c.12-.451.098-.928-.063-1.367l-3.621-9.84c-.16-.435-.45-.811-.83-1.076l-4.785-3.336c-.348-.243-.758-.383-1.182-.404l-8.687-.434c-.418-.021-.834.075-1.202.276Z"/>
      <path class="cls-3" d="M12.396,1.045l-7.66,4.197c-.562.308-.967.839-1.115,1.462l-2.524,10.596c-.125.525-.059,1.077.187,1.557l5.361,10.473c.336.656.969,1.107,1.698,1.211l11.819,1.678c.504.072,1.017-.029,1.457-.284l7.74-4.497c.518-.301.896-.795,1.051-1.374l2.359-8.836c.12-.451.098-.928-.063-1.367l-3.621-9.84c-.16-.435-.45-.811-.83-1.076l-4.785-3.336c-.348-.243-.758-.383-1.182-.404l-8.687-.434c-.418-.021-.834.075-1.202.276Z"/>
      <path class="cls-5" d="M3.064,17.656c.561-1.809,1.002-3.635,1.472-5.47.235-.916.483-1.828.745-2.736.257-.891.351-2.029,1.165-2.564,1.59-1.044,3.429-1.83,5.108-2.727.83-.443,1.647-1.021,2.609-1.057.892-.033,1.814.106,2.705.159.95.057,1.899.114,2.849.171.927.056,1.841,0,2.671.458.745.411,1.439,1.018,2.133,1.511.727.517,1.766,1.041,2.351,1.718.521.603.66,1.64.947,2.372.254.647.547,1.274.837,1.906.763,1.663,1.498,3.347,2.127,5.066.229.626,1.183.386,1.013-.279-.518-2.037-1.427-3.93-2.137-5.901-.531-1.475-.809-3.432-2.047-4.488-.837-.715-1.813-1.306-2.71-1.943-.753-.535-1.502-1.216-2.362-1.564-.731-.296-1.573-.271-2.349-.318-1.187-.072-2.374-.143-3.561-.215-1.014-.061-2.116-.261-3.126-.104-.826.128-1.553.603-2.279.991-.993.53-1.986,1.06-2.98,1.59-.952.508-2.087.943-2.941,1.602-.638.492-.829,1.113-1.058,1.86-.324,1.054-.622,2.117-.905,3.182-.584,2.201-1.068,4.376-1.263,6.646-.05.582.825.655.986.133h0Z"/>
      <g>
        <path class="cls-5" d="M21.069,11.663c.132.032.202.075.344.086.075.006.152.005.227.005.176,0,.352-.013.528-.025.34-.022.678-.054,1.017-.093.379-.044.756-.099,1.133-.158.359-.056.832-.074,1.139-.278.243-.161.381-.417.341-.712-.035-.26-.237-.543-.512-.594-.419-.079-.87.067-1.283.156-.335.072-.67.14-1.004.215s-.666.149-.998.229c-.172.041-.345.078-.514.128-.072.021-.146.041-.217.067-.13.047-.188.108-.305.172-.326.179-.261.715.105.803h0Z"/>
        <path class="cls-5" d="M20.747,13.987c.345-.199.678-.419,1.027-.612.172-.095.347-.186.524-.272.197-.095.485-.195.587-.401.109-.221.013-.444-.215-.528-.237-.088-.559.079-.771.177-.19.087-.375.183-.556.289-.376.22-.732.466-1.035.78-.125.13-.139.331-.028.474.109.141.309.184.466.093h0Z"/>
        <path class="cls-5" d="M6.559,20.84c.275.144.592.188.894.244.33.06.665.096.998.134.294.033.588.063.882.088.325.028.696.093,1.01-.017.244-.085.457-.308.445-.584-.013-.29-.186-.478-.445-.584-.292-.119-.665-.077-.976-.083-.294-.005-.588-.015-.882-.028s-.587-.037-.88-.046c-.309-.01-.63-.045-.934.023-.386.087-.462.67-.112.853h0Z"/>
        <path class="cls-5" d="M9.044,18.767c.222.15.542.196.8.254.251.057.503.111.755.164s.505.104.759.148c.287.05.609.146.899.127.232-.015.507-.12.611-.351.089-.198.104-.335.071-.546-.038-.248-.279-.418-.495-.495-.275-.097-.609-.09-.9-.12-.257-.026-.513-.046-.771-.064s-.514-.033-.771-.047c-.266-.014-.587-.056-.842.029-.414.138-.472.659-.118.9h0Z"/>
        <path class="cls-5" d="M21.133,14.753c-.839.693-1.676,1.39-2.507,2.093-.409.346-.821.689-1.224,1.042s-.894.704-1.208,1.142c-.268.375.237.756.583.583.246-.123.459-.338.672-.511.202-.164.404-.328.604-.495.424-.354.839-.717,1.256-1.079.822-.711,1.638-1.428,2.451-2.149.179-.159.162-.465,0-.627-.183-.183-.442-.153-.627,0h0Z"/>
        <path class="cls-5" d="M14.598,20.376c-.133.113-.269.224-.407.332l.091-.071c-.141.107-.284.212-.425.318-.165.125-.342.254-.473.414-.063.076-.106.149-.119.249-.012.092,0,.196.051.276.04.063.093.115.156.156.082.053.24.081.334.044.091-.036.186-.067.266-.123.052-.037.105-.074.157-.112.137-.099.271-.203.395-.318.197-.182.39-.369.579-.56.157-.16.171-.448,0-.605-.082-.075-.189-.13-.302-.125-.119.005-.212.048-.302.125h0Z"/>
        <path class="cls-1" d="M25.91,9.13c-1.634.057-3.278.328-4.879.644-.419.083-.736.214-.871.652-.115.373-.179.77-.257,1.152-.084.415-.157.829-.217,1.248-.028.197-.068.401-.094.605-1.799,1.28-3.597,2.562-5.395,3.843-.886.631-1.775,1.258-2.658,1.894-.011.008-.023.017-.034.025-.024-.009-.046-.02-.07-.029-.144-.051-.289-.095-.437-.135-.305-.082-.615-.142-.924-.204-.298-.061-.598-.118-.891-.2-.315-.088-.69-.293-1.021-.188-.233.074-.347.293-.3.528.071.354.469.562.771.691.302.129.608.242.925.328.208.056.417.109.626.163-.367.277-.713.576-1.047.888-.42-.098-.84-.199-1.264-.279-.592-.111-1.253-.309-1.856-.18-.286.061-.41.486-.18.68.468.394,1.129.533,1.703.704.345.103.697.182,1.047.268-.078.244-.146.492-.236.732-.042.109-.084.218-.128.327-.006.015-.042.1-.046.111-.016.038-.033.077-.05.115-.117.264-.343.587-.312.879.024.224.103.415.307.535.188.11.437.115.625,0,.288-.176.392-.489.521-.784.112-.256.22-.515.321-.776.179-.467.333-.943.464-1.426.021-.078.023-.159.014-.239.343-.196.678-.405,1.006-.628-.083.25-.163.503-.234.757-.145.526-.296,1.05-.433,1.578-.082.319.105.7.441.776.326.074.692-.098.776-.441.133-.542.239-1.088.341-1.636.055-.294.095-.594.128-.891.014-.122.033-.248.049-.375.001,0,.003,0,.004-.002,1.369-.876,2.627-1.895,3.916-2.882.639-.489,1.287-.966,1.941-1.436.473-.34.963-.664,1.441-1.004.296.034.594.067.892.051.426-.023.854-.064,1.278-.118.823-.106,1.643-.247,2.457-.407.293-.058.468-.36.467-.647.141-.109.232-.271.322-.433.722-1.311,1.242-2.684,1.58-4.14.078-.335-.159-.708-.529-.695ZM23.737,13.258c-1.031.106-2.061.211-3.091.317.021-.077.043-.154.064-.229.088-.312.179-.625.253-.941.07-.298.132-.598.194-.898.031-.15.058-.301.085-.452.01-.055.02-.109.03-.163.12-.025.249-.039.346-.057.205-.037.41-.074.616-.108.411-.069.823-.13,1.236-.192.533-.079,1.067-.142,1.602-.205-.379,1.005-.819,1.989-1.333,2.928Z"/>
      </g>
    </g>
  </g>
</svg>