<svg width="90" height="63" viewBox="0 0 90 63" fill="none" xmlns="http://www.w3.org/2000/svg">
<g filter="url(#filter0_d_717_1173)">
<path d="M2.10999 32.82L7.05999 11.82L22.92 2.81996H31.34C34.97 3.14996 73.04 0.819957 76.61 2.81996C80.18 4.81996 85.03 19.32 87.02 26.32L83.06 44.32L37.3 56.82L12.53 54.32L2.10999 32.82Z" fill="#807555" stroke="#4E3C22" style="fill:#807555;fill:color(display-p3 0.5020 0.4588 0.3333);fill-opacity:1;stroke:#4E3C22;stroke:color(display-p3 0.3059 0.2353 0.1333);stroke-opacity:1;" stroke-width="2" stroke-miterlimit="10"/>
<path d="M6.57 10.95L6.19 11.17L6.09 11.59L1.14 32.59L1.06 32.94L1.21 33.26L11.62 54.76L11.86 55.26L12.42 55.32L37.19 57.82L37.37 57.84L37.55 57.79L83.31 45.29L83.89 45.13L84.02 44.54L87.98 26.54L88.03 26.29L87.96 26.05C86.96 22.53 85.24 17.12 83.32 12.32C82.36 9.92998 81.34 7.65998 80.32 5.85998C79.81 4.95998 79.29 4.14998 78.77 3.49998C78.26 2.84998 77.7 2.28998 77.09 1.94998C76.72 1.73998 76.23 1.60998 75.74 1.50998C75.22 1.40998 74.59 1.32998 73.88 1.25998C72.45 1.12998 70.63 1.04998 68.56 1.01998C64.41 0.949982 59.19 1.04998 53.97 1.18998C50.17 1.29998 46.37 1.42998 42.99 1.54998C41.73 1.58998 40.53 1.63998 39.41 1.66998C37.34 1.73998 35.55 1.79998 34.16 1.81998C32.75 1.84998 31.82 1.84998 31.43 1.81998H31.38H31.33H22.64L22.41 1.94998L6.57 10.95Z" fill="#807555" stroke="#4E3C22" style="fill:#807555;fill:color(display-p3 0.5020 0.4588 0.3333);fill-opacity:1;stroke:#4E3C22;stroke:color(display-p3 0.3059 0.2353 0.1333);stroke-opacity:1;" stroke-width="2" stroke-miterlimit="10"/>
</g>
<defs>
<filter id="filter0_d_717_1173" x="0.00842285" y="-0.00292969" width="89.0503" height="62.8581" filterUnits="userSpaceOnUse" color-interpolation-filters="sRGB">
<feFlood flood-opacity="0" result="BackgroundImageFix"/>
<feColorMatrix in="SourceAlpha" type="matrix" values="0 0 0 0 0 0 0 0 0 0 0 0 0 0 0 0 0 0 127 0" result="hardAlpha"/>
<feOffset dy="4"/>
<feColorMatrix type="matrix" values="0 0 0 0 0.388235 0 0 0 0 0.301961 0 0 0 0 0.184314 0 0 0 1 0"/>
<feBlend mode="normal" in2="BackgroundImageFix" result="effect1_dropShadow_717_1173"/>
<feBlend mode="normal" in="SourceGraphic" in2="effect1_dropShadow_717_1173" result="shape"/>
</filter>
</defs>
</svg>
